<svg id="OBJECTS" xmlns="http://www.w3.org/2000/svg" viewBox="0 0 237.68 316.04"><defs><style>.cls-1{fill:#1cc7c7;}.cls-2{fill:#44e0dd;}.cls-3{fill:#4185ae;}.cls-4{fill:#9d68ae;}.cls-5{fill:#f4b5c4;}.cls-6{fill:#f492a9;}.cls-7{fill:#004f74;}</style></defs><path class="cls-1" d="M52.73,86.09s4.35,29.71,2.59,41.65-7,27,3.75,33.25c0,0,0-11.81,3.68-17.63,0,0,1.72,8.58,2.39,15.31s5.2,20.83.79,28.79c0,0,15.19.91,17.33-13.63,0,0,11,3.53,14.38-13.93,0,0,13.89-4.59,15.07-29.71S74.24,67.71,74.24,67.71h-15Z"/><path class="cls-2" d="M65.77,96.32c.08-2.22-3.37-2.22-3.45,0q-.84,22.89-.51,45.78c0,2.23,3.48,2.23,3.45,0Q64.93,119.21,65.77,96.32Z"/><path class="cls-2" d="M84.61,171.73Q83.2,143.86,81.8,116c-.11-2.21-3.57-2.23-3.46,0l2.82,55.73C81.27,173.94,84.73,174,84.61,171.73Z"/><path class="cls-2" d="M88.92,122.73c-.13-2.21-3.59-2.23-3.46,0q1.49,24.33,1.7,48.72c0,2.22,3.48,2.23,3.46,0Q90.4,147.06,88.92,122.73Z"/><path class="cls-3" d="M39.85,197.81l23.48,61.72,34.31-27.37s-2.76-37.91,35.3-51.43l-.14-1.42s34.61,4.2,43-10.76l2.3,23.31s46.75,65.07,53.67,75.9,11.46,30.28-8.22,36.77S186.86,312.8,121,311.26A22,22,0,0,1,123.85,290l65.38-3.49-35.32-46.39s-18.81,20.4-29.19,27-52,37.57-66.66,41.46-23.43-8-27.37-31.15-9-75.87-9-75.87S31.12,197.48,39.85,197.81Z"/><path class="cls-4" d="M100.37,132.62s16.68,24.72,23.71,35.46l8.72,11.23s33.72,5.84,43-10.76l-6.59-26.73s3.61-12-.72-22.61S136.91,100.38,131.41,98s-13.15,2.23-13.15,2.23,14.46,24.34,5.82,31S103.06,134.76,100.37,132.62Z"/><path class="cls-5" d="M21.85,165.73a45.65,45.65,0,0,0,4,5.7c3,3.26,7.79,4.86,9.39,9.24a34.82,34.82,0,0,1,1.36,7.16c.31,2.24.63,4.48.94,6.72a69.22,69.22,0,0,0-15.19,3.23Q17.75,184.88,12,172.46c-3.79-8.09-8.56-17-5.93-26.13a32.36,32.36,0,0,0,2.57,2.11,1.61,1.61,0,0,0,.11,1.42c2.17,4,5.41,7.13,8.52,10.36A41.88,41.88,0,0,1,21.85,165.73Z"/><path class="cls-6" d="M110.63,81.08a22.26,22.26,0,0,1-.51,10.37c4.59,5.71,8.93,11.52,13.62,16.94-.48-.87-1-1.72-1.42-2.57a18.5,18.5,0,0,0,6.67-5.48c1.33.84,3.42-.68,2.42-2.32l-2.51-4.14-1.26-2.06c-.18-.3-.38-.59-.54-.89-.31-.58-.35-.61,0-1.09.65-.91,2.17-1.65,3-2.34,1.15-.9,2.28-1.82,3.37-2.79.73-.65,1.45-1.33,2.16-2C127.15,84.41,118.56,84.94,110.63,81.08Z"/><path class="cls-5" d="M146.49,44.23c-1.47-3.86-3.63-7.77-7.15-10.1-2.88-1.9-7.12-2.63-8.81-5.92a.21.21,0,0,1,0-.06,1.72,1.72,0,0,0-.46-1C119.84,15.9,107.16,3.39,90.79,4.05c-16,.64-32,11.53-38.62,26A40.19,40.19,0,0,0,49.7,57.36a1.76,1.76,0,0,0,.22.5,198.54,198.54,0,0,0-39.77,60.19c-1.42,3.36-2.86,6.73-5.2,9.56-1.76,2.14-3.72,4.23-4.51,6.89-1.37,3.16.69,6.58,3,9.19a1.76,1.76,0,0,0-.38.64c-3.36,9.48.79,19,4.84,27.56a281.14,281.14,0,0,1,11.71,28.54,1.73,1.73,0,0,0,2.12,1.2,66.7,66.7,0,0,1,18.14-3.82A1.83,1.83,0,0,0,41,194.69q-.54-3.9-1.09-7.78a34.07,34.07,0,0,0-1.45-7.42c-1.71-4.53-5.66-6.37-9.06-9.39a25.73,25.73,0,0,1-4.24-5.64A40.28,40.28,0,0,0,20.8,159c-2.26-2.44-4.7-4.72-6.75-7.32a27,27,0,0,1,4.06,2.3c1.81,1.31,2.67,3.4,4.38,4.78a4.52,4.52,0,0,0,5.72.08c3.87-2.95,2.45-10,.68-13.77-1.26-2.68-3.55-4.51-5.84-6.31q-3.69-2.89-7.63-5.45,23.83-21.6,46.09-44.85l23.82,28.2c6.51,7.7,13.36,17.82,23.89,20a17,17,0,0,0,12.84-2,4.29,4.29,0,0,0,2.33-.84,1.77,1.77,0,0,0,1-.39c3.77-3,4.66-8.12,3.74-12.6s-3.19-8.46-5.39-12.41c-4.69-5.42-9-11.23-13.62-16.94a24.64,24.64,0,0,1-.87,2.5,24.64,24.64,0,0,0,.87-2.5l-1.91-2.34,1.91,2.34a22.26,22.26,0,0,0,.51-10.37,26.22,26.22,0,0,1-3.45-2,26.22,26.22,0,0,0,3.45,2,19.92,19.92,0,0,0-1.72-5.1,19.92,19.92,0,0,1,1.72,5.1c7.93,3.86,16.52,3.33,25,1.61,1-.94,1.87-1.92,2.74-2.94a1.92,1.92,0,0,0,.51-.41c4.62-5.43,8.71-11.83,9.14-19A30.92,30.92,0,0,0,146.49,44.23Z"/><path class="cls-5" d="M142.84,45.88a25.09,25.09,0,0,0-5.09-6.2,49.19,49.19,0,0,1-5.82-5.54c1,.59,2.16,1.11,3.24,1.64,3.67,1.79,5.86,4.53,7.52,8.24a25.84,25.84,0,0,1,1.71,5.21A23.66,23.66,0,0,0,142.84,45.88Z"/><path class="cls-5" d="M120.94,289.92l-.09.05a1.66,1.66,0,0,0-.72-.46c-7.34-2.59-15.88-6.11-22,.81a35.77,35.77,0,0,1-3.37,3.79,12.63,12.63,0,0,1-5.34,2.29c-4.61,1.21-9.24,2.4-13.86,3.59-3.83,1-8.23,1.6-11.38,4.18-2.46,2-5.37,5.79-2.82,8.87s7.7,2.91,11.25,3c4.49.08,9-.13,13.48-.32q15.94-.69,31.79-2.58a1.8,1.8,0,0,0,1.51-1.17,1.52,1.52,0,0,0,1.47-2.08c-1.76-4.68-3.83-14,1.8-17C124.65,291.87,122.9,288.88,120.94,289.92Z"/><path class="cls-1" d="M49.92,57.86s20.63-8.3,34.64,7.79,26.93,28.64,26.93,28.64S119.65,84.4,110,72c0,0,11.3,3.62,13.9-6.06,0,0-10.55,4.33-15.46-1.3S99,55.18,97.64,43.36c0,0,3.88-3.88,2.72-11,0,0,9.54-1.88,8.38-11.12,0,0,10.37-1.3,9.37-8.52s-17.17-16.76-38-11S52.55,19.69,49.23,29.66c0,0-14.94,10.7-6.53,36.11Z"/><path class="cls-2" d="M108.39,70.11A47.67,47.67,0,0,1,85,39.81c-.54-2.16-3.87-1.24-3.34.92a51.14,51.14,0,0,0,25,32.37C108.6,74.16,110.35,71.17,108.39,70.11Z"/><path class="cls-2" d="M80.86,57.65A63.89,63.89,0,0,0,70.62,33.39c-1.26-1.81-4.26-.09-3,1.74a61.61,61.61,0,0,1,9.89,23.44C78,60.75,81.29,59.83,80.86,57.65Z"/><path class="cls-2" d="M107.94,21.49a49.3,49.3,0,0,0-54.16,6.57,1.83,1.83,0,0,0-.36.44c-2,.55-1.12,3.77,1,3.3a77.54,77.54,0,0,1,42.49,2.75c2.1.75,3-2.59.91-3.33a80.72,80.72,0,0,0-37.36-4c13.3-8.91,31.42-10.18,45.72-2.78C108.16,25.5,109.91,22.52,107.94,21.49Z"/><path class="cls-6" d="M139.5,51.13a8.86,8.86,0,0,0-2.7-5.49c-1.94-2.64-5.14-4.06-8.59-2.06s-5.12,7-3.1,10.6a7.61,7.61,0,0,0,6.32,5.15,7.43,7.43,0,0,0,7.88-5.69,9.1,9.1,0,0,0,.16-.91c0-.11,0-.22.05-.33A4.89,4.89,0,0,0,139.5,51.13Z"/><path class="cls-7" d="M55.36,94.39c0,.11.17.07,0,.1S55.29,94.38,55.36,94.39Z"/><path class="cls-7" d="M65.73,70.52c.48.38-.11.72.18,1.12,0,0-.29-.06-.23,0,.36.39,0,.88-.37,1.23l-.07,0c-.07.06.18.21.12.28s-.07,0-.14,0c.15.05,0,.16.16.21-.07,0-.2,0-.27,0l.17.09c.41.21-.1.3.09.52,0,0-.07,0-.11,0,.2.34.07.68.1,1a.51.51,0,0,0-.25-.06.28.28,0,0,1,.23.26c-.2,0,.15.19,0,.26l0,0c.19.12-.14.08.09.2h-.17c.27.1-.17.07,0,.16l.06,0c0,.07-.1.07-.06.13h0c0,.14-.13.17.09.22-.18,0,0-.14-.32-.13a2.31,2.31,0,0,1-.14,1.28.61.61,0,0,1-.22,0c0,.05,0,.16.09.23a.22.22,0,0,0-.13,0c-.1.05.21.14.09.2a.29.29,0,0,0-.19-.09c.14.11.09.2.12.29a.36.36,0,0,0-.11-.06c.16.14-.09.15,0,.26l-.11-.06c-.18.08.25.11.13.19a.52.52,0,0,0-.13-.06c.19.17.07.31.11.44a.08.08,0,0,0-.05,0c0,.11-.12.21-.06.36S64,78.91,64,79c.24.07,0,.23.33.25-.07.09-.21.21-.15.31-.08-.08-.32-.06-.31-.14h-.17c-.09,0,.06,0-.08-.08s.06.2,0,.22c.12.13.38.29.37.43-.08-.09-.28-.06-.31-.11l.4.33s-.19-.06-.15,0a.3.3,0,0,1,.14.1s0,.19-.24.12,0-.08-.13-.07,0,.11,0,.19h0c-.06,0,0,.18.2.17s-.15,0-.06-.06A.21.21,0,0,1,64,81a.43.43,0,0,0-.15-.09.89.89,0,0,1,.2.44c.11,0-.19-.12-.12-.11-.21.08.11.38-.16.42,0,0,.16,0,.13,0s-.2,0-.16.06,0,.07,0,.13,0,0,0-.05c.06.1.1.41-.1.51.06,0,.19.18.17.21l-.14-.07c-.1,0,0,.12-.16.08.15.14,0-.35.06-.19-.13,0,.18.23,0,.13,0,.07.11.2-.05.22,0,0-.18-.14-.2-.08s.06.05.08.15l0,.08c.14.06-.06.08.12.11-.13,0,0,.17-.22.06l-.18-.09s.17.15.24.22l-.1,0c.29.12-.06.09.14.23-.13,0-.1.23-.3.19.06.11.13.21,0,.26s0,0-.07-.08,0,.06,0,.12-.21,0-.33,0c0,.1.21.14.3.19-.3-.06.1.27-.19.24,0,0-.09-.16-.19-.14-.3-.06.15.22,0,.26l.24.08c-.16,0,.07.2-.16.09.07.07-.12.08.1.17-.26.08-.06.45-.51.36,0,0,0,.08.08.12s-.06-.09,0-.07,0,.06.08.08-.11,0-.27-.08c-.19,0,.32.29.17.39-.09,0-.13,0-.14,0l.12.16c-.08.07-.23,0-.39-.12,0,.06,0,.11.07.19l-.22,0c.16,0,.07.09.1.13l0,0c-.07,0,0,0,0,.09a.28.28,0,0,0,.21,0c.06,0,0,.08.09.16-.15-.09-.15,0-.19.05s.12.12.1.13,0,.07-.14,0,.1,0,0-.06-.21-.07-.14,0,.31.14.17.18a1.54,1.54,0,0,0-.13-.12l-.12,0,.14.07c-.05,0-.05,0-.07,0s0,.14.13.25-.14,0-.17.06h0c-.11,0-.09.09,0,.18l0,0s0,.1,0,.17c-.13,0-.52-.25-.39-.09,0,.07.19.24.3.26-.16.07,0,.32-.28.32,0,0,.09,0,.1.1-.15.15,0,.46-.38.45,0-.08-.13-.07-.21-.12.1.11-.15,0,0,.11s.18.11.26.08c0,.14-.09.3-.23.29a.13.13,0,0,1,.12.09c-.19-.12-.26-.06-.23,0l.12.07-.15,0s.24.17.09.16l-.13-.06c.06.12.17.29,0,.3l-.2,0s.07.15.15.13c-.16.05-.22.11-.39.06a.67.67,0,0,1-.05.88L60.22,90c-.12,0,.13.12,0,.13s-.2-.07-.28-.18.09.2.09.28,0-.09.09,0-.15.06,0,.18a.9.9,0,0,1-.26-.17l.05.1c-.24-.06-.27-.36-.55-.45v.06c-.2-.06-.12-.24-.25-.17a.73.73,0,0,0,.37.31c0,.13.38.3.29.4s0-.1-.12-.17,0,.16-.06.17c.09,0,.24.14.25.2s-.14-.14-.21-.07c.09.07.12.19.23.17.2.17-.12,0,0,.2-.17-.07-.3-.31-.44-.27.16.08.14.24.39.34a.44.44,0,0,1-.26-.15c-.13,0,.2.29-.11.12l.14.12-.21,0s.12.27-.11.12c0,0-.07.12.12.19s-.07-.15.17,0c-.21-.07,0,.1,0,.18l-.1-.06s0,.08.06.16a.23.23,0,0,0-.14-.08l.12.11c0,.13-.25-.13-.27,0l-.06-.13s-.13,0-.12,0,.24.23.33.31-.15-.08-.06,0l-.1-.15s-.24-.1-.27,0,.15.25.26.23-.13,0-.2-.06c0,.1.14.08.17.19S59,92,58.81,92l-.16-.2,0,0c-.13-.17-.14-.06-.29-.21,0,0,0,.09,0,.14.33.11.31.36.58.51,0,.16-.66-.35-.35,0,.08,0,.23.22.21.09-.08.06.22.23.06.24s-.3-.11-.39-.3c.08.06.1,0,.08,0s-.25-.18-.3-.11,0,.13.1.21,0-.08.15,0-.24,0,0,.2c0-.07.18,0,.28.09v.11l-.09-.08c-.14.06.15.15,0,.24l-.22-.09c-.14-.14.18-.1-.09-.26-.06,0,.05.17-.06.18s0,0,0-.08-.39-.21-.25,0,.08.08.18.15,0,.23,0,.31c-.18-.15-.1.11-.24-.11.13,0,.24-.11.08-.28s.09-.06-.12-.24c-.07.08-.29-.09-.44-.18s0,.08,0,.11a2.82,2.82,0,0,0,.29.18c-.1.07-.09.21,0,.36-.09,0-.22-.13-.2-.17a.6.6,0,0,1-.27.32c.27.09,0,.15.19.24a.44.44,0,0,1,.36.16s-.1-.08-.16-.1c.09.14-.24-.07-.08.11,0-.15-.26-.22-.42-.36,0,.14-.12-.1-.17,0a1,1,0,0,1,0,.4c-.24,0-.2.25-.26.35s-.29-.2-.37-.18.25.12.09.14l0,0c0,.06-.26,0,0,.3l-.19-.19s0,0,0,.08-.15-.08-.17-.14c-.19-.06-.07.13-.1.19l.15.06c0,.17-.16.15-.19.28l-.12-.1,0,.11c-.11-.11-.22-.11-.15,0l-.18-.38c.11,0,.11.16.25.23s.16-.05.05-.16,0,.05,0,.11c-.17-.12-.13-.17-.22-.28s-.08,0,0,0c0-.1,0-.15,0-.21,0,.09.12.06.15.12-.14-.12-.14-.21-.05-.25s0-.22.11-.27a1.11,1.11,0,0,1,.23.39c.12,0,0-.07.16-.06-.09-.11-.25-.26-.27-.38l.12.08c0-.11-.17-.23-.08-.29a1.59,1.59,0,0,0,.35-.32l.12.08c-.2-.24,0-.26,0-.42.21,0,.1-.37.35-.29a1.73,1.73,0,0,1,.36-.79l.14.16c-.1-.13.11,0,.12,0-.17,0-.14-.18-.22-.28.21,0,.16-.27.11-.44l.12.07c-.15-.24.12-.23.24-.33s.18.06.19,0-.1-.22-.16-.4a.59.59,0,0,1,.3-.18c-.1-.45.25-.62.26-1l.16.07c-.12-.46.35-.64.33-1l.23.17c.12,0,0-.21-.14-.29.11,0,0-.26.22-.19s-.06-.16-.06-.24a.4.4,0,0,0,.23-.35l0,0s.15.11.18.08.18-.17-.14-.28c.25-.06.06-.44.37-.47-.09,0-.08-.08-.13-.13s.31-.2.24-.38c0,0,.12.11.15.06s-.1-.06-.13-.13c0-.3.4-.37.46-.6a4,4,0,0,1,.44-1.17l.06,0c-.17-.22.37-.17.06-.43.07,0,.08-.09.19,0-.13-.17.28-.2.13-.43,0,0,0,0,0,0,.2-.08.07-.29.26-.39a.2.2,0,0,0,.09.1c.14,0-.2-.25.11-.15,0,0-.14-.09-.14-.07.27-.28.21-.71.28-1.08.28-.18.52.19.37-.1.07,0-.11-.06,0,0s.39,0,.25-.1-.09-.08-.2-.13c.18-.1.36-.06.27-.24l.09,0c-.22-.25,0-.36-.29-.6.11-.4.19-.8.27-1.2s.14-.8.24-1.18a7.87,7.87,0,0,0,.35-1.14,6,6,0,0,1,.4-1.12c.32-.12.31-.13.26-.36,0,0,0,0,.09,0-.22-.07,0-.15-.19-.22a4.88,4.88,0,0,0,.19-.86s.18.12.18.06l-.13-.09H64a.22.22,0,0,0-.21-.09,2.55,2.55,0,0,1,.29-1.11,3.58,3.58,0,0,0,.36-1.09,1,1,0,0,0,.07-.62,2,2,0,0,0,.57-1.63S65.63,70.26,65.73,70.52Z"/><path class="cls-7" d="M55.41,94.29c.1,0,.2,0,.28.17A2.61,2.61,0,0,1,55.41,94.29Z"/><path class="cls-7" d="M57.47,93.54s.05,0,.07,0,.06.1,0,.08S57.5,93.57,57.47,93.54Z"/><path class="cls-7" d="M57.81,93.19a.24.24,0,0,1,0,.25Z"/><path class="cls-7" d="M58.41,93.07q.14,0,.09.09S58.44,93.1,58.41,93.07Z"/><path class="cls-7" d="M58.24,92.91s.08,0,.14,0S58.37,93,58.24,92.91Z"/><path class="cls-7" d="M59,92.27s0-.11.07-.06C59,92.18,59.15,92.37,59,92.27Z"/><path class="cls-7" d="M59.17,91.81s0,0,0,0,.1.07.09.09Z"/><polygon class="cls-7" points="62.81 84.42 62.84 84.49 62.75 84.44 62.81 84.42"/><path class="cls-7" d="M64.16,81.09c0-.06.1,0,.12,0S64.17,81,64.16,81.09Z"/><polygon class="cls-7" points="64.32 79.11 64.31 79.12 64.12 79.05 64.32 79.11"/><path class="cls-7" d="M123.09,164.47c-.1-.08-.12.14-.1,0C123.06,164.42,123.13,164.4,123.09,164.47Z"/><path class="cls-7" d="M142,190.13c-.64.08-.6-.66-1.13-.74,0,0,.22-.18.09-.22-.58,0-.82-.67-.92-1.24l.08,0c0-.11-.3,0-.34-.11s.08,0,.12-.09c-.14.09-.18-.09-.3,0,0-.07.12-.15.14-.24l-.17.08c-.44.18-.24-.31-.55-.32,0,0,.08,0,.1-.07-.43-.08-.68-.45-1-.68a.51.51,0,0,0,.2-.16.31.31,0,0,1-.37,0c.12-.17-.26,0-.25-.18l0,0c-.22.07,0-.18-.24-.08l.08-.14c-.24.15,0-.2-.13-.16l0,0c-.1,0,0-.13-.09-.15l0,0c-.16-.07-.1-.24-.26-.09.1-.16.16.06.3-.17a3.59,3.59,0,0,1-1.14-1.05.44.44,0,0,1,.09-.22c-.07,0-.15-.12-.27-.08s.06-.1.06-.13-.26.08-.24-.06a.32.32,0,0,0,.19-.1c-.19,0-.25-.07-.35-.11a.24.24,0,0,0,.12-.05c-.22,0-.1-.19-.26-.19l.12,0c0-.22-.23.13-.25,0,.05,0,.09,0,.13-.07-.26.05-.33-.16-.47-.21l0,0c-.11-.09-.14-.25-.32-.3,0-.08.26-.18.13-.27-.2.17-.24-.13-.41.12,0-.12-.1-.34-.22-.35.11,0,.21-.24.29-.17l.07-.16c.09-.06,0,.08.11,0s-.21-.09-.21-.15c-.18,0-.47.14-.59,0,.12,0,.19-.2.26-.19l-.52.13s.15-.13.05-.15a.44.44,0,0,1-.16.06s-.18-.13,0-.31.1,0,.13-.06-.13,0-.19-.1l0,0c0-.08-.2-.08-.27.06s.11-.11.1,0a.26.26,0,0,1-.31-.09.56.56,0,0,0,.17-.07,1,1,0,0,1-.53-.12c-.09.07.21-.09.17,0,0-.25-.42-.16-.32-.43,0,0-.13.11-.11.09s.1-.18,0-.19c.08-.07-.07,0-.13-.07s0,0,.07,0c-.12,0-.44-.19-.44-.43-.05,0-.27.05-.29,0l.13-.08c.06-.09-.1-.11,0-.2-.21,0,.35.19.15.18.09-.1-.31,0-.12-.1-.06-.06-.25,0-.18-.18,0,0,.21-.08.16-.13s-.08,0-.18,0l-.09,0c-.13.09-.06-.1-.17,0,.1-.09-.17-.1,0-.24l.17-.11s-.22.06-.32.08a.2.2,0,0,1,.06-.07c-.25.17,0-.12-.28,0,0-.16-.17-.24-.05-.4-.13,0-.26,0-.27-.14s.06,0,.11,0,0-.06-.11-.08.07-.21.12-.33c-.13,0-.25.1-.33.16.19-.25-.31-.09-.15-.33.06,0,.2,0,.22-.09.2-.24-.28,0-.24-.19l-.18.18c.09-.14-.23-.07,0-.21-.1,0,0-.18-.21,0,0-.29-.41-.34-.13-.71-.05,0-.06-.09-.15,0s.12,0,.05.07-.08,0-.1,0,0-.14.19-.2c0-.21-.43.12-.46-.09.09,0,.11-.09.07-.12h-.21c0-.12.15-.19.29-.29-.06,0-.1-.11-.22-.05l.13-.19c-.1.13-.12,0-.17,0h.05c.06,0,0-.08-.06-.1a.22.22,0,0,0-.08.21c-.08,0-.09,0-.19,0,.14-.09,0-.16,0-.21s-.16,0-.17,0,0-.08.08-.12,0,.09,0,.07.16-.15,0-.15-.26.2-.24.05a1.54,1.54,0,0,0,.17-.05v-.14l-.13.08.06,0c-.15.07-.14-.1-.3,0s0-.15,0-.21h0c0-.1-.06-.14-.17-.12l0,0a.16.16,0,0,0-.18-.07c0-.14.46-.36.25-.33s-.32.05-.38.13c0-.19-.31-.19-.2-.45-.06,0-.09.05-.15,0-.08-.23-.43-.31-.29-.63.1,0,.13-.08.21-.13-.15,0,.08-.14-.13,0s-.17.11-.18.2c-.14-.08-.26-.25-.2-.39a.1.1,0,0,1-.13.06c.19-.11.16-.22.05-.24l-.12.07.09-.12c-.06,0-.26.13-.19,0a.32.32,0,0,0,.1-.1c-.13,0-.35,0-.31-.13l.13-.17s-.17,0-.19.08c0-.19,0-.28.09-.41a.88.88,0,0,1-.85-.56l.09-.05c0-.12-.17.06-.14,0s.14-.17.27-.18c0-.16-.23,0-.3-.07s.1,0-.05.09,0-.19-.18-.1a.71.71,0,0,1,.26-.16h-.12c.15-.2.46-.06.66-.3l-.07,0c.15-.17.3,0,.27-.16a.61.61,0,0,0-.44.2c-.13-.09-.44.2-.51.06s.09.09.21,0-.15-.08-.14-.17c0,.11-.23.17-.29.15s.19-.06.15-.17c-.11,0-.24,0-.26.13-.24.1,0-.14-.21-.09.14-.13.42-.13.43-.28-.14.11-.29,0-.47.2a.36.36,0,0,1,.24-.18c.06-.12-.37,0-.08-.18l-.17.08c0-.05.06-.1.12-.19s-.31,0-.08-.18c0,0-.1-.12-.23,0s.17,0,0,.19c.15-.17-.09-.1-.17-.1l.08-.07s-.07-.07-.17,0a.17.17,0,0,0,.12-.09l-.15.06c-.13-.06.22-.18.12-.26h.16s.07-.11,0-.14l-.41.17c-.09,0,.12-.12,0-.09l.2,0s.17-.18.12-.26-.3,0-.32.14c0,0,0-.14.12-.17-.09-.06-.12.1-.25.07.07-.08.12-.25.21-.38l.26-.06,0-.05c.21,0,.1-.11.31-.19,0-.05-.09-.05-.15-.06-.22.28-.46.13-.71.32-.16-.1.58-.48.08-.38-.05.07-.29.12-.16.16,0-.1-.3.11-.26-.07.16,0,.21-.24.44-.23-.09,0,0,.11,0,.11s.26-.16.2-.25a.16.16,0,0,0-.24,0c-.14.09.07.07-.1.13s.09-.24-.2-.12c.07.06-.08.17-.18.23l-.11,0,.11,0c0-.17-.2.07-.26-.07l.16-.18c.19-.07,0,.23.3,0,0-.09-.19,0-.17-.15l.09,0s.34-.29,0-.27c-.12,0-.11,0-.21.1-.11-.11-.24-.09-.31-.16.21-.11-.07-.16.19-.2-.09.12,0,.3.26.23s0,.13.29,0c-.06-.11.17-.25.32-.36,0,0-.09,0-.13,0s-.12.12-.27.21c0-.14-.18-.21-.36-.19,0-.08.2-.16.24-.12a.8.8,0,0,1-.24-.43c-.18.23-.15-.12-.31.06a.39.39,0,0,1-.27.29s.11-.06.15-.11c-.17,0,.15-.21-.09-.15.16.09.31-.15.5-.23-.16,0,.14-.08.08-.17a1,1,0,0,1-.41-.17c.1-.24-.19-.33-.27-.44s.3-.21.29-.29-.19.19-.16,0l0,0c-.07,0,0-.29-.3-.14l.25-.1s-.06,0-.1,0,.13-.11.2-.1c.12-.17-.11-.14-.16-.21l-.11.13c-.18-.07-.1-.24-.22-.33l.13-.08-.12,0c.14-.05.18-.17,0-.15h.44c-.05.1-.2,0-.31.14s0,.19.15.14,0,0-.11,0c.17-.12.21-.05.35-.09,0,0,0-.08,0-.05a.19.19,0,0,1,.21.1c-.1,0-.09.1-.16.11.17-.09.26-.05.27.08-.15.17.22.1.24.24a.89.89,0,0,1-.46.05c0,.12,0,.07,0,.19.14,0,.34-.13.47-.08l-.12.08c.11,0,.29-.06.31.06a2.74,2.74,0,0,0,.23.54l-.12.07c.3-.08.25.2.42.23,0,.24.34.3.19.51a2.56,2.56,0,0,1,.68.79l-.21.06c.16,0-.08.1,0,.14.1-.15.23,0,.36-.07,0,.22.21.31.41.36l-.12.08c.3,0,.2.25.26.43s-.13.14-.09.18a.76.76,0,0,1,.46.06.72.72,0,0,1,.08.4c.49.16.54.61.92.85l-.12.12c.51.14.52.73.86.91l-.26.13c0,.14.2.16.35,0,0,.13.27.14.11.33,0,.12.18,0,.27.09a.58.58,0,0,0,.25.44v-.05c-.06,0-.16.08-.15.13s.1.28.33,0c0,.29.42.33.33.65.07-.06.11,0,.18,0,.11.15.07.43.29.46,0,.06-.16.05-.12.12s.1-.06.17,0c.32.16.22.63.42.83a5.64,5.64,0,0,1,1,1.17l-.06,0c.31,0,0,.46.4.34,0,.07.07.13-.06.19.23,0,.08.39.38.41,0,0,0,0-.06,0,0,.24.26.25.27.5a.23.23,0,0,0-.14,0c-.05.14.34,0,.11.21,0,0,.15-.07.12-.09.16.43.61.68.94,1,0,.38-.42.35-.07.41,0,.05.11-.06.05,0,.14,0-.19.34,0,.3s.11,0,.21-.11c0,.24-.1.38.12.41l-.1.06c.35,0,.36.23.73.14.67.77,1.42,1.41,2.07,2.16a29.12,29.12,0,0,1,1.8,2.31c-.06.36-.05.37.21.49,0,0-.06,0-.08.05.18-.13.13.13.31,0a9,9,0,0,0,.72.8c-.06,0-.22.07-.16.12l.16,0,0,.05c.06,0,.18,0,.2-.1.77.58,1,1.58,1.71,2.23.08.23.35.41.55.55a2.94,2.94,0,0,0,1.17,1.75S142.35,190.26,142,190.13Z"/><path class="cls-7" d="M123.19,164.58c-.09.08-.1.18-.27.2A2.69,2.69,0,0,1,123.19,164.58Z"/><path class="cls-7" d="M123.32,167.1s0,.05,0,.06-.12,0-.08,0S123.28,167.11,123.32,167.1Z"/><path class="cls-7" d="M123.56,167.62a.26.26,0,0,1-.27-.07Z"/><path class="cls-7" d="M123.49,168.29c0,.09-.1.1-.13.05A.69.69,0,0,1,123.49,168.29Z"/><path class="cls-7" d="M123.7,168.21s0,.08,0,.13S123.55,168.28,123.7,168.21Z"/><path class="cls-7" d="M124.07,169.35s.12,0,0,.11C124.16,169.39,123.93,169.41,124.07,169.35Z"/><path class="cls-7" d="M124.48,169.72s0,0,0,0a.11.11,0,0,1-.12.05Z"/><polygon class="cls-7" points="130.34 177.61 130.27 177.59 130.35 177.54 130.34 177.61"/><path class="cls-7" d="M132.94,181c.08,0-.05.09-.06.11S133,181.08,132.94,181Z"/><polygon class="cls-7" points="134.77 182.53 134.76 182.52 134.92 182.4 134.77 182.53"/><path class="cls-7" d="M21.6,168.62c-.09,0,0,.18-.08,0S21.6,168.55,21.6,168.62Z"/><path class="cls-7" d="M38.16,182.32a.39.39,0,0,1-.26-.44c0-.16,0-.34-.15-.45,0,0,.28,0,.2-.11-.45-.21-.3-.67-.11-1.11h.08c0-.08-.25-.08-.23-.16a.27.27,0,0,0,.14,0c-.16,0-.11-.1-.23-.09,0,0,.17-.09.22-.15l-.19,0c-.45.05-.07-.27-.34-.33a.25.25,0,0,0,.12,0c-.35-.11-.42-.41-.64-.6a.85.85,0,0,0,.23-.12.28.28,0,0,1-.33,0c.16-.12-.22,0-.17-.14l0,0c-.22.06.05-.14-.19-.05l.12-.12c-.26.13.08-.15-.07-.12l0,0c-.09,0,0-.1,0-.11l0,0c-.12,0,0-.19-.2-.07.12-.12.12,0,.3-.14a2.24,2.24,0,0,1-.77-.76.46.46,0,0,1,.11-.18c-.06,0-.12-.08-.23,0s.08-.08.07-.11-.23.1-.2,0a.36.36,0,0,0,.18-.12c-.17.07-.2,0-.29,0a.17.17,0,0,0,.11-.06c-.19.07-.06-.14-.2-.11l.11-.06c0-.19-.22.15-.21,0a.42.42,0,0,0,.12-.08c-.23.09-.28-.06-.39-.07l0,0c-.09,0-.11-.17-.26-.17,0-.07.23-.21.13-.25-.18.19-.2,0-.36.21,0-.09-.07-.26-.17-.23.1-.05.18-.26.25-.23l.06-.15c.08-.07,0,.06.1,0s-.19,0-.18-.06c-.16.07-.4.25-.5.21.1-.05.16-.24.22-.25l-.43.28s.12-.16,0-.14a.45.45,0,0,1-.14.1s-.15,0,0-.25.08,0,.1-.1-.11,0-.16,0l0,0c0-.05-.17,0-.22.15s.09-.13.07-.05a.2.2,0,0,1-.25.05s.08-.08.14-.13a.84.84,0,0,1-.43.11c-.08.1.15-.15.13-.09,0-.21-.35,0-.29-.22,0,0-.09.14-.07.11s.06-.18,0-.15-.06,0-.11,0,0-.05.06,0-.37,0-.4-.15c0,0-.2.16-.22.14l.1-.13c0-.09-.1,0,0-.16-.15.13.3,0,.15.08.05-.13-.24.14-.11,0,0,0-.2.09-.16-.07,0,0,.15-.15.11-.17s-.06,0-.15.06l-.07,0c-.09.13-.06-.06-.12.1.06-.11-.15,0,0-.21l.11-.16s-.16.15-.23.21a.47.47,0,0,1,0-.09c-.16.26-.06-.07-.22.11,0-.13-.16-.1-.1-.29-.09.05-.2.12-.22,0a.38.38,0,0,0,.08-.07c0-.1,0,0-.1,0a1.09,1.09,0,0,0,0-.31c-.1.05-.16.2-.22.29.1-.29-.24.09-.17-.19,0,0,.15-.08.15-.18.09-.29-.21.15-.22,0l-.1.23c0-.16-.18.07-.05-.16-.07.07-.05-.12-.16.1,0-.25-.36-.05-.24-.48,0,0-.07,0-.12.08s.09-.06.06,0-.05,0-.07.08,0-.1.09-.26-.28.32-.35.18.06-.13,0-.13l-.14.13c-.06-.08.06-.23.13-.39,0,0-.09,0-.17.08l.05-.21c0,.15-.08.07-.12.1l0,0c0-.07,0,0-.08,0a.26.26,0,0,0,0,.2c-.05.06-.07,0-.14.09.08-.14,0-.13,0-.17s-.1.12-.11.11,0,0,0-.14,0,.09,0,0,.08-.2,0-.13-.13.31-.16.18a.85.85,0,0,0,.11-.14l0-.11-.07.14a.24.24,0,0,1,0-.07c-.09.14-.13,0-.22.15s0-.13-.05-.16h0c0-.1-.08-.07-.16,0l0,0s-.08,0-.14.05c0-.13.22-.54.08-.39-.06,0-.2.22-.22.32-.06-.14-.28,0-.27-.23,0,.05-.05.09-.09.11s-.39,0-.38-.3c.07,0,.06-.14.1-.22-.09.11,0-.15-.1.06s-.08.19-.06.26a.19.19,0,0,1-.25-.17.17.17,0,0,1-.07.13c.09-.2,0-.26,0-.21l-.06.13,0-.15s-.13.25-.13.11,0-.1,0-.13-.24.22-.25.09l0-.2s-.12.1-.1.17c-.05-.15-.1-.19-.07-.36a.55.55,0,0,1-.75.11l0-.09c0-.11-.09.15-.1.07s0-.21.13-.3-.16.12-.23.14.07-.06,0,.09-.07-.14-.16.05a1.28,1.28,0,0,1,.13-.29l-.08.07c0-.24.29-.33.34-.62H26c0-.21.2-.17.13-.28a.86.86,0,0,0-.24.42c-.11,0-.23.42-.32.37s.09,0,.14-.16-.14,0-.16,0a.4.4,0,0,1-.14.28c0-.11.1-.16,0-.21-.06.1-.16.15-.13.25-.13.23,0-.1-.17.07.05-.18.24-.36.2-.48-.06.17-.2.18-.26.44a.48.48,0,0,1,.11-.28c0-.12-.24.25-.11-.08l-.09.16c0-.06,0-.11,0-.21s-.22.17-.11-.08c0,0-.11,0-.15.16s.12-.1.05.15c0-.21-.09,0-.15,0l0-.1s-.07,0-.12.09a.37.37,0,0,0,.05-.15l-.08.14c-.11,0,.09-.27,0-.26l.11-.09s0-.13,0-.1l-.23.38c-.07,0,.05-.16-.06,0l.13-.14s.06-.24,0-.26-.2.21-.17.31,0-.11,0-.2c-.09,0-.06.15-.15.21,0-.1,0-.26,0-.41l.16-.21,0,0c.13-.16,0-.15.14-.33s-.07,0-.12,0c-.05.34-.27.39-.36.68-.14,0,.22-.71-.08-.32,0,.08-.15.27-.05.22-.06-.06-.17.26-.2.11s.06-.31.22-.44c-.05.09,0,.09,0,.07s.12-.28.06-.31-.12,0-.17.14.07,0,0,.16,0-.23-.17,0c.06,0,0,.17,0,.28l-.09,0,.06-.1c-.07-.12-.12.18-.2.11l0-.23c.1-.17.1.14.21-.16-.06,0-.14.1-.17,0l.07,0s.13-.42-.06-.23-.05.1-.1.21-.19.09-.26.08c.1-.21-.11-.07.06-.26,0,.14.12.19.25,0s.06.07.19-.18c-.08,0,0-.29.09-.46s-.06,0-.09.06,0,.16-.11.32c-.07-.08-.19,0-.31.1,0-.09.08-.24.12-.24a.43.43,0,0,1-.31-.16c0,.28-.13,0-.18.25a.5.5,0,0,1-.08.38s.05-.11.06-.17c-.1.12,0-.25-.11-.05.13,0,.15-.31.26-.5-.12.09.06-.14,0-.17a.73.73,0,0,1-.33.15c0-.23-.25-.11-.34-.14s.13-.33.1-.39-.06.26-.11.12l0,0c-.05,0-.09-.22-.25.09l.13-.23s0,0-.07,0,0-.16.09-.2c0-.19-.12,0-.18,0l0,.16c-.15.07-.15-.1-.27-.09l.06-.14-.09.06c.07-.13.06-.24,0-.14l.29-.28c0,.1-.11.15-.15.3s.08.13.15,0,0,0-.09,0c.07-.2.12-.17.2-.29s0-.07-.05,0,.12-.08.18-.06,0,.13-.07.18c.07-.17.15-.2.2-.12s.19-.07.25,0a1.26,1.26,0,0,1-.29.33c0,.11.06,0,.07.13a1.4,1.4,0,0,1,.29-.37l0,.14c.08,0,.17-.24.23-.17a1.18,1.18,0,0,0,.34.24l-.06.13c.18-.25.24,0,.36-.11.08.18.34,0,.31.25a1.2,1.2,0,0,1,.73.13l-.12.17c.1-.12,0,.12,0,.11,0-.17.14-.17.22-.27,0,.19.25.09.4,0l-.05.13c.19-.2.22.06.32.15s0,.19,0,.19a.8.8,0,0,1,.33-.25.48.48,0,0,1,.19.24c.38-.18.56.12.91.06l0,.16c.4-.22.59.21.88.14l-.13.25c0,.11.19,0,.25-.19,0,.11.23,0,.18.18s.14-.08.21-.09a.32.32,0,0,0,.32.17l0,0s-.09.16-.06.19.15.15.24-.18c.06.25.4,0,.43.31,0-.09.07-.09.11-.14s.18.29.35.19c0,0-.1.13-.05.16s.05-.11.11-.14c.28-.06.34.36.55.41a2.67,2.67,0,0,1,1,.39l0,0c.22-.17.12.37.39.07,0,.07.08.08,0,.18.17-.11.15.28.38.14,0,0,0,0-.05,0,.05.2.26.08.32.27a.22.22,0,0,0-.1.08c0,.14.26-.18.12.12,0,0,.1-.13.08-.13.22.27.61.27.94.39.1.3-.29.47,0,.37,0,.06.07-.1,0,0s-.11.37,0,.25.09-.07.16-.17c.05.19,0,.36.15.3l-.07.08c.29-.17.32.06.62-.15A12.19,12.19,0,0,1,35.93,175a7.3,7.3,0,0,1,1.42,1.83c-.13.31-.12.31.09.42,0,0-.06,0-.09.05.2-.12.1.1.29,0a8.12,8.12,0,0,0,.45.74s-.22,0-.18.08l.16,0,0,0a.2.2,0,0,0,.21-.06,1.32,1.32,0,0,1,.29.5,2.19,2.19,0,0,1,.14.56,7,7,0,0,0,.22,1.14c-.05.2.1.42.18.61a2.49,2.49,0,0,0-.16,1.7S38.31,182.53,38.16,182.32Z"/><path class="cls-7" d="M21.71,168.64c0,.11,0,.19-.11.31A2.83,2.83,0,0,1,21.71,168.64Z"/><path class="cls-7" d="M22.68,170.33s0,0,0,.07-.07.08-.06,0S22.65,170.37,22.68,170.33Z"/><path class="cls-7" d="M23,170.54a.25.25,0,0,1-.2.13Z"/><path class="cls-7" d="M23.2,171.07c0,.09,0,.13-.07.11A.41.41,0,0,1,23.2,171.07Z"/><path class="cls-7" d="M23.31,170.87s0,.07,0,.13S23.24,171,23.31,170.87Z"/><path class="cls-7" d="M23.94,171.46s.09-.06.07,0C24,171.43,23.87,171.59,23.94,171.46Z"/><path class="cls-7" d="M24.35,171.46s0,0,0,0-.05.11-.07.11Z"/><polygon class="cls-7" points="30.64 173.89 30.59 173.91 30.64 173.83 30.64 173.89"/><path class="cls-7" d="M33.06,175.43c.07,0,0,.1,0,.11S33.11,175.45,33.06,175.43Z"/><polygon class="cls-7" points="34.57 176.07 34.56 176.06 34.7 175.92 34.57 176.07"/><path class="cls-7" d="M13.65,163.24c0,.06.18,0,.08,0S13.59,163.25,13.65,163.24Z"/><path class="cls-7" d="M12.18,149.44c.1.26,0,.32,0,.38s-.2.13-.1.3-.25-.16-.22-.08c.26.37-.05.47-.42.65l-.07,0c-.07,0,.18.15.13.19a.49.49,0,0,0-.14,0c.16,0,.06.1.17.14a2.62,2.62,0,0,0-.27,0l.18,0c.43.13-.05.18.18.3a.26.26,0,0,0-.12,0c.26.17.21.36.33.51a2.42,2.42,0,0,0-.25,0c.19,0,.25,0,.29.07-.19.05.2.05.1.11h-.05c.21,0-.11.08.15.05l-.15.06c.28,0-.13.09,0,.09h0c.08,0-.06.06,0,.07h0c.09,0-.06.13.16.06-.17.08-.1,0-.34.07.29.15.32.37.42.58a.88.88,0,0,1-.17.12s.07.06.19,0-.1.06-.11.07.24-.06.17,0a.64.64,0,0,0-.2.08c.17,0,.17,0,.24,0a.33.33,0,0,0-.12,0c.2,0,0,.1.13.08l-.12,0c-.1.14.25-.1.2,0a.39.39,0,0,0-.14.05c.24-.05.21.06.31.08l0,0s0,.13.14.14c0,0-.28.14-.21.18.23-.12.15.05.39-.12,0,.07-.06.19,0,.18-.1,0-.27.17-.31.14l-.12.11c-.09,0,0,0-.09,0s.14,0,.11.07c.16,0,.44-.14.5-.09-.1,0-.24.15-.29.15l.48-.15s-.18.1-.1.1a.49.49,0,0,1,.16,0s.1.06-.12.18-.07,0-.13.06.1,0,.12,0l0,0s.13,0,.24-.06-.13.07-.08,0,.2,0,.23,0a.77.77,0,0,0-.17.07.68.68,0,0,1,.39,0c.11-.05-.21.07-.16,0-.11.15.29.07.11.23,0,0,.15-.07.12-.06s-.16.12-.09.11c-.09.05.05,0,.08,0s0,0-.06,0,.3.09.2.23a.46.46,0,0,1,.25,0l-.15.05c-.07.06.05.06-.08.12.2,0-.22-.1-.06-.1-.11.06.27,0,.07.05,0,0,.2,0,.08.1s-.22.05-.2.08.08,0,.15,0H14c.14-.06,0,.05.15,0-.12.05.1.05-.14.14l-.19.06a1.07,1.07,0,0,0,.3-.05l-.08.05c.29-.11,0,.06.23,0-.08.09,0,.13-.13.22.11,0,.22,0,.17.07h-.1c-.08.06,0,0,.06,0s-.15.12-.25.18a1.05,1.05,0,0,0,.35-.08c-.27.13.23.05,0,.18a.31.31,0,0,0-.22.05c-.28.12.23,0,.11.1l.24-.09c-.14.07.17,0-.08.11.09,0-.06.1.17,0-.17.15.19.2-.21.38,0,0,0,.05.13,0s-.11,0,0,0,.08,0,.11,0,0,.07-.26.1.42,0,.36.07-.14,0-.12,0h.18c0,.06-.21.09-.38.13,0,0,0,.06.16,0l-.2.09c.15-.06.11,0,.15,0h0c-.07,0,0,0,0,.06a.39.39,0,0,0,.16-.1c.08,0,.06,0,.16,0-.17,0-.11.08-.12.11s.15,0,.15,0,0,0-.13.06.08,0,0,0-.21.06-.09.07.32-.08.23,0h-.17l-.07.07.15,0-.07,0c.16,0,.06.06.24,0,0,0-.09.07-.1.1h0c-.08.05,0,.07.09.08h0s0,0,.12.06c-.11.06-.57.12-.37.13,0,0,.29,0,.38,0-.09.09.18.13-.05.24H15c0,.12.22.21-.07.35-.06,0-.15,0-.23,0,.14,0-.14.05.09,0s.21,0,.26-.07.1.15,0,.21a.18.18,0,0,1,.14,0c-.22,0-.24.08-.16.1h.13L15,159s.28,0,.16,0a.57.57,0,0,0-.15,0c.12,0,.31,0,.2.11l-.19.06a.28.28,0,0,0,.2,0c-.11.08-.12.13-.29.17.43.08.46.27.44.41h-.1c-.1,0,.17,0,.11,0a3.25,3.25,0,0,1-.33,0c-.1.06.18.06.23.09s-.09,0,.08,0-.1.09.1.08a1.06,1.06,0,0,1-.31,0l.1,0c-.23.06-.42-.07-.71,0l0,0c-.21,0-.25-.07-.31,0a1.3,1.3,0,0,0,.48,0c.05.06.48,0,.46.08s0-.06-.19,0,.09.06,0,.1a.58.58,0,0,1,.32,0c-.09,0-.19,0-.21,0s.21,0,.28,0c.27,0-.07.06.14.08-.19,0-.43,0-.52,0,.18,0,.24.07.51,0a.71.71,0,0,1-.3,0c-.11,0,.32.08,0,.1h.18l-.2,0s.25.1,0,.1c0,0,0,.07.21.05s-.14-.05.12-.08c-.21,0,0,.06.1.09h-.11s0,.05.13.06a.39.39,0,0,0-.16,0h.16c.08.06-.28,0-.23.07l-.13,0s-.12,0-.07.06l.44,0c.06,0-.17,0,0,.05l-.18-.05c-.05,0-.24,0-.24.07a.58.58,0,0,0,.35,0s-.09,0-.2,0c.05,0,.16,0,.25,0-.1,0-.24.07-.38.09l-.25-.05v0c-.2,0-.15,0-.36,0,0,0,0,0,.09.06.34,0,.45.08.76.08.08.08-.75,0-.27.12.08,0,.31,0,.22,0s.31,0,.18.1-.31,0-.49,0c.1,0,.08,0,.05,0s-.31,0-.31,0,0,.07.19.08,0-.05.16,0-.21.06.1.1c0,0,.16,0,.28,0l.07,0-.12,0c-.09.07.21,0,.18.11l-.24,0c-.19,0,.1-.1-.22-.11,0,.05.14.07.06.11l-.06,0s-.44,0-.2.09c.09,0,.11,0,.23,0s.15.11.17.16c-.23,0,0,.08-.27,0,.14,0,.14-.13-.08-.17s0,0-.24-.09c0,.06-.28,0-.46,0,0,0,.06,0,.09.05s.16,0,.34,0c-.06.06,0,.13.19.18-.08,0-.25,0-.26,0a.2.2,0,0,1,0,.23c.28,0,.06.09.29.08a.78.78,0,0,1,.38,0s-.12,0-.18,0c.15.05-.24,0,0,.08-.08-.08-.33-.05-.54-.09.11.07-.16,0-.16,0a.87.87,0,0,1,.24.2c-.22,0,0,.18,0,.24s-.35,0-.4,0,.27,0,.15.05h-.05c.05,0-.18.08.16.16l-.26-.06s0,0,.06,0-.16,0-.21,0,0,.08,0,.12h.16c.11.09-.05.11,0,.18l-.15,0,.08.06c-.14,0-.24,0-.12,0l-.36-.16c.1,0,.18.06.33.07s.11-.06,0-.1,0,0,.07.06a1,1,0,0,1-.34-.11s-.06,0,0,0c-.1,0-.11-.07-.11-.11s.13,0,.19,0c-.19,0-.24-.08-.18-.12.23,0-.12-.11,0-.16a2,2,0,0,1,.4.15c.1,0,0,0,.1-.06a1.81,1.81,0,0,1-.43-.14l.14,0c-.06,0-.27-.08-.22-.13a.48.48,0,0,0,.11-.23h.14c-.29-.07-.09-.14-.22-.21.14-.07-.12-.19.13-.22-.09-.16-.19-.3-.13-.45l.2,0c-.15,0,.12,0,.09,0s-.21,0-.33-.07c.16-.07,0-.17-.15-.23h.14c-.26-.07,0-.14,0-.21s.19,0,.17,0a1,1,0,0,1-.35-.13s.06-.11.15-.16c-.33-.16-.13-.34-.33-.5l.16,0c-.36-.14,0-.37-.25-.5h.28c.08-.06-.08-.1-.28-.06.08-.06-.15-.1.08-.16,0-.05-.14,0-.18-.07s.07-.13,0-.21v0c.06,0,.18,0,.19,0s.06-.13-.27,0c.18-.12-.19-.18.06-.31a.54.54,0,0,1-.18,0c0-.07.15-.19,0-.23,0,0,.15,0,.16,0s-.12,0-.18,0,.13-.29.05-.4-.18-.4-.27-.58l.07,0c-.27,0,.21-.23-.18-.17.06,0,0-.06.14-.09-.19,0,.11-.2-.13-.2h0c.12-.13-.1-.13,0-.25a.27.27,0,0,0,.12,0c.11-.08-.29,0,0-.11a.38.38,0,0,0-.14.05c0-.21-.21-.32-.35-.47.12-.2.5-.21.23-.22.06,0-.11,0,0,0-.1,0,.31-.2.14-.16s-.11,0-.22.07c.08-.12.24-.21.07-.21l.1,0c-.3.05-.2-.1-.53,0-.23-.35-.6-.62-.86-1a4.37,4.37,0,0,1-.55-1.44c.22-.22.21-.21.06-.32.05,0,.06,0,.1,0-.22.06,0-.09-.26,0a1.83,1.83,0,0,0-.07-.32,1.31,1.31,0,0,1-.09-.34s.21,0,.19,0l-.15,0,.07,0a.24.24,0,0,0-.22,0,1.2,1.2,0,0,1,0-.93,8.25,8.25,0,0,0,.34-.9c.14-.11.14-.34.18-.52.25-.16.5-.28.71-.41a1.71,1.71,0,0,0,.53-.51A2.15,2.15,0,0,1,12.18,149.44Z"/><path class="cls-7" d="M13.64,163.18a.8.8,0,0,1,.33,0Z"/><path class="cls-7" d="M15,162.35s.05,0,.07,0,.1,0,0,0S15,162.36,15,162.35Z"/><path class="cls-7" d="M15,162.09a.26.26,0,0,1,.19.11Z"/><path class="cls-7" d="M15.48,161.86c.09,0,.13,0,.13,0A.5.5,0,0,1,15.48,161.86Z"/><path class="cls-7" d="M15.25,161.83s.06,0,.12,0S15.42,161.85,15.25,161.83Z"/><path class="cls-7" d="M15.58,161.28s-.09,0,0-.05C15.52,161.24,15.72,161.3,15.58,161.28Z"/><path class="cls-7" d="M15.43,161s0,0,0,0a.24.24,0,0,1,.13,0Z"/><polygon class="cls-7" points="14.36 156.45 14.41 156.46 14.32 156.49 14.36 156.45"/><path class="cls-7" d="M13.6,154.57c-.07,0,.07-.06.08-.07S13.57,154.55,13.6,154.57Z"/><polygon class="cls-7" points="12.66 153.86 12.67 153.87 12.48 153.97 12.66 153.86"/><path class="cls-7" d="M49.36,278.93c0,.12.18,0,0,.1S49.28,278.94,49.36,278.93Z"/><path class="cls-7" d="M68,258.76c-.06.62-.69.34-.87.8,0,0-.12-.26-.18-.15-.13.52-.72.59-1.26.52v-.08c-.11,0-.06.27-.15.28s0-.08-.07-.13c.06.15-.1.14-.07.27-.07,0-.13-.15-.21-.19l0,.18c.11.45-.3.15-.34.45,0,0,0-.08,0-.11-.12.39-.47.55-.7.82a.52.52,0,0,0-.14-.22.27.27,0,0,1,0,.35c-.15-.15,0,.23-.18.2v0c0,.22-.17,0-.08.21l-.13-.1c.13.26-.17-.05-.15.1l0,.05c0,.09-.12,0-.14.06l0,0c-.07.14-.22.05-.09.23-.14-.12.06-.14-.15-.31a3.21,3.21,0,0,1-1,.94c-.09,0-.13,0-.19-.1s-.11.13-.07.24-.1-.07-.12-.06.08.24-.05.22a.32.32,0,0,0-.1-.19c0,.18-.05.22-.09.32a.19.19,0,0,0-.06-.12c.05.21-.16.08-.15.23l-.06-.12c-.2,0,.14.23,0,.23a.29.29,0,0,0-.07-.12c.05.24-.13.3-.17.43s0,0,0,0-.21.12-.25.29c-.07,0-.18-.25-.25-.13.17.19-.1.22.15.39-.11,0-.31.08-.3.19,0-.11-.25-.2-.19-.28l-.16-.07c-.06-.09.08,0,0-.11s-.07.21-.13.2c0,.17.18.44.1.56,0-.12-.22-.19-.21-.25l.18.49s-.14-.14-.14-.05,0,.1.08.15-.1.18-.28,0,0-.09-.08-.12,0,.13-.06.19l0,0c-.06,0,0,.19.1.26s-.12-.11,0-.09a.23.23,0,0,1,0,.29.59.59,0,0,0-.1-.16,1,1,0,0,1,0,.49c.08.09-.12-.19-.06-.15-.23,0-.08.39-.34.31,0,0,.13.11.1.09s-.18-.09-.17,0,0,.07,0,.13,0,0,0-.07-.08.43-.3.44c0,.05.11.25.08.27l-.11-.12c-.09,0-.08.1-.18,0,.08.19.1-.34.13-.16-.11-.07.08.29-.06.12,0,.06,0,.24-.13.19,0,0-.11-.2-.15-.15s0,.08,0,.18v.08c.11.11-.08.06.07.15-.1-.08-.05.16-.23,0l-.14-.15s.1.2.14.29l-.07-.05c.22.21-.1.06,0,.26-.15,0-.18.17-.35.08,0,.12,0,.25-.05.27a.15.15,0,0,0,0-.11c-.1,0,0,.05,0,.12s-.2,0-.32-.07.16.21.23.28c-.27-.15,0,.29-.26.17,0-.05,0-.18-.14-.18-.27-.15.08.25-.1.24l.21.14c-.15-.06,0,.22-.19,0,0,.09-.15,0,0,.2-.28,0-.19.4-.6.21,0,.05-.06.07.05.14s0-.11,0-.06,0,.07.07.09-.12,0-.25-.14c-.19,0,.25.37.07.43s-.11-.08-.13,0l.08.17c-.09.06-.21-.1-.35-.2,0,.06-.06.11,0,.21l-.22-.08c.16.05.06.1.07.14v0c-.07,0-.07,0-.07.07a.24.24,0,0,0,.21,0c0,.07,0,.09,0,.18-.12-.12-.15,0-.19,0s.09.14.07.14-.06.06-.13-.05.09,0,0-.05-.2-.11-.15,0,.27.19.13.2a.67.67,0,0,0-.11-.14l-.12,0,.12.09-.07,0c.11.12-.05.13.09.26,0,.05-.15,0-.19,0h0c-.11,0-.1.08,0,.18l0,0s-.05.08,0,.17c-.13,0-.48-.33-.37-.15s.15.27.25.3c-.16.05,0,.32-.32.28,0,.06.08.07.09.12-.17.13-.1.45-.44.4,0-.08-.12-.09-.2-.14.09.12-.15,0,0,.12s.17.11.25.1-.11.29-.25.27c.07,0,.09.06.11.1-.18-.13-.25-.08-.23,0l.11.09-.14,0s.22.18.08.16l-.13-.06c0,.11.16.3,0,.3l-.2-.06s.07.15.15.13c-.17,0-.22.1-.39,0a.72.72,0,0,1-.08.88l-.08-.05c-.12,0,.13.12.05.12s-.21-.06-.28-.17.08.2.09.28,0-.09.09,0-.15.06,0,.18a.9.9,0,0,1-.26-.17l0,.1c-.24-.05-.27-.36-.56-.44v.07c-.21-.06-.13-.25-.26-.17a.69.69,0,0,0,.38.3c0,.13.38.29.3.4s0-.11-.13-.17,0,.16-.06.17c.1,0,.25.14.26.19s-.14-.13-.21-.06c.09.07.12.19.23.17.21.16-.11,0,0,.19-.18-.06-.32-.3-.46-.25.17.07.15.23.41.31a.4.4,0,0,1-.27-.13c-.13,0,.21.28-.11.12l.15.11-.22,0s.14.26-.1.13c0,0,0,.12.14.18s-.09-.15.16-.06c-.21-.05,0,.11,0,.18l-.1,0s0,.08.07.15a.17.17,0,0,0-.14-.07l.13.1c0,.13-.27-.11-.27,0l-.08-.13s-.13,0-.11,0l.36.27c0,.08-.16-.05,0,.07l-.13-.15s-.23-.07-.27,0,.18.23.29.2-.12,0-.2,0c0,.1.14.07.19.18-.1,0-.27,0-.42,0l-.19-.18,0,0c-.15-.15-.15,0-.32-.17s0,.09,0,.15c.34.06.35.31.64.42,0,.16-.71-.26-.35.09.08,0,.26.18.22.06-.07.06.25.19.09.22-.08-.12-.32-.06-.43-.24.09.05.1,0,.08-.05s-.27-.14-.31-.06,0,.13.11.19,0-.08.17,0-.24,0,0,.2c0-.08.17,0,.28,0l0,.11-.1-.07c-.13.08.18.13.1.23l-.23-.05c-.17-.11.15-.13-.15-.25,0,.07.09.17,0,.2s0-.05,0-.08-.42-.14-.24.08.1.06.2.11.08.22.06.31c-.21-.12-.08.12-.26-.06.14,0,.21-.16,0-.3s.08-.07-.16-.22c-.05.09-.3,0-.46-.09s0,.08,0,.1.16,0,.32.13c-.1.08-.06.23.06.35-.09,0-.24-.08-.23-.13a.62.62,0,0,1-.2.38c.29,0,0,.16.23.2a.47.47,0,0,1,.39.07s-.11-.05-.17-.06c.11.12-.26,0-.07.13,0-.15-.29-.16-.48-.27.07.14-.14-.06-.18,0a.85.85,0,0,1,.11.38c-.24,0-.13.3-.16.41s-.34-.12-.4-.07.27.05.12.11l0,0s-.23.13.08.3l-.23-.14s0,.06,0,.08-.16,0-.2-.09c-.19,0,0,.15-.05.22l.17,0c.06.16-.12.19-.11.33l-.14-.06,0,.1c-.13-.07-.24,0-.14,0l-.28-.32c.11,0,.15.12.3.15s.14-.11,0-.18,0,.05,0,.1c-.2-.06-.17-.12-.29-.2s-.07,0,0,.06a.18.18,0,0,1-.06-.21c.06.08.14,0,.19.07-.18-.08-.2-.17-.12-.24.23,0-.06-.22,0-.31a1.26,1.26,0,0,1,.33.32c.11,0,0-.07.13-.1-.11-.08-.31-.19-.35-.31l.13,0c0-.1-.23-.19-.15-.27a2.23,2.23,0,0,0,.28-.43l.13.05c-.24-.19,0-.28-.07-.43.2-.1,0-.4.3-.38a1.74,1.74,0,0,1,.25-.9l.16.14c-.11-.12.12,0,.12,0-.18,0-.15-.17-.25-.26.21-.06.14-.3.08-.48l.12.06c-.17-.24.11-.27.22-.39s.19.05.2,0c-.16-.19-.12-.22-.19-.4a.52.52,0,0,1,.3-.23c-.1-.46.26-.68.28-1.09l.16.06c-.13-.5.38-.7.4-1.05l.22.18c.13,0,.06-.23-.12-.32.12,0,0-.27.24-.2s0-.17,0-.26a.49.49,0,0,0,.27-.37l0,0c0,.06.14.12.18.1s.21-.17-.11-.31c.28,0,.14-.46.47-.47-.08,0-.07-.09-.11-.14s.36-.18.32-.39c0,0,.1.13.15.08s-.1-.08-.11-.15c0-.33.48-.36.61-.58a4.45,4.45,0,0,1,.77-1.15l0,0c-.11-.28.42-.09.2-.43.08,0,.12-.08.2,0-.06-.2.34-.13.28-.41,0,0,0,0,0,.06.22,0,.17-.28.39-.32a.19.19,0,0,0,0,.12c.14,0-.1-.32.16-.13,0,0-.1-.13-.11-.1.35-.21.5-.65.73-1,.35-.07.41.37.4,0,0,0-.08-.1,0-.06,0-.12.35.16.27,0s0-.11-.13-.2c.22,0,.36.06.36-.14l.07.08c-.09-.32.16-.34,0-.69.32-.33.6-.69.89-1s.61-.67.94-1l1-.83a5.09,5.09,0,0,1,1.13-.73c.33.1.34.09.47-.14,0,.05,0,.06.05.09-.13-.19.12-.11,0-.3.3-.16.51-.4.8-.58,0,.05.05.22.1.17l0-.15.05,0a.17.17,0,0,0-.08-.2,2.87,2.87,0,0,1,1.12-.65,5.92,5.92,0,0,0,1.18-.51c.22,0,.43-.23.6-.38A2.53,2.53,0,0,0,68,258S68.17,258.52,68,258.76Z"/><path class="cls-7" d="M49.38,278.81c.12,0,.2,0,.32.08A3,3,0,0,1,49.38,278.81Z"/><path class="cls-7" d="M51.2,277.47s0,0,.07,0,.08.08,0,.07S51.24,277.5,51.2,277.47Z"/><path class="cls-7" d="M51.47,277.06a.27.27,0,0,1,.1.24Z"/><path class="cls-7" d="M52,276.83c.09,0,.13,0,.11.08A.44.44,0,0,1,52,276.83Z"/><path class="cls-7" d="M51.84,276.7s.07,0,.13,0S52,276.79,51.84,276.7Z"/><path class="cls-7" d="M52.53,276s0-.1.07-.07C52.51,275.87,52.66,276.05,52.53,276Z"/><path class="cls-7" d="M52.61,275.49s0,0,0,0,.11.06.1.08Z"/><polygon class="cls-7" points="56.95 268.47 56.96 268.54 56.89 268.47 56.95 268.47"/><path class="cls-7" d="M59.48,265.85c0-.09.09,0,.1,0S59.51,265.79,59.48,265.85Z"/><polygon class="cls-7" points="60.62 264.15 60.61 264.16 60.48 264 60.62 264.15"/><path class="cls-7" d="M47.1,267.3c0,.07.12.13,0,.09S47.05,267.25,47.1,267.3Z"/><path class="cls-7" d="M65.06,260.09c-.08.57-.52.14-.67.53,0,0-.07-.28-.12-.19-.12.46-.56.34-.94.12v-.08c-.08,0-.06.24-.13.22a1.13,1.13,0,0,0,0-.15c0,.16-.08.1-.07.23-.05-.06-.08-.18-.13-.24l0,.19c0,.45-.23,0-.29.3a.42.42,0,0,0,0-.12c-.12.32-.39.35-.58.52a.73.73,0,0,0-.08-.25c0,.19,0,.26,0,.31-.09-.18-.05.21-.15.13v-.05c0,.22-.11-.09-.08.17l-.08-.14c.07.28-.12-.12-.12,0l0,.06c0,.08-.08-.05-.1,0l0,0c-.06.1-.16,0-.09.17-.09-.15.06-.1-.07-.33a1.48,1.48,0,0,1-.82.48.77.77,0,0,1-.12-.17c0,.05-.1.07-.09.19s0-.1-.07-.11,0,.25-.07.18a.46.46,0,0,0,0-.21c0,.18-.07.18-.11.25a.23.23,0,0,0,0-.13c0,.21-.13,0-.14.14l0-.13c-.15-.11.06.26-.05.21a.7.7,0,0,0,0-.14c0,.24-.14.21-.19.31a.2.2,0,0,0,0-.05c-.07.06-.18,0-.23.14,0,0-.09-.29-.16-.22.09.24-.11.15,0,.41-.08,0-.23-.07-.24,0,0-.1-.15-.28-.1-.32l-.09-.13c0-.1,0,0,0-.1s-.07.14-.11.12c0,.16,0,.46,0,.52,0-.11-.12-.26-.11-.31l0,.51s-.08-.19-.1-.11a.32.32,0,0,1,0,.16s-.1.11-.2-.12,0-.07,0-.14,0,.1-.08.13v0s-.07.14,0,.25-.07-.13,0-.08,0,.21-.08.23a.41.41,0,0,0,0-.17.66.66,0,0,1-.11.4c.05.12,0-.21,0-.16-.16-.11-.13.31-.3.11,0,0,.07.16,0,.13s-.11-.16-.12-.09c0-.09,0,0-.05.09s0,0,0-.07-.15.32-.31.23c0,.06,0,.25,0,.26l-.05-.15c-.06-.08-.08,0-.13-.08,0,.2.14-.24.13-.07-.07-.11,0,.27-.07.07,0,0,0,.21-.14.09s0-.22-.07-.19,0,.07,0,.15v.07c.05.14-.07,0,0,.16-.06-.12-.08.11-.17-.13l-.06-.19s0,.21,0,.31a.56.56,0,0,1-.05-.08c.11.28-.08,0,0,.24-.1-.08-.16.05-.26-.11,0,.1,0,.22-.1.19a.23.23,0,0,0,0-.11c-.07-.07,0,0-.06.07s-.14-.14-.22-.23a1,1,0,0,0,.1.35c-.16-.26-.06.24-.22,0,0-.05,0-.17-.06-.22-.16-.26,0,.24-.13.14l.12.22c-.09-.13-.05.18-.14-.06,0,.09-.12,0,0,.18-.19-.14-.23.23-.47-.14,0,0-.06,0,0,.14s0-.11,0,0,0,.08,0,.11-.09,0-.13-.24.08.42-.06.37-.06-.12-.09-.09l0,.18c-.09,0-.13-.2-.2-.35,0,0-.07.05,0,.17l-.13-.18c.1.13,0,.11,0,.16v-.05c0-.06,0,0-.07,0a.28.28,0,0,0,.15.13c0,.08,0,.08,0,.17-.06-.16-.1-.09-.14-.09s0,.15,0,.15-.06,0-.09-.11.06.06.05,0-.11-.2-.11-.07.15.3,0,.23a.59.59,0,0,0,0-.17l-.09-.06.06.14,0-.06c0,.16-.07.09,0,.26s-.1-.07-.14-.08h0c-.07-.07-.09,0-.08.12v0s-.06,0,0,.14c-.1-.09-.26-.53-.23-.33,0,0,0,.3.1.38-.13-.06-.13.21-.31,0,0,.07,0,.1,0,.14s-.19.29-.42.06c0-.08-.06-.14-.1-.22,0,.14-.09-.11,0,.11a.52.52,0,0,0,.15.22c-.05.1-.16.16-.26.06a.16.16,0,0,1,.05.14c-.08-.21-.15-.21-.16-.12l.05.13-.09-.12c0,.05.1.27,0,.17l-.08-.13c0,.12,0,.32-.07.24l-.12-.16a.22.22,0,0,0,.06.19c-.13-.07-.19-.06-.29-.2,0,.44-.15.55-.32.6l0-.09c-.09-.07.05.17,0,.12s-.12-.18-.14-.3,0,.2,0,.26,0-.09.06.06-.13-.05,0,.14a1.17,1.17,0,0,1-.13-.28v.1c-.15-.19-.08-.43-.25-.66l0,0c-.13-.17,0-.26-.13-.28a.94.94,0,0,0,.17.45c-.06.09.17.45.08.47s.06-.05,0-.19,0,.12-.1.08a.46.46,0,0,1,.11.29c-.08-.06,0-.18-.12-.17s0,.22.11.26c.09.25-.1,0,0,.17-.1-.16-.13-.42-.24-.47.09.16,0,.26.18.48a.57.57,0,0,1-.14-.26c-.09-.08.05.33-.12,0l.07.17-.14-.16s0,.28-.11,0c0,0-.08.06,0,.21s0-.15.13.07c-.12-.17-.05.06-.05.13l0-.09s0,0,0,.15a.3.3,0,0,0-.08-.14l.06.15c0,.11-.15-.24-.19-.17V267s-.08-.09-.09,0l.15.42c0,.07-.09-.14-.06,0l0-.18c0-.05-.14-.21-.19-.18s0,.28.13.32-.1,0-.13-.15c0,.07.08.14.08.24-.07-.08-.19-.17-.29-.28l-.06-.25,0,0c0-.2-.09-.13-.16-.32,0,0,0,.06,0,.11.22.27.14.45.3.71-.06.12-.4-.63-.27-.16.05.06.11.29.13.19s.1.29,0,.21-.2-.25-.21-.45c0,.09.07.05.07,0s-.13-.28-.19-.25-.07.07,0,.21.05,0,.11.13-.18-.14-.07.15c0-.05.13.11.18.21v.1l0-.11c-.11,0,.08.2,0,.21l-.15-.19c-.07-.18.16,0,0-.26-.06,0,0,.17-.09.12s0,0,0-.07-.24-.37-.2-.11c0,.1,0,.11.1.21s0,.2-.08.24c-.09-.21-.1,0-.15-.21.09.11.2,0,.13-.18s.08,0,0-.26c-.07,0-.2-.22-.29-.37s0,.08,0,.11.09.14.17.29c-.09,0-.12.12-.08.28-.07-.06-.14-.21-.12-.24a.3.3,0,0,1-.27.12c.18.21-.06.1.08.28a.71.71,0,0,1,.24.31s-.06-.1-.1-.15c0,.15-.16-.19-.09,0,0-.12-.14-.3-.23-.5,0,.14-.07-.14-.12-.11a.7.7,0,0,1-.07.33c-.18-.14-.2.11-.27.15s-.18-.3-.24-.32.16.21,0,.15l0,0c0,.06-.21-.08-.06.24l-.1-.24s0,0,0,.07a.62.62,0,0,1-.1-.2c-.13-.13-.08.08-.12.11l.11.12c0,.15-.15,0-.2.14l-.08-.14v.11c-.06-.14-.15-.2-.11-.08l-.06-.39c.08.06,0,.18.14.3s.14,0,.08-.1,0,0,0,.09c-.11-.19-.06-.2-.11-.34,0,0-.06,0,0,0,0-.11,0-.13,0-.17s.08.11.1.17c-.09-.17-.07-.24,0-.23.14.17,0-.18.14-.16a1.21,1.21,0,0,1,.09.42c.09.06,0,0,.13,0a1.62,1.62,0,0,1-.12-.44l.07.12c0-.09-.08-.27,0-.27a1,1,0,0,0,.35-.09l.07.12c-.09-.29.11-.18.11-.33.17.07.17-.24.34-.05.14-.2.26-.38.48-.44l.06.2c0-.15.08.1.1,0s0-.21-.08-.33c.16.09.2-.12.21-.29l.07.13c0-.28.16-.12.28-.13s.11.15.13.12a.71.71,0,0,1,0-.39.33.33,0,0,1,.27,0c.08-.39.39-.32.54-.6l.08.14c.07-.42.48-.26.6-.52l.1.27c.09.05.1-.13,0-.31.1.05.09-.19.23,0,.08,0,0-.15.05-.21a.24.24,0,0,0,.3-.1h0c0,.07.07.18.1.18s.19,0,0-.29c.2.12.22-.28.45-.09-.05-.08,0-.11,0-.17s.3.06.32-.12c0,0,0,.16.09.15s0-.11,0-.17c.11-.24.43,0,.57-.11.22-.29.56-.34.82-.48l0,.06c0-.28.32.15.24-.24.05,0,.1,0,.13.12,0-.19.28.08.29-.18,0,0,0,0,0,0,.16.1.18-.13.35-.05a.17.17,0,0,0,0,.12c.09.1,0-.31.14,0,0,0-.05-.16-.06-.15.3,0,.49-.28.72-.45.26.1.21.5.27.22,0,.05,0-.12,0-.06,0-.11.22.3.2.13s0-.12-.06-.23c.16.08.25.23.29.06l0,.1c0-.32.18-.22.14-.57.56-.29,1.06-.67,1.63-.92a9.18,9.18,0,0,1,1.74-.51c.23.22.23.21.35.05a.16.16,0,0,0,0,.1c-.06-.22.1-.06,0-.27a4,4,0,0,0,.63-.23s0,.22,0,.19V260l0,.06a.26.26,0,0,0,0-.22c.5-.36,1.19-.1,1.72-.32.16.05.32-.09.45-.17.51.16,1,.29,1.32,0C65.1,259.33,65.2,259.91,65.06,260.09Z"/><path class="cls-7" d="M47.16,267.24c.07.09.14.12.18.27C47.29,267.42,47.21,267.33,47.16,267.24Z"/><path class="cls-7" d="M48.9,267.63s0,0,.05,0,0,.11,0,.06S48.91,267.67,48.9,267.63Z"/><path class="cls-7" d="M49.23,267.53a.22.22,0,0,1,0,.23Z"/><path class="cls-7" d="M49.7,267.75c.07.06.08.11,0,.12A.43.43,0,0,1,49.7,267.75Z"/><path class="cls-7" d="M49.62,267.54s.06,0,.1.08S49.69,267.69,49.62,267.54Z"/><path class="cls-7" d="M50.36,267.49s0-.11.07,0C50.38,267.41,50.42,267.62,50.36,267.49Z"/><path class="cls-7" d="M50.58,267.21s0,0,0,0a.14.14,0,0,1,0,.13Z"/><polygon class="cls-7" points="55.69 264.41 55.68 264.47 55.65 264.38 55.69 264.41"/><path class="cls-7" d="M58.06,263.46c0-.07.06.08.07.09S58.1,263.43,58.06,263.46Z"/><polygon class="cls-7" points="59.18 262.51 59.17 262.51 59.11 262.32 59.18 262.51"/><path class="cls-7" d="M142.61,251.48c-.08.14.18.07,0,.13C142.55,251.54,142.53,251.47,142.61,251.48Z"/><path class="cls-7" d="M170.85,222c.07.71-.76.84-.87,1.47,0,.06-.2-.21-.24-.05,0,.66-.77,1.1-1.43,1.36l0-.08c-.13.05,0,.34-.14.41s0-.08-.1-.11c.1.14-.1.22,0,.35s-.17-.1-.27-.1l.09.18c.19.45-.35.35-.37.71,0,0,0-.09-.08-.1a4.57,4.57,0,0,1-.77,1.33.39.39,0,0,0-.18-.18c.13.15.06.29,0,.42-.19-.09,0,.29-.21.33l0,0c.08.23-.21,0-.08.29l-.17-.05c.17.22-.22,0-.18.19l0,0c0,.12-.14.06-.16.15l0,0c-.08.2-.27.18-.11.32-.17-.07.07-.19-.19-.29a5.62,5.62,0,0,1-1.19,1.57.45.45,0,0,1-.24,0c0,.08-.13.21-.09.33s-.11,0-.14,0,.09.26-.07.29a.26.26,0,0,0-.12-.19c.05.2-.07.29-.12.43a.22.22,0,0,0-.06-.13c0,.24-.21.17-.2.34L163,231c-.25.05.15.23,0,.29,0-.05,0-.08-.08-.12.06.28-.18.42-.23.59l0,0c-.1.15-.28.24-.34.45-.09,0-.21-.23-.31-.06.2.17-.14.3.15.42-.14.09-.38.21-.39.34,0-.11-.28-.15-.21-.26l-.18,0c-.07-.08.1-.05,0-.12s-.1.27-.17.29c0,.19.17.48.06.65,0-.14-.25-.16-.23-.23l.16.53c0,.06-.15-.12-.17,0a.35.35,0,0,1,.08.16s-.15.25-.35.1,0-.12-.08-.13,0,.16-.11.25l0,0c-.09,0-.09.25.07.28s-.12-.09,0-.1a.32.32,0,0,1-.08.36c0-.05-.06-.1-.1-.16a1.21,1.21,0,0,1-.1.62c.08.08-.12-.2,0-.18-.28.06-.16.52-.48.5,0,0,.14.1.11.08s-.21,0-.21.05c-.08-.07,0,.09-.07.17s-.05,0,0-.08a.86.86,0,0,1-.47.63s.08.28,0,.32l-.1-.13c-.1,0-.12.15-.22.06.05.22.2-.45.19-.23-.12-.06,0,.34-.1.17-.08.08,0,.29-.2.26,0,0-.1-.22-.15-.14s0,.08,0,.22v.1c.1.11-.12.09,0,.16-.11-.07-.11.23-.28,0l-.13-.15c0,.06.08.23.1.33a.18.18,0,0,1-.08,0c.21.22-.13.1,0,.33-.18,0-.26.26-.45.18,0,.14,0,.29-.14.34s0-.07,0-.12-.08.07-.1.15-.24,0-.38,0,.14.23.2.3c-.29-.13-.07.37-.36.27,0-.06,0-.22-.12-.21-.28-.13,0,.31-.2.33l.21.14c-.16,0-.06.28-.23.09,0,.1-.2.08,0,.24-.33,0-.36.56-.79.37,0,.06-.1.1,0,.17s0-.13.07-.08,0,.08.05.11-.16.05-.25-.15c-.24,0,.17.43-.07.54-.06-.08-.11-.09-.14,0l0,.21c-.13.09-.23-.09-.35-.21,0,.08-.11.14-.05.26l-.22-.08c.16.06,0,.12,0,.18v-.06c-.06,0-.09.06-.11.11a.23.23,0,0,0,.24,0c0,.09,0,.12,0,.22-.1-.13-.17,0-.23.05s.05.17,0,.18-.1.08-.15,0,.11,0,.08-.07-.19-.12-.18,0,.26.22.08.25a1.22,1.22,0,0,0-.07-.17l-.16,0,.11.11-.07,0c.09.14-.11.18,0,.33,0,.06-.18,0-.24.07v0c-.12,0-.15.11-.12.23l0,0a.2.2,0,0,0-.07.22c-.16,0-.45-.38-.39-.16s.07.32.18.36c-.22.07-.2.41-.5.38,0,.07.06.08,0,.15-.26.17-.32.58-.7.54,0-.11-.1-.11-.17-.17.05.14-.16,0,0,.14s.15.15.25.13c-.07.17-.26.37-.43.35.08,0,.09.06.09.12-.15-.16-.27-.09-.28,0l.09.11-.15-.05c0,.05.18.23,0,.2l-.12-.08c0,.16,0,.39-.12.39l-.21-.07c0,.05,0,.19.11.17-.21,0-.31.13-.48,0a1.26,1.26,0,0,1-.54,1.13l-.07-.08c-.14,0,.09.16,0,.16s-.2-.09-.23-.23c-.18,0,0,.26,0,.36s0-.12.1,0-.22.07-.09.23a.56.56,0,0,1-.21-.22V246c-.24-.09-.12-.47-.41-.6l0,.08c-.21-.09,0-.32-.21-.22,0,.13.16.39.28.4-.1.17.27.4.12.53-.12-.05.09-.14-.05-.23s-.07.2-.17.22c.12,0,.21.19.19.26s-.09-.18-.2-.09c.06.09,0,.25.17.23.15.22-.16,0-.07.25-.17-.1-.2-.41-.38-.36.15.11,0,.31.28.44-.08,0-.18-.09-.23-.2s.08.39-.19.16l.11.15-.23-.06c-.05,0,0,.35-.19.15,0,0-.13.16,0,.24s0-.19.22,0c-.21-.09-.1.13-.09.23l-.09-.07c0,.06-.07.1,0,.2a.15.15,0,0,0-.12-.1l.08.14c-.05.17-.22-.17-.3,0v-.17s-.14,0-.15.05l.23.39c0,.1-.14-.09-.09.07l-.05-.2c0-.05-.23-.12-.31,0s.06.32.2.3a.15.15,0,0,1-.21-.07c-.05.12.13.1.11.24-.1,0-.3,0-.46-.08l-.09-.25-.06.05c-.07-.21-.14-.07-.25-.26-.06,0-.06.11-.05.18.34.13.2.45.44.64-.09.21-.61-.44-.43.06.08,0,.17.27.2.11-.12.07.15.28,0,.3,0-.17-.3-.13-.31-.38.06.08.12,0,.11-.05s-.2-.22-.3-.13-.11.17,0,.27.08-.1.16.06c-.07.16-.28,0-.11.26.06-.09.2,0,.29.1l0,.14-.06-.1c-.2.08.1.19-.05.3l-.23-.1c-.1-.17.26-.13,0-.33-.1.07,0,.22-.15.24s0-.07,0-.11-.37-.25-.32.05c0,.14.06.1.14.19-.11.16-.06.29-.14.39-.15-.18-.18.14-.25-.12.15.05.34-.16.23-.37s.14-.08,0-.31c-.12.11-.3-.09-.45-.2s0,.1,0,.14.14.09.27.21a.39.39,0,0,0-.17.46c-.1,0-.21-.15-.17-.21a1.26,1.26,0,0,1-.46.43c.28.1-.11.2.11.3a.36.36,0,0,1,.37.18c-.06,0-.09-.09-.15-.11,0,.16-.26-.08-.15.14.07-.19-.21-.26-.34-.44,0,.18-.1-.11-.2,0a1.37,1.37,0,0,1-.14.51c-.28,0-.35.34-.47.46s-.27-.23-.37-.19.25.13.05.17l0,0c0,.08-.34.1-.13.38l-.15-.22s0,.07,0,.1-.15-.09-.15-.16c-.2-.06-.14.17-.21.25l.16.07c-.05.22-.25.2-.35.37l-.1-.12,0,.15c-.08-.13-.22-.12-.18,0l-.05-.48c.12,0,.06.2.21.27s.21-.08.13-.21c-.06,0,0,.06,0,.14-.16-.14-.08-.21-.15-.34,0,0-.1,0-.05.07a.26.26,0,0,1,.09-.27c0,.12.12.07.14.13-.12-.14-.09-.25,0-.31s.09-.29.25-.36a.84.84,0,0,1,.11.47c.14,0,.08-.08.22-.08-.06-.14-.19-.32-.15-.47l.1.09c0-.13-.11-.28,0-.36a5.38,5.38,0,0,0,.58-.45l.11.09c-.13-.29.18-.34.2-.54.27-.09.3-.49.56-.41a4.14,4.14,0,0,1,.82-1l.09.2c-.05-.16.12,0,.16,0-.18-.05-.07-.23-.12-.36.26,0,.33-.35.36-.58l.11.09c-.06-.31.26-.31.46-.44.06,0,.18.08.22,0-.07-.25,0-.28,0-.51a1,1,0,0,1,.45-.25c.13-.58.64-.81.87-1.32l.15.09c.11-.61.78-.83,1-1.27l.17.23c.16,0,.16-.28,0-.39.16,0,.14-.34.37-.24.13-.07,0-.22.08-.33a.9.9,0,0,0,.48-.44l-.06,0c0,.06.11.15.17.11s.3-.21,0-.37c.34-.07.35-.58.73-.6-.08,0,0-.11-.07-.17.17-.18.49-.24.51-.49.07,0,.07.16.15.09s-.08-.08-.07-.17c.16-.41.69-.46.92-.76a8.68,8.68,0,0,1,1.27-1.48l0,0c0-.33.53-.17.37-.56.08,0,.15-.11.22,0,0-.24.44-.22.44-.55,0,0,0,0,0,.07.27-.07.27-.37.55-.46,0,0,0,.09,0,.14s0-.37.23-.18c0,0-.09-.14-.1-.11a5,5,0,0,0,1.08-1.37c.43-.17.42.36.47-.05.06,0-.08-.1,0-.06,0-.15.4.11.34-.07s0-.12-.13-.21c.27-.09.44,0,.47-.26l.07.09c-.06-.38.24-.47.13-.85.85-1,1.56-2,2.4-3s1.62-1.89,2.61-2.7c.41,0,.42-.06.56-.38,0,0,0,.06.06.08-.15-.17.14-.19,0-.36a13.13,13.13,0,0,0,.92-1c0,.07.08.23.13.15l0-.17.06,0c0-.07,0-.19-.12-.19.67-1,1.81-1.62,2.57-2.55a2.39,2.39,0,0,0,.63-.77,4.77,4.77,0,0,0,2-1.77S171,221.65,170.85,222Z"/><path class="cls-7" d="M142.72,251.34c.11.06.23,0,.27.2A2.69,2.69,0,0,1,142.72,251.34Z"/><path class="cls-7" d="M145.57,250.18s.06,0,.08,0,0,.13,0,.1S145.59,250.23,145.57,250.18Z"/><path class="cls-7" d="M146.13,249.72c.07.08,0,.25,0,.32Z"/><path class="cls-7" d="M146.91,249.54q.15,0,.06.12S146.93,249.58,146.91,249.54Z"/><path class="cls-7" d="M146.78,249.34s.1,0,.16,0S146.89,249.47,146.78,249.34Z"/><path class="cls-7" d="M148,248.51s0-.14.12-.09C148.07,248.39,148.12,248.64,148,248.51Z"/><path class="cls-7" d="M148.41,247.92s0,0,0,0,.08.09.06.12Z"/><polygon class="cls-7" points="156.84 238.74 156.82 238.83 156.76 238.75 156.84 238.74"/><path class="cls-7" d="M160.59,234.78c0-.1.1,0,.12,0S160.64,234.71,160.59,234.78Z"/><polygon class="cls-7" points="162.22 232.29 162.21 232.31 162.07 232.16 162.22 232.29"/><path class="cls-7" d="M175.73,267.34c-.13-.09-.11.17-.12,0C175.68,267.28,175.75,267.27,175.73,267.34Z"/><path class="cls-7" d="M202.17,295.66c-.66.23-.94-.54-1.55-.5-.07,0,.16-.24,0-.25-.64.11-1.17-.55-1.51-1.14l.08,0c-.07-.11-.33,0-.42-.06s.08,0,.1-.12c-.12.12-.23-.06-.34,0,0-.08.07-.19.06-.28l-.17.12c-.41.25-.36-.31-.71-.27,0,0,.08,0,.08-.09a4.15,4.15,0,0,1-1.35-.59.53.53,0,0,0,.16-.2.34.34,0,0,1-.41,0c.07-.19-.29,0-.34-.17l0,0c-.22.1-.06-.2-.28,0l0-.17c-.21.19,0-.22-.2-.16l0,0c-.11,0-.06-.14-.15-.15v0c-.19-.06-.18-.25-.31-.08.06-.18.19.05.27-.21a4.57,4.57,0,0,1-1.56-1.07c0-.11,0-.16,0-.23s-.21-.13-.32-.08,0-.11,0-.14-.25.1-.28-.06a.22.22,0,0,0,.18-.13c-.19.06-.28-.05-.41-.09a.31.31,0,0,0,.12-.07c-.24,0-.16-.2-.34-.19l.12-.06c0-.24-.22.16-.28,0,0,0,.08-.05.12-.08-.28.07-.41-.17-.58-.22,0,0,0,0,0,0s-.22-.27-.42-.33c0-.09.23-.21.07-.3-.18.19-.3-.14-.42.15-.08-.14-.19-.38-.33-.39.12,0,.17-.27.27-.2l0-.18c.09-.07.05.09.12,0s-.26-.09-.27-.16c-.2,0-.48.16-.64.05.13,0,.16-.24.24-.23l-.54.16c-.05,0,.13-.15,0-.17s-.1.05-.16.07-.23-.15-.07-.35.11,0,.13-.07-.15,0-.24-.11l0,0c0-.08-.23-.09-.27.07s.09-.12.09,0a.3.3,0,0,1-.35-.1c.06,0,.1,0,.17-.08a1.28,1.28,0,0,1-.61-.13c-.08.08.21-.1.18,0,0-.28-.5-.18-.45-.48,0,0-.12.13-.09.1s.06-.2,0-.21c.07-.08-.08-.05-.15-.08s0-.05.07,0a.79.79,0,0,1-.57-.49c-.05.05-.28.06-.31,0l.13-.09c0-.1-.14-.13,0-.23-.22.05.42.23.21.21.07-.12-.34,0-.16-.11-.07-.08-.28,0-.24-.22,0,0,.22-.08.16-.14s-.09,0-.21,0h-.1c-.12.1-.08-.12-.17,0,.08-.1-.21-.12,0-.28l.16-.11s-.23.05-.33.07a.35.35,0,0,1,0-.08c-.24.2-.09-.13-.32,0,0-.18-.23-.29-.13-.46-.14,0-.29,0-.32-.16s.07,0,.13,0-.06-.08-.14-.1,0-.24.06-.38c-.14,0-.24.12-.33.17.17-.27-.34-.1-.22-.38.06,0,.22,0,.22-.09.17-.27-.3,0-.29-.22l-.17.19c.07-.15-.26-.09-.06-.24-.1,0-.05-.19-.23,0,0-.33-.5-.42-.26-.82-.06,0-.09-.1-.17,0s.13,0,.07.08-.08,0-.11,0,0-.16.17-.23c0-.24-.44.12-.51-.12.09-.06.1-.1,0-.14h-.22c-.06-.14.13-.21.26-.32-.07,0-.12-.13-.25-.07l.11-.21c-.08.15-.12,0-.18,0h.06c.05-.06,0-.1-.09-.12s0,.17,0,.23-.11,0-.21,0c.14-.09,0-.18,0-.24s-.17,0-.18,0-.06-.1.07-.13,0,.1.05.08.15-.17,0-.17-.25.22-.26,0a.61.61,0,0,0,.18-.05v-.16l-.13.1s0,0,0-.06c-.15.07-.16-.13-.33,0s0-.18,0-.24h0c0-.12-.09-.16-.21-.15l0,0a.22.22,0,0,0-.21-.09c0-.16.44-.39.22-.36s-.33,0-.38.13c0-.22-.38-.24-.3-.53-.06,0-.08.05-.15,0-.13-.27-.52-.38-.42-.74.11,0,.13-.09.2-.15-.15,0,.06-.15-.14,0s-.16.13-.16.23c-.16-.1-.32-.31-.27-.46,0,.07-.08.07-.14.06.19-.12.14-.24,0-.27l-.12.07.08-.13c-.06,0-.25.13-.21,0a.5.5,0,0,0,.1-.11c-.15,0-.38,0-.35-.17l.1-.19s-.18,0-.18.08c0-.22-.07-.32,0-.47a1.19,1.19,0,0,1-1-.69l.09-.05c0-.13-.18.07-.16,0s.13-.19.27-.19c0-.18-.25,0-.34-.1s.11,0,0,.1,0-.22-.2-.12c0-.08.18-.14.25-.17l-.12,0c.12-.22.48,0,.65-.3l-.08-.05c.13-.18.32,0,.26-.17-.13,0-.41.09-.44.21-.15-.11-.43.21-.53,0,.06-.11.11.11.22,0s-.18-.1-.18-.2c0,.12-.22.17-.28.15s.19-.06.13-.19c-.11.05-.26,0-.26.14-.24.11,0-.17-.24-.11.13-.14.44-.13.42-.31-.13.12-.31,0-.47.21,0-.08.11-.17.23-.2s-.39,0-.12-.21l-.16.09a1.25,1.25,0,0,1,.1-.21c0-.06-.34-.06-.11-.21,0,0-.13-.15-.25,0s.19,0,0,.22c.13-.18-.11-.11-.2-.12l.08-.07c-.06,0-.09-.09-.2,0a.19.19,0,0,0,.13-.11l-.16.06c-.15-.08.21-.19.09-.28h.17s.06-.13,0-.16-.32.13-.42.17.11-.12-.06-.1l.21,0s.16-.2.09-.28-.32,0-.32.14a.14.14,0,0,1,.11-.19c-.12-.07-.12.11-.26.07.06-.09.09-.29.16-.44l.27,0,0-.07c.22,0,.09-.12.3-.2,0-.06-.1-.07-.17-.08-.19.32-.47.13-.7.34-.19-.13.54-.53,0-.44,0,.08-.29.13-.15.18,0-.12-.3.11-.28-.09.17,0,.19-.27.43-.25-.09,0,0,.12,0,.13s.26-.17.19-.28-.14-.13-.26,0,.08.09-.09.15c-.14-.1.06-.27-.23-.15.08.07-.06.19-.16.26l-.12-.05.1-.05c0-.2-.2.07-.28-.09l.14-.2c.19-.08.08.26.33,0-.06-.1-.22,0-.21-.18s.06,0,.1,0,.31-.32,0-.31c-.13,0-.11,0-.21.11-.13-.13-.27-.11-.35-.2.21-.11-.1-.19.17-.22-.08.13.09.35.31.28.19-.22.05.14.31,0-.08-.13.15-.28.28-.4s-.1,0-.13,0-.12.12-.26.23a.38.38,0,0,0-.42-.23c0-.1.19-.18.24-.13a1.25,1.25,0,0,1-.33-.52c-.15.26-.17-.14-.31.06a.35.35,0,0,1-.24.33c0-.06.1-.07.13-.12-.17,0,.13-.24-.11-.18.18.11.3-.16.5-.25-.18,0,.13-.08.05-.19a1.16,1.16,0,0,1-.46-.22c.06-.26-.26-.38-.36-.51s.27-.23.26-.33-.18.22-.17,0h0c-.08,0,0-.34-.35-.19l.25-.1s-.07,0-.11,0,.12-.12.19-.11c.1-.18-.14-.16-.2-.24l-.09.14c-.21-.08-.15-.27-.3-.39l.13-.08-.14,0c.14-.06.17-.2,0-.17l.47,0c0,.11-.2,0-.3.16s0,.22.18.16c0-.06-.05-.05-.13-.06.17-.14.22-.05.36-.09,0,0,0-.1-.06-.07a.24.24,0,0,1,.24.13c-.11,0-.08.11-.15.12.16-.1.27,0,.3.1-.13.2.26.13.29.29a.92.92,0,0,1-.48,0c0,.13.07.09.05.22a.91.91,0,0,1,.48-.08l-.11.09c.12.06.3-.06.35.08a3.81,3.81,0,0,0,.32.64l-.11.08c.31-.08.3.23.49.28,0,.28.41.36.28.6a3.48,3.48,0,0,1,.85.95l-.21.06c.17,0-.06.11,0,.15.08-.16.23,0,.37-.05,0,.25.27.36.49.43l-.11.08c.32,0,.25.31.34.52,0,.05-.11.16-.06.2.25,0,.28,0,.49.1a1,1,0,0,1,.16.47c.54.21.66.73,1.12,1l-.12.13c.57.19.67.87,1.07,1.1l-.26.13c0,.16.24.2.38.05,0,.16.31.18.17.39,0,.14.2.05.3.12a.81.81,0,0,0,.35.52l0-.06c-.06,0-.16.08-.14.14s.15.33.36.05c0,.33.51.41.46.77.06-.07.12,0,.18,0,.15.18.16.49.39.55,0,.06-.16,0-.1.13s.09-.07.17-.05c.37.2.34.73.59,1a7.7,7.7,0,0,1,1.26,1.37l-.06,0c.33,0,.1.53.5.4,0,.08.09.16,0,.21.24,0,.16.45.48.48,0,0,0,0-.06,0,0,.27.32.29.37.57a.23.23,0,0,0-.14,0c0,.16.37,0,.15.24,0,0,.15-.08.12-.1.25.5.8.78,1.22,1.14.12.43-.39.39,0,.46,0,.06.1-.07.06,0,.14,0-.15.39,0,.34s.12,0,.21-.12c.07.27,0,.43.21.47l-.09.06c.37,0,.44.26.82.16.45.42.91.81,1.37,1.2s.94.75,1.39,1.15a13.18,13.18,0,0,0,1.3,1.18,14.81,14.81,0,0,1,1.28,1.23c.05.39.07.4.38.5,0,0-.06,0-.07.07.15-.17.18.12.34,0a8.13,8.13,0,0,0,1,.79c-.07,0-.22.11-.14.14l.16-.06,0,.06c.06,0,.18,0,.18-.14a5.42,5.42,0,0,1,1.34,1,6.92,6.92,0,0,0,1.32,1.05,2,2,0,0,0,.8.48,4.23,4.23,0,0,0,2,1.53S202.56,295.73,202.17,295.66Z"/><path class="cls-7" d="M175.84,267.47c-.07.09-.07.21-.24.23A1.73,1.73,0,0,1,175.84,267.47Z"/><path class="cls-7" d="M176.42,270.39s0,.06,0,.08-.12,0-.09-.05S176.37,270.4,176.42,270.39Z"/><path class="cls-7" d="M176.76,271a.31.31,0,0,1-.3-.1Z"/><path class="cls-7" d="M176.78,271.78c0,.09-.08.11-.12,0A.28.28,0,0,1,176.78,271.78Z"/><path class="cls-7" d="M177,271.69s0,.1,0,.15S176.85,271.77,177,271.69Z"/><path class="cls-7" d="M177.57,273s.13,0,.06.13C177.67,273.07,177.43,273.08,177.57,273Z"/><path class="cls-7" d="M178.07,273.47s0,0,0,0-.09.06-.12,0Z"/><polygon class="cls-7" points="185.66 282.82 185.58 282.8 185.66 282.74 185.66 282.82"/><path class="cls-7" d="M189.2,286.75c.09,0,0,.11,0,.13S189.27,286.81,189.2,286.75Z"/><polygon class="cls-7" points="191.57 288.41 191.55 288.39 191.7 288.25 191.57 288.41"/><path class="cls-7" d="M120.36,312.14c.06.06.15-.09.09,0S120.3,312.19,120.36,312.14Z"/><path class="cls-7" d="M122.38,292.72c.34.47-.27.48-.11.87,0,0-.25-.14-.22,0,.24.41-.14.66-.56.8l-.07,0c-.08,0,.13.21.07.25s-.06-.05-.13-.07c.14.08,0,.13.12.21a2.14,2.14,0,0,0-.27-.06l.15.11c.36.27-.12.21,0,.42,0,0-.07,0-.11,0,.16.31,0,.53,0,.79a1.33,1.33,0,0,0-.24-.1c.18.09.2.17.21.25-.2-.05.13.17,0,.2l0,0c.18.13-.14,0,.08.17l-.16,0c.26.12-.16,0,0,.12l0,0c0,.06-.09,0-.06.09h0c0,.11-.13.11.08.18-.18,0-.05-.11-.31-.15a1.53,1.53,0,0,1-.12,1,.76.76,0,0,1-.21,0s0,.12.11.18h-.13c-.1,0,.21.13.1.16a.4.4,0,0,0-.2-.08c.15.1.11.16.14.24a.33.33,0,0,0-.12-.06c.17.12-.07.11,0,.2l-.12-.05c-.17.05.25.09.14.15a.25.25,0,0,0-.13-.05c.2.13.09.24.15.33h0c0,.09-.08.16,0,.27s-.3-.09-.27,0c.25.06.07.18.36.2-.06.06-.18.16-.11.23-.09-.06-.31,0-.32-.11l-.16,0c-.1,0,0,0-.09-.06s.08.15,0,.17c.14.09.42.21.43.31-.09-.07-.29,0-.32-.07l.45.23s-.2,0-.14,0a.52.52,0,0,1,.15.07s0,.14-.21.1c-.1,0,0-.06-.13,0s.07.08.07.14h0s.09.13.23.12-.15,0-.07,0,.17.12.16.18a1.07,1.07,0,0,0-.17-.06.8.8,0,0,1,.29.31c.12,0-.21-.07-.14-.07-.19.08.19.27-.07.32,0,0,.17,0,.14,0s-.2,0-.14.07c-.1,0,0,0,.05.09s-.05,0-.06,0,.21.29,0,.38c.06,0,.23.11.22.13l-.15,0c-.1,0,0,.09-.13.08.18.08-.14-.24,0-.15-.13,0,.23.14,0,.1,0,0,.17.13,0,.16,0,0-.21-.07-.21,0s.07,0,.12.1l.06.05c.15,0,0,.06.14.06-.12,0,.07.11-.19.08l-.19,0s.2.08.28.12h-.09c.31,0,0,.07.2.14-.12.05,0,.17-.23.18.09.07.2.12.13.18a.19.19,0,0,0-.1,0c-.09,0,0,0,0,.08a1.7,1.7,0,0,0-.29.09c.08.07.25.06.35.07-.31,0,.18.17-.09.21a.25.25,0,0,0-.23-.05c-.3,0,.22.11.07.18h.25c-.16,0,.14.12-.12.09.09,0-.09.09.16.1-.22.11.1.31-.34.37,0,0,0,.06.13.06s-.1-.05,0-.06.08,0,.11,0-.07.07-.28,0,.42.11.32.22-.14,0-.13,0l.18.07c-.05.07-.24,0-.41,0,0,0,0,.09.15.11l-.22,0c.16,0,.1,0,.15.05l0,0c-.07,0,0,.06,0,.08a.35.35,0,0,0,.18-.07c.07,0,.06,0,.14.07-.16,0-.12.07-.14.1s.16,0,.15.05,0,.05-.14,0,.09,0,0-.05-.22,0-.11.07.34,0,.23.06-.11,0-.17,0l-.09.07h.08c.16,0,0,.1.23.11,0,0-.11.07-.12.1h0c-.09,0,0,.09.08.12h0s0,.07.1.1c-.11.05-.58,0-.38.08,0,.05.28.08.38.05-.1.1.15.2-.08.3.06,0,.1,0,.13,0s.2.29-.1.42c-.07,0-.16,0-.24,0,.13,0-.15.05.09.05s.21,0,.26-.06a.15.15,0,0,1,0,.26.19.19,0,0,1,.15,0c-.23,0-.25.08-.17.12h.13l-.13,0s.28,0,.16.06l-.15,0c.12,0,.31.09.2.15l-.19.06a.21.21,0,0,0,.19,0c-.11.1-.12.15-.28.2.42.11.45.33.45.51h-.1c-.09.06.18,0,.12.05s-.21.06-.33,0,.19.07.24.11-.09,0,.08,0-.09.11.11.09a1.1,1.1,0,0,1-.31,0l.1,0c-.22.08-.43-.07-.71,0l0,0c-.2.07-.25-.07-.31,0a1,1,0,0,0,.48,0c.07.08.48,0,.48.07s0-.07-.2,0,.1.08,0,.13a.46.46,0,0,1,.32,0c-.09.06-.2,0-.21.07s.21,0,.29,0c.26,0-.07.08.14.08-.18.05-.43,0-.51.09.17,0,.25,0,.5,0a.55.55,0,0,1-.29.06c-.11.06.33.05,0,.12l.18,0-.2.09s.27.07,0,.11c0,0,0,.09.21,0s-.15,0,.1-.11c-.2.07,0,.07.12.09l-.11,0s0,.06.15.05a.23.23,0,0,0-.16,0h.17c.09.06-.28.07-.22.13l-.14,0s-.11.06-.06.08l.45,0c.07,0-.16.05,0,.06l-.18,0s-.24.08-.22.13a.51.51,0,0,0,.34,0s-.07.08-.18.08c.06,0,.15,0,.25,0-.09,0-.21.13-.35.2h-.25v0c-.21,0-.15.05-.36.07,0,0,0,.05.11.06.31-.14.46,0,.76-.1.1.08-.72.22-.23.22.07,0,.31,0,.21-.08s.31,0,.2.08-.29.12-.48.08c.1,0,.06-.06,0-.06s-.3.06-.29.12,0,.08.21,0,0-.05.15-.07-.19.14.12.1c0,0,.14-.09.26-.12l.08,0h-.11c-.06.11.21,0,.2.07l-.21.09c-.2,0,0-.14-.26-.05,0,.06.17,0,.1.11l-.07,0s-.42.14-.16.16c.11,0,.12,0,.24,0s.18.08.21.13c-.23,0,0,.11-.24.1.12-.06.08-.18-.15-.16s0-.08-.26,0c0,.08-.25.14-.43.19,0,0,.08,0,.11,0s.15-.06.32-.1c0,.09.09.15.26.15-.07.05-.24.08-.26.05a.36.36,0,0,1,0,.3c.25-.13.08.08.3,0a.55.55,0,0,1,.35-.17s-.12,0-.17.06c.15,0-.22.12,0,.1-.11-.06-.33.07-.54.11.13,0-.15,0-.14.1a.64.64,0,0,1,.31.14c-.17.15.06.22.09.3s-.33.11-.36.17.24-.12.16,0h-.05c.06,0-.11.19.23.11l-.26.05s0,0,.07,0a.48.48,0,0,1-.21.06c-.16.11.06.1.08.15l.14-.09c.15.06,0,.16.1.23l-.15.05.1,0c-.14,0-.22.11-.09.1l-.4,0c.07-.06.19,0,.33-.08s0-.13-.09-.1,0,0,.08,0c-.2.08-.2,0-.35.05,0,0,0,.06,0,0-.11,0-.14,0-.16-.08s.12-.06.18-.06c-.18.05-.25,0-.22-.07.19-.11-.17-.08-.14-.18a1.57,1.57,0,0,1,.44,0c.08-.08,0-.05,0-.13a1.19,1.19,0,0,1-.45,0l.13,0c-.09,0-.29,0-.27-.06a1.42,1.42,0,0,0,0-.37l.14,0c-.31,0-.16-.15-.3-.19.1-.16-.2-.24,0-.36a.91.91,0,0,1-.31-.6h.21c-.16,0,.11-.05.07-.09s-.22,0-.35,0c.14-.14-.06-.23-.21-.3l.13,0c-.27,0-.07-.19-.05-.31s.18-.07.16-.1a.71.71,0,0,1-.38-.13.31.31,0,0,1,.1-.26c-.35-.21-.18-.5-.41-.74l.16,0c-.39-.21-.1-.57-.3-.77h.29c.08-.08-.09-.15-.29-.12.08-.08-.15-.16.08-.22,0-.08-.14-.08-.18-.14s.06-.2,0-.33v0c.06,0,.18,0,.19,0s.07-.18-.26-.11c.19-.16-.17-.34.09-.49-.1,0-.11,0-.18,0s.18-.26,0-.36c.05,0,.16,0,.16,0s-.11,0-.17,0c-.18-.2.17-.42.13-.6a2.29,2.29,0,0,1-.09-1h.07c-.26-.12.28-.24-.11-.34.07,0,0-.1.17-.07-.18-.1.19-.22,0-.36t0,0c.16-.11,0-.24.11-.35s0,0,.11,0-.27-.15.06-.14c0,0-.17,0-.16,0,.15-.27,0-.59,0-.9.22-.18.55.06.33-.14.06,0-.12,0-.06,0s.38,0,.21-.11-.1-.05-.22-.07c.14-.11.32-.1.19-.23l.1,0c-.27-.17-.09-.28-.41-.44,0-.33,0-.66,0-1a8.3,8.3,0,0,1,.1-1c.1-.31.18-.62.26-.93a2.74,2.74,0,0,1,.38-.9c.31-.06.31-.07.26-.27,0,0,0,0,.09,0-.21-.08,0-.12-.18-.21a4.94,4.94,0,0,0,.23-.68c0,.05.17.13.18.09l-.12-.1H120a.26.26,0,0,0-.19-.11,1.73,1.73,0,0,1,.41-.85,3.07,3.07,0,0,0,.54-.77c.15-.09.16-.31.19-.48.49-.27.91-.51.95-1C121.88,292.13,122.36,292.48,122.38,292.72Z"/><path class="cls-7" d="M120.31,312.06c.1-.05.15-.12.3-.13A1.94,1.94,0,0,1,120.31,312.06Z"/><path class="cls-7" d="M121,310.41s0,0,.06,0,.1,0,0,0S121.08,310.41,121,310.41Z"/><path class="cls-7" d="M121,310.07a.25.25,0,0,1,.22.06Z"/><path class="cls-7" d="M121.34,309.66c.07,0,.12-.05.13,0Z"/><path class="cls-7" d="M121.11,309.69s0-.05.1-.07S121.28,309.66,121.11,309.69Z"/><path class="cls-7" d="M121.25,309s-.1,0,0-.07C121.19,308.93,121.4,309,121.25,309Z"/><path class="cls-7" d="M121,308.69s0,0,0,0,.12,0,.13,0Z"/><polygon class="cls-7" points="120.31 302.94 120.36 302.98 120.26 302.97 120.31 302.94"/><path class="cls-7" d="M120.63,300.4c-.06,0,.1,0,.11,0S120.62,300.36,120.63,300.4Z"/><polygon class="cls-7" points="120.43 298.93 120.43 298.94 120.23 298.89 120.43 298.93"/><path class="cls-7" d="M20.52,202.41c0,.09.15.12,0,.1S20.46,202.37,20.52,202.41Z"/><path class="cls-7" d="M42.79,199.84c-.46.38-.6-.25-1-.05,0,0,.11-.26,0-.23-.42.28-.77-.08-1-.49l0-.07c0-.08-.21.15-.27.09s.05-.06.05-.14c-.06.15-.15,0-.21.14a2.35,2.35,0,0,0,0-.27l-.09.16c-.23.39-.26-.1-.48.09a.26.26,0,0,0,.05-.12c-.32.2-.61.08-.9.11a1,1,0,0,0,.06-.25c-.06.19-.15.21-.23.23,0-.2-.17.16-.23,0l0,0c-.11.2-.08-.13-.18.1V199c-.08.28-.06-.16-.14,0V199c-.06.06-.06-.08-.12,0v0c-.12.06-.15-.11-.19.11,0-.18.12-.06.11-.33a2.13,2.13,0,0,1-1.12,0c0-.09-.06-.12,0-.2s-.15,0-.19.13a.24.24,0,0,0,0-.13c-.06-.09-.1.24-.16.13a.46.46,0,0,0,.05-.21c-.08.17-.16.13-.24.18a.22.22,0,0,0,0-.13c-.1.19-.14-.05-.22.06l0-.12c-.1-.17-.05.26-.14.16a.58.58,0,0,0,0-.14c-.11.22-.25.13-.35.21a.18.18,0,0,0,0-.06c-.1,0-.2,0-.32.05,0-.06,0-.31-.07-.27,0,.26-.19.1-.14.39-.09-.05-.22-.15-.29-.06.05-.1,0-.32.05-.34l-.06-.16c0-.1.06,0,0-.09s-.15.11-.19.06c-.07.16-.14.45-.25.47,0-.09,0-.28,0-.32l-.16.49s0-.21-.06-.14a.85.85,0,0,1,0,.17s-.15.07-.17-.19c0-.1.06,0,0-.14s-.07.09-.14.1v0c-.05,0-.14.11-.09.25s0-.15,0-.08-.11.19-.18.2a.84.84,0,0,0,0-.18.87.87,0,0,1-.28.35c0,.12,0-.22.05-.16-.14-.16-.26.24-.38,0,0,0,0,.17,0,.14s-.07-.19-.1-.13c0-.1-.05,0-.09.07s0,0,0-.06-.28.26-.42.13c0,.06-.07.25-.1.25v-.16c0-.09-.1,0-.11-.11-.06.19.24-.19.16,0,0-.13-.11.26-.1,0-.07,0-.11.2-.18.05,0,0,0-.22,0-.2s0,.07-.09.13l0,.07c0,.15-.09,0,0,.15,0-.12-.12.09-.13-.16v-.2s0,.21-.06.3a.17.17,0,0,1,0-.09c0,.31-.1,0-.12.23-.09-.11-.2,0-.26-.18-.05.1-.09.22-.17.17a.17.17,0,0,0,0-.11c0-.09,0,0-.08.05s-.12-.16-.18-.26c-.05.1,0,.26,0,.36-.09-.29-.14.22-.25,0,0,0,.07-.16,0-.22-.1-.29-.08.23-.19.1l.06.25c-.07-.15-.11.16-.14-.09,0,.09-.12-.07-.07.17-.18-.18-.33.18-.5-.23,0,0-.07,0,0,.13s0-.1.06,0a.2.2,0,0,0,0,.11c-.06,0-.1-.06-.09-.27s0,.44-.17.37,0-.14-.07-.11l0,.18c-.09,0-.1-.21-.13-.38,0,0-.1,0-.09.17l-.1-.2c.07.14,0,.11,0,.15v0c0-.07-.06,0-.08,0a.31.31,0,0,0,.12.16c0,.08,0,.07,0,.16,0-.17-.1-.1-.14-.11s0,.16,0,.15-.07,0-.07-.12.05.07.06,0-.07-.21-.1-.09.08.33,0,.24a1,1,0,0,0,0-.17l-.09-.07,0,.15,0-.07c0,.16-.1.07-.07.25,0,0-.1-.08-.14-.09h0c-.06-.08-.1,0-.11.1v0s-.08,0-.08.13c-.09-.1-.17-.56-.19-.35-.05,0,0,.3,0,.39-.13-.07-.18.2-.35,0,0,.06,0,.1,0,.14s-.27.27-.49,0c0-.07,0-.14-.07-.23,0,.14-.08-.12,0,.11a.52.52,0,0,0,.13.24c-.07.09-.21.15-.3,0a.17.17,0,0,1,0,.15c-.06-.22-.14-.23-.17-.13l0,.13L27,200.4s.07.27,0,.17a.81.81,0,0,0-.06-.13c0,.12,0,.32-.13.23l-.11-.17s0,.16.05.2c-.14-.08-.21-.07-.3-.22a.56.56,0,0,1-.46.6l0-.09c-.08-.07,0,.17,0,.12s-.12-.18-.12-.3,0,.2-.06.26,0-.09.06.07-.14-.06-.07.13a.86.86,0,0,1-.11-.28v.11c-.15-.2,0-.45-.21-.69l0,.05c-.12-.18,0-.27-.11-.29a.86.86,0,0,0,.14.46c-.07.09.14.46,0,.49s.07-.06,0-.2-.06.12-.12.09a.44.44,0,0,1,.1.29c-.09-.06,0-.18-.12-.17s0,.22.09.27c.08.25-.1,0-.06.16-.1-.15-.1-.42-.22-.47.09.16,0,.26.15.49a.52.52,0,0,1-.13-.27c-.09-.08,0,.34-.13,0l.06.18s-.08-.08-.14-.16,0,.28-.14,0c0,0-.09.06,0,.22s0-.16.14.06c-.13-.17-.07.06-.07.14l0-.09s-.05,0,0,.15a.3.3,0,0,0-.08-.14l0,.16c0,.11-.14-.25-.19-.17v-.14s-.09-.09-.11,0l.15.42c0,.08-.09-.14-.07,0l0-.19s-.15-.2-.2-.17,0,.28.12.33-.1,0-.13-.16c0,.08.08.14.07.25-.07-.08-.2-.17-.31-.27l-.05-.25,0,0c0-.21-.1-.13-.17-.33,0,0,0,.07,0,.13.23.26.13.45.29.71-.06.12-.41-.63-.29-.15.06.06.12.29.14.18s.1.29,0,.22-.21-.25-.22-.45c.05.1.08.05.08,0s-.14-.28-.2-.24-.08.08,0,.21.05,0,.11.12-.19-.13-.07.16c0-.05.14.1.19.21l0,.1,0-.11c-.13,0,.07.2,0,.22l-.15-.18c-.08-.18.17,0,0-.27-.07,0,0,.18-.1.14s0,0,0-.08-.26-.36-.21-.09c0,.11,0,.11.1.21s0,.21-.09.26c-.1-.21-.11,0-.17-.21.1.11.22,0,.15-.2s.09,0,0-.26c-.08,0-.21-.2-.31-.35,0,0,0,.08,0,.11s.1.13.19.28c-.11,0-.14.14-.1.31-.07-.06-.15-.21-.12-.24a.47.47,0,0,1-.32.16c.21.2-.07.11.1.28a.58.58,0,0,1,.26.29s-.06-.1-.11-.14c0,.15-.18-.17-.1.05,0-.13-.16-.3-.25-.49,0,.14-.08-.13-.15-.09a.7.7,0,0,1-.08.35c-.2-.12-.22.15-.29.21s-.21-.29-.28-.29.19.19,0,.15l0,0c0,.07-.24,0-.06.27l-.13-.24s0,0,0,.09a.59.59,0,0,1-.12-.19c-.15-.12-.08.09-.13.14l.12.1c0,.16-.17.08-.22.18l-.09-.13v.11c-.08-.12-.18-.17-.14,0l-.08-.4c.09.05.07.18.18.29s.15,0,.08-.13,0,0,0,.1c-.13-.17-.08-.19-.14-.32s-.07,0,0,0c0-.1,0-.14,0-.18s.1.09.12.15c-.11-.15-.09-.24,0-.24.17.15,0-.2.16-.2a1.08,1.08,0,0,1,.11.42c.11.05.05,0,.16,0a1,1,0,0,1-.15-.44l.08.11c0-.1-.1-.27,0-.29a2.25,2.25,0,0,0,.4-.15l.08.11c-.1-.29.13-.2.13-.36.2,0,.21-.28.4-.11.17-.22.31-.45.58-.52l.06.2c0-.15.08.09.11,0-.13-.12,0-.21-.07-.34.18.08.24-.14.27-.31l.07.12c0-.29.2-.14.34-.16s.12.15.14.12a.79.79,0,0,1,.05-.42.4.4,0,0,1,.32,0c.14-.4.51-.34.72-.64l.08.15c.15-.45.61-.28.8-.53l.07.27c.1.06.15-.13.06-.31.1.05.15-.2.27,0,.1,0,.05-.15.11-.21a.35.35,0,0,0,.37-.1h0c0,.06,0,.17.08.18s.23,0,.07-.3c.22.14.33-.25.56-.05,0-.08,0-.11,0-.17s.34.09.41-.09c0,0,0,.16.07.15s0-.11,0-.17c.19-.24.51,0,.71,0a3.08,3.08,0,0,1,1.11-.36v.07c.07-.28.33.21.36-.18,0,0,.12,0,.12.14.06-.19.29.13.4-.12,0,0,0,0,0,0,.16.13.26-.09.43,0a.19.19,0,0,0,0,.12c.07.12.1-.3.17,0,0,0,0-.17,0-.15.34.07.67-.15,1-.26.26.18.05.55.23.29,0,.06,0-.12,0-.06.07-.09.14.36.18.18s0-.11,0-.23c.16.11.2.29.31.13v.11c.13-.3.29-.15.4-.49.39,0,.77-.12,1.15-.17a8.75,8.75,0,0,1,1.14-.09l1.13.1a3.35,3.35,0,0,1,1.11.24c.14.3.15.29.36.22,0,0,0,.05,0,.09.05-.22.14,0,.19-.2.27.09.55.06.83.13,0,0-.11.19-.06.19l.09-.13v.06a.21.21,0,0,0,.08-.2,2.21,2.21,0,0,1,1.06.31,4,4,0,0,0,1,.46c.13.14.39.13.58.15.41.48.76.88,1.36.89C43.35,199.28,43.05,199.79,42.79,199.84Z"/><path class="cls-7" d="M20.6,202.33c.08.08.17.1.22.25A1.71,1.71,0,0,1,20.6,202.33Z"/><path class="cls-7" d="M22.57,202.41s0,0,.06,0,0,.11,0,.06S22.59,202.45,22.57,202.41Z"/><path class="cls-7" d="M23,202.26a.27.27,0,0,1,0,.24Z"/><path class="cls-7" d="M23.47,202.44c.07.05.08.1.05.12A1,1,0,0,1,23.47,202.44Z"/><path class="cls-7" d="M23.38,202.22s.06,0,.1.07S23.45,202.38,23.38,202.22Z"/><path class="cls-7" d="M24.21,202.11s0-.11.08,0C24.23,202,24.26,202.24,24.21,202.11Z"/><path class="cls-7" d="M24.46,201.81s0,0,0,0a.13.13,0,0,1,0,.12Z"/><polygon class="cls-7" points="30.73 199.41 30.7 199.46 30.69 199.36 30.73 199.41"/><path class="cls-7" d="M33.7,199.15c0-.07,0,.09,0,.1S33.75,199.13,33.7,199.15Z"/><polygon class="cls-7" points="35.33 198.67 35.32 198.67 35.33 198.46 35.33 198.67"/><path class="cls-7" d="M110.27,36.8c-.1,0-.1.15-.1,0S110.3,36.74,110.27,36.8Z"/><path class="cls-7" d="M123.93,29.76c.62.11.3.73.75,1,0,0-.27.1-.17.16.52.19.5.83.34,1.35h-.09c0,.09.26.1.26.2s-.09,0-.15,0c.16,0,.12.13.25.13-.05,0-.18.09-.23.15h.19c.47,0,.07.34.35.46-.05,0-.09,0-.12,0,.34.23.39.63.56,1a.8.8,0,0,0-.26,0,.29.29,0,0,1,.32.16c-.19.08.22.13.12.26h0c.22,0-.1.14.16.17l-.15.07c.28,0-.13.14,0,.19h.06c.07.06-.06.11,0,.16h0c.09.13-.06.23.16.2-.17.07-.09-.12-.34,0a2.22,2.22,0,0,1,.22,1.38c-.09.05-.11.08-.2.08s0,.18.13.23-.11,0-.12,0,.23.12.12.2a.33.33,0,0,0-.21-.06c.17.1.12.2.16.3a.17.17,0,0,0-.12,0c.18.13-.06.17,0,.28l-.12-.06c-.18.11.26.09.14.2,0,0-.08,0-.13-.05.2.15.09.33.13.46l0,0c0,.13-.11.24-.05.4s-.29-.11-.29,0c.25.08,0,.25.33.27-.08.1-.23.24-.19.34-.07-.09-.31-.07-.29-.16h-.17c-.09,0,.06,0-.07-.08s0,.21,0,.23c.11.14.34.34.3.48-.06-.1-.27-.09-.29-.15.12.13.24.27.35.41s-.18-.09-.15,0a.28.28,0,0,1,.11.13s0,.21-.27.1,0-.1-.11-.1,0,.13,0,.21l0,0c-.06,0,0,.2.15.23s-.14-.07,0-.08a.23.23,0,0,1,0,.3c0-.05-.07-.08-.12-.13a.82.82,0,0,1,0,.53c.1.07-.13-.18-.07-.16-.25,0,0,.45-.35.4,0,0,.14.11.11.09s-.2-.07-.19,0,0,.08,0,.14,0,0,0-.06c0,.12-.14.46-.39.48.05,0,.06.27,0,.29l-.09-.13c-.09-.06-.11.1-.2,0,0,.21.2-.35.19-.15-.11-.09,0,.31-.11.12-.06.05,0,.25-.19.18,0,0-.06-.22-.12-.17s0,.09,0,.18l0,.09c.08.14-.11,0,0,.17-.08-.1-.13.16-.24-.07l-.09-.18s0,.23,0,.33a.22.22,0,0,1-.06-.07c.14.28-.13,0-.09.28-.15,0-.28.12-.41,0,0,.12-.09.25-.21.23a.2.2,0,0,0,0-.12c-.09-.06-.08,0-.12.08s-.18-.13-.28-.21c0,.11,0,.26,0,.36-.16-.27-.21.25-.37,0,0-.05.09-.18,0-.24-.14-.28-.11.25-.27.13l.07.25c-.08-.14-.17.17-.19-.08,0,.09-.16-.07-.12.18-.23-.18-.52.17-.67-.27,0,0-.1,0-.09.13s.07-.1.09,0,0,.08,0,.11-.12-.07-.06-.28c-.14-.15-.15.42-.33.32q0-.15-.06-.12l-.11.17c-.12,0-.06-.24,0-.41-.06,0-.14,0-.17.14l-.06-.22c0,.16-.06.09-.09.13l0,0c0-.07-.08,0-.12,0a.24.24,0,0,0,.11.19c0,.07-.09,0-.14.13,0-.16-.09-.13-.14-.15s-.08.14-.1.13-.09,0,0-.14,0,.09.08,0,0-.22-.1-.12,0,.33-.13.21a.6.6,0,0,0,.08-.16l-.08-.1,0,.15a.16.16,0,0,1,0-.07c-.06.15-.17,0-.22.2,0,0-.09-.13-.14-.15l0,0c0-.1-.14-.05-.21,0v0s-.11,0-.17.07c-.06-.14.1-.58,0-.41-.09,0-.2.25-.19.35-.12-.14-.35.06-.43-.2,0,0,0,.09-.08.11-.2-.12-.51,0-.59-.3.08,0,0-.14.08-.23-.1.12,0-.15-.11.07s-.06.19,0,.27c-.15,0-.35,0-.37-.19a.13.13,0,0,1-.07.14c.08-.21,0-.27-.1-.22l0,.12v-.15s-.13.26-.15.11a.89.89,0,0,0,0-.14c-.11.07-.28.21-.32.07v-.21s-.14.1-.1.17c-.09-.16-.17-.21-.14-.39a.77.77,0,0,1-1,0l0-.09c0-.12-.12.14-.13.06s0-.22.14-.3-.2.1-.29.11.09,0,0,.09-.09-.16-.2,0a.65.65,0,0,1,.15-.27l-.1.05c0-.24.35-.28.41-.58h-.06c0-.21.24-.14.15-.27-.1.06-.29.29-.28.4-.15,0-.28.39-.41.3,0-.12.12,0,.17-.12s-.16,0-.19-.07c0,.1-.13.25-.19.26s.14-.14.06-.22c-.07.1-.2.12-.17.24-.16.2-.06-.13-.22,0,.07-.18.32-.31.26-.45-.07.16-.25.13-.33.39a.38.38,0,0,1,.14-.27c0-.12-.31.2-.15-.11l-.11.14c0-.06,0-.12,0-.22s-.29.11-.14-.12c0,0-.13-.07-.19.12s.15-.07,0,.18c.07-.21-.11,0-.19,0l0-.1s-.09,0-.17,0a.21.21,0,0,0,.08-.14l-.12.12c-.14,0,.13-.25,0-.28l.14,0s0-.14,0-.13-.23.24-.31.32.07-.15-.07-.06l.17-.1s.09-.24,0-.28-.27.13-.24.25,0-.13,0-.2c-.11,0-.08.14-.2.16s0-.27,0-.43l.22-.15,0,0c.18-.12.06-.14.22-.29,0,0-.09,0-.15,0-.11.34-.38.29-.54.56-.17,0,.38-.65-.05-.38,0,.08-.23.22-.09.21-.06-.09-.25.2-.26,0,.14,0,.11-.3.33-.37-.07.08,0,.11,0,.09s.19-.23.11-.29-.13-.06-.22.07.08,0-.06.15,0-.25-.21,0c.07,0,0,.19-.1.28h-.12l.09-.08c-.06-.16-.17.13-.26,0l.09-.22c.16-.13.11.2.29-.07-.06-.07-.19,0-.2-.08h.09s.23-.37,0-.27-.09.08-.17.17c-.14-.07-.25,0-.33-.06.17-.16-.11-.13.13-.23-.06.13.11.27.3.13s.06.1.26-.09c-.08-.08.1-.29.21-.44s-.09,0-.12,0-.09.15-.2.28c-.07-.12-.22-.13-.39-.06,0-.09.15-.21.2-.18a.64.64,0,0,1-.32-.33c-.13.26-.16-.07-.28.14a.4.4,0,0,1-.19.35c0-.05.09-.09.11-.14-.15.06.1-.25-.11-.12.16,0,.25-.22.42-.36-.15,0,.11-.11,0-.17a1.13,1.13,0,0,1-.42-.05c0-.25-.24-.26-.33-.35s.25-.25.23-.33-.15.22-.15.06l0,0c-.07,0,0-.27-.31-.07l.23-.15s-.06,0-.09,0,.11-.13.17-.14c.09-.17-.12-.1-.18-.15l-.08.14c-.19,0-.13-.2-.25-.27l.12-.09H110c.13-.08.16-.19,0-.15l.42-.07c0,.1-.18.07-.28.19s0,.18.16.1c0,0,0,0-.11,0,.15-.15.19-.09.32-.15s0-.09,0,0a.19.19,0,0,1,.21.06c-.1,0-.08.1-.14.13.15-.12.24-.1.26,0s.22,0,.25.16a.92.92,0,0,1-.43.15c0,.12.06.06,0,.18.12-.07.3-.2.43-.19l-.1.1c.11,0,.26-.13.3,0a1.55,1.55,0,0,0,.29.42l-.09.1c.26-.15.26.11.42.08,0,.22.37.16.28.4a2,2,0,0,1,.79.44l-.17.13c.14-.08,0,.12,0,.13,0-.17.19-.12.3-.2,0,.21.26.19.45.14l-.08.12c.25-.15.24.13.35.25s-.07.19,0,.2a1,1,0,0,1,.41-.16.69.69,0,0,1,.2.3c.45-.1.65.25,1,.24l0,.16c.46-.17.7.3,1,.24l-.14.25c0,.12.22,0,.28-.18,0,.11.26-.05.23.19.06.08.15-.08.23-.09a.42.42,0,0,0,.39.17l0,0c0,.05-.08.16,0,.19s.2.15.24-.19c.12.24.46,0,.56.27,0-.09,0-.09.09-.15s.27.26.43.13c0,.06-.07.15,0,.17s0-.11.08-.16c.28-.11.47.27.71.26a6,6,0,0,1,1.17-.06v.06c.1-.26.31.25.36-.15,0,.06.11,0,.11.14.06-.19.29.13.37-.13,0,0,0,0,0,0,.17.12.23-.11.4,0a.27.27,0,0,0,0,.13c.09.1,0-.32.16,0,0,0,0-.16,0-.15.34,0,.56-.34.75-.58.3,0,.35.43.35.12.05,0-.07-.1,0,0,0-.12.32.2.25,0s0-.11-.12-.2c.2,0,.34.1.32-.09l.07.08a.41.41,0,0,1,0-.31.43.43,0,0,0-.07-.32,3.93,3.93,0,0,0,.45-1c.11-.34.18-.7.26-1a3.82,3.82,0,0,0,.2-1.05c0-.36,0-.71.12-1.1.26-.2.25-.22.12-.41,0,0,.06,0,.1,0-.23,0,0-.14-.25-.13a3.72,3.72,0,0,0-.16-.86c0,.05.22,0,.19,0l-.15,0,.06,0a.2.2,0,0,0-.22,0c-.35-.69-.14-1.56-.47-2.31,0-.21-.16-.44-.27-.62a2.33,2.33,0,0,0-.39-1.83S123.7,29.56,123.93,29.76Z"/><path class="cls-7" d="M110.37,36.89c-.08.08-.08.18-.24.23A1.29,1.29,0,0,1,110.37,36.89Z"/><path class="cls-7" d="M110.85,39.17s0,0,0,.07-.11,0-.09,0S110.8,39.19,110.85,39.17Z"/><path class="cls-7" d="M111.19,39.59a.24.24,0,0,1-.27,0Z"/><path class="cls-7" d="M111.29,40.24c0,.09-.06.12-.1.08A.39.39,0,0,1,111.29,40.24Z"/><path class="cls-7" d="M111.47,40.09s0,.08,0,.14S111.35,40.21,111.47,40.09Z"/><path class="cls-7" d="M112.16,41s.12,0,.08.08C112.26,41,112.06,41.12,112.16,41Z"/><path class="cls-7" d="M112.67,41.19s0,0,0,0a.1.1,0,0,1-.1.09Z"/><polygon class="cls-7" points="121.68 43.4 121.63 43.46 121.62 43.36 121.68 43.4"/><path class="cls-7" d="M125.27,41c0-.08.1,0,.12,0S125.3,41,125.27,41Z"/><polygon class="cls-7" points="125.81 38.84 125.81 38.86 125.61 38.79 125.81 38.84"/></svg>