<?xml version="1.0" encoding="utf-8"?>
<!-- Generator: Adobe Illustrator 25.2.1, SVG Export Plug-In . SVG Version: 6.00 Build 0)  -->
<svg version="1.1" id="OBJECTS" xmlns="http://www.w3.org/2000/svg" xmlns:xlink="http://www.w3.org/1999/xlink" x="0px" y="0px"
	 viewBox="0 0 618.6 390.9" style="enable-background:new 0 0 618.6 390.9;" xml:space="preserve">
<style type="text/css">
	.st0{fill:#C3EDE9;}
	.st1{fill:none;stroke:#FFFFFF;stroke-width:2.22;stroke-miterlimit:10;}
	.st2{fill:none;stroke:#FFFFFF;stroke-width:1.75;stroke-miterlimit:10;}
	.st3{fill:none;stroke:#FFFFFF;stroke-width:1.93;stroke-miterlimit:10;}
	.st4{fill:#FFFFFF;}
	.st5{fill:#F9EBE3;}
	.st6{fill-rule:evenodd;clip-rule:evenodd;fill:#D0DBE4;}
	.st7{fill:none;stroke:#FBF4EF;stroke-width:1.05;stroke-miterlimit:10;}
	.st8{fill-rule:evenodd;clip-rule:evenodd;fill:#94D0DB;}
	.st9{fill:#EDD0C1;}
	.st10{fill:none;stroke:#E2C2AF;stroke-width:2.06;stroke-miterlimit:10;}
	.st11{fill:#D0DBE4;}
	.st12{fill:none;stroke:#E2C2AF;stroke-width:1.91;stroke-miterlimit:10;}
	.st13{fill:#AAB5FB;}
	.st14{fill:#EAB49B;}
	.st15{fill:none;stroke:#462C3B;stroke-width:1.3;stroke-linecap:round;stroke-miterlimit:10;}
	.st16{fill:#D25F3E;}
	.st17{fill:#D3626D;}
	.st18{fill:none;stroke:#DC9C82;stroke-width:0.95;stroke-miterlimit:10;}
	.st19{fill:#472D3C;}
	.st20{fill:none;stroke:#462C3B;stroke-width:1.55;stroke-linecap:round;stroke-miterlimit:10;}
	.st21{fill:#D3626C;}
</style>
<path class="st0" d="M557.5,288.5c0-134.8-109.2-244-244-244s-244,109.2-244,244c0,15.5,1.5,31,4.4,46.2h479.2
	C556,319.4,557.5,304,557.5,288.5z"/>
<circle class="st0" cx="85" cy="45.8" r="45.8"/>
<circle class="st0" cx="584.6" cy="123.7" r="30"/>
<path class="st1" d="M400.9,89.1h135.5c0,0-0.7-6.1-15.7-11s-25.9,7.6-42.9,0s-26-18.5-48-12.4S400.9,89.1,400.9,89.1z"/>
<path class="st2" d="M82.9,138.4h92.7c0,0-0.4-4.5-10.7-8.1s-17.7,5.6-29.3,0s-17.8-13.6-32.8-9.1C93.9,123.7,86.7,130,82.9,138.4z"
	/>
<path class="st3" d="M617.6,202.1c0,3-2.5,5.4-5.5,5.3c-3,0-5.4-2.5-5.3-5.5c0-3,2.4-5.3,5.4-5.3
	C615.2,196.7,617.6,199.1,617.6,202.1z"/>
<path class="st3" d="M233.2,9.5c0,3-2.5,5.4-5.5,5.3c-3,0-5.4-2.5-5.3-5.5c0-2.9,2.4-5.3,5.4-5.3C230.8,4,233.2,6.5,233.2,9.5
	C233.2,9.5,233.2,9.5,233.2,9.5z"/>
<path class="st4" d="M489.2,30.5c0,2.2-1.8,3.9-4,3.8c-2.2,0-3.9-1.8-3.8-4c0-2.1,1.8-3.8,3.9-3.8C487.4,26.6,489.2,28.4,489.2,30.5
	z"/>
<ellipse class="st3" cx="8.7" cy="202.9" rx="7.7" ry="7.8"/>
<path class="st5" d="M372,262.3c4-18.6,9.6-36.3,20.1-55s25.9-38.3,49.1-61.9c0,0-0.7,4.8-2.6,12.8c-2.6,10.7-6,21.2-10.3,31.4
	C418.1,214.2,399.9,243.9,372,262.3z"/>
<path class="st5" d="M363.9,273.9c8-14.6,4.6-34.1-1.6-51.5s-15.2-32.7-17.6-40.3c-3.9,12.3-6.3,25.1-7.1,38
	C336.8,240.4,340.5,263.5,363.9,273.9z"/>
<path class="st5" d="M362.3,277.1c16.1-14.9,36.3-22,55.9-26.1s38.3-5.3,50.5-7.6c-3.1,3.4-6.4,6.7-9.8,9.7
	c-7.9,7.2-16.5,13.5-25.6,18.9C412.2,284.5,384.9,292.1,362.3,277.1z"/>
<path class="st5" d="M338,309c13.4-17.3,7.3-40.3-2.2-58.1c-6.2-11.3-13.8-21.8-22.5-31.3c-0.8,3.5-1.5,7-1.9,10.5
	c-1.2,8.2-1.7,16.6-1.4,24.9C310.8,274.1,316.1,296.7,338,309z"/>
<path class="st5" d="M338.9,307.8c15.2-11,36.2-16.7,57.5-17.4s43.2,4,59.6,15.4c-8.3,4.8-17,8.7-26.2,11.5
	c-15.3,4.8-34.9,7.5-51.7,0.5s-26.5-9.6-32.1-10.3S338.9,307.8,338.9,307.8z"/>
<path class="st5" d="M319.9,325.2c0.1,0.5,0.1,1.1,0.2,1.6l0.8,0.1l1.5,0c3.9-10.2,2-23.7-5.1-35.7c-8.8-15-25.3-27.7-47-31
	c1.4,6.4,3.5,12.7,6.2,18.6c4.7,10.1,12.5,22.1,25.6,28.5C314.8,313.5,319,320.1,319.9,325.2z"/>
<path class="st5" d="M182.3,267.4c-12.5-9.7-23.8-20.3-34.2-34.9s-19.9-33.4-29.8-59.7c0,0,3.3,2.3,8.6,6.6
	c7.1,5.8,13.8,12.2,19.9,19C161.8,214.9,177.8,239.4,182.3,267.4z"/>
<path class="st5" d="M188.2,277.6c-8.2-11.3-23.8-15.6-38.8-17.1s-29.3,0-35.8-0.8c7.9,7.3,16.6,13.7,25.9,19
	C154.3,286.6,172.8,291.9,188.2,277.6z"/>
<path class="st5" d="M190.1,280c-5.8-17.7-4.3-35.6-0.9-52.1s8.7-31.2,11.1-41.4c1.5,3.6,2.9,7.3,4,11c2.7,8.6,4.6,17.4,5.6,26.4
	C212.1,244.4,208.7,268,190.1,280z"/>
<path class="st5" d="M205.7,309.9c-8.4-16.4-27.5-19.9-43.9-18.9c-10.5,0.7-20.8,2.8-30.7,6.2c2.3,1.9,4.7,3.6,7.2,5.2
	c5.7,3.8,11.7,7.2,18.1,9.9C170.8,318.5,189.4,322.4,205.7,309.9z"/>
<path class="st5" d="M205.2,308.8c-3.1-15.6-0.4-33.7,6.1-50.3s17.3-31.7,31.2-40.2c0.8,8,0.8,16.1-0.1,24.2
	c-1.5,13.4-6,29.4-16.7,39.8s-15.9,16.9-18.3,21S205.2,308.8,205.2,308.8z"/>
<path class="st5" d="M216.2,330.7c-4.9-10.2-2-24.5,6.5-36.5s22.8-21.5,41-20.3c-1.5,5.7-3.7,11.2-6.6,16.3
	c-4.8,8.5-12.6,17.6-24.1,20.8c-11,3.1-15.2,8.1-16.7,12.3C215.5,325.5,215.4,328.2,216.2,330.7z"/>
<path class="st6" d="M200.4,334.9c0.6,0,1.2,0,1.7,0.1c3.3,0.5,6.8-0.1,10.2-0.2l0.1-0.1c3.3-4-4-1.8,7.3-15.5
	c5.7-7,1.4-30.7-18.6-51.1c8.2,16.1,4.7,38.2,2.9,32.2c-1.9-6.2-1.7-32.8-12-40.3c-11.4-8.4-24.2-14.8-37.8-18.9
	c15.2,18.4,18.9,35.2,13.6,35.2c-2.3,0-12.2-35.6-28.7-38.6c-13.6-2.5-29.2-3-47-1.3c1.5,14.5,2.4,28.1,7.9,38.6
	c13,24.9,52.7,22.3,55.7,29.2c2.2,5.3-34.2,0.6-50-12.7c7.2,17,20.6,32.3,30.4,39.1s34.1-5.3,40.5-5.4c6.2-0.1,4.3,5.7-12.4,9.6
	c1.1-0.1-1.1,0.1,0,0c1.9-0.4,1.9,0.2,3.8-0.1c1.6-0.5,3.4-0.4,5,0.1c3.1-0.2,6.2-0.2,9.4,0c1.5-0.1,3-0.1,4.5,0
	C191.5,334,195.7,334.5,200.4,334.9z"/>
<path class="st7" d="M111.2,254.6c0,0,39.3,22.5,93.6,79.6"/>
<line class="st7" x1="144.2" y1="262.2" x2="151.9" y2="284.3"/>
<path class="st6" d="M524.8,283.3c5.8-11,6.8-25.1,8.4-40.3c-18.5-1.8-34.8-1.4-49.1,1.1c-17.2,3-27.7,40.2-30.1,40.2
	c-5.5-0.1-1.6-17.6,14.4-36.7c-14.2,4.2-27.6,10.8-39.5,19.6c-10.7,7.8-10.7,35.6-12.7,42.1c-1.9,6.2-5.4-16.9,3.2-33.7
	c-21,21.2-25.7,46-19.7,53.3c11.8,14.5,21.2-1.5,24.6,2.8c1,1.2,1.3,1.6,0.1,3.2c1.7-0.4,2.3,0.1,3.8,0c1.9-0.1,4.3-0.7,5.8-0.2
	c1,0,1.7-0.2,2.7-0.2c0.6,0,1.3,0,1.9,0c7.5-0.3,13.9,0.2,21.5,0.3c1.3,0,2.6,0,3.8,0.1c10.4-0.6,20.7-1.2,31.1-0.4
	c10-9.7,18.1-21.3,23.8-34c-16.5,13.9-54.7,18.6-52.3,13C469.6,306.3,511.1,309.2,524.8,283.3z"/>
<path class="st7" d="M513.2,262c0,0-30.3,13.1-87.3,72.5"/>
<line class="st7" x1="478.8" y1="269.7" x2="471.2" y2="291.3"/>
<path class="st8" d="M280.4,334.3c1.6-6,2.6-12.1,2.8-18.3c-2.8,8-8.5,14.9-13.1,19.1C273.5,334.9,277,334.4,280.4,334.3z"/>
<path class="st8" d="M218,334.7c1.5,0,3.1,0,4.6-0.1c-2.1-1.6-4.5-3.6-7.3-6.1c0.5,2.2,1,4.2,1.4,6.2L218,334.7z"/>
<path class="st9" d="M236.9,333.1c1.2-0.1,2.5,0.1,3.6,0.6c3.1-0.4,6.2-0.5,9.3-0.5c1.4-0.1,2.8-0.1,4.2-0.2c2.3-0.3,4.6-0.6,7-0.8
	c2.8-0.2,5.6-0.1,8.3-0.1c-12.2-35-46.9-118.7-110.1-152.5c0,0-15,58.1,65.1,154.7c3.3-0.2,6.5-0.6,9.8-0.9
	C235,333.2,235.9,333.1,236.9,333.1z"/>
<line class="st7" x1="171" y1="205.9" x2="246.4" y2="332.7"/>
<line class="st7" x1="207.1" y1="266.6" x2="209.9" y2="237.9"/>
<line class="st7" x1="214.2" y1="301.2" x2="231.4" y2="307.5"/>
<path class="st9" d="M345.8,328.6c4.7,0.7,9.6,1.4,14.3,2.2c1.7,0.2,3.4,0.4,5.1,0.8c1.7-0.1,2.9,0.9,4.4,1.1c0.3,0,0.5,0.1,0.8,0.1
	c88.3-96,75.1-156.5,75.1-156.5c-89.9,48.1-95.7,101.8-113,150.1c3.3,0.6,6.6,1.3,10,1.8C343.4,328.3,345,328.1,345.8,328.6z"/>
<line class="st7" x1="432.5" y1="202.1" x2="350" y2="329.2"/>
<line class="st7" x1="394.1" y1="261.4" x2="392.5" y2="233.3"/>
<line class="st7" x1="385.6" y1="295.7" x2="368.2" y2="301.3"/>
<path class="st10" d="M112.9,335c0,0-47.3-32.6-41.5-98.2"/>
<circle class="st11" cx="72.1" cy="232.8" r="8.9"/>
<path class="st11" d="M78.2,220.4c0.2,2.8-1.9,5.2-4.7,5.4c-2.8,0.2-5.2-1.9-5.4-4.7c-0.2-2.8,1.9-5.2,4.7-5.4c0,0,0,0,0,0
	C75.6,215.4,78,217.6,78.2,220.4z"/>
<path class="st10" d="M111.7,333.8c0.1,0-49.2,5.1-69.9-42.9"/>
<path class="st11" d="M46.8,284.1c2.1,3.3,1.1,7.6-2.2,9.6c-3.3,2-7.6,1.1-9.6-2.2c-2-3.2-1.1-7.5,2.1-9.6
	C40.3,279.8,44.7,280.7,46.8,284.1C46.8,284,46.8,284,46.8,284.1z"/>
<circle class="st11" cx="37.1" cy="279" r="4"/>
<path class="st10" d="M510.5,335c0,0,47.3-32.6,41.5-98.2"/>
<path class="st11" d="M542.4,232.1c-0.4,4.9,3.3,9.1,8.2,9.5c4.9,0.4,9.1-3.3,9.5-8.2c0.4-4.9-3.3-9.1-8.2-9.5c0,0,0,0,0,0
	C547,223.6,542.7,227.2,542.4,232.1z"/>
<path class="st11" d="M545.1,220.4c-0.2,2.8,1.9,5.2,4.7,5.4s5.2-1.9,5.4-4.7c0.2-2.8-1.9-5.2-4.7-5.4
	C547.7,215.4,545.3,217.6,545.1,220.4z"/>
<path class="st10" d="M511.6,333.8c0,0,49.2,5.1,69.9-42.9"/>
<path class="st11" d="M576.5,284.1c-2.1,3.3-1.1,7.6,2.2,9.6s7.6,1.1,9.6-2.2c2-3.2,1.1-7.5-2.1-9.6
	C583,279.8,578.7,280.7,576.5,284.1C576.6,284,576.5,284,576.5,284.1z"/>
<ellipse transform="matrix(0.9764 -0.2161 0.2161 0.9764 -46.4458 133.2806)" class="st11" cx="586.2" cy="279" rx="4" ry="4"/>
<line class="st12" x1="15.8" y1="335" x2="610.2" y2="335"/>
<polygon class="st12" points="151.9,351.6 65.6,389.9 556.3,389.9 472.5,351.6 "/>
<polygon class="st13" points="280.8,275.8 263.9,303.4 296.4,342 329.1,342 359.7,302.7 340.8,275.8 "/>
<path class="st13" d="M263.9,303.4c0,0-72.9,5.6-91.2,24.7s-7.7,31.7,8.1,39.8c22.3,11.4,88.3,8.9,130.1-4.9l6.8-39.8L263.9,303.4z"
	/>
<path class="st13" d="M357.8,302.4c0,0,76.3,6.6,94.6,25.7s7.7,31.7-8.1,39.8c-22.3,11.4-102.9,9.5-144.6-4.3l7.7-40.4L357.8,302.4z
	"/>
<path class="st14" d="M374.9,335l-16.4-2l-2.5-6.5l6.4-2.9c0,0-0.9-9.1,7-10.7s17.2,4.8,26.4,0.7c8.4-3.8,18.7-7.2,28.4-2
	c1.4,0.8,2.1,2.5,1.6,4v0.1c-0.5,1.5-2,2.5-3.6,2.4c-5.4-0.6-10.8,0.6-15.4,3.4C400.7,325.3,386,330.9,374.9,335L374.9,335z"/>
<line class="st15" x1="322.8" y1="330.6" x2="355" y2="327.5"/>
<path class="st15" d="M304.4,365.1c-25.7-5.9-52.6-21.1-52.6-21.1l1.6-2.7"/>
<path class="st15" d="M263,330.2c0,0,118.9-3.7,149.3,15.6"/>
<path class="st15" d="M205.1,337.9c0,0,21.5-10.1,36.2-3.5"/>
<path class="st14" d="M255.1,341.9l7.9-12l-7.9-4.2c0,0,1.6-9-6.1-11.2s-17.6,3.5-26.4-1.3c-8.1-4.4-18.1-8.7-28.1-4.2
	c-1.5,0.7-2.3,2.3-1.9,3.9v0.1c0.4,1.6,1.8,2.7,3.4,2.6c5.4-0.2,10.7,1.4,15.2,4.5C221,327.2,255.1,341.9,255.1,341.9z"/>
<line class="st15" x1="281.9" y1="316.7" x2="299.8" y2="329.7"/>
<path class="st16" d="M358.7,155.2c-12.1-19.6-14.2-51.9-14.2-51.9L314.6,91v-1l-1.8,0.5L311,90v1l-29.7,12c0,0-3.2,33.6-15.4,53.2
	c-12,19.4-3.4,43.6,46.9,40.1C363.1,199.9,370.7,174.6,358.7,155.2z"/>
<path class="st17" d="M329.5,170.2l28.9,9.3c5.4,2,6.8,8,5.4,13.6l-23,82.8h-60L260,191.3c-0.9-3.9,1-9.6,4.7-11l31.3-11.6
	L329.5,170.2z"/>
<path class="st14" d="M350.8,213.1l30.2,67.6c2.4,6.6,9.3,10.4,16.1,8.9l0,0c7.6-1.7,12.3-9.1,10.7-16.7c-0.1-0.5-0.3-1.1-0.5-1.6
	c-5.9-16.9-23.9-51-30-67.9c-2.7-7.3-10.8-11.1-18.1-8.4c-0.7,0.3-1.4,0.6-2.1,1l0,0C351.2,199.4,348.5,206.7,350.8,213.1z"/>
<path class="st17" d="M359.5,180.3c0,0,9.9,0.9,22.2,33.3l-28.7,14.9l-9.3-27.8L359.5,180.3z"/>
<line class="st15" x1="354.9" y1="226.8" x2="358.9" y2="208.4"/>
<path class="st14" d="M388.3,258c-0.8-0.3-0.4,1.5-72.8-29.2l-3.1,4.2c-0.1,4.3,0.8,8.5,3.5,10.2l71.6,45.2L388.3,258z"/>
<path class="st14" d="M312.4,232.9l-0.4-35.3c0-0.8,0.6-1.4,1.4-1.4c0,0,0,0,0,0l0,0c0.7,0,1.3,0.5,1.4,1.2l9.6,41.8L312.4,232.9z"
	/>
<line class="st18" x1="367.5" y1="250.4" x2="381.6" y2="255.9"/>
<path class="st14" d="M273.4,213.1l-30.2,67.6c-2.4,6.6-9.3,10.4-16.1,8.9l0,0c-7.6-1.7-12.3-9.1-10.7-16.7c0.1-0.5,0.3-1.1,0.5-1.6
	c6-16.9,23.9-51,30-67.9c2.7-7.3,10.8-11.1,18.1-8.5c0.7,0.3,1.5,0.6,2.2,1l0,0C273.1,199.5,275.7,206.7,273.4,213.1z"/>
<path class="st17" d="M264.8,180.3c0,0-9.9,0.9-22.2,33.3l28.7,14.9l9.3-27.8L264.8,180.3z"/>
<line class="st15" x1="268.5" y1="226.8" x2="264.4" y2="208.4"/>
<path class="st14" d="M235.9,258c0.8-0.3,0.4,1.5,72.8-29.2l3.1,4.2c0.3,4.9-1.2,8.7-3.8,10.4l-71.3,44.9L235.9,258z"/>
<path class="st14" d="M311.8,232.9l0.4-35.3c0-0.8-0.6-1.4-1.4-1.4c0,0,0,0,0,0l0,0c-0.7,0-1.3,0.5-1.4,1.2l-9.6,41.8L311.8,232.9z"
	/>
<line class="st18" x1="312.1" y1="197" x2="312.4" y2="234.7"/>
<line class="st18" x1="256.8" y1="250.4" x2="243.2" y2="255.9"/>
<path class="st14" d="M301.2,165.9l-22.2,9c10,5.3,21.1,8.1,32.3,8.3c12,0.1,23.9-2.6,34.7-7.8l-23.2-10.4L301.2,165.9z"/>
<path class="st14" d="M322.8,143.8c-2.8,0.1-5.5,0.5-8.2,1c-4.8,0.9-8.7-1.6-9.7,1.6c0,0.1-3.9-3.2-3.9-3.2l-2,31.9
	c0,0,12.7,7.8,26.6-0.4L322.8,143.8z"/>
<path class="st19" d="M297.9,139.6c0,0,5.8,14.3,25.8,15.3l-1.7-19.1L297.9,139.6z"/>
<path class="st16" d="M344.7,103.5c0,18.3-14.2,33.1-31.8,33.1s-31.7-14.8-31.7-33.1s14.2-30.7,31.8-30.7S344.7,85.2,344.7,103.5z"
	/>
<path class="st14" d="M337.8,104.1c0,8.7-1,17.3-3,25.7c-1.5,6.2-5.6,10.6-11.5,14.1l-1.1,0.6c-6.3,3.7-14.1,3.8-20.5,0.2l0,0
	c-6.3-3.6-10.8-8.4-12.1-15c-1.6-8.5-2.5-17-2.8-25.6c0,0-2.4-26.2,25.1-25.7C339.5,79,337.8,104.1,337.8,104.1z"/>
<path class="st14" d="M289.9,130.3c-4.6,4.5-16.2-8.7-11.9-13.9c3.9-4.8,9.5,0.7,9.5,0.7l1,4.9l1.4,6.6l0.4,1.5L289.9,130.3z"/>
<path class="st14" d="M334.8,130c4.9,3.9,16.8-10.4,12-14.6s-9.9,1.3-9.9,1.3l-0.9,4.9l-1.3,6.7l-0.3,1.5L334.8,130z"/>
<polygon class="st16" points="282.2,112.5 288.1,119.9 286.9,101.9 "/>
<polygon class="st16" points="341.9,112.5 336.6,119.8 337.8,101.9 "/>
<polyline class="st20" points="312.8,119.1 313.2,122.4 311.7,123.3 "/>
<path class="st21" d="M304,130h16.1c0,0-1.8,2.6-8,2.6C305.3,132.6,304,130,304,130z"/>
<path class="st21" d="M304,130l3.7-1.9c0.8-0.4,1.7-0.4,2.5-0.1l1.9,0.8l1.7-0.7c0.8-0.3,1.8-0.3,2.6,0.1l3.6,1.9H304z"/>
<path class="st20" d="M304,113.9c-2,1.6-4.8,1.6-6.9,0"/>
<path class="st20" d="M326.5,113.9c-2,1.6-4.8,1.6-6.9,0"/>
<path class="st19" d="M317.1,105.8c0,0,8.2,0.4,13.6,3.7c0,0,0-3.4-5.2-5C322.7,103.6,319.6,104.1,317.1,105.8z"/>
<path class="st19" d="M306.6,105.8c0,0-8.2,0.4-13.6,3.7c0,0,0-3.4,5.2-5C301,103.6,304.2,104.1,306.6,105.8z"/>
<path class="st16" d="M289.9,83.7c0,0,9.5,19.3,50.8,20.3c0,0,4.5-18.3-16.7-25.6S289.9,83.7,289.9,83.7z"/>
<path class="st16" d="M284.1,107.2c0,0,12.7-3.7,14.4-24.8C298.4,82.4,285.5,84.4,284.1,107.2z"/>
<path class="st15" d="M287.5,124.1c0,0-0.6-3.5-5.5-3.4"/>
<path class="st15" d="M336.8,124.1c0,0,0.6-3.5,5.5-3.4"/>
</svg>
