<?xml version="1.0" encoding="utf-8"?>
<!-- Generator: Adobe Illustrator 25.2.1, SVG Export Plug-In . SVG Version: 6.00 Build 0)  -->
<svg version="1.1" id="Layer_1" xmlns="http://www.w3.org/2000/svg" xmlns:xlink="http://www.w3.org/1999/xlink" x="0px" y="0px"
	 viewBox="0 0 512 512" style="enable-background:new 0 0 512 512;" xml:space="preserve">
<style type="text/css">
	.st0{fill:#B3CEC9;}
	.st1{fill:#CAE0DD;}
	.st2{fill:#6D6D6D;}
	.st3{fill:#F9CFAC;}
	.st4{fill:#FFE4CC;}
	.st5{fill:#1FC7C6;}
	.st6{fill:#797A7A;}
</style>
<path class="st0" d="M441.6,230.5l-0.1,0.2c-14.5,14.5-18.4,35.4-31.5,48.1v-21.6c0-9.2-7.1-17.1-16.3-17.6
	c-9.8-0.5-17.9,7.4-17.9,17.1v32.5c-11.7-1.9,6.7-3.2-102.6,10.2v-59.8L432,201.1c2.6,5.3-1.2,17.6,2,22.8
	C435,225.6,439.9,229.3,441.6,230.5L441.6,230.5z"/>
<path class="st1" d="M430.9,228.8c-7.1,12.1-11.7,25.1-21,34v-5.8c0-9.2-7.1-17.1-16.3-17.6c-9.8-0.5-17.9,7.4-17.9,17.1v16.8
	c-2.9-0.5-6-1.3-8.5-1.3l-50.5,6.2c-23.1,2.8-43.5-15.2-43.5-38.5c0-0.1,142-34.5,141.8-34.5c8.8-2.1,17.2,4.3,17.7,13.3
	C432.8,220.4,433.5,224.4,430.9,228.8L430.9,228.8z"/>
<path class="st2" d="M490.5,163.3c-7,12.8-20.9,21.5-36.9,21.5c-13.5,25.4-9.3,16.2-18.9,40.1c-4.5-4.4-8.3-9.5-11.1-15.2
	c-5.2-10.8-5.2-19.2-5.2-27.2c3.7-1.9,6.9-5.2,8.4-9.6c5.1-14.5,5.8-15.1,5.5-20.1C450.9,138,479,142.9,490.5,163.3L490.5,163.3z"/>
<path class="st3" d="M495.4,181.6c0,40.3,0.4,39.9-1.2,44.4c-3,8.4-11.2,14.4-20.8,14.4c-14.2,0-28-5.2-38.7-15.5
	c9.6-23.8,5.4-14.7,18.9-40.1c15.9,0,29.9-8.7,36.9-21.5C493.6,168.6,495.4,174.9,495.4,181.6L495.4,181.6z"/>
<path class="st4" d="M495.4,181.6c0,40.3,0.4,39.9-1.2,44.4c-5.8,6.6-12.5,9-20.9,5.5c-15.9-6.7-22.9-25.4-15.9-41.1l2.7-6
	c12.4-1.8,23.1-9,29.4-19.1c0.5-0.3,1.1-0.7,1.6-1.1C493.8,169.4,495.4,175.3,495.4,181.6L495.4,181.6z"/>
<path class="st2" d="M432.5,154.2c0,3.8-1,5.8-4.1,14.4c-1.8,5-2.9,9.9-9.2,13.5c-13.8,8-30.7-5.3-25.4-20.3
	c1.2-3.3,0.3-0.8,4.6-13.1c3.1-8.9,13.1-13.7,22.3-10.6C428,140.5,432.5,147.1,432.5,154.2L432.5,154.2z"/>
<path class="st5" d="M273.1,239.7v59.8L85.1,316.6v-34.2c137.3-52.8,101.3-38.2,122.4-49c8.4-4.3,18.9-8.6,27.8-8.6
	C247.5,224.9,264,232.8,273.1,239.7L273.1,239.7z"/>
<path class="st5" d="M273.1,239.7c0,24.8-18.9,45.8-43.9,48l-125.9,11.4c-9.8,0.9-18.3-6.9-18.3-16.7c0-0.1-3.4,1.3,111.1-42.7
	c0,0,2.9-2,11.3-6.3c8.4-4.3,18.9-8.6,27.8-8.6C247.5,224.9,264,232.8,273.1,239.7L273.1,239.7z"/>
<path class="st3" d="M85.1,282.4v34.2l-42.7,8.5l-7,35.1c-1,4.9-6.1,7.7-10.8,5.9c-9.6-3.7-16.4-13-16.4-23.9v-29
	c0-8,5.6-14.9,13.4-16.7L85.1,282.4z"/>
<path class="st4" d="M85.1,282.4c0,9.8-6.9,18.2-16.5,20.1l-26.2,5.2l-4,20.1c-3.6,17.9-30.2,15.6-30.2-3v-11.7
	c0-8,5.6-14.9,13.4-16.7L85.1,282.4z"/>
<path class="st3" d="M486.9,367.9h-76.9c-18.9,0-34.2-15.3-34.2-34.2v-76.9c0-6.1,3.2-11.4,8-14.5c11.4-7.2,26.2,1.2,26.2,15v76.5
	c38.8,0,45.1,1.5,55.5-5.6c7.4-5,17.5-2.4,21.5,5.6c0.1,0.1,6.6-0.5,12.1,5C509.7,349.5,502.1,367.9,486.9,367.9L486.9,367.9z"/>
<path class="st4" d="M504,350.7c-2.6,1.7-5.8,2.6-9.1,2.6h-76.9c-18.9,0-34.2-15.3-34.2-34.2v-76.7c11.4-7.2,26.2,1.2,26.2,15v76.5
	c38.8,0,45.1,1.5,55.5-5.6c7.4-5,17.5-2.4,21.5,5.6c0.1,0.1,6.6-0.5,12.1,5C502,341.8,503.9,346,504,350.7L504,350.7z"/>
<path class="st6" d="M486.9,158.2c-19.4,12.8-57.4,13.7-80.8,6.1c-6.5-2.1-10-9.1-7.8-15.6c6.1-17.4,32.4-14.2,34,4.1
	C449.1,139.3,473.8,142.1,486.9,158.2L486.9,158.2z"/>
<path d="M369.9,226.6l44.7-11.4c3.3,5.2,9.8,14.2,14.7,19c2,1.9,1-2.7-11.4,21.5c-0.6,1.1,0-0.8-2.2-5.7
	c-3.8-8.5-12.1-14.4-21.6-14.9c-4.4-0.2-8.2,3.2-8.4,7.6c0,4.9,3.5,8.2,7.6,8.4c4.7,0.2,8.6,4.5,8.6,9.6c0,3.8,0,15.3,0,76.5
	c0,4.4,3.6,8,8,8c49.6,0,51.6,3.1,74-19.4c3.1-3.1,3.1-8.2,0-11.3c-3.1-3.1-8.2-3.1-11.3,0c-17.2,17.2-15.4,14.8-54.7,14.8v-43.7
	c11-12.2,15.6-28.8,25.3-41.2c9.2,5,19.6,7.6,30.3,7.6c16.5,0,30-13.2,30-29.4c0-38.4,1.7-46.1-6-59.6
	c-11.8-20.7-38.5-29.2-60.9-18.6c-11.4-17.7-38.7-14.7-45.7,5.1l-4.6,13.1c-5.8,16.4,6.7,33.6,24.5,33.3c0.1,1.2,0.3,2.5,0.4,3.7
	l-45.2,11.6c-4.3,1.1-6.9,5.5-5.8,9.7C361.3,225.2,365.6,227.7,369.9,226.6L369.9,226.6z M480.9,166.9c-6.1,8.1-16.1,13.4-27.3,13.4
	c-4.4,0-8,3.6-8,8c0,4.4,3.6,8,8,8c12,0,24.1-4.2,33.7-12.8c0.1,1.2,0-1.8,0,39c0,7.4-6.3,13.4-14,13.4c-11,0-21-3.6-29-9.7
	c-0.1-0.1-0.5,0.9,5.4-13.7c1.7-4.1-0.3-8.8-4.4-10.4c-4.1-1.7-8.8,0.3-10.4,4.4l-2.5,6.2c-4-6.8-6-14.3-6-22.4
	c3.1-2.5,5.6-5.7,7.2-9.3c0-0.1,6.1-15.6,6.7-20.5C453.4,152.2,471,154.8,480.9,166.9L480.9,166.9z M407.2,179.4
	c-4.9-1.6-7.5-6.8-5.8-11.5l4.6-13.1c3.3-9.3,17.6-7.6,18.5,2.1c0.2,2.6,0.1,2-5.1,16.8C417.7,178.4,412.3,181.1,407.2,179.4
	L407.2,179.4z"/>
<path d="M335.9,235.1c6.6,0,10.4-5.2,9.1-10.3c-1.1-4.3-5.4-6.9-9.7-5.8l-1.3,0.3C324.9,221.6,326.6,235.1,335.9,235.1z"/>
<path d="M8.1,379.4H504c7.3,0,10.8-9,5.4-13.9c8.3-16.7-3.9-36.3-22.5-36.3c-4.4,0-8,3.6-8,8s3.6,8,8,8c2.4,0,4.7,0.9,6.4,2.6
	c5.7,5.7,1.7,15.6-6.4,15.6h-76.9c-14.4,0-26.2-11.8-26.2-26.2c0-14.4,0-46.4,0-60.7c0-4.4-3.6-8-8-8c-4.4,0-8,3.6-8,8v6.9
	c-1.4,0,5.1-0.8-95.4,11.6L93.1,311.3v-19.9c114-43.8,106.5-40.8,107.6-41.6c4.5-3,23.2-13.5,34.6-13.5c10,0,23.3,6.7,29.9,11v21.3
	c0,4.4,3.6,8,8,8c4.4,0,8-3.6,8-8v-19.2l26-6.6c3.6-0.8,6.3-4,6.3-7.8c0-4.4-3.6-8-8-8c-1.4,0,0.4-0.4-30.6,7.6
	c-7.6-5-24.4-14.1-39.5-14.1c-8.6,0-19.2,3.2-31.4,9.4c-20.4,10.4,13.3-3.3-121.1,48.4l-63,14c-11.6,2.6-19.7,12.6-19.7,24.5
	c0,29.8-1.4,36.7,5.3,47.1C-3,366.9-0.8,379.4,8.1,379.4L8.1,379.4z M273.9,311c0.8-0.1,93.4-11.5,93.9-11.5v37.7
	c0,9.9,3.4,19,9.2,26.2c-7.8,0-297.5,0-333.4,0l5.6-28C98.5,325.6,55.7,330.8,273.9,311z M16.1,316.7c0-4.3,2.9-8,7.1-8.9l53.8-12
	v17.7l-36.3,7.3c-3.2,0.6-5.6,3.1-6.3,6.3l-7,35.1c-6.6-2.5-11.3-9-11.3-16.5V316.7z"/>
</svg>
