<?xml version="1.0" encoding="utf-8"?>
<!-- Generator: Adobe Illustrator 25.2.1, SVG Export Plug-In . SVG Version: 6.00 Build 0)  -->
<svg version="1.1" id="Layer_1" xmlns="http://www.w3.org/2000/svg" xmlns:xlink="http://www.w3.org/1999/xlink" x="0px" y="0px"
	 viewBox="0 0 512 512" style="enable-background:new 0 0 512 512;" xml:space="preserve">
<style type="text/css">
	.st0{fill:#F9CFAC;}
	.st1{fill:#FFE4CC;}
	.st2{fill:#6D6D6D;}
	.st3{fill:#B3CEC9;}
	.st4{fill:#CAE0DD;}
	.st5{fill:#1FC7C6;}
	.st6{fill:#797A7A;}
</style>
<path class="st0" d="M278.6,67.9c0,18.6-6,30.1-11.3,42.2c-8.9,20.3-40.6,20.3-49.5,0l-4.6-10.5c-4.8-10.9-8.6-28-5.8-38.9
	c3.6-14.5,17.8-25.5,35.2-25.5C262.1,35.1,278.6,49.5,278.6,67.9z"/>
<path class="st1" d="M277.7,60.5c-1.8,12-5.6,19.5-10.4,30.4c-8.9,20.3-40.6,20.3-49.5,0c-4.9-11.2-8.6-18.3-10.4-30.4
	c6.2-24.8,40.5-34.3,60.7-15.9C272.7,48.9,276.1,54.4,277.7,60.5z"/>
<path class="st2" d="M278.6,67.9c0,4.3-0.4,8.7-1.1,12.9c-1.6-5.8-4.9-11-9.5-15.1c-19.9-18.1-53.7-9.2-60.5,15.1
	c-2.6-14.9-1.2-27.9,11.1-37.5C241.6,24.7,278.6,39.4,278.6,67.9z"/>
<path class="st2" d="M224.4,39.9V26c0-10,8.1-18,18-18c10,0,18,8.1,18,18v13.8"/>
<path class="st3" d="M303.2,138l-6.5-8.1c-3.1-3.1-7.2-4.7-11.3-4.7h-86c-4.1,0-8.2,1.6-11.3,4.7c-0.3,0.4-6.3,7.9-6.7,8.4
	c9.4,50.6,15.9,32.7,15.9,113.2h90.2c0-41.8,1.1-55.9,6.2-74.2C294.7,173.6,304.3,139.4,303.2,138z"/>
<path class="st4" d="M291.8,135.6l-5.3-6.6c-2.5-2.5-5.8-3.8-9.2-3.8h-69.8c-3.3,0-6.6,1.3-9.2,3.8c-0.2,0.3-5.1,6.4-5.4,6.8
	c6.2,33.4,11.7,31.3,12.7,70.2c0.5,19.3,16.3,34.8,35.6,34.8c24.3,0,37.6-17,38.1-35c0.4-15.2,1-24.9,4.8-38.3
	C285,164.4,292.7,136.7,291.8,135.6L291.8,135.6z"/>
<path class="st5" d="M365.1,305.8l-77.5-54.3h-90.2c-10.7,66.1-1.3,109.4,8.3,180.5l36.8-0.1V305.6l63.1,18v36.1h42.5
	C377.2,359.7,388.5,322.2,365.1,305.8L365.1,305.8z"/>
<path class="st5" d="M365.1,305.8l-77.5-54.3h-90.2c-9,55.6-3.3,78.4,6,147.5c2.2,16.1,21.9,22.7,33.3,11.2
	c3.5-3.5,5.7-8.5,5.7-13.9v-95.2c0-5.8,5.5-9.9,11-8.3l52.1,14.9c0,0.2-1.7-0.7,22.4,11h-22.4c0,13.8,11.2,25.1,25.1,25.1h17.4
	c13.6,0,25.1-9.2,28.6-21.7C374.8,315.3,370.6,309.6,365.1,305.8L365.1,305.8z"/>
<g>
	<path class="st0" d="M242.5,431.9V496c0,4.4-3.6,8-8,8h-53.8c-6.1,0-10.1-6.7-6.9-12c2-3.9,7.5-8.8,14.1-10.4l23.8-5.9
		c-1.4-10.6-0.3-1.9-5.9-43.7C207.4,432,202.5,432,242.5,431.9L242.5,431.9z"/>
	<path class="st0" d="M242.5,431.9V488c0,4.4-3.6,8-8,8h-53.8c-3.1,0-5.6-1.7-6.9-4c2-3.9,7.5-8.8,14.1-10.4l23.8-5.9l-1-7.7l1-0.3
		l-4.8-35.7L242.5,431.9z"/>
	<path class="st0" d="M305.6,323.6v36.1h-36.1c-4.6,18.5-5,25-12.8,31.2c-4,3.1-8.9,4.9-14.2,4.9v-56.1c0-8.8,7.2-16,16-16
		L305.6,323.6z"/>
</g>
<path class="st1" d="M305.6,323.6V349h-36.1c-4.6,18.5-5,25-12.8,31.2c-4,3.1-8.9,4.9-14.2,4.9v-45.5c0-8.8,7.2-16,16-16H305.6z"/>
<path class="st0" d="M242.5,165.1v50.3c0,5-4.1,9-9,9h-79.2c-12.4,0-21.8-11.3-19.8-23.3c1.2-7.2-0.6-3.3,53.7-71.2
	c7-7,18.3-5.5,23.2,0.7c5.6,6.3,5.3,15.8-0.7,21.8c-22.5,28.6-25.2,32.1-35.3,44.9h39.9l3.3-19c5-15.1,19.7-16.7,19.8-16.8
	C240.6,161.3,242.5,163,242.5,165.1L242.5,165.1z"/>
<path class="st0" d="M330.7,224.4h-79.2c-5,0-9-4.1-9-9v-50.3c0-2.1,1.9-3.8,4-3.5c0.1,0.1,14.8,1.7,19.8,16.8l3.3,19h40
	c-8.4-10.7-3.9-4.9-35.3-44.9c-10-10-2.9-27.2,11.3-27.2c4.1,0,8.2,1.6,11.3,4.7c5.7,7.1,49.3,61.6,49.6,62
	C356.7,204.9,347.5,224.4,330.7,224.4L330.7,224.4z"/>
<path class="st1" d="M238.5,199.9c0,5-4.1,9-9,9h-79.2c-6.5,0-12.4-3.2-15.8-7.7c1.2-7.2-0.6-3.3,53.7-71.2c6.2-6.2,16.3-6.2,22.5,0
	c0.2,0.2-1.1,4.1-4,7c-23.2,29.6-17.2,22-28.4,36.2c-4.2,5.4-5.3,12.6-2.8,19h4.1l-4.1,5.2h39.9l3.3-19c2.8-8.4,9.8-14.6,18.2-16.5
	C239,164.5,238.5,162.8,238.5,199.9L238.5,199.9z"/>
<path class="st1" d="M350.6,202.5c-2.8,3.4-8.5,6.4-14.6,6.4h-79.2c-5,0-9-4.1-9-9c0-36.7-0.5-35.2,1.4-37.6
	c7.8,2.2,14.4,8.1,17.1,16.2l3.3,19h40l-4.1-5.2h5.4c0.9-2.3,1.3-4.7,1.3-7c0-8.5-4.3-12.3-13.1-23.4c-23.5-30-22.9-28.5-23.8-32.8
	c6.2-5.2,15.6-5,21.5,0.9c38,47.5,4.9,6.2,49.6,62C348.8,194.9,350.2,198.6,350.6,202.5L350.6,202.5z"/>
<path class="st6" d="M267.4,44.2c-13.6,5.4-36.8,5-48.9-0.9C232.7,31.9,254,32.4,267.4,44.2z"/>
<path d="M8,512h496c4.4,0,8-3.6,8-8s-3.6-8-8-8H250.5v-93.3c10.7-2.8,19.4-11.3,22.2-22.5l3.1-12.5h72.3c36.8,0,51.6-47.5,21.6-68.5
	l-74.1-51.9c0-5.5,0.1-10.4,0.1-14.9h35c23.4,0,36.5-27.3,21.9-45.5c-53.5-66.9-49.7-62.2-50.2-62.7c-8.4-8.4-17.2-7-30-7
	c1.6-2.5,1.7-3.1,6.8-14.6c4.8-10.9,7.4-22.8,7.4-34.8c0-13.6-7.1-25.5-18-32.9c0-10.5,0.9-18.8-7.6-27.3
	C244.5-8.7,216.4,3,216.4,26v8.9c-11,7.5-18,19.3-18,32.9c0,12,2.5,23.7,7.4,34.9c4.9,11.2,5.1,11.9,6.8,14.5c-12.3,0-21.5-1.5-30,7
	c-0.6,0.6-4.5,5.6-7.7,9.5c-6.6,8.2,5.6,18.7,12.9,9.5c6.3-7.9,6.7-9.3,10.3-9.9c1.1-0.2-4.4-0.1,87.5-0.1c5,0,6,3.2,11.6,9.9
	c1.2,1.5-4.8-6,43,53.7c6.3,7.8,0.6,19.6-9.4,19.6h-79.2c-1.5,0-1,1.9-1-45.1c3.6,1.9,6.5,5.1,8,9.1l3.2,18.3c0.7,3.8,4,6.6,7.9,6.6
	h40c6.6,0,10.4-7.7,6.3-12.9l-23.1-29.4c-2.7-3.5-7.8-4.1-11.2-1.4c-3.5,2.7-4.1,7.8-1.4,11.2l4.8,6.2c-0.9,3.4-1.6,6.7-2.3,10.3
	h-6.4l-2.2-12.3c-0.8-4.5-5.2-12.4-12.3-17.5c-11.4-8.2-27-8.4-38.6,0c-6.8,4.9-11.5,12.8-12.3,17.5l-2.2,12.3h-6.4
	c-0.6-3.6-1.4-6.9-2.3-10.3l4.8-6.2c2.7-3.5,2.1-8.5-1.4-11.2c-3.5-2.7-8.5-2.1-11.2,1.4l-23.1,29.4c-4.1,5.2-0.4,12.9,6.3,12.9
	h39.9c3.9,0,7.2-2.8,7.9-6.6l3.2-18.3c1.5-4,4.3-7.2,8-9.1v44.1c0,1.6,4.2,1-80.2,1c-10,0-15.7-11.6-9.4-19.6l1.5-1.9
	c2.8-3.5,2.2-8.5-1.3-11.2c-3.5-2.8-8.5-2.2-11.2,1.3l-1.5,1.9c-14.8,18.5-1.3,45.5,21.9,45.5h35c0.1,5.4,0.1,11.5,0.1,18.5
	c-10.9,68.5-1.5,109.3,13.3,218.7l-16.8,4.2c-11.2,2.8-19.7,11.4-22.5,22.2H8c-4.4,0-8,3.6-8,8S3.6,512,8,512L8,512z M232.4,26
	c0-9,10.9-13.4,17.1-7.1c3.1,3.1,2.9,6.3,2.9,9.2c-6.4-1.4-13.2-1.5-20.1,0V26z M222.3,50.6c4.8-4.4,5-2.4,7.6-4.9
	c7.8-3.4,17.2-3.4,25,0c2.5,2.4,3,0.7,7.6,4.9c9.3,8.5,9.1,19.2,6.4,31.7c-1.9,8.8-4.3,13.5-9.1,24.5c-6.1,13.9-28.7,13.9-34.8,0
	c-5.7-13-10.7-22.6-10.7-38.9C214.4,61.4,217.2,55.2,222.3,50.6z M269.5,351.7c-3.7,0-6.9,2.5-7.8,6.1l-4.6,18.6
	c-1,3.9-3.4,7.1-6.6,9.2v-53.9h47.1v20.1H269.5z M242.5,229.8c5.5,3.5,7.4,2.6,37.2,2.6c-0.1,5.6-0.1,11.9-0.1,19.1
	c0,2,0.8,4.1,2.3,5.6c0.8,0.8-4.3-2.8,78.7,55.3c17.3,12.1,8.7,39.4-12.4,39.4h-34.5v-20.1h10c4.4,0,8-3.6,8-8s-3.6-8-8-8h-16.9
	l-62.1-17.7c-5.1-1.5-10.2,2.4-10.2,7.7v118.3h-21.8c-9.3-68.7-16.8-105.2-8.4-164.4h38.2c4.4,0,8-3.6,8-8c0-4.4-3.6-8-8-8h-37.1
	c0-4-0.1-7.6-0.1-11.1C235.4,232.4,237,233.3,242.5,229.8L242.5,229.8z M189.8,489.4l23.8-5.9c4-1,6.5-4.8,6-8.8l-4.7-34.7h19.6V496
	h-53.9C182.6,492.8,185.9,490.3,189.8,489.4z"/>
<path d="M154.9,158.7l-1.2,1.5c-2.8,3.4-2.2,8.5,1.2,11.2c3.5,2.8,8.5,2.2,11.2-1.2l1.2-1.5c2.8-3.4,2.2-8.5-1.2-11.2
	C162.7,154.8,157.7,155.3,154.9,158.7z"/>
</svg>
