<svg id="OBJECTS" xmlns="http://www.w3.org/2000/svg" viewBox="0 0 314.89 276.32"><defs><style>.cls-1{fill:#f4b5c4;}.cls-2{fill:#197298;}.cls-3{fill:#f492a9;}.cls-4{fill:#4185ae;}.cls-5{fill:#1cc7c7;}.cls-6{fill:#9d68ae;}.cls-7{fill:#004f74;}</style></defs><path class="cls-1" d="M65.72,155.29s-5.54-12-14.25-11.13-16.62,7.13-16.62,7.13-20.31-2.52-25.59,2.33c0,0-3.95-6-8.44-1.62s10.29,8.2,21.9,12.35,45.75,8.31,45.75,8.31Z"/><path class="cls-1" d="M179.07,270.05l21.05-11.38s38.89,6.7,41.14,9.54-3.9,4.09-3.9,4.09-2.86.77-11.58,1a73.12,73.12,0,0,1-16.41,2.18C199.59,275.77,178.66,275.82,179.07,270.05Z"/><path class="cls-2" d="M240.7,96.44a1.82,1.82,0,0,0-.07.88c1.4,9.92-5.38,18.94-8,28.08a37.71,37.71,0,0,0,3.47,28.76c1.21,2.41,6.28,11.18,8.81,15.53a47.87,47.87,0,0,1-1.82,9.75,1.88,1.88,0,0,0,2.58,2.19,1.51,1.51,0,0,0,1.49-.62l.25-.32A35.8,35.8,0,0,0,259.07,170a1.83,1.83,0,0,0,.55-.66c.57-1.1,1.1-2.22,1.57-3.36l0-.05h0a39.86,39.86,0,0,0,3.06-14.67,48.11,48.11,0,0,0-3.8-18.2c-2.31-5.88-5.22-11.5-7.45-17.4a72.08,72.08,0,0,1-4.45-19.59l-.08,0C245.93,94.43,243.07,94.92,240.7,96.44Zm-1,55.59c-1-1.59-1.78-2.63-1.78-2.64a33.58,33.58,0,0,1-2.85-15.28c2.11,5.62,5.73,10.9,7.59,16.52a47.14,47.14,0,0,1,2.2,10.52A74.88,74.88,0,0,0,239.68,152Zm14.15,17.68a39.24,39.24,0,0,0,1.95-6.27c.51-2.26.42-4.92,1.62-6.94,1-1.59,2.21-2.86,3.08-4.5a36.21,36.21,0,0,1-3.36,13.91,77,77,0,0,1-6.88,10.78A43.36,43.36,0,0,0,253.83,169.71Z"/><path class="cls-3" d="M234,67.3c-3.41,1.59-10.41-2.61-13.81,2.62-4.83,6.34-13.35,12.06-17.85,18.43.78-.74-2.5,26.11-1.72,25.4a20.06,20.06,0,0,0,7.53,5.61c-.54,1.63,1.6,3.45,3.08,2l15.06-15.38c.62-.62,1.24-1.24,1.85-1.87.27-.26.52-.55.8-.8.53-.47.55-.53,1.14-.3,1.14.45,2.31,1.86,3.27,2.61,1.25,1,2.53,1.93,3.83,2.83.88.61,1.78,1.19,2.7,1.75C235.79,101.62,231.94,76.69,234,67.3Z"/><path class="cls-1" d="M311.21,42.23c-4.85-16.74-20.52-30.76-37.58-34a43.66,43.66,0,0,0-29.47,4.51,1.77,1.77,0,0,0-.47.36l-1.21-.69-6.77,4.37a123.5,123.5,0,0,0-12.41,8.9c-2.17,1.82-4.27,3.72-6.39,5.61q-2.39,4.56-4.39,9.31c-.24,5.17.52,10.43,1.18,15.56.76,5.86,1.14,11.36-.61,17.09-.09.29-.19.58-.28.87a1.73,1.73,0,0,1,.7.47c3,3.3,6,6.69,9.22,9.77,2.3-5,6.18-13,9.58-14.59-2,9.39,3.48,31.86,7.52,40.4,1.24.76,2.52,1.49,3.83,2.14a1.79,1.79,0,0,0,.56.42c6.95,3.47,14.77,6.12,22.47,4.7a33.76,33.76,0,0,0,16.61-5.84c3.69-2.57,7.26-5.87,8.8-10.2,1.26-3.54.93-8.21,3.95-10.86l.06,0a1.83,1.83,0,0,0,.95-.75C306.28,76,316.18,59.36,311.21,42.23Z"/><path class="cls-3" d="M274.17,106a9.6,9.6,0,0,0,5.11-4.28c2.28-2.74,3-6.49-.07-9.62s-8.76-3.56-12-.5a8.28,8.28,0,0,0-3.79,8,8.09,8.09,0,0,0,8.07,6.84c.33,0,.67,0,1-.06l.36,0A5.53,5.53,0,0,0,274.17,106Z"/><path class="cls-4" d="M314.85,41c0-.25-.08-.5-.11-.76,0-.51-.08-1-.13-1.53a2,2,0,0,0-.32-.91,45.42,45.42,0,0,0-1.74-6.05,49.39,49.39,0,0,0-10-16.34C292.69,4.72,278.89-.15,264.51,0c-9.08.1-18.08,1.92-26.81,4.29a1.89,1.89,0,0,0-.76.39,2.2,2.2,0,0,0-.69.22c-8.34,4.4-16.71,9-22.57,16.63a47.75,47.75,0,0,0-9.14,22.67,63.81,63.81,0,0,0,1.64,25.17c2.3,8.59,6.44,18,14,23.21a16.26,16.26,0,0,0,7.9,2.88,2,2,0,0,0-.16,1.12c1.4,9.91-5.38,18.93-8,28.07a37.7,37.7,0,0,0,3.47,28.76c1.21,2.42,6.29,11.19,8.81,15.53a47.87,47.87,0,0,1-1.82,9.75,1.88,1.88,0,0,0,2.59,2.19,1.5,1.5,0,0,0,1.48-.61l.25-.33a35.68,35.68,0,0,0,11.68-10.71,1.79,1.79,0,0,0,.55-.65c.58-1.1,1.1-2.23,1.57-3.37a.08.08,0,0,0,0-.05h0a39.81,39.81,0,0,0,3.06-14.66,48.2,48.2,0,0,0-3.8-18.21c-2.31-5.87-5.22-11.49-7.45-17.4A72.31,72.31,0,0,1,235.8,95.1a1.65,1.65,0,0,0-.14-.6,21.85,21.85,0,0,0,4.9-2.35c10-5.86,16.19-16,20.6-26.41,1.24-2.93,2.38-5.9,3.49-8.89.57-1.52,1.13-3.05,1.71-4.57A18.43,18.43,0,0,1,268,48a1.46,1.46,0,0,1,.16-.19,1.74,1.74,0,0,0,.67.57,166.56,166.56,0,0,0,33.19,12.85c2.25.6,4.74,1.38,7.06.63s3.33-2.82,3.95-5a47,47,0,0,0,1.78-14.54A4.91,4.91,0,0,0,314.85,41Zm-89.7,107.64a33.62,33.62,0,0,1-2.85-15.29c2.11,5.63,5.73,10.9,7.59,16.52a47.73,47.73,0,0,1,2.21,10.52,76,76,0,0,0-5.17-9.11C225.89,149.69,225.15,148.66,225.15,148.65ZM241.08,169a39.68,39.68,0,0,0,1.95-6.28c.51-2.25.42-4.92,1.62-6.93.95-1.6,2.21-2.87,3.08-4.5a36.2,36.2,0,0,1-3.36,13.9A77.46,77.46,0,0,1,237.49,176,43.38,43.38,0,0,0,241.08,169Z"/><path class="cls-5" d="M274.14,46.75c-.41-2.36-1.9-4.32-3.23-6.25q-2.49-3.61-5-7.24a1.92,1.92,0,0,0-2-.86,1.92,1.92,0,0,0-.76-.51A3.87,3.87,0,0,0,258.41,34c-1,2,0,4.17.9,6,1.29,2.51,2.66,5,4,7.46,1,1.92,1.93,4.36,3.92,5.48C271.22,55.19,274.78,50.44,274.14,46.75Zm-5.33-2.7-.31,0c-.15-.36-.31-.71-.46-1.07l0,.06Z"/><path class="cls-6" d="M174.39,99.93c-3.82-10.77-8-21.49-13.46-31.54A116.09,116.09,0,0,0,142.26,43,115.35,115.35,0,0,0,114.6,22a1.94,1.94,0,0,0-1-.24,1.62,1.62,0,0,0-.84-.81c-10.32-4.94-22.51-3.57-32.23,2.18-10.3,6.08-16.8,16.92-19.24,28.45C55.92,77.06,69.2,103,84.81,122.33c6.81,8.42,15,15.83,24.52,20.86a228.45,228.45,0,0,0-22.55,5.14c-6.8,1.81-13.62,3.55-20.39,5.43-3.37.93-3.58,3.13-3.31,6.24A51.4,51.4,0,0,0,65,170.07a2.09,2.09,0,0,0,.38.71,1.62,1.62,0,0,0,1.34,1.49,401.6,401.6,0,0,0,50.92,8c15.09,1.39,30.66,2.53,45.65-.34a59.8,59.8,0,0,0,22.36-8.89,1.84,1.84,0,0,0,.83-1.86C189.48,145.49,182.23,122,174.39,99.93Z"/><path class="cls-5" d="M204.12,173.3a111.47,111.47,0,0,0,7.63-16.17c4.2-11.24,5.83-23.17,3.51-35-.62-3.15-1.37-6.28-1.84-9.46s-.76-6.27-1.39-9.37A25.75,25.75,0,0,0,207,91.75a1.93,1.93,0,0,0,.37-1.46c-3.2-23.34-19.17-44.45-40.55-54.24a66.22,66.22,0,0,0-8.07-3.11,32.23,32.23,0,0,1-5.07-1.73,14,14,0,0,1-4-3.32c-4.39-4.93-8.26-10.41-14.32-13.46-5-2.5-11.39-3-16.27,0-5.35,3.31-6.62,9.67-6.56,15.52A169.46,169.46,0,0,0,115,54.64a219.69,219.69,0,0,0,5.79,25.87,1.85,1.85,0,0,0,2.68,1.11q22.77,29.11,45.53,58.25a1.67,1.67,0,0,0,.9.61,129.68,129.68,0,0,0-7.17,27.15,132.42,132.42,0,0,0-1.47,18.12c-.07,6.41.74,12.73,1,19.12s-1.83,12.41-2.73,18.72a30.76,30.76,0,0,0,2.19,16.79c2.15,5,5.78,8.56,9.21,12.6a16.44,16.44,0,0,1,3.65,6.09c.65,2.37-.17,4.73.08,7.12.63,6,7.18,5,11.35,3.58,4.91-1.63,10-4.68,13.07-8.91,1.85-2.52,1.43-5.22.85-8.09-.63-3.14.13-5.81,1.31-8.72a51.59,51.59,0,0,0,4.12-17.28c.55-12.54-3.16-24.85-6.27-36.85-.37-1.41-.79-2.82-1.07-4.25-.35-1.83.3-2.91,1.27-4.4C201,178.66,202.58,176,204.12,173.3Z"/><path class="cls-7" d="M174.21,128c0-.29-.23.08,0-.21C174.26,127.86,174.31,127.94,174.21,128Z"/><path class="cls-7" d="M163.59,203.28c-.74-.78-.42-2.09-1-3-.05-.11.31,0,.18-.27a3.19,3.19,0,0,1-.48-1.72,10.68,10.68,0,0,1,.1-2l.1.06c0-.23-.29-.47-.29-.71.06,0,.1.06.17,0-.19,0-.14-.42-.29-.51.06-.1.2-.11.26-.24l-.22-.11c-.52-.33,0-.93-.33-1.43.05,0,.09.07.13,0a14.32,14.32,0,0,1-.56-2.8c.07,0,.21.06.28,0-.21,0-.29-.32-.35-.57.21-.13-.21-.43-.1-.73l0,0c-.23-.21.13-.33-.15-.5l.17-.14c-.31-.09.15-.32,0-.5h-.06c-.08-.17.07-.26,0-.42l0,0c-.09-.37.08-.58-.16-.57.19-.13.1.36.37.15a11.55,11.55,0,0,1-.23-1.85c0-.62,0-1.24,0-1.85.11-.14.14-.23.23-.26s0-.46-.15-.58c0,.05.13-.07.14-.13.1-.22-.26-.26-.14-.5a.19.19,0,0,0,.23.11c-.18-.22-.14-.5-.2-.75,0,0,.06.1.14.1-.2-.28.06-.49-.07-.74l.14.1c.18-.37-.29-.13-.18-.45.05.08.1.05.16.07-.25-.32-.12-.81-.18-1.12,0,0,.05,0,.05,0a4.55,4.55,0,0,0,0-1.05c.08-.13.34.07.32-.29-.28,0-.07-.6-.4-.42a2.39,2.39,0,0,0,.13-1c.1.15.35-.11.36.14l.18-.18c.11,0-.05.2.1.15,0-.13-.09-.5,0-.61-.15-.25-.46-.49-.46-.87.09.18.32-.07.35.05l-.46-.58c0-.12.22,0,.17-.19-.08,0-.11-.08-.16-.14s0-.53.27-.56c.12,0,0,.22.15.09s-.07-.25,0-.49h0c.06-.14-.06-.46-.23-.31s.17,0,.07.13a.82.82,0,0,1-.13-.64c0,.09.11.09.18.13a3.17,3.17,0,0,1-.25-1c-.13,0,.22.16.15.21.23-.42-.14-1,.17-1.29,0,.06-.19,0-.16,0,0-.22.23-.18.19-.33.11,0,0-.18,0-.33s.06,0,.05.1a2.63,2.63,0,0,1,.14-1.47c-.08,0-.23-.33-.2-.43l.16.07c.12-.08,0-.36.19-.35-.16-.26,0,.9-.07.56.15-.05-.2-.47,0-.36,0-.22-.13-.45.06-.63,0,.05.21.21.22,0s-.06-.1-.08-.36l0-.16c-.17,0,.06-.27-.14-.19.14,0,0-.45.26-.37l.21.08c0-.14-.2-.26-.28-.38s.08,0,.11,0c-.33-.08.08-.31-.15-.51.16-.26.14-.69.37-.78a.91.91,0,0,1,0-.67s0,.12.09.15c.13-.14,0-.19,0-.34,0,0,.25-.26.4-.4-.06-.23-.25-.19-.35-.23.36-.13-.09-.63.25-.81,0,.08.1.33.21.18.36-.13-.16-.44,0-.71l-.28,0c.19-.1-.07-.48.2-.4-.07-.12.16-.34-.11-.36.32-.46.13-1.25.67-1.46,0-.08.06-.25-.08-.24s.06.19,0,.21-.06-.09-.09-.11.14-.26.32-.06c.24-.31-.36-.46-.16-.88.11,0,.15,0,.17-.11l-.13-.29c.11-.27.28-.1.46-.07,0-.16.06-.34-.06-.44l.27-.13c-.2.09-.08-.15-.11-.23l0,.08c.08,0,.07-.2.07-.29s-.2.16-.26.25c-.06-.1,0-.21-.08-.34.17.08.18-.22.23-.33s-.13-.2-.11-.24.06-.22.17-.08-.12.09-.05.19c.09-.08.25,0,.17-.25s-.36-.05-.18-.29c0,.08.09.11.14.18l.16-.23-.17-.05c.05,0,.06,0,.09,0-.16-.11,0-.4-.14-.5,0-.13.18-.24.23-.36v0a.42.42,0,0,0,0-.49l0,0a.64.64,0,0,0,0-.41c.17-.17.63.09.48-.19,0-.21-.21-.4-.34-.34.21-.35,0-.84.39-1.12,0-.07-.1,0-.11-.17.2-.53.1-1.21.53-1.56,0,.17.16.05.26.07-.11-.17.19-.12-.05-.23s-.21-.06-.32.08a1.59,1.59,0,0,1,.34-1c-.09.07-.12,0-.14-.1.23.09.33-.14.3-.35l-.14-.06.18-.08c0-.08-.28-.16-.09-.3a.32.32,0,0,0,.17,0c-.07-.22-.19-.54,0-.71l.25-.11c0-.09-.08-.27-.18-.14.22-.31.29-.53.5-.59a3.51,3.51,0,0,1,.2-2.28l.1,0c.16-.16-.15-.15,0-.26.08.09.26-.08.34.1.19-.23-.08-.39-.08-.58s0,.17-.12.08.22-.34,0-.44c.1,0,.24.06.32.12l-.06-.2c.31-.12.31.59.67.47v-.16c.27-.08.13.47.32.11-.05-.19-.32-.42-.45-.3,0-.36-.46-.31-.33-.67.15-.06-.06.3.14.28s0-.37.11-.5c-.13.14-.3-.06-.31-.19.16-.15.17.18.27-.07-.11-.08-.13-.35-.28-.17-.24-.18.16-.25,0-.46.22,0,.37.41.55.15-.2,0-.15-.43-.47-.37a.22.22,0,0,1,.33.06c.16-.13-.23-.5.16-.44l-.17-.11a2.67,2.67,0,0,1,.27-.15c0-.14-.12-.53.16-.43,0-.06.1-.38-.13-.31s.07.27-.23.3c.26-.07.06-.3,0-.43h.12c0-.08,0-.24-.06-.32a.12.12,0,0,0,.18,0l-.15-.13c0-.31.32,0,.36-.26l.06.25c0-.06.17-.1.16-.25s-.29-.25-.4-.33.2,0,.09-.22l.12.26s.3-.06.36-.27-.17-.42-.32-.24c0-.1.17-.22.25-.1,0-.25-.17,0-.2-.25.13-.06.35-.27.55-.38l.19.29,0-.14c.15.25.18,0,.37.13.06-.08,0-.22,0-.33-.44.17-.38-.47-.72-.48,0-.42.84,0,.47-.56-.1,0-.28-.23-.27,0,.11-.23-.27-.27-.05-.51.07.25.4-.12.49.24-.1-.05-.13.14-.12.2s.32.12.39-.12.08-.37-.1-.39-.05.23-.2.08c0-.32.32-.28,0-.51,0,.2-.24.19-.36.14v-.24l.11.08c.2-.32-.19-.17-.05-.5l.29-.08c.18.14-.25.46.11.51.08-.22-.07-.34.09-.52,0,0,0,.12,0,.17s.51,0,.35-.41c0-.19-.11-.08-.23-.12.08-.37,0-.51,0-.75.23.13.15-.39.32-.06a.61.61,0,0,0-.14.78c.33,0-.13.27.14.44.1-.28.38-.18.58-.17,0-.07,0-.17,0-.23-.17-.09-.2,0-.38,0a1,1,0,0,0,0-.87.16.16,0,0,1,.26.14,4.25,4.25,0,0,1,.39-1.12c-.36.13.06-.42-.23-.34-.13.17-.38.27-.48.12.06-.11.13,0,.2,0-.1-.2.33-.15.13-.38,0,.37.33.18.53.31,0-.28.16.07.24-.18a3.08,3.08,0,0,1,0-.91c.33-.28.29-.87.38-1.18.17-.12.39.07.49-.09s-.32.06-.11-.2l0,0c0-.11.36-.5,0-.71l.25.19c0-.05,0-.12,0-.18s.19,0,.22.1c.25-.13.1-.4.16-.61l-.21.08c0-.39.23-.57.28-.93l.16.07,0-.23a.14.14,0,0,0,.2-.2l.22.64c-.14.12-.14-.22-.33-.18s-.22.36-.08.46c0-.11,0-.13,0-.24.24,0,.17.21.29.35,0-.07.1-.13,0-.17a.65.65,0,0,1,0,.49c0-.16-.16,0-.21,0,.19.08.19.29.05.53s0,.52-.17.79a1.08,1.08,0,0,1-.28-.59c-.16.15-.07.21-.23.36.12.13.33.27.34.54l-.15,0c0,.24.21.31.08.57-.22.45-.38.94-.52,1.29l-.14,0c.24.3-.11.71-.06,1-.28.42-.18,1.05-.51,1.2a12,12,0,0,1-.58,2.42l-.17-.21c.11.21-.15.06-.17.22.22-.11.16.28.25.42a1.71,1.71,0,0,0-.21,1.25l-.14,0c.16.43-.2.75-.38,1.16-.07,0-.23.06-.26.19a1.56,1.56,0,0,1,.16.79,3.54,3.54,0,0,1-.42.85,19.75,19.75,0,0,1-.52,2.91l-.19,0a3.89,3.89,0,0,1-.26,1.53,5.73,5.73,0,0,0-.34,1.39l-.28-.16c-.16.23-.08.59.15.59-.16.22,0,.66-.32.75-.12.24,0,.35,0,.57a2.74,2.74,0,0,0-.36,1.18l0-.12a.13.13,0,0,0-.23,0c0,.2-.26.64.14.55-.34.46-.14,1.25-.55,1.68.11,0,.1.11.15.18-.11.46-.43.88-.36,1.29-.07.06-.13-.16-.19,0s.12,0,.14.18c0,.78-.57,1.44-.67,2.13a27.61,27.61,0,0,1-.69,3.6l-.07,0c.18.44-.48.84-.12,1.24-.09.07-.1.34-.23.24.14.35-.35.82-.19,1.31,0,0,0-.06,0-.11-.25.41-.11.85-.34,1.29,0,0,0-.14-.1-.17-.17.16.22.49-.15.52,0,.11.16.11.16,0a14.54,14.54,0,0,0-.39,3.26c-.33.74-.59-.05-.43.6-.08,0,.13.06,0,.06.06.25-.45.3-.29.5.22,0,.1.13.23.15-.22.45-.43.52-.32.92l-.11,0c.25.49,0,1,.34,1.4-.11,1.22-.19,2.41-.27,3.59s-.07,2.37-.14,3.55a34.14,34.14,0,0,0-.18,3.49c0,.58,0,1.16-.07,1.75,0,.29,0,.58,0,.88s0,.59,0,.88a1.22,1.22,0,0,0-.15,1.22c-.05,0-.06-.07-.11,0,.25,0,0,.43.27.48,0,.44,0,.86,0,1.29s0,.85.08,1.3c0-.14-.24-.2-.21,0l.17.17-.07,0c.05.11.18.23.25.1a20.13,20.13,0,0,1,.2,3.37,15.72,15.72,0,0,0,.06,1.68c0,.55.1,1.1.19,1.65a7.44,7.44,0,0,0,.3,1.83,14.17,14.17,0,0,0,.63,4.93A1.26,1.26,0,0,1,163.59,203.28Z"/><path class="cls-7" d="M174.12,128.34c-.13,0-.26.19-.36,0C173.87,128.34,174,128.29,174.12,128.34Z"/><path class="cls-7" d="M171.25,133.05s-.07.06-.1.07-.07-.16,0-.19S171.21,133,171.25,133.05Z"/><path class="cls-7" d="M170.76,134.34c-.1-.06-.09-.36,0-.53Z"/><path class="cls-7" d="M169.93,135.42c-.12.08-.16,0-.11-.11S169.89,135.37,169.93,135.42Z"/><path class="cls-7" d="M170.14,135.58a.26.26,0,0,1-.18.16C170.05,135.77,170,135.49,170.14,135.58Z"/><path class="cls-7" d="M169,138.14c0,.07,0,.23-.1.26C169,138.35,168.86,138,169,138.14Z"/><path class="cls-7" d="M168.77,139.43a.1.1,0,0,0,0,.1c-.07.06-.12,0-.11-.11Z"/><polygon class="cls-7" points="163.17 162.34 163.15 162.19 163.25 162.24 163.17 162.34"/><path class="cls-7" d="M161.48,172.56c.05.14-.11.08-.13.1C161.35,172.53,161.48,172.72,161.48,172.56Z"/><polygon class="cls-7" points="161.46 178.16 161.46 178.12 161.68 178.15 161.46 178.16"/><path class="cls-7" d="M99.36,74.8c-.13,0,0,.2-.11,0S99.35,74.72,99.36,74.8Z"/><path class="cls-7" d="M128.57,90c-.63.28-.78-.48-1.34-.39,0,0,.18-.26,0-.26-.59.17-1-.39-1.29-.95l.07-.06c0-.1-.3.09-.37,0s.07,0,.09-.13c-.11.14-.2,0-.3.06,0-.08.07-.2.07-.29l-.16.14c-.38.34-.32-.23-.64-.12,0,0,.07-.06.08-.11-.46.08-.82-.19-1.22-.3a1,1,0,0,0,.14-.24.33.33,0,0,1-.37.14c.07-.22-.26.08-.31-.09l0,0c-.2.15-.06-.19-.26,0l0-.17c-.19.24,0-.21-.18-.11l0,.06c-.1,0-.06-.13-.14-.12v0c-.18,0-.17-.2-.29,0,.05-.2.18,0,.24-.29a3.73,3.73,0,0,1-1.47-.59.51.51,0,0,1,0-.25c-.07,0-.2,0-.3,0s0-.12,0-.15-.22.18-.26,0a.45.45,0,0,0,.15-.18c-.17.12-.26,0-.38,0a.37.37,0,0,0,.1-.11c-.21.13-.17-.14-.32-.07l.1-.1c-.06-.23-.18.23-.26.07s.07-.07.1-.12c-.23.16-.38,0-.53,0l0,0c-.14,0-.23-.18-.42-.16,0-.08.17-.29,0-.32-.13.25-.28,0-.36.3-.09-.1-.22-.29-.34-.25.11-.06.11-.33.22-.3v-.18c.06-.1.05.07.1-.07s-.25,0-.27-.06c-.16.11-.4.34-.55.3.11-.06.1-.29.17-.31l-.45.36s.09-.2,0-.17-.08.09-.13.14-.23,0-.12-.3.11,0,.1-.12-.14,0-.23,0l0,0c0-.07-.23,0-.24.18s.07-.16.09-.06a.28.28,0,0,1-.33.07.56.56,0,0,0,.13-.16,1,1,0,0,1-.54.14c-.07.11.16-.19.14-.12-.08-.25-.46,0-.48-.26,0,0-.07.17-.06.14s0-.23-.06-.19-.09,0-.16,0,0,0,.07,0c-.12,0-.5,0-.6-.2,0,.07-.24.19-.27.16l.09-.14c0-.11-.14-.06-.08-.2-.18.14.42,0,.22.1,0-.14-.28.16-.15,0-.08,0-.25.09-.25-.09,0,0,.17-.18.1-.2s-.07,0-.19,0l-.09,0c-.08.14-.09-.08-.14.11,0-.13-.2,0-.06-.25l.11-.19s-.18.17-.27.23a.54.54,0,0,1,0-.1c-.16.3-.1-.08-.28.12,0-.16-.26-.15-.22-.36-.12.05-.25.12-.31,0a.22.22,0,0,0,.1-.08c0-.12-.07,0-.14,0s0-.24,0-.37c-.13,0-.18.22-.24.31.08-.33-.32.08-.28-.24,0,0,.19-.08.17-.19.07-.33-.26.14-.31-.06l-.09.26c0-.18-.25,0-.11-.19-.08.07-.1-.15-.21.09-.09-.3-.53-.11-.43-.6,0,0-.1,0-.15.08s.12-.06.09,0-.07,0-.09.09-.07-.13.09-.3c-.06-.22-.35.34-.47.16.06-.1.06-.14,0-.15l-.18.12c-.09-.09,0-.25.13-.42-.08,0-.14,0-.23.06l0-.24c0,.17-.1.07-.15.1l0,0c0-.07-.06-.06-.11-.06a.27.27,0,0,0,0,.23c-.07.06-.11,0-.19.09.1-.16,0-.17-.08-.21s-.13.12-.14.11-.08-.06,0-.16,0,.1.07,0,.07-.22-.06-.15-.15.33-.2.17.09-.09.14-.14l-.06-.13-.08.15a.22.22,0,0,1,0-.08c-.11.14-.18,0-.29.14,0,0,0-.15-.09-.19h0c0-.12-.12-.1-.22,0v0s-.11,0-.19,0c0-.15.25-.58.07-.43-.09,0-.26.21-.28.32-.1-.17-.38,0-.4-.3,0,0-.06.09-.12.1-.19-.16-.54,0-.57-.42.09,0,.08-.15.12-.23-.12.11,0-.17-.13,0s-.09.2-.06.28c-.16,0-.36-.08-.37-.24a.15.15,0,0,1-.09.14c.11-.22,0-.29-.07-.25l-.08.13,0-.16s-.16.26-.17.1a.48.48,0,0,0,0-.15c-.12.07-.32.2-.34.05l0-.22s-.16.09-.12.18c-.08-.19-.17-.24-.13-.43a.91.91,0,0,1-1.05,0l.06-.1c0-.13-.12.16-.14.06s0-.23.15-.32c0-.15-.22.11-.31.12s.1-.06,0,.1-.1-.17-.21,0a.94.94,0,0,1,.15-.3l-.11.07c0-.27.38-.33.43-.65h-.08c0-.23.27-.16.15-.3-.11.07-.3.33-.28.44-.16,0-.29.44-.43.36,0-.14.13,0,.18-.15s-.18,0-.21-.06c0,.11-.12.28-.18.3,0-.13.13-.17,0-.24-.07.11-.21.15-.16.27-.16.24-.08-.13-.23,0,.05-.2.31-.37.23-.52-.06.19-.25.17-.31.46a.42.42,0,0,1,.12-.3c0-.14-.31.25-.17-.11l-.1.17c0-.07,0-.13,0-.24s-.3.16-.17-.11c0,0-.15-.06-.19.16s.16-.1.08.18c0-.24-.13,0-.2,0l0-.11s-.1,0-.17.08a.2.2,0,0,0,.06-.16l-.11.14c-.15,0,.11-.29,0-.29l.15-.09s0-.15-.08-.12-.21.29-.28.4,0-.18-.08-.06l.16-.14s.06-.26,0-.3-.25.2-.2.32-.07-.13,0-.22c-.12,0-.06.16-.19.21,0-.11,0-.3,0-.47l.19-.2,0,0c.16-.16,0-.17.17-.36,0-.05-.11,0-.17,0,0,.38-.33.39-.44.71-.19,0,.24-.78-.14-.38,0,.09-.19.29,0,.25-.08-.08-.2.27-.26.09.14-.08,0-.35.25-.47,0,.1,0,.11.07.09s.14-.3,0-.35-.15,0-.21.13.1,0,0,.18,0-.26-.24,0c.09,0,0,.2,0,.32l-.12,0,.07-.11c-.1-.14-.14.19-.26.1l0-.26c.12-.18.16.18.28-.15-.09,0-.19.1-.24,0l.1,0s.13-.46-.11-.27-.07.1-.13.22-.25.08-.35.06c.12-.23-.16-.1,0-.29,0,.15.2.23.35,0s.1.09.25-.17c-.11-.06,0-.33.08-.52,0,0-.09,0-.12.06s0,.18-.12.35c-.11-.1-.28-.07-.42.07,0-.11.08-.27.14-.26a.81.81,0,0,1-.45-.23c0,.31-.19,0-.23.25a.44.44,0,0,1-.07.42s.06-.12.06-.18c-.12.12,0-.29-.15-.08.18,0,.17-.32.3-.52-.16.07.07-.16,0-.2a1.18,1.18,0,0,1-.45.11c0-.27-.36-.16-.49-.21s.14-.36.08-.43,0,.29-.13.12l0,0c-.06,0-.16-.27-.35.07l.16-.25s-.06,0-.1,0,0-.18.11-.22c0-.21-.17,0-.26-.07v.18c-.2.06-.23-.14-.39-.14l.07-.15-.12,0c.08-.14,0-.27,0-.16l.38-.28c0,.11-.15.15-.18.32s.12.16.21,0-.06,0-.12,0c.08-.22.15-.18.24-.31s0-.08-.07,0a.21.21,0,0,1,.24,0c-.09.06,0,.14-.07.19.09-.18.19-.2.27-.1s.26-.06.35,0a1.09,1.09,0,0,1-.36.34c0,.13.08,0,.12.16.09-.12.21-.33.35-.37l0,.14c.12,0,.21-.24.3-.15a3.6,3.6,0,0,0,.51.33l-.06.14c.22-.26.33,0,.5-.07.13.22.47,0,.46.33a2.18,2.18,0,0,1,1,.28l-.15.17c.13-.12,0,.14.06.14,0-.2.18-.18.28-.28.08.23.35.15.55.07l0,.14c.25-.2.31.1.46.22s0,.22,0,.22c.19-.18.23-.14.43-.22a.75.75,0,0,1,.3.31c.52-.14.81.24,1.28.23l0,.18c.54-.17.86.36,1.26.34l-.16.26c.06.13.26,0,.33-.17.06.13.31,0,.27.24.08.1.18-.07.29-.06a.56.56,0,0,0,.46.25l0,0c0,.06-.11.17-.07.21s.23.21.32-.16c.11.29.55.08.63.44,0-.1.09-.09.14-.15.18.09.28.37.5.28,0,.06-.12.13,0,.18s.06-.12.13-.14c.38,0,.51.46.8.55a5.34,5.34,0,0,1,1.47.6l0,.06c.28-.18.23.44.54.12,0,.08.12.1,0,.21.21-.11.25.34.54.2,0,0,0,0-.06,0,.1.23.35.11.47.34,0,0-.08,0-.11.08s.31-.19.18.15c0,0,.11-.15.08-.15a3.33,3.33,0,0,0,1.34.5c.2.35-.26.54.1.43,0,.07.07-.11,0,0,.14,0,0,.43.11.3s.1-.09.16-.2c.12.22.07.41.29.34l-.07.09c.32-.19.44.07.76-.19,1,.44,2,.74,2.88,1.2a22.81,22.81,0,0,1,2.63,1.57c.06.38.08.38.37.41,0,0,0,0-.06.08.13-.2.18.08.31-.12a8.72,8.72,0,0,0,1,.54c-.07,0-.2.15-.12.18l.14-.1,0,.07c.06,0,.17-.09.16-.18,1,.31,1.56,1.22,2.43,1.67a1.43,1.43,0,0,0,.71.37,3,3,0,0,0,1.67,1.42S128.91,90,128.57,90Z"/><path class="cls-7" d="M99.51,74.84c0,.12,0,.22-.11.34A1.69,1.69,0,0,1,99.51,74.84Z"/><path class="cls-7" d="M101.09,76.92s0,.06,0,.08-.1.08-.09,0S101.06,77,101.09,76.92Z"/><path class="cls-7" d="M101.59,77.22a.26.26,0,0,1-.27.11Z"/><path class="cls-7" d="M101.9,77.86c0,.1,0,.14-.08.11A.44.44,0,0,1,101.9,77.86Z"/><path class="cls-7" d="M102,77.64s0,.09,0,.15S102,77.81,102,77.64Z"/><path class="cls-7" d="M103,78.42s.13,0,.1.07C103.09,78.4,102.9,78.56,103,78.42Z"/><path class="cls-7" d="M103.55,78.5s0,0,0,0a.11.11,0,0,1-.08.12Z"/><polygon class="cls-7" points="112.72 82.44 112.64 82.47 112.7 82.37 112.72 82.44"/><path class="cls-7" d="M116.6,84.46c.09,0,0,.11,0,.13S116.67,84.48,116.6,84.46Z"/><polygon class="cls-7" points="118.94 85.1 118.92 85.09 119.03 84.9 118.94 85.1"/><path class="cls-7" d="M110.18,63c-.24-.28-.06.27-.2-.15C110.08,62.85,110.17,62.88,110.18,63Z"/><path class="cls-7" d="M168.83,140.55c-1.17-.56-1.67-2.13-2.75-2.91-.11-.1.27-.16,0-.38a9.62,9.62,0,0,1-2.77-3.8l.12,0c-.12-.26-.57-.36-.73-.62.05,0,.13,0,.15-.08-.19.05-.41-.39-.59-.41,0-.13.1-.21.06-.38h-.26c-.68-.09-.7-.95-1.31-1.31.06,0,.13,0,.13,0a21.28,21.28,0,0,1-2.48-2.6c.08,0,.21-.05.23-.15-.2.08-.47-.17-.7-.4.08-.25-.49-.3-.63-.67h.06c-.35-.07-.15-.4-.51-.41l0-.24c-.32.1-.12-.41-.38-.49l-.05,0c-.19-.12-.14-.3-.3-.43v0c-.35-.31-.38-.63-.56-.47.05-.25.34.3.41-.08a29.35,29.35,0,0,1-3-3.54c0-.2-.08-.3,0-.39-.13-.09-.39-.43-.58-.46,0,0,0-.16,0-.23-.11-.28-.4-.08-.51-.39.13.06.22,0,.26,0-.31-.09-.5-.39-.74-.6.06,0,.12.06.17,0-.37-.14-.34-.52-.63-.67h.17c-.16-.48-.31.07-.49-.32.1,0,.12,0,.17,0-.44-.15-.76-.69-1.06-.94a.07.07,0,0,0,.05,0,7.15,7.15,0,0,0-.87-1c-.05-.17.3-.16,0-.48-.21.18-.56-.53-.65-.13a3.91,3.91,0,0,0-.72-1c.19.07.16-.36.37-.12V114c.11,0,.12.22.18.07-.1-.12-.48-.41-.53-.55a2.32,2.32,0,0,1-1.05-.49c.22.11.16-.29.29-.2l-.83-.19c-.11-.12.15-.17,0-.3-.05.05-.15,0-.24,0s-.46-.48-.28-.7.2.16.17,0-.26-.18-.45-.41l0,0c-.09-.18-.45-.37-.44-.11.08.11.1-.15.16.06-.21,0-.45-.25-.64-.48.1,0,.15,0,.24,0a4,4,0,0,1-1.07-.75c-.11.08.29,0,.27.08-.2-.55-.92-.75-1-1.29.07,0-.12.15-.09.12-.16-.22,0-.33-.16-.42.07-.08-.17-.15-.31-.28s0-.07.12,0a4.1,4.1,0,0,1-1.22-1.39c0,.05-.44-.12-.51-.23l.16-.06c0-.16-.29-.35-.19-.46-.34-.09.83.76.46.56,0-.17-.55-.26-.31-.34-.18-.21-.49-.29-.52-.59,0,.07.32,0,.18-.14s-.14,0-.37-.25l-.18-.11c-.14.1-.19-.28-.25-.05.08-.13-.41-.39-.17-.53l.2-.09c-.11-.12-.35-.07-.5-.12,0,0,0-.09,0-.1-.28.18-.22-.33-.55-.33-.12-.34-.54-.7-.48-1a1.27,1.27,0,0,1-.62-.55c.06,0,.12.09.19.06,0-.21-.14-.19-.29-.3.06,0-.08-.42-.12-.66-.24-.15-.33,0-.43.08.11-.39-.64-.46-.59-.88.09,0,.37.2.3,0,.11-.4-.5-.24-.61-.64l-.16.24c0-.24-.48-.35-.24-.49-.16,0-.21-.42-.4-.22-.22-.65-1.07-1.15-.94-1.76-.09,0-.2-.25-.28-.13s.22.1.17.21a.12.12,0,0,0-.16,0c-.07-.2-.15-.34.14-.32-.15-.46-.64-.08-.91-.59.1,0,.11-.11,0-.23l-.34-.13c-.19-.32.07-.32.21-.45-.15-.13-.29-.32-.45-.31l0-.33c0,.24-.19-.06-.28-.1l.09,0c0-.08-.14-.22-.23-.3-.07.09,0,.3.08.42-.12,0-.2-.16-.36-.2.17-.08-.1-.33-.18-.47s-.25-.06-.28-.1-.16-.24,0-.21,0,.16.14.19c0-.14.12-.23-.13-.34s-.25.26-.38-.09c.1,0,.16,0,.26,0l-.13-.32-.14.09c0-.06,0,0,.05-.07-.2,0-.35-.36-.56-.3-.11-.12-.12-.35-.2-.48h0a.63.63,0,0,0-.44-.43l0,0a.83.83,0,0,0-.39-.31c-.06-.29.45-.46.1-.56-.17-.21-.5-.15-.52,0-.21-.45-.76-.72-.83-1.23-.1,0-.1,0-.22-.05-.39-.6-1.08-1.07-1.16-1.72.18.12.14-.09.21-.15-.22,0,0-.26-.24-.15s-.18.14-.1.33A2.39,2.39,0,0,1,126,88c0,.13-.08.09-.17,0,.21-.12,0-.39-.16-.53l-.14.07,0-.22c-.09,0-.31.11-.34-.16,0-.05.08-.09.08-.15-.24-.13-.61-.28-.67-.57l0-.3c-.09-.08-.31-.15-.24.05-.17-.45-.33-.69-.27-.92a5.53,5.53,0,0,1-2-2l.11,0c-.07-.26-.23,0-.27-.17.13,0,.07-.29.29-.21-.12-.35-.42-.25-.6-.4-.14.06.18.09,0,.16s-.2-.45-.41-.37c0-.12.19-.16.29-.17l-.21-.11c0-.37.72.21.81-.2l-.14-.14c.07-.29.51.26.28-.18-.21-.11-.58-.07-.54.14-.31-.32-.54.15-.81-.25,0-.18.25.29.34.11s-.35-.31-.42-.51c.07.23-.22.21-.34.12-.06-.26.26,0,.07-.29-.13,0-.4-.17-.3.1-.31.07-.15-.33-.44-.36.09-.21.58,0,.44-.35-.12.16-.49-.22-.6.11,0-.16.07-.26.23-.24,0-.24-.59-.21-.32-.49l-.2,0a2.31,2.31,0,0,1,0-.34c-.11-.16-.58-.34-.32-.5-.06,0-.31-.38-.38-.13s.31.16.17.44c.07-.28-.25-.29-.41-.37l.08-.09c-.09,0-.19-.23-.33-.21.1,0,.14-.05.12-.13l-.2,0c-.28-.26.2-.26,0-.52l.27.14c-.06,0,0-.23-.14-.34-.17,0-.4,0-.53.08-.18-.13.09-.18-.16-.25l.31.1c.07,0,.11-.3,0-.52s-.49-.19-.4.08c-.09-.11-.12-.32,0-.3-.22-.22-.12.13-.35,0,0-.15-.05-.52,0-.77l.38.07-.11-.15c.32.07.07-.2.33-.22,0-.12-.2-.2-.31-.27-.09.51-.65-.05-.86.23-.36-.37.48-.73-.25-.87,0,.12-.37.06-.11.27-.15-.28-.39,0-.5-.37.28.15.11-.43.5-.22-.1,0,.06.23.12.26,0-.18.29-.17.11-.43s-.3-.36-.42-.23.19.23,0,.24c-.28-.29-.08-.5-.45-.45a.27.27,0,0,1-.07.43l-.23-.2.13,0c-.19-.44-.27,0-.49-.37l.08-.32c.24,0,.29.59.54.33-.16-.25-.36-.23-.44-.51a1.92,1.92,0,0,0,.17.13c0-.09.28-.44-.18-.63-.21-.12-.13,0-.25.09-.29-.36-.48-.4-.67-.64.25-.09-.28-.46.13-.33,0,.21.35.77.65.77.15-.32.17.32.48.23-.21-.31.05-.46.18-.62,0-.1-.18-.14-.24-.17s-.09.18-.25.29a1.49,1.49,0,0,0-.78-.74.15.15,0,0,1,.28-.1,6.7,6.7,0,0,1-.82-1.27c-.08.43-.35-.4-.44-.08.08.24,0,.55-.16.5s.11-.07.13-.16c-.25-.07,0-.4-.28-.43.33.33.35-.13.59-.19-.29-.2.15-.08,0-.35a5,5,0,0,1-.84-.75c-.07-.5-.63-1-.86-1.31,0-.24.28-.27.2-.49s-.14.33-.25-.07h.06c-.11-.07-.24-.72-.63-.61l.31,0c0-.08-.11-.1-.17-.14s.1-.17.22-.1c0-.32-.31-.42-.46-.65l0,.24c-.36-.32-.38-.67-.67-1l.15-.07-.23-.17c.17,0,.13-.3-.06-.34l.72.36c0,.22-.29-.07-.36.12s.19.49.36.46c-.07-.14-.1-.13-.22-.2.17-.17.29,0,.48.06-.05-.07-.05-.21-.12-.18a1,1,0,0,1,.43.43c-.17-.11-.07.16-.16.14.18-.09.37.09.51.4-.07.33.46.45.62.81a1.35,1.35,0,0,1-.71-.25c0,.26.16.22.2.48a1,1,0,0,1,.69.18l-.12.09c.22.2.41.08.57.41.28.57.64,1.1.89,1.51l-.12.1c.42,0,.59.67.91.89.22.59.86,1,.82,1.42a21.28,21.28,0,0,1,1.92,2.48l-.29,0c.25.07,0,.18.11.32,0-.28.34.1.53.13a2.54,2.54,0,0,0,1,1.19l-.12.1c.49.2.6.78.88,1.25,0,.09-.07.26,0,.38.37.1.45.24.83.51a4.72,4.72,0,0,1,.56,1,34.76,34.76,0,0,1,2.46,2.79l-.09.18c1,.75,1.65,2.16,2.44,2.87l-.31.1c.12.32.51.55.64.35.12.32.61.56.53.88.16.3.36.24.56.44a4.88,4.88,0,0,0,.92,1.25l-.08-.14c-.1,0-.2.06-.12.2s.46.74.61.33c.24.66,1.09,1.14,1.26,1.83,0-.1.17,0,.26,0,.37.47.59,1.08,1,1.35,0,.11-.23,0-.09.19s.11-.08.26,0c.74.64,1,1.65,1.62,2.31,1.1,1.1,2,2.44,3,3.59l-.07,0c.53.22.49,1.09,1.07,1.14,0,.14.25.38.09.4.4.19.54,1,1.09,1.28,0-.05-.06-.06-.12-.09.23.56.72.82,1,1.39-.06,0-.15-.1-.22-.07,0,.27.59.25.39.57.09.1.2,0,.14-.09A27.35,27.35,0,0,0,142,104.8c.45.91-.43.41.26.87,0,.09.14,0,.09,0,.26.18,0,.61.26.67.11-.21.18,0,.29,0,.26.57.18.79.61,1.06l-.11,0c.6.24.87.86,1.46,1,2,2.4,4,4.62,5.89,7s3.75,4.61,5.48,7.13a2,2,0,0,0,.82,1.32c-.06,0-.09,0-.1,0,.22-.12.36.42.59.34.66.91,1.36,1.68,2.07,2.59-.13-.13-.34-.07-.2.09l.27.08,0,.07c.12.1.31.15.28,0,2,2.15,3.35,4.71,5.16,6.91a12.8,12.8,0,0,0,1.5,1.85,24.49,24.49,0,0,0,3.65,5.22A1.56,1.56,0,0,1,168.83,140.55Z"/><path class="cls-7" d="M110.43,63.37c-.07.13,0,.38-.24.3C110.28,63.59,110.32,63.41,110.43,63.37Z"/><path class="cls-7" d="M113,69.75s0,.11,0,.14-.19-.07-.17-.16S113,69.75,113,69.75Z"/><path class="cls-7" d="M113.94,71.24c-.11,0-.39-.22-.52-.4Z"/><path class="cls-7" d="M114.47,72.83c0,.17-.06.16-.16,0S114.41,72.83,114.47,72.83Z"/><path class="cls-7" d="M114.74,72.78a.34.34,0,0,1,.05.3C114.87,73,114.57,72.85,114.74,72.78Z"/><path class="cls-7" d="M116.49,75.86c.05.06.23.16.18.29C116.68,76,116.32,75.9,116.49,75.86Z"/><path class="cls-7" d="M117.57,77.09s0,.08.08.11-.11.07-.17,0Z"/><polygon class="cls-7" points="135.87 100.45 135.72 100.35 135.82 100.3 135.87 100.45"/><path class="cls-7" d="M143.9,110.65c.16.09,0,.16,0,.19C143.79,110.72,144,110.8,143.9,110.65Z"/><polygon class="cls-7" points="148.66 115.81 148.62 115.77 148.81 115.64 148.66 115.81"/><path class="cls-7" d="M101.58,137.55c-.16,0,0,.21-.13,0C101.51,137.51,101.57,137.47,101.58,137.55Z"/><path class="cls-7" d="M139.29,153.47c-.61.45-1.11-.27-1.72,0-.07,0,.09-.31-.07-.27-.62.32-1.36-.16-1.89-.65l.06-.07c-.1-.1-.32.15-.43.08s.06-.07,0-.16c-.07.17-.24,0-.33.14,0-.08,0-.22,0-.31l-.13.18c-.32.41-.47-.17-.8,0,0,0,.06-.07.05-.12a4.12,4.12,0,0,1-1.56-.08.48.48,0,0,0,.09-.26c-.08.19-.25.2-.39.21,0-.23-.28.12-.39,0l0,0c-.17.18-.13-.18-.29.05l0-.18c-.13.28-.11-.2-.25-.08l0,.06c-.1,0-.1-.12-.2-.09v0c-.21,0-.27-.18-.34.05,0-.2.21,0,.19-.32a5.35,5.35,0,0,1-1.95-.4c0-.12-.08-.16-.06-.25s-.25,0-.35.06,0-.13,0-.15-.2.21-.29.06a.25.25,0,0,0,.12-.2c-.17.14-.3.07-.44.08,0,0,.07,0,.09-.11-.21.15-.24-.13-.4,0l.09-.12c-.14-.22-.15.26-.29.11.06,0,.06-.09.08-.14-.23.19-.46,0-.64.05a.17.17,0,0,0,0-.05c-.17,0-.32-.17-.55-.13,0-.08.14-.31-.06-.33-.08.27-.34,0-.34.34-.14-.1-.34-.28-.48-.23.11-.07,0-.35.18-.32l0-.2c0-.1.09.07.11-.07s-.29,0-.33,0c-.18.12-.4.38-.6.35.13-.07,0-.31.13-.33l-.45.41c-.06,0,.07-.22-.05-.18s-.08.1-.13.14-.28,0-.21-.3c0-.11.12,0,.08-.13s-.15,0-.27,0v0c-.06-.07-.26,0-.23.19s0-.16.08-.05a.34.34,0,0,1-.38.07c.06,0,.08-.09.13-.16a1.34,1.34,0,0,1-.64.16c0,.12.15-.2.16-.12-.16-.26-.56.06-.65-.26,0,0,0,.18,0,.15s0-.23-.12-.19-.11,0-.19,0,0-.06.07,0a.84.84,0,0,1-.77-.2c0,.07-.24.19-.29.16l.08-.15c0-.12-.18-.06-.14-.2-.19.15.51,0,.29.1,0-.15-.31.17-.19,0-.11,0-.29.1-.33-.09,0,0,.18-.18.09-.21s-.08.06-.22.07l-.11,0c-.07.15-.12-.08-.14.12,0-.14-.25,0-.13-.26l.1-.19c-.07,0-.19.17-.28.23a.2.2,0,0,1,0-.1c-.14.31-.15-.09-.33.12-.09-.16-.34-.15-.33-.37-.14,0-.28.12-.38,0s.08,0,.11-.08-.09-.05-.18,0-.07-.24-.11-.39c-.14,0-.18.23-.23.33,0-.35-.38.07-.38-.26,0,0,.22-.08.16-.2,0-.34-.29.14-.38-.07l-.07.27c0-.18-.29,0-.16-.2-.09.07-.15-.16-.24.09-.16-.31-.67-.14-.62-.65-.06,0-.13-.06-.17.08s.13-.06.11,0-.07.06-.09.09-.11-.14.06-.31c-.11-.23-.37.34-.54.14,0-.1,0-.14,0-.15l-.2.11c-.12-.1,0-.26.1-.44-.09,0-.18,0-.27.06v-.26c0,.19-.11.08-.16.1l0,0c0-.08-.09-.08-.14-.08a.25.25,0,0,0,.07.25c-.08.06-.13,0-.22.08.09-.16-.07-.18-.12-.22s-.15.11-.17.1-.1-.07,0-.17,0,.11.08.06.06-.24-.08-.17-.14.34-.22.17a.92.92,0,0,0,.14-.14l-.08-.14-.08.15c0-.05,0-.06,0-.08-.11.14-.21,0-.33.13-.07,0-.08-.17-.13-.22h0c0-.12-.15-.11-.26,0v0a.21.21,0,0,0-.23,0c-.05-.16.24-.59,0-.45-.1,0-.29.2-.3.32-.13-.2-.46,0-.52-.37-.06.05-.06.1-.13.1-.25-.19-.67-.1-.74-.5.11,0,.08-.14.12-.23-.13.1,0-.18-.15,0s-.1.2,0,.3c-.2,0-.44-.14-.47-.31,0,.09,0,.11-.1.13.12-.21,0-.3-.11-.27l-.08.12v-.16s-.18.26-.2.08a.42.42,0,0,0,0-.15c-.14.06-.37.18-.41,0v-.23s-.18.08-.14.17c-.11-.2-.21-.27-.18-.47a1.24,1.24,0,0,1-1.28-.16l.06-.1c0-.14-.13.15-.16.05s0-.24.17-.32c-.08-.17-.26.08-.37.08s.11-.05,0,.11-.13-.2-.26,0a.72.72,0,0,1,.17-.29l-.13,0c0-.28.44-.28.49-.61h-.09c0-.24.31-.13.16-.3-.13.06-.34.3-.32.42-.19,0-.32.42-.49.31,0-.14.16.05.21-.13s-.22,0-.27-.1c0,.12-.13.28-.2.28s.16-.15,0-.24c-.09.1-.25.12-.19.25-.18.23-.1-.14-.27,0,0-.2.35-.34.26-.5-.07.18-.3.13-.37.43,0-.08,0-.22.14-.3s-.36.21-.21-.15l-.12.16c0-.07,0-.13,0-.25s-.36.12-.21-.14c0,0-.19-.09-.23.13s.19-.07.11.2c0-.24-.16,0-.25,0l0-.1s-.12,0-.2.05a.17.17,0,0,0,.07-.16l-.12.13c-.18,0,.12-.29,0-.32l.16-.06s0-.16-.09-.14-.24.26-.33.36.06-.18-.1-.08l.19-.11c.05,0,.07-.27,0-.32s-.31.16-.25.29a.15.15,0,0,1,0-.23c-.14,0-.07.16-.22.19,0-.12,0-.32,0-.5l.24-.18-.07,0c.2-.13,0-.17.2-.34,0-.05-.12,0-.2,0,0,.39-.4.34-.52.66-.24,0,.28-.77-.18-.43,0,.09-.23.26-.06.24-.1-.1-.25.25-.32.05.18-.06.06-.36.31-.44-.07.09,0,.12.08.1s.18-.28.06-.35-.2-.07-.27.09.12,0,0,.19c-.18,0-.06-.29-.29,0,.11,0,0,.22,0,.33h-.15l.08-.1c-.12-.18-.16.17-.31,0l0-.26c.14-.16.19.22.34-.1-.1-.07-.23.06-.28-.08h.11s.16-.46-.13-.32c-.13,0-.08.1-.15.21-.19-.07-.31,0-.43,0,.15-.21-.19-.14.07-.29,0,.16.23.3.42.12s.11.12.3-.12c-.13-.09,0-.34.1-.53,0,0-.11,0-.14,0s-.06.18-.16.34a.4.4,0,0,0-.5,0c0-.1.11-.25.18-.23a1.24,1.24,0,0,1-.54-.35c0,.32-.23,0-.28.2a.38.38,0,0,1-.09.43c0-.05.07-.11.07-.18-.15.1,0-.29-.18-.11.21,0,.22-.3.37-.48-.19,0,.09-.14,0-.21a1.41,1.41,0,0,1-.54,0c0-.3-.42-.27-.57-.35s.18-.34.12-.44-.08.29-.16.1l0,0c-.08,0-.17-.32-.42,0l.2-.21s-.07,0-.11,0,.06-.17.14-.2c0-.22-.21-.09-.31-.14l0,.18c-.24,0-.26-.2-.46-.25l.1-.14-.15,0c.11-.13.08-.27-.05-.19L102,138c0,.13-.18.13-.23.29s.14.2.25.08c0,0-.07,0-.15,0,.1-.21.19-.14.31-.25,0,0,0-.1-.08,0a.24.24,0,0,1,.28,0c-.11,0,0,.14-.1.18.12-.16.24-.16.33,0s.31,0,.41.16a1,1,0,0,1-.45.25c0,.15.1.06.13.2.13-.1.28-.29.45-.29l-.08.13c.15,0,.26-.2.37-.08a3.27,3.27,0,0,0,.59.47l-.08.13c.27-.22.39.09.59,0,.15.26.56.16.54.46a3.81,3.81,0,0,1,1.23.51l-.18.16c.16-.1,0,.13.07.15,0-.2.22-.15.34-.24.09.26.42.23.66.18l-.07.14c.3-.16.38.17.56.33,0,.06,0,.21,0,.23a.91.91,0,0,1,.51-.15,1.1,1.1,0,0,1,.36.38c.62-.07,1,.37,1.53.44l0,.18c.63-.1,1,.5,1.52.52l-.18.26c.08.14.32.07.38-.14.08.14.38,0,.34.28s.22,0,.34,0a.89.89,0,0,0,.57.33l0-.05c-.06.05-.12.16-.07.21s.29.23.37-.14c.16.32.67.14.79.51,0-.1.09-.09.15-.13.23.1.37.4.62.33,0,.06-.12.13,0,.18s.06-.12.15-.14c.44,0,.65.53,1,.64a7.86,7.86,0,0,1,1.83.69l0,.06c.31-.17.34.46.66.14,0,.09.16.11.07.22.23-.11.36.36.68.22a.06.06,0,0,0-.07,0c.16.25.44.13.62.37a.19.19,0,0,0-.13.08c0,.17.34-.19.25.16.06,0,.11-.15.07-.16a4.7,4.7,0,0,0,1.68.51c.31.35-.2.56.21.44,0,.07.07-.12,0-.05.15,0,0,.44.19.3s.09-.09.15-.21c.18.23.16.43.41.35l-.06.1c.34-.22.54,0,.86-.23.62.2,1.24.36,1.86.52s1.23.3,1.84.49a18.42,18.42,0,0,0,1.77.6,13.57,13.57,0,0,1,1.76.68c.2.37.23.37.58.35,0,0-.05,0-.05.1.09-.23.23,0,.33-.17a11.5,11.5,0,0,0,1.34.38c-.08,0-.18.18-.08.19l.13-.12v.07c.07,0,.17-.12.13-.21,1.22.13,2.25.93,3.42,1.16a2,2,0,0,0,1,.21,4.42,4.42,0,0,0,2.51,1S139.7,153.42,139.29,153.47Z"/><path class="cls-7" d="M101.75,137.63c0,.12,0,.24-.15.33A3.31,3.31,0,0,1,101.75,137.63Z"/><path class="cls-7" d="M103.53,140.22s0,.06,0,.09-.12.06-.11,0S103.48,140.26,103.53,140.22Z"/><path class="cls-7" d="M104.12,140.66c-.06.09-.24.08-.33.05Z"/><path class="cls-7" d="M104.49,141.4c0,.11,0,.15-.11.11S104.45,141.44,104.49,141.4Z"/><path class="cls-7" d="M104.66,141.21s0,.1,0,.17S104.55,141.36,104.66,141.21Z"/><path class="cls-7" d="M105.8,142.24s.14,0,.11.09C105.92,142.24,105.69,142.36,105.8,142.24Z"/><path class="cls-7" d="M106.48,142.44s0,0,.06,0-.07.11-.1.11Z"/><polygon class="cls-7" points="118.03 147.66 117.94 147.68 117.99 147.58 118.03 147.66"/><path class="cls-7" d="M123.16,149.73c.1,0,0,.12,0,.14S123.25,149.75,123.16,149.73Z"/><polygon class="cls-7" points="126.15 150.24 126.13 150.24 126.21 150.03 126.15 150.24"/><path class="cls-7" d="M131,158.63c.1,0,.05-.2.09,0S131,158.7,131,158.63Z"/><path class="cls-7" d="M114.06,144.18c.62-.13.37.5.84.51,0,0-.26.18-.15.2.52,0,.6.45.55.94l-.08,0c0,.1.27,0,.28,0s-.08,0-.13.1c.15-.1.14,0,.26,0,0,.07-.15.15-.18.23l.18-.1c.44-.22.15.23.44.19a.26.26,0,0,0-.11.07c.38,0,.54.26.8.4a1.24,1.24,0,0,0-.22.18c.17-.13.27-.1.34-.07-.14.17.24,0,.2.1l0,0c.21-.11,0,.15.2,0l-.1.14c.25-.18,0,.18.1.11l0,0c.09,0,0,.11.06.1l0,0c.13,0,.05.19.22,0-.12.16-.13,0-.3.22a1.74,1.74,0,0,1,.87.64c0,.1,0,.14-.1.2s.12.07.23,0-.07.1-.06.12.23-.13.21,0a.62.62,0,0,0-.19.14c.18-.08.21,0,.3,0a.38.38,0,0,0-.11.07c.2-.09.06.14.21.09l-.12.08c0,.2.23-.18.22,0a.53.53,0,0,0-.12.1c.24-.12.28,0,.41,0l0,0c.09,0,.11.17.26.17,0,.07-.24.23-.14.27.2-.21.21,0,.39-.23,0,.09,0,.26.16.23-.1.05-.21.28-.28.25l-.08.16c-.08.07,0-.07-.1,0s.19,0,.18.07c.17-.07.43-.26.54-.21-.12,0-.2.24-.25.25l.47-.28s-.14.16,0,.15a.39.39,0,0,1,.15-.11s.15.05,0,.26-.09,0-.12.1.11,0,.17,0l0,0c0,.06.18,0,.25-.14s-.11.13-.09,0,.22-.08.27,0-.09.08-.15.13a.88.88,0,0,1,.46-.09c.09-.09-.19.15-.15.09,0,.22.36,0,.26.26,0,0,.12-.14.1-.12s-.1.2,0,.17c-.07.09.06,0,.11,0s0,.05-.06,0,.39,0,.38.2c0-.05.24-.15.26-.12l-.12.12c0,.1.08.06,0,.17.19-.11-.31,0-.13-.09-.08.12.27-.13.1,0,0,0,.22-.07.16.09,0,0-.19.15-.15.17s.07,0,.16,0l.08,0c.12-.13,0,.06.15-.1-.09.11.15,0,0,.22l-.15.16s.19-.13.28-.19a.35.35,0,0,1-.06.09c.22-.25,0,.08.25-.09,0,.14.15.14,0,.32.11,0,.23-.1.24,0s0,0-.1.07,0,0,.1,0-.06.21-.1.33c.11,0,.21-.19.29-.27-.17.29.26-.06.13.21-.05,0-.18.07-.19.17-.17.29.24-.12.21.06l.16-.23c-.08.16.2,0,0,.18.09-.06,0,.13.19-.08,0,.27.35.11.13.54,0,0,0,0,.13-.07s-.1.06,0,0,.07,0,.09-.08,0,.11-.16.26c0,.19.37-.29.4-.13s-.09.12,0,.13l.18-.1c0,.08-.12.22-.24.37.06,0,.1,0,.2-.05l-.1.22c.07-.16.09-.07.14-.1l0,0c0,.07,0,.06.07.06a.34.34,0,0,0,0-.21c.07,0,.08,0,.17-.08-.12.14,0,.15,0,.19s.13-.11.14-.09,0,0-.06.14,0-.1,0,0-.13.2,0,.14.21-.3.2-.16l-.14.13v.12l.1-.13s0,0,0,.06.12,0,.26-.12c0,0,0,.14,0,.18h0c0,.11.06.09.16,0l0,0s.07,0,.15,0c0,.14-.36.52-.18.39,0,0,.26-.19.3-.29,0,.16.29,0,.21.28.06-.05.07-.09.12-.1.09.15.39,0,.3.38-.08,0-.1.14-.15.21.12-.1-.06.16.1,0s.13-.19.13-.26.25.07.21.21a.18.18,0,0,1,.1-.12c-.14.19-.1.26,0,.22l.09-.11-.06.14s.2-.24.16-.09l-.08.13c.12-.06.3-.19.28,0l-.09.2s.15-.09.14-.16c0,.16.06.21,0,.38.4-.27.62-.14.77,0l-.06.09c0,.12.13-.14.12-.06s-.09.21-.2.3.19-.11.26-.12-.09.06,0-.09,0,.15.16,0a1.07,1.07,0,0,1-.19.28l.1-.06c-.09.24-.36.31-.48.61h0c-.08.22-.24.15-.18.28a1,1,0,0,0,.32-.41c.12,0,.32-.41.4-.34s-.09,0-.17.14.14,0,.15.05a.47.47,0,0,1,.2-.28c0,.12-.14.16-.09.22.08-.1.19-.14.19-.25.18-.22,0,.11.18-.05-.09.18-.32.35-.3.48.09-.17.23-.17.35-.43a.8.8,0,0,1-.17.28c0,.13.29-.24.09.1l.12-.16c0,.06,0,.11-.06.22s.25-.16.09.09c0,0,.1,0,.18-.15s-.14.09,0-.16c-.08.21.09,0,.16,0l-.05.1s.06,0,.14-.08a.28.28,0,0,0-.08.15l.11-.14c.11,0-.15.27-.05.27l-.13.09s0,.13,0,.11l.3-.38c.07,0-.08.16,0,0l-.15.13s-.1.25,0,.28.24-.2.23-.31,0,.12-.07.21c.09,0,.08-.15.19-.21,0,.11-.05.28-.09.44l-.2.19,0,0c-.16.15-.06.15-.21.33,0,.05.08,0,.13,0,.12-.35.34-.38.49-.67.14,0-.35.73,0,.34,0-.08.21-.27.1-.23,0,.07.21-.26.21-.1s-.12.33-.29.45c.06-.09,0-.1,0-.08s-.17.29-.11.33.11,0,.19-.14-.07,0,.05-.16,0,.24.18,0c-.06,0,0-.18.09-.3l.1,0-.08.1c0,.13.14-.18.21-.1l-.08.23c-.13.18-.08-.15-.24.16,0,0,.16-.1.16,0l-.07,0s-.2.43,0,.25.07-.11.14-.22.2-.08.27-.07c-.14.22.09.08-.1.27,0-.14-.1-.21-.25,0s0-.08-.22.17c.07,0-.09.31-.17.49,0,0,.07,0,.1-.06s.07-.17.17-.33c.05.09.18,0,.32-.09,0,.1-.12.25-.16.25a.37.37,0,0,1,.28.19c.09-.3.14,0,.22-.25a.65.65,0,0,1,.14-.4s-.07.12-.09.18c.12-.12-.06.27.1.06-.13,0-.19.31-.32.51.13-.08-.09.14,0,.18a.8.8,0,0,1,.35-.13c0,.25.23.13.31.16s-.17.35-.14.41.09-.27.12-.12l0,0c.06,0,.07.24.27-.08l-.16.24s.05,0,.08,0-.07.17-.12.21c-.05.2.12,0,.17.05l.05-.17c.15-.07.14.11.26.1L131,158l.09-.06c-.08.14-.08.26,0,.15l-.33.29c0-.11.14-.16.19-.32s-.06-.14-.15,0,0,0,.1,0c-.1.21-.14.18-.24.3s0,.08.05,0c-.09.09-.13.08-.19.06s0-.14.1-.19c-.1.18-.19.21-.23.12s-.2.07-.25,0a1.33,1.33,0,0,1,.34-.34c0-.12-.06,0-.06-.14-.1.12-.22.32-.33.37l.07-.14c-.1,0-.21.24-.26.16a2.44,2.44,0,0,0-.31-.28l.07-.13c-.21.25-.24,0-.38.09-.05-.2-.34,0-.28-.29a1.07,1.07,0,0,1-.71-.21l.15-.17c-.13.12,0-.13,0-.12,0,.18-.17.16-.27.26,0-.2-.23-.12-.4,0l.08-.13c-.24.19-.22-.09-.3-.2s.07-.19,0-.2a.84.84,0,0,1-.38.22.47.47,0,0,1-.15-.28c-.42.14-.54-.2-.9-.19l.08-.16c-.46.17-.56-.32-.86-.3l.19-.24c0-.12-.19,0-.3.16,0-.12-.24,0-.14-.22,0-.09-.16.06-.23.06-.07-.18-.13-.2-.29-.23l0,0c.06,0,.13-.15.11-.18s-.11-.19-.28.14c0-.26-.4-.08-.36-.4-.05.09-.09.08-.14.13s-.12-.33-.31-.26c0-.06.13-.12.09-.16s-.07.1-.14.13c-.3,0-.25-.43-.44-.52-.41-.07-.65-.38-.94-.57l0,0c-.26.14,0-.4-.37-.13,0-.07-.06-.09,0-.19-.2.1-.08-.31-.35-.2,0,0,0,0,0,0,0-.21-.23-.12-.25-.32a.26.26,0,0,0,.12-.07c0-.14-.3.16-.1-.14,0,0-.13.13-.11.13-.15-.3-.54-.36-.84-.51,0-.31.38-.46.07-.38,0-.06-.1.1-.06,0-.12,0,.18-.37,0-.26s-.1.07-.19.16c0-.2.09-.36-.1-.31l.08-.08c-.31.15-.31-.08-.64.12-.29-.23-.6-.42-.91-.62a8.83,8.83,0,0,1-.87-.64,9.29,9.29,0,0,1-1.39-1.6c.1-.33.09-.33-.12-.38a.27.27,0,0,0,.08-.07c-.19.16-.11-.08-.29.07a5.85,5.85,0,0,0-.54-.57s.21-.1.17-.13l-.16.06,0-.05a.29.29,0,0,0-.21.13c-.61-.39-.67-1.22-1.13-1.71,0-.19-.24-.3-.39-.41-.05-.61-.11-1.13-.61-1.41C113.26,144.42,113.81,144.1,114.06,144.18Z"/><path class="cls-7" d="M130.88,158.6c0-.12,0-.2.14-.33A2.52,2.52,0,0,1,130.88,158.6Z"/><path class="cls-7" d="M130.12,156.75s0-.05,0-.07.08-.08.07,0S130.15,156.71,130.12,156.75Z"/><path class="cls-7" d="M129.81,156.5a.25.25,0,0,1,.23-.12Z"/><path class="cls-7" d="M129.72,155.93c0-.1.06-.14.09-.12S129.76,155.88,129.72,155.93Z"/><path class="cls-7" d="M129.58,156.13s0-.08,0-.14S129.68,156,129.58,156.13Z"/><path class="cls-7" d="M129.07,155.46s-.11,0-.06-.06C129,155.48,129.16,155.33,129.07,155.46Z"/><path class="cls-7" d="M128.67,155.41s0,0,0,0a.17.17,0,0,1,.09-.11Z"/><polygon class="cls-7" points="123 151.93 123.07 151.92 123 152 123 151.93"/><path class="cls-7" d="M120.8,150c-.08,0,0-.09,0-.11S120.75,150,120.8,150Z"/><polygon class="cls-7" points="119.27 149.32 119.28 149.33 119.12 149.48 119.27 149.32"/><polygon class="cls-7" points="217.74 102.63 217.75 102.69 217.69 102.59 217.74 102.63"/><path class="cls-7" d="M218.9,102c0-.07.06.08.07.09S218.91,101.94,218.9,102Z"/><path class="cls-7" d="M205.9,273.74c-.15,0,0,.2-.11.07C205.83,273.72,205.87,273.66,205.9,273.74Z"/><path class="cls-7" d="M210.87,266.88c.58-.45,1,.24,1.62,0,.06,0-.07.3.08.25.55-.36,1.26,0,1.83.38l-.05.09c.11.07.27-.21.39-.16s-.05.08,0,.16c0-.17.22-.06.28-.19,0,.08,0,.21.08.3l.09-.2c.22-.46.45.07.73-.16,0,.05,0,.08,0,.13a3.44,3.44,0,0,1,1.43-.22.52.52,0,0,0,0,.28c0-.21.19-.25.32-.28,0,.22.24-.18.37,0l0,0c.14-.21.15.16.27-.11l0,.18c.08-.3.14.18.24,0v-.07c.1-.06.12.1.2.06v0c.19-.06.27.13.3-.11,0,.2-.19.06-.13.35a3.86,3.86,0,0,1,1.85.17.63.63,0,0,1,.07.25c.07,0,.23,0,.31-.09s0,.13,0,.15.2-.22.28-.08a.31.31,0,0,0-.11.21c.15-.15.28-.07.41-.09,0,0-.07,0-.09.12.2-.16.22.12.38,0l-.09.11c.11.23.15-.25.27-.1,0,0-.06.08-.09.13.24-.18.44,0,.61,0l0,0c.17,0,.29.19.51.17,0,.09-.17.29,0,.33.13-.25.32.05.38-.28.12.11.27.33.41.31-.12.05-.12.33-.24.28l0,.19c-.07.09,0-.08-.11.05s.27,0,.29.1c.19-.08.46-.27.64-.18-.14,0-.15.27-.23.27a5.38,5.38,0,0,1,.55-.24c.06,0-.13.17,0,.18a.32.32,0,0,1,.17-.09s.26.13.09.35-.12,0-.13.09.15,0,.24.1l0,0c0,.09.25.08.29-.08s-.1.13-.1,0a.3.3,0,0,1,.37.09c-.06,0-.11.05-.18.09a1.11,1.11,0,0,1,.64.17c.1-.08-.24.09-.2,0,0,.15.13.21.25.29s.24.21.18.37c0,0,.16-.09.12-.07s-.12.2,0,.27c-.1,0,.07.09.14.19s-.05,0-.09-.05a.85.85,0,0,1,.24.41.73.73,0,0,1-.06.59c.07,0,.22.27.18.35l-.15-.08c-.12,0-.08.25-.22.21.06.11.09-.05.09-.2s0-.3,0-.18c-.14,0,.17.37,0,.25,0,.14.06.36-.15.41,0,0-.16-.21-.2-.11s0,.09,0,.26,0,.08,0,.12-.15.13.05.19c-.11-.06-.18.3-.36.08l-.12-.18c0,.06,0,.26,0,.39a.24.24,0,0,1-.09-.06c.1.13,0,.17,0,.19s-.14,0-.11.17c-.21,0-.4.2-.56.05-.07.14-.13.3-.29.28,0,0,.05-.06,0-.13s-.1,0-.16.1-.23-.13-.35-.22c-.08.13,0,.29,0,.4-.19-.28-.28.3-.48,0,0-.05.13-.19,0-.25-.17-.3-.16.28-.35.16l.08.26c-.09-.16-.2.19-.23-.08,0,.1-.2-.06-.13.2-.29-.18-.6.24-.83-.21,0,.05-.13,0-.09.15s.07-.12.11,0,0,.09,0,.12-.15-.06-.11-.29c-.2-.14-.11.48-.35.41,0-.11,0-.15-.09-.13l-.1.21c-.15,0-.12-.24-.15-.42-.07,0-.17,0-.18.19l-.13-.22c.09.16-.05.12-.08.17l0-.05c0-.08-.1,0-.15,0a.31.31,0,0,0,.18.18c0,.08-.09.07-.13.17,0-.18-.15-.11-.21-.12s-.06.17-.08.17-.12,0-.08-.14.07.08.1,0-.07-.23-.16-.09.07.35-.09.26c0-.05,0-.13.05-.2l-.14-.08,0,.17s0,0,0-.08c0,.18-.19.08-.19.28-.07,0-.15-.1-.22-.11h0c-.09-.09-.18,0-.23.1v0a.19.19,0,0,0-.18.13c-.12-.11-.1-.62-.2-.4-.1,0-.14.32-.08.42-.21-.09-.4.2-.6,0,0,.07,0,.11-.06.15-.29,0-.58.25-.83-.06.07-.08,0-.17,0-.27-.06.16-.09-.15-.1.11s0,.23.1.28c-.16.09-.42.11-.52,0,.05.07,0,.12,0,.17,0-.24-.13-.27-.22-.18v.14l-.07-.14c0,.05,0,.31-.13.17l0-.15c-.1.12-.23.33-.34.21l-.09-.21s-.12.16,0,.22c-.18-.13-.3-.14-.37-.32a1.08,1.08,0,0,1-1.12.46V276c-.1-.1-.05.2-.12.12s-.07-.23,0-.36c-.14-.11-.17.2-.27.25s.08-.1.06.09-.19-.11-.22.1a.92.92,0,0,1,0-.33l-.08.1c-.1-.25.24-.45.13-.77l-.08,0c-.08-.23.2-.26,0-.34-.09.11-.16.42-.08.52-.18.06-.09.52-.28.5s.16,0,.12-.21-.18.1-.26,0c.09.08,0,.3-.05.34s.07-.2-.07-.23c0,.13-.15.22,0,.31-.06.29-.15-.08-.23.14,0-.2.15-.46,0-.56,0,.19-.19.26-.11.55a.34.34,0,0,1,0-.33c-.08-.12-.22.35-.24,0l0,.2c0-.07-.06-.12-.1-.22s-.25.26-.24,0c0,0-.19,0-.13.22s.12-.15.18.13c-.07-.23-.16,0-.22.1v-.11s-.12,0-.15.14c0-.07,0-.15,0-.17l0,.17c-.16.08,0-.31-.18-.26l.12-.14s-.07-.13-.14-.08-.09.35-.12.47,0-.18-.12,0l.12-.19s-.06-.27-.17-.27-.19.28-.09.37a.15.15,0,0,1-.08-.21c-.12,0,0,.17-.1.26,0-.1-.17-.26-.24-.42l.12-.27h-.07c.11-.21,0-.17,0-.39-.05,0-.12,0-.17.09.13.37-.19.49-.17.82-.21.08-.08-.81-.32-.31,0,.09-.09.34,0,.25-.13-.05-.11.33-.25.18.12-.13-.1-.35.08-.53,0,.11.08.09.11.06s0-.34-.1-.35-.19,0-.19.2.13,0,.06.18-.16-.23-.25.1c.1,0,.11.17.1.3l-.13.08,0-.13c-.18-.1-.08.23-.25.18l-.07-.25c.06-.22.26.11.25-.24-.11,0-.17.15-.27,0s.06,0,.09-.06,0-.48-.24-.23c-.09.1,0,.13,0,.26-.19,0-.26.15-.38.16.05-.26-.21-.05-.06-.3.05.16.32.17.41-.07s.14.06.21-.25c-.15,0-.12-.31-.12-.51,0,0-.09.06-.12.09s0,.18,0,.37a.38.38,0,0,0-.44.2c-.05-.1,0-.28.06-.29a1.12,1.12,0,0,1-.6-.09c.09.32-.21.05-.16.31a.4.4,0,0,1,.09.43c-.06,0,0-.13,0-.2-.1.15-.1-.28-.2,0,.19-.07.07-.36.13-.59-.14.12,0-.16-.11-.18a1.2,1.2,0,0,1-.46.24c-.15-.24-.45-.06-.61-.08s0-.38-.07-.44,0,.3-.1.15l0-.05c-.06.06-.27-.21-.37.16l.09-.28s-.06,0-.09.06,0-.18.05-.24-.21,0-.32,0l.05.18c-.2.1-.3-.09-.48-.05l0-.17-.12.08c0-.15,0-.27-.1-.14l.33-.37c.06.11-.12.19-.09.36s.18.13.23,0-.07,0-.12.06c0-.23.1-.21.17-.35s-.07-.07-.08,0a.22.22,0,0,1,.25-.1c-.09.08,0,.15,0,.21,0-.2.15-.25.27-.18.06.25.26-.11.4,0a1.05,1.05,0,0,1-.29.42c.08.12.11,0,.19.13.06-.15.13-.38.26-.46v.16c.12-.07.15-.29.28-.23a3,3,0,0,0,.67.17v.16c.14-.32.36-.09.51-.21.22.17.53-.1.63.17a3.41,3.41,0,0,1,1.23-.08l-.09.22c.09-.16,0,.13.12.1-.08-.18.12-.22.18-.35.18.18.44,0,.62-.14v.15c.19-.28.38,0,.59,0,0,.07.06.21.12.2.13-.25.19-.23.37-.38a1,1,0,0,1,.45.17c.47-.33.95-.11,1.43-.32l0,.18c.46-.39,1-.05,1.45-.27l0,.31c.13.09.28-.09.24-.31.13.09.31-.16.4.09.13.05.15-.15.26-.2a.68.68,0,0,0,.59,0h-.06c0,.07,0,.2,0,.21s.34.06.22-.3c.28.2.59-.22.87,0,0-.1,0-.12.05-.19.22,0,.48.15.65,0,0,0,0,.17,0,.17s0-.13.05-.19c.34-.22.76.11,1.09,0a8,8,0,0,1,1.75-.38V273c.14-.31.49.21.57-.23.05.06.17,0,.16.14.13-.22.42.12.55-.17,0,0,0,0,0,.05.23.11.32-.15.54-.08a.23.23,0,0,0,0,.15c.12.1,0-.35.21,0,0,0,0-.18-.06-.16a.52.52,0,0,0,.28-.09.47.47,0,0,0,.16-.15.5.5,0,0,0,0-.27,1.84,1.84,0,0,1,.36.05c.09,0,.12,0,0-.06.07,0-.14,0-.06,0-.09,0,.41,0,.23-.1s-.13,0-.27,0c.14-.09.32-.18.13-.22l.11,0a.88.88,0,0,1-.29-.05.48.48,0,0,0-.34,0,1.85,1.85,0,0,0-.24-.25,3.22,3.22,0,0,0-.28-.24c-.19-.15-.4-.28-.6-.41a13.61,13.61,0,0,0-1.33-.64,20.52,20.52,0,0,0-2.93-1c-.2-.35-.23-.34-.53-.27,0,0,0-.05,0-.1-.05.24-.21,0-.27.23a8.13,8.13,0,0,0-1.23-.13c.07,0,.12-.21,0-.21l-.1.15v-.07a.19.19,0,0,0-.08.23c-1.12.11-2.22-.45-3.38-.51a2.23,2.23,0,0,0-1-.07,5.76,5.76,0,0,0-2.55-.9S210.48,266.92,210.87,266.88Z"/><path class="cls-7" d="M206.07,273.74c0,.12.1.21,0,.36A2.1,2.1,0,0,1,206.07,273.74Z"/><path class="cls-7" d="M208.55,275.35s0,.06,0,.08-.08.1-.1,0S208.53,275.4,208.55,275.35Z"/><path class="cls-7" d="M209.23,275.5c0,.11-.18.18-.27.19Z"/><path class="cls-7" d="M209.83,276c0,.1,0,.14,0,.14A.33.33,0,0,1,209.83,276Z"/><path class="cls-7" d="M209.9,275.76s.07.07.1.14C210,275.8,209.87,275.94,209.9,275.76Z"/><path class="cls-7" d="M211.28,276.18s.12-.09.14,0C211.39,276.12,211.25,276.34,211.28,276.18Z"/><path class="cls-7" d="M212,276.05s0,0,.05,0,0,.13,0,.14Z"/><polygon class="cls-7" points="223.75 274.82 223.69 274.89 223.68 274.78 223.75 274.82"/><path class="cls-7" d="M226,270.05c-.1,0,0-.11,0-.13S225.9,270,226,270.05Z"/><polygon class="cls-7" points="223.33 268.67 223.35 268.68 223.23 268.87 223.33 268.67"/><path class="cls-7" d="M224.77,272.33c-.12,0,0,.2-.09.07S224.75,272.26,224.77,272.33Z"/><path class="cls-7" d="M224.91,265.93c.47-.48.77.2,1.23-.06.05,0-.09.3,0,.25.46-.34,1,.07,1.29.52l-.05.08c.06.08.24-.17.32-.11s0,.08,0,.16c.07-.17.18,0,.25-.15a2.81,2.81,0,0,0,0,.3l.11-.18c.27-.43.32.13.58-.06,0,.05-.05.08-.05.12.39-.19.75,0,1.11,0a1.22,1.22,0,0,0-.09.27.32.32,0,0,1,.31-.23c0,.22.21-.14.28,0l0,0c.14-.19.07.17.22-.08V267c.12-.28.06.19.17.07l0-.07c.08-.05.07.11.14.08v0c.16,0,.18.16.25-.07,0,.2-.15,0-.17.33a2.79,2.79,0,0,1,1.38.25c0,.11,0,.15,0,.24s.17,0,.25-.08a.23.23,0,0,0,0,.14c0,.12.17-.22.22-.08a.35.35,0,0,0-.11.2c.14-.15.23-.09.33-.11a.48.48,0,0,0-.08.12c.17-.17.16.1.29,0l-.08.12c.08.2.14-.26.22-.12a.27.27,0,0,0-.07.13c.19-.2.34-.05.47-.09a.17.17,0,0,0,0,.05c.13,0,.22.13.39.08,0,.08-.14.31,0,.31.1-.26.26,0,.3-.35.09.08.21.25.32.19-.09.08-.07.33-.17.32v.18c-.05.11-.05-.06-.08.08s.21,0,.24,0c.14-.13.33-.4.48-.38-.11.08-.08.3-.14.33l.38-.43c.05,0-.07.21,0,.17s.07-.1.11-.15.21,0,.12.27-.09,0-.08.14.12-.06.2,0v0c0,.06.21,0,.21-.21,0,0,0,.16-.08.06a.24.24,0,0,1,.31-.09.52.52,0,0,0-.12.16.88.88,0,0,1,.53-.15c.06-.12-.16.18-.15.11.07.24.46,0,.46.27,0,0,.09-.17.07-.13s0,.22.05.19c-.06.1.08,0,.15,0s0,.05-.07,0c.12,0,.51,0,.56.3.05-.06.28-.11.31-.07l-.13.12c0,.1.13.1,0,.21.22-.08-.41-.15-.19-.17-.08.13.33-.06.14.09.08.06.28,0,.24.19,0,0-.24.09-.18.15s.1,0,.22,0l.11,0c.14-.09.07.13.19,0-.11.09.21.18-.05.29l-.21.08s.26,0,.38,0a.17.17,0,0,1-.08.06c.32-.11.05.16.32.17,0,.17.1.39-.1.48.12.1.24.22.18.35a.16.16,0,0,0-.12-.07c-.09.08,0,.1,0,.18s-.2.14-.34.19c.08.12.26.13.37.16-.18,0-.15.1-.11.2s0,.21-.12.21-.09-.2-.2-.15c-.34-.05.14.27-.09.35l.26.1c-.18,0,0,.3-.23.13,0,.1-.21.09,0,.24a1,1,0,0,0-.42.28.33.33,0,0,1-.48,0s-.11.06,0,.17,0-.14.1-.06,0,.09,0,.12-.18,0-.21-.22c-.22-.08,0,.49-.23.48,0-.11-.06-.14-.11-.11l-.05.22c-.14,0-.14-.22-.2-.39-.06.05-.14.06-.13.2l-.14-.2c.1.15,0,.12,0,.17l0-.05c0-.07-.09,0-.12,0a.24.24,0,0,0,.17.16c0,.09-.07.08-.09.19,0-.18-.14-.1-.19-.11s0,.17-.06.17-.1,0-.07-.14.06.08.08,0-.08-.22-.14-.09.08.36-.06.26a.54.54,0,0,0,0-.19l-.12-.08,0,.17s0-.06,0-.08c0,.18-.15.08-.15.28,0,0-.12-.11-.17-.12h0c-.07-.1-.14,0-.18.1v0s-.1,0-.13.13c-.1-.12-.1-.63-.17-.41-.08,0-.09.32,0,.43-.16-.1-.3.19-.46-.06,0,.07,0,.11,0,.15-.22,0-.44.24-.64-.07.06-.08,0-.17,0-.27,0,.16-.07-.15-.07.11s0,.23.08.28a.27.27,0,0,1-.4,0,.15.15,0,0,1,0,.16c0-.24-.1-.27-.17-.18v.15l-.06-.15c0,.05,0,.31-.09.17l0-.16c-.07.13-.17.34-.25.22l-.08-.22s-.08.16,0,.22c-.15-.13-.23-.14-.28-.32a.76.76,0,0,1-.86.45v-.11c-.08-.1,0,.19-.09.12s-.06-.23,0-.36c-.11-.11-.14.19-.21.24s.06-.09,0,.09-.14-.11-.16.11a.78.78,0,0,1,0-.34l-.07.11c-.07-.26.19-.46.11-.77l-.06,0c0-.23.16-.26,0-.34a.88.88,0,0,0-.07.52c-.13.06-.07.52-.21.5s.12,0,.09-.21-.14.1-.2,0,0,.3,0,.34.05-.2-.05-.23c0,.13-.12.22,0,.31,0,.28-.11-.08-.17.14,0-.21.12-.47,0-.57,0,.19-.15.26-.1.55a.41.41,0,0,1,0-.33c-.06-.12-.17.35-.18,0l0,.2c0-.06,0-.11-.07-.22s-.2.26-.18,0c0,0-.15,0-.11.22s.1-.15.14.13c-.05-.23-.12,0-.18.1v-.11s-.09,0-.12.13a.2.2,0,0,0,0-.17l0,.17c-.12.09,0-.31-.12-.26l.09-.13s-.05-.14-.1-.09-.08.35-.11.47,0-.18-.09,0l.09-.19c0-.05,0-.26-.12-.27s-.15.28-.07.38-.1-.11-.06-.22c-.1.05,0,.17-.09.27,0-.11-.11-.27-.16-.43l.1-.27h-.06c.09-.21,0-.17,0-.39,0,0-.09,0-.13.09.08.37-.16.48-.16.82-.17.08,0-.82-.23-.31,0,.09-.09.33,0,.24-.09,0-.1.33-.2.18.1-.13,0-.34.09-.53,0,.11.06.09.08.06s0-.33-.06-.34-.15,0-.15.2.09,0,0,.18-.12-.24-.21.09c.08,0,.08.18.07.31l-.1.07,0-.13c-.13-.1-.07.23-.2.18l0-.26c.06-.2.19.12.2-.23-.08,0-.13.15-.2.05s0,0,.07-.06,0-.48-.17-.23,0,.13-.05.26-.2.15-.3.15c0-.25-.16,0,0-.29,0,.16.23.17.31-.07s.11.06.17-.24c-.11,0-.07-.32-.07-.52,0,0-.06.06-.09.09,0,.18,0,.19,0,.37-.12-.06-.25,0-.35.2,0-.1,0-.28.06-.29a.58.58,0,0,1-.44-.09c.05.31-.17.05-.14.3a.52.52,0,0,1,0,.43s0-.13,0-.2c-.09.16-.06-.27-.16,0,.15-.08.08-.36.14-.59-.11.12,0-.16-.07-.18a.81.81,0,0,1-.36.23c-.1-.24-.34-.06-.47-.07s.05-.38,0-.44,0,.29-.09.15l0-.05c-.05.06-.18-.22-.29.15l.09-.27s0,0-.07.05,0-.18.05-.23c0-.21-.16,0-.24,0l0,.17c-.16.11-.22-.08-.36-.05l0-.16-.1.08c.05-.15,0-.27-.06-.14l.28-.36c0,.11-.1.18-.1.35s.13.13.18,0-.05,0-.1.05c0-.23.1-.2.16-.35,0,0,0-.07-.06,0,.07-.1.12-.11.2-.1s0,.15,0,.21c0-.2.13-.25.21-.17,0,.24.21-.12.31,0a1.21,1.21,0,0,1-.25.41c0,.12.08,0,.13.13a1.19,1.19,0,0,1,.23-.45l0,.15c.1-.06.14-.29.23-.23a1.75,1.75,0,0,0,.49.18v.15c.12-.31.27-.08.39-.21.16.17.4-.09.46.18a1.86,1.86,0,0,1,.93-.08l-.08.22c.08-.16,0,.13.09.1-.05-.18.1-.22.15-.35.13.18.33,0,.47-.14v.16c.15-.28.28,0,.44,0s0,.21.09.19c.1-.24.14-.22.28-.37a.66.66,0,0,1,.33.17c.36-.33.71-.1,1.07-.31l0,.18c.35-.38.78,0,1.07-.25v.31c.09.09.21-.09.18-.3.09.09.22-.16.29.09.1.05.11-.15.19-.19a.41.41,0,0,0,.44,0h0c0,.06,0,.19,0,.21s.25.06.16-.3c.21.2.43-.2.64.06,0-.1,0-.12,0-.19.17,0,.37.17.48,0,0,0,0,.18,0,.18s0-.13,0-.19a.38.38,0,0,1,.41,0,.52.52,0,0,0,.35.07,1.58,1.58,0,0,1,.48-.25l.17-.06.07,0,0,.06c-.07-.13,0-.08,0-.05s.11,0-.06-.12c.07,0,.05,0,.17.09-.08-.07,0-.06,0-.06s.1,0,0-.09l0,0c.09,0,.08,0,.07-.06s0,0,0-.08l.14,0c.15,0-.33-.06,0-.09a1,1,0,0,0-.18,0c.07-.07,0-.15-.07-.18l-.12,0c-.05,0-.07,0-.13,0,0-.28.4-.43.1-.35,0-.06-.1.09-.05,0-.11,0,.17-.37,0-.26s-.1.08-.18.18c0-.19.06-.38-.14-.31l.08-.09c-.3.2-.35,0-.63.24a2.43,2.43,0,0,0-.52-.17l-.64-.16a12.62,12.62,0,0,1-1.28-.34,22.62,22.62,0,0,1-2.42-1c-.1-.35-.12-.35-.37-.31,0,0,0,0,0-.09-.09.23-.16,0-.26.19a5.46,5.46,0,0,0-.92-.28c.06,0,.14-.19.08-.19l-.11.13v-.07a.22.22,0,0,0-.12.21c-.86-.05-1.52-.76-2.33-.92a1.12,1.12,0,0,0-.68-.14,2.17,2.17,0,0,0-1.71-.8S224.61,266,224.91,265.93Z"/><path class="cls-7" d="M224.9,272.33c0,.13,0,.21,0,.36C224.88,272.57,224.87,272.44,224.9,272.33Z"/><path class="cls-7" d="M226.65,273.94s0,.05,0,.08-.07.1-.08,0S226.64,274,226.65,273.94Z"/><path class="cls-7" d="M227.17,274.09a.26.26,0,0,1-.22.18Z"/><path class="cls-7" d="M227.6,274.6c0,.09,0,.14,0,.13A.33.33,0,0,1,227.6,274.6Z"/><path class="cls-7" d="M227.66,274.35c.05,0,.06.07.07.14C227.74,274.39,227.63,274.53,227.66,274.35Z"/><path class="cls-7" d="M228.71,274.78s.09-.1.1,0C228.79,274.72,228.67,274.94,228.71,274.78Z"/><path class="cls-7" d="M229.22,274.65s0,0,0,0a.11.11,0,0,1,0,.14Z"/><polygon class="cls-7" points="238.47 272.49 238.48 272.58 238.39 272.52 238.47 272.49"/><path class="cls-7" d="M236.26,268.5c-.08,0,0-.11,0-.13S236.19,268.48,236.26,268.5Z"/><polygon class="cls-7" points="234.09 268.21 234.1 268.21 234.02 268.42 234.09 268.21"/><path class="cls-7" d="M278.55,71.24c0-.13-.2,0,0-.11S278.63,71.23,278.55,71.24Z"/><path class="cls-7" d="M292.4,83.24c.18.68-.6.66-.64,1.21,0,0-.21-.23-.24-.1,0,.6-.67.86-1.26.88l0-.09c-.11,0,0,.31-.13.34s0-.09-.1-.14c.09.16-.09.17-.05.3-.07,0-.15-.14-.23-.18l.07.2c.14.48-.34.19-.38.51,0,0,0-.08-.06-.11a1.1,1.1,0,0,1-.37.5c-.16.13-.34.25-.49.39a.64.64,0,0,0-.12-.25.31.31,0,0,1-.09.38c-.13-.18-.08.26-.24.21v-.05c0,.24-.18-.07-.14.21l-.13-.13c.09.3-.18-.09-.19.08l0,.06c0,.1-.13,0-.17,0l0,0c-.12.13-.27,0-.18.22-.12-.16.11-.13-.07-.37a2.54,2.54,0,0,1-1.44.63c-.08-.08-.12-.1-.15-.19s-.18.08-.21.21-.05-.11-.08-.12-.06.28-.18.18a.36.36,0,0,0,0-.23c-.06.2-.18.18-.28.26a.32.32,0,0,0,0-.15c-.09.23-.21,0-.3.12l0-.14c-.17-.16,0,.29-.17.2,0,0,0-.1,0-.15-.12.25-.34.19-.46.27v0c-.14,0-.29,0-.45.06-.06-.07,0-.34-.12-.3,0,.28-.26.1-.19.42-.13,0-.33-.17-.42-.09.07-.1,0-.35.08-.36l-.06-.17c0-.12.08,0,.07-.1s-.22.09-.26,0c-.11.16-.25.47-.42.47.09-.09,0-.31.07-.35l-.32.49c-.06,0,0-.22-.06-.17a.35.35,0,0,1-.09.17s-.24,0-.2-.26c0-.11.1,0,.06-.14s-.12.07-.22,0v0c-.05-.06-.22.06-.19.23,0,0,0-.17.07-.07a.27.27,0,0,1-.32.13c.05,0,.07-.11.1-.18a.89.89,0,0,1-.53.22c-.05.12.13-.21.13-.13-.13-.23-.48.1-.54-.21,0,0-.06.17,0,.14s0-.23-.1-.18c0-.11-.08,0-.16,0s0,0,.07,0c-.12,0-.53,0-.65-.2,0,.07-.24.17-.28.14l.1-.14c0-.11-.15-.07-.08-.2-.2.13.43,0,.23.11,0-.14-.31.15-.16,0-.09,0-.27.07-.27-.11,0,0,.19-.17.12-.2s-.08.06-.21,0l-.09,0c-.1.14-.09-.09-.15.1.06-.13-.22,0-.05-.27l.14-.17c-.06,0-.21.14-.31.19a.18.18,0,0,1,0-.09c-.21.26-.1-.11-.31,0,0-.17-.26-.22-.17-.41-.14,0-.29,0-.32-.09s.06,0,.12,0-.06-.07-.15-.08,0-.24.06-.37c-.13,0-.24.15-.32.23.17-.3-.35-.06-.21-.35.06,0,.22,0,.22-.12.19-.29-.3,0-.27-.18l-.19.2c.08-.15-.26-.07,0-.23-.11,0,0-.19-.24,0,0-.32-.46-.4-.14-.79-.05,0-.06-.1-.17,0s.14,0,.06.08-.09,0-.12,0,0-.15.22-.21c.07-.22-.47.09-.49-.15.11-.05.14-.08.09-.13h-.22c0-.14.19-.18.35-.27-.06,0-.08-.13-.23-.1l.18-.18c-.13.13-.13,0-.18,0h0c.07,0,0-.1,0-.13a.25.25,0,0,0-.13.21c-.09,0-.09-.06-.2-.07.17-.06.07-.16.07-.22s-.18,0-.18,0,0-.11.11-.11-.06.08,0,.08.2-.12.06-.16-.34.15-.27,0c0,0,.13,0,.2,0l.05-.15-.16.05s.05,0,.07,0c-.18,0-.11-.15-.31-.11,0,0,.07-.16.07-.22h0c.07-.1,0-.17-.14-.2h0s-.05-.12-.15-.14c.09-.13.6-.2.37-.24,0-.1-.33-.08-.43,0,.07-.19-.24-.34,0-.55-.07,0-.11,0-.16,0,0-.27-.28-.53,0-.77.08.07.17,0,.26,0-.15,0,.15-.09-.11-.09s-.22,0-.27.1c-.1-.14-.12-.38,0-.47a.15.15,0,0,1-.17,0c.25,0,.28-.12.19-.2h-.15l.15-.07c-.05,0-.31,0-.17-.11a.66.66,0,0,0,.15,0c-.12-.09-.32-.21-.2-.31l.22-.08s-.16-.11-.22,0c.13-.16.15-.27.34-.31a.91.91,0,0,1-.36-1l.11,0c.11-.07-.19-.07-.1-.12s.23,0,.35,0c.13-.11-.17-.19-.21-.28s.09.08-.09,0,.13-.16-.08-.21a.77.77,0,0,1,.33.06l-.09-.09c.26,0,.42.28.74.23l0-.07c.23,0,.23.21.33.06a.71.71,0,0,0-.51-.15c0-.17-.5-.16-.45-.32s0,.14.19.13-.07-.17,0-.23c-.09.06-.3,0-.33-.1s.2.09.24,0c-.12,0-.19-.18-.3-.1-.27-.1.1-.11-.1-.22.21,0,.43.22.56.11-.2,0-.23-.22-.52-.21a.36.36,0,0,1,.32,0c.14,0-.3-.26.08-.2l-.19-.07a2.35,2.35,0,0,1,.24,0c0-.07-.21-.27.08-.2,0,0,0-.17-.2-.16s.13.14-.16.12c.24,0,0-.14-.06-.21l.12,0s0-.11-.11-.16a.19.19,0,0,0,.17,0l-.16-.08c-.05-.15.31.05.29-.09l.11.13s.15,0,.11-.1-.32-.16-.44-.21.18,0,.05-.1l.16.15s.27,0,.29-.08-.23-.24-.34-.17.12-.08.23,0c0-.12-.17,0-.24-.16.11,0,.29-.08.46-.1l.23.18,0-.06c.18.14.17,0,.37.12,0,0,0-.1-.05-.16-.39,0-.43-.29-.76-.36,0-.2.8.15.37-.19-.09,0-.3-.16-.25,0,.07-.09-.29-.17-.12-.25.1.13.35,0,.5.2-.11,0-.11,0-.09.08s.32.12.35,0,0-.16-.15-.21,0,.11-.18,0,.26-.07,0-.24c0,.09-.19,0-.31,0l-.05-.12.12.06c.14-.12-.2-.12-.12-.26l.26,0c.19.11-.16.18.17.27.05-.09-.1-.18,0-.24s0,.06.05.09.47.1.26-.13-.11-.06-.23-.11-.09-.25-.07-.36c.23.11.09-.16.29,0-.16,0-.23.22,0,.36s-.08.1.19.24c.05-.12.33,0,.52,0,0,0,0-.08-.06-.11a2.12,2.12,0,0,0-.36-.1c.1-.12.05-.28-.09-.42.11,0,.27.07.27.13a.81.81,0,0,1,.21-.47c-.32,0,0-.19-.25-.22a.42.42,0,0,1-.43,0s.12,0,.19,0c-.13-.12.28,0,.07-.15,0,.18.32.16.53.28-.08-.15.15.07.2,0a.9.9,0,0,1-.12-.45c.26,0,.15-.36.2-.49s.36.14.43.09-.29-.06-.12-.13l0,0c0-.06.27-.15-.07-.34l.25.15s0-.06,0-.09.18,0,.22.11c.21,0,0-.17.07-.26h-.18c-.06-.2.14-.22.14-.38l.15.07-.05-.12c.14.08.27,0,.16,0l.28.38c-.11,0-.15-.15-.32-.18s-.16.12,0,.21,0-.06,0-.12c.22.08.18.14.31.24s.08,0,0-.07a.2.2,0,0,1,0,.24c-.06-.09-.14,0-.2-.08.19.09.21.2.11.27s.06.26-.05.35a1,1,0,0,1-.34-.37c-.13,0,0,.09-.16.12.12.1.33.22.37.35l-.14,0c0,.11.24.2.16.3a2.39,2.39,0,0,0-.32.49l-.14,0c.27.21,0,.31.09.48-.21.13,0,.45-.31.45a2.29,2.29,0,0,1-.18,1L277,75.1c.13.12-.14,0-.13.07.19,0,.19.16.31.25-.22.1-.1.35,0,.53l-.15,0c.23.22-.06.31-.15.47-.07,0-.21,0-.21.05.21.16.18.2.3.37a.74.74,0,0,1-.24.33c.25.44,0,.78.12,1.19h-.18c.33.41-.06.83.14,1.16l-.31,0c-.1.1.08.23.29.21-.09.1.15.24-.1.31-.05.1.15.12.19.2a.43.43,0,0,0,0,.46v0c-.06,0-.19,0-.21,0s-.06.27.3.16c-.19.23.23.43,0,.66.1,0,.13,0,.2,0,0,.16-.12.38.07.47,0,0-.17,0-.17.08s.13,0,.2,0c.25.2,0,.58.11.8a9.08,9.08,0,0,1,.71,1.08l-.06,0c.29,0-.05.43.36.26,0,.07,0,.12-.08.19.21,0,.06.35.35.3,0,0,0,0-.05,0,0,.24.26.17.28.4,0,0-.08,0-.13,0s.32-.12.11.17c0,0,.14-.12.12-.12.21.34.67.41,1.05.53.14.33-.28.53.05.41,0,.07.07-.11,0,0,.12,0-.06.41.09.27s.09-.09.15-.21c.1.2.05.41.25.31l-.06.1c.29-.23.4,0,.66-.3a8.53,8.53,0,0,0,2.56.13,14.38,14.38,0,0,0,2.47-.28c.29.22.31.21.48,0,0,0,0,.07,0,.1-.07-.23.15-.07.08-.3a4.3,4.3,0,0,0,.87-.41s0,.24.08.19v-.17l0,.06a.22.22,0,0,0-.07-.23,3.32,3.32,0,0,1,1.11-.6,3.53,3.53,0,0,0,1.12-.63c.22-.06.39-.31.51-.51a2.15,2.15,0,0,0,1.6-1.16S292.48,82.92,292.4,83.24Z"/><path class="cls-7" d="M278.51,71.38c-.12,0-.22,0-.34-.11A1.69,1.69,0,0,1,278.51,71.38Z"/><path class="cls-7" d="M276.44,72.94s-.05,0-.08,0-.08-.09,0-.09S276.4,72.91,276.44,72.94Z"/><path class="cls-7" d="M276.15,73.46a.28.28,0,0,1-.11-.27Z"/><path class="cls-7" d="M275.53,73.81c-.1,0-.15,0-.12-.07A.24.24,0,0,1,275.53,73.81Z"/><path class="cls-7" d="M275.75,73.94s-.08,0-.15,0C275.69,74,275.58,73.86,275.75,73.94Z"/><path class="cls-7" d="M275.05,75s.06.12-.06.11C275.08,75.1,274.9,74.92,275.05,75Z"/><path class="cls-7" d="M275,75.59s0,0,0,0a.11.11,0,0,1-.12-.07Z"/><polygon class="cls-7" points="276.9 85.84 276.82 85.83 276.91 85.76 276.9 85.84"/><path class="cls-7" d="M280.88,88.36c.08,0,0,.11,0,.13S281,88.36,280.88,88.36Z"/><polygon class="cls-7" points="283.4 88.24 283.38 88.24 283.4 88.01 283.4 88.24"/></svg>