<svg id="OBJECTS" xmlns="http://www.w3.org/2000/svg" xmlns:xlink="http://www.w3.org/1999/xlink" viewBox="0 0 175.78 200.42"><defs><style>.cls-1{fill:none;}.cls-2{clip-path:url(#clip-path);}.cls-3{fill:#34343f;}.cls-4{fill:#a6c6c1;}.cls-5{fill:#fff;}.cls-6{fill:#debfb5;}</style><clipPath id="clip-path" transform="translate(3.5 -108.1)"><rect class="cls-1" width="164.47" height="353.39" rx="15.86"/></clipPath></defs><g class="cls-2"><path class="cls-3" d="M148.08,220.88c-2,5.72-1.34,11.44.41,17.13,3.16,10.24,9.34,21.57,3.14,31.95s-19.09,13.13-30.2,12.1c-14.07-1.29-27.94-7.72-42.24-5.43-6.91,1.11-12.69,5-19.16,7.38-5.34,2-11.82,2.77-16.87-.46-8-5.13-8-16.12-11.34-24.05A18.21,18.21,0,0,0,28,253.62a23.19,23.19,0,0,0-6.29-4.19c-4.34-2.18-9.18-4-12.15-8-3.69-5-2.79-11.66-1-17.21,2.07-6.31,6-12.77,4.84-19.66-1.62-9.91-12-15.54-14.11-25.28C-3.15,167.66,8,160.16,16.87,155.58c4.87-2.53,10-5.07,13.81-9.14,3.59-3.85,4.68-8.6,5.2-13.61a47.47,47.47,0,0,1,.63-6.8c.4-3.46,1.19-6.88,3.24-9.71,3.21-4.44,8.45-6,13.72-6,.61,0,1.21,0,1.81.07.82,0,1.62,0,2.43.11,6.8.61,13.28,3.28,20.12,3.55,12.85.51,24.61-6.82,37.52-5.85,5,.37,10.07,1.84,13.92,5.19a18.06,18.06,0,0,1,5.82,12.77c.31,5.21-.86,10.41-1.76,15.51s-1.72,10.25-.45,15.23c2.46,9.6,12.6,13.4,19.77,18.85,3.56,2.71,6.72,6,8,10.42,1.82,6-.32,12.42-3.17,17.78C154.51,209.65,150.26,214.74,148.08,220.88Z" transform="translate(3.5 -108.1)"/><path class="cls-3" d="M6.69,150.5a1.5,1.5,0,0,0,0,3A1.5,1.5,0,0,0,6.69,150.5Z" transform="translate(3.5 -108.1)"/><path class="cls-3" d="M21.43,145.78a1.5,1.5,0,0,0,0,3A1.5,1.5,0,0,0,21.43,145.78Z" transform="translate(3.5 -108.1)"/><path class="cls-3" d="M13.09,138.27a1.5,1.5,0,0,0,0,3A1.5,1.5,0,0,0,13.09,138.27Z" transform="translate(3.5 -108.1)"/><path class="cls-3" d="M137.07,118.26a1.5,1.5,0,0,0,0,3A1.5,1.5,0,0,0,137.07,118.26Z" transform="translate(3.5 -108.1)"/><path class="cls-3" d="M140.41,135.77a1.5,1.5,0,0,0,0,3A1.5,1.5,0,0,0,140.41,135.77Z" transform="translate(3.5 -108.1)"/><path class="cls-3" d="M147.08,123.26a1.5,1.5,0,0,0,0,3A1.5,1.5,0,0,0,147.08,123.26Z" transform="translate(3.5 -108.1)"/><path class="cls-3" d="M25.87,286.44a1.5,1.5,0,0,0,0,3A1.5,1.5,0,0,0,25.87,286.44Z" transform="translate(3.5 -108.1)"/><path class="cls-3" d="M27.54,297.84a1.5,1.5,0,0,0,0,3A1.5,1.5,0,0,0,27.54,297.84Z" transform="translate(3.5 -108.1)"/><path class="cls-3" d="M16.14,291.72a1.5,1.5,0,0,0,0,3A1.5,1.5,0,0,0,16.14,291.72Z" transform="translate(3.5 -108.1)"/><path class="cls-3" d="M153.47,225.56a1.5,1.5,0,0,0,0,3A1.5,1.5,0,0,0,153.47,225.56Z" transform="translate(3.5 -108.1)"/><path class="cls-3" d="M151.25,166.63a1.5,1.5,0,0,0,0,3A1.5,1.5,0,0,0,151.25,166.63Z" transform="translate(3.5 -108.1)"/><path class="cls-3" d="M145.13,155.79a1.5,1.5,0,0,0,0,3A1.5,1.5,0,0,0,145.13,155.79Z" transform="translate(3.5 -108.1)"/><path class="cls-3" d="M157.36,217.22a1.5,1.5,0,0,0,0,3A1.5,1.5,0,0,0,157.36,217.22Z" transform="translate(3.5 -108.1)"/><path class="cls-3" d="M7.53,205.82a1.5,1.5,0,0,0,0,3A1.5,1.5,0,0,0,7.53,205.82Z" transform="translate(3.5 -108.1)"/><path class="cls-3" d="M22.26,130.49a1.5,1.5,0,0,0,0,3A1.5,1.5,0,0,0,22.26,130.49Z" transform="translate(3.5 -108.1)"/><path class="cls-3" d="M16.42,125.21a1.5,1.5,0,0,0,0,3A1.5,1.5,0,0,0,16.42,125.21Z" transform="translate(3.5 -108.1)"/><path class="cls-4" d="M27.26,190.87c3.19-3.06,6.39-6.65,11.61-7.21-.73-.86-1.36-1.56-1.95-2.3-1.81-2.26-2.06-5-2-7.68a2.68,2.68,0,0,1,.85-1.62c2.38-2.35,5.12-3.94,8.62-3.77a5.23,5.23,0,0,0,.69-.08,3.19,3.19,0,0,0-.25-.6c-2.21-3.12-2.6-6.69-2.6-10.36,0-.18,0-.35,0-.53,0-1.23,0-2.12-1.61-2.72-2.64-1-5-2.62-5.74-5.72-.2-.87-.4-1.83.38-2.33a3.3,3.3,0,0,1,2.26-.29c3.43.77,4.88,3.54,6.1,6.45.22.53.37.76,1,.79a51.12,51.12,0,0,1,7,.55,28.07,28.07,0,0,1,5.06,2c.25.1.48.25.8.42.07-1,.13-1.82.21-2.69.27-2.92,2-5,4-7a2.8,2.8,0,0,1,1.84-.59,11.28,11.28,0,0,1,8.82,3.55c.11.12.25.22.56.49.6-5.2,4.11-8.43,7.28-11.65-.46-1.52-.9-2.88-1.27-4.25a6.62,6.62,0,0,1,.86-5.66c.39-.58,1.17-1.28,1.75-1.25a2.94,2.94,0,0,1,1.84,1.29c1.91,2.75,1,6.79-.59,9.66,3.19,3.4,6.86,6.58,7.4,11.83.89-.76,1.62-1.41,2.39-2,2.24-1.75,4.9-2,7.6-2a2.75,2.75,0,0,1,1.62.84c2.39,2.41,3.94,5.21,3.77,8.73a6.65,6.65,0,0,0,.06.79c4.1-3.26,8.87-3,13.36-3.11.79-1.43,1.46-2.73,2.19-4a7,7,0,0,1,4.66-3.35c1.81-.44,2.89.65,2.47,2.47-.81,3.53-3.54,5.08-6.53,6.32-.58.24-.8.42-.83,1.06a49.79,49.79,0,0,1-.54,6.92,28.31,28.31,0,0,1-2,5.06,7.79,7.79,0,0,1-.44.82l2.69.23c2.93.28,5,2,7,4a2.84,2.84,0,0,1,.58,1.83c0,3.4-.92,6.46-3.55,8.82-.12.12-.22.26-.49.57,5.21.59,8.43,4.12,11.66,7.27,1.55-.47,2.94-.92,4.35-1.29a7.09,7.09,0,0,1,5.67.9c1.63,1,1.59,2.57,0,3.56-3.34,2-6.49.86-9.84-.51-3.33,3.12-6.5,6.8-11.76,7.33.76.91,1.42,1.63,2,2.4,1.75,2.25,2,4.91,1.94,7.6a2.66,2.66,0,0,1-.85,1.62c-2.38,2.36-5.13,3.93-8.63,3.76a2,2,0,0,0-.42,0,2.55,2.55,0,0,0-.34.2c3.17,4,2.88,8.77,3,13.16,1.61.91,3,1.66,4.38,2.51a6.81,6.81,0,0,1,3,4.44c.42,1.73-.7,2.84-2.44,2.42a7,7,0,0,1-4.67-3.33c-.65-1.15-1.19-2.38-1.83-3.54a1.11,1.11,0,0,0-.77-.46c-1.4-.1-2.81-.16-4.21-.18a14.66,14.66,0,0,1-8.24-2.55c-.11-.07-.25-.12-.52-.25,0,.45-.09.81-.08,1.16.07,3.48-1.64,6.12-4,8.41a3.14,3.14,0,0,1-2,.68,11.2,11.2,0,0,1-8.8-3.58,2,2,0,0,0-.33-.25s-.07,0-.24,0c-.54,5.06-4.12,8.26-7.22,11.48.46,1.55.9,2.91,1.27,4.29a6.63,6.63,0,0,1-.9,5.66,2.67,2.67,0,0,1-1.78,1.2,2.66,2.66,0,0,1-1.75-1.25c-1.92-3-1-6.07.22-9.07a5,5,0,0,1,.36-.62c-3.22-3.41-6.86-6.58-7.42-11.92-.45.42-.72.65-1,.91-2.4,2.5-5.47,3.2-8.76,3.16a2.94,2.94,0,0,1-1.84-.85c-2.39-2.39-4-5.17-3.81-8.7,0-.17,0-.35-.07-.81-4.11,3.21-8.86,3-13.35,3.07-.78,1.43-1.46,2.73-2.19,4A7,7,0,0,1,37.28,239c-1.8.44-2.89-.66-2.47-2.47.83-3.56,3.59-5.09,6.61-6.38a2.38,2.38,0,0,1,.31-.07l.41-.15c.15-4.64-.19-9.44,3.13-13.58l-2.73-.21c-3-.25-5.13-2-7.1-4a2.89,2.89,0,0,1-.58-1.84c0-3.4.91-6.46,3.54-8.82.13-.11.22-.26.5-.58-5.25-.57-8.46-4.18-11.61-7.19-2,.51-3.63,1-5.33,1.37a6.53,6.53,0,0,1-4.91-1.17c-1.45-.92-1.37-2.47.12-3.38a7,7,0,0,1,5.46-1C24.09,189.93,25.52,190.38,27.26,190.87ZM80.52,158a39.8,39.8,0,0,0-5.85,1.09c-3.23,1-6.38,2.38-9.51,3.71a23.44,23.44,0,0,0-11.78,10.58A97.74,97.74,0,0,0,49.19,183a23.46,23.46,0,0,0-.84,16.11,101,101,0,0,0,3.76,9.6,23.4,23.4,0,0,0,10.58,11.78,97.82,97.82,0,0,0,9.54,4.2,23.43,23.43,0,0,0,16.1.83,99.58,99.58,0,0,0,9.61-3.76,23.44,23.44,0,0,0,11.78-10.58,100,100,0,0,0,4.19-9.53,23.24,23.24,0,0,0,.86-16,87.74,87.74,0,0,0-4.21-10.66,23.58,23.58,0,0,0-7.08-8.79c-3.41-2.67-7.38-4.17-11.31-5.79A31.25,31.25,0,0,0,80.52,158ZM46.86,200.62l-.29-.18c-.85.18-1.7.42-2.56.53a6.64,6.64,0,0,0-3.32,1,9.35,9.35,0,0,0-3.82,5.7A4.39,4.39,0,0,0,39,212.93a9,9,0,0,0,8.24,1c1.44-.51,2.59-1.83,4.15-3a7.88,7.88,0,0,0-1.18-.06,23.45,23.45,0,0,1-4.65.61,4.28,4.28,0,0,1-3-7.27,24.08,24.08,0,0,1,3.72-2.85A4.28,4.28,0,0,0,46.86,200.62Zm16-38.59a5.92,5.92,0,0,0,.1-1.15,27.1,27.1,0,0,1-.62-4.44,4.36,4.36,0,0,1,7.47-3A17.71,17.71,0,0,1,72.46,157c.33.51.53.66.92.35-.21-1.11-.46-2.13-.58-3.17a6.13,6.13,0,0,0-.84-2.51c-1.95-3.27-5-4.21-8.49-4.3a1.28,1.28,0,0,0-.85.33c-2.13,2.16-3.57,4.63-3.24,7.8a7.09,7.09,0,0,0,.7,2.68A45.2,45.2,0,0,0,62.87,162ZM89.9,227l-.16.28c.19,1.06.43,2.12.57,3.19a6,6,0,0,0,.81,2.4c1.93,3.29,5,4.24,8.47,4.34a1.3,1.3,0,0,0,.93-.39,23.28,23.28,0,0,0,2.53-3.59,7.89,7.89,0,0,0,.18-6.45c-.56-1.47-1.86-2.66-3-4.26a8.16,8.16,0,0,0-.08,1.16,32.37,32.37,0,0,1,.58,4.86,3.89,3.89,0,0,1-2.33,3.5A4.39,4.39,0,0,1,93,230.92a25.72,25.72,0,0,1-2.37-3.31A4.37,4.37,0,0,0,89.9,227Zm10.31-65.11.3-.05c.47-.74.9-1.49,1.42-2.19a6.86,6.86,0,0,0,1.63-3.07,8.67,8.67,0,0,0-1.22-6.55c-1.88-2.75-1.93-2.73-5.23-2.37A8.09,8.09,0,0,0,91.59,151a5.31,5.31,0,0,0-1.12,2c-.34,1.45-.47,3-.74,4.81.42-.4.75-.59.9-.87a9.11,9.11,0,0,1,3.85-4.33,4.29,4.29,0,0,1,6.07,2.65,9.28,9.28,0,0,1-.42,5.68A2.75,2.75,0,0,0,100.21,161.86Zm16,38.62c.29.37.44.73.71.86a9.21,9.21,0,0,1,4.31,3.73,4.28,4.28,0,0,1-2.62,6.22,8.76,8.76,0,0,1-5.67-.47c-.59-.25-.82-.12-.9.37.9.62,1.76,1.16,2.57,1.77a6.58,6.58,0,0,0,2.44,1.25c3.69.92,6.51-.53,9-3a1.25,1.25,0,0,0,.37-.83c0-3-.73-5.81-3.21-7.8a7.38,7.38,0,0,0-2.5-1.43A40.52,40.52,0,0,0,116.18,200.48ZM62.89,222.72l-.3,0c-.47.73-.9,1.49-1.42,2.19A6.76,6.76,0,0,0,59.54,228a8.62,8.62,0,0,0,1.21,6.55c1.89,2.74,1.94,2.73,5.24,2.37a8.13,8.13,0,0,0,5.52-3.36,5.6,5.6,0,0,0,1.12-2c.34-1.45.47-3,.74-4.81-.42.4-.76.58-.9.87A9.25,9.25,0,0,1,68.71,232a4.28,4.28,0,0,1-6.16-2.6,9.36,9.36,0,0,1,.41-5.68A2.46,2.46,0,0,0,62.89,222.72Zm-11.79-49-.07-.35c-.86-.59-1.75-1.15-2.58-1.79a6,6,0,0,0-2.36-1.18c-3.69-.94-6.51.51-9.05,2.94a1.27,1.27,0,0,0-.38.92,22.48,22.48,0,0,0,.56,3.85,8.18,8.18,0,0,0,4.64,5.17c1.42.66,3.19.57,5.16.87-.37-.42-.53-.76-.79-.89a9.16,9.16,0,0,1-4.33-3.71,4.29,4.29,0,0,1,2.6-6.24,9.34,9.34,0,0,1,5.58.39A3.16,3.16,0,0,0,51.1,173.69Zm61-.3-.12.28a5.07,5.07,0,0,0,1,0,24.09,24.09,0,0,1,4.64-.6,4.28,4.28,0,0,1,3,7.26,24.13,24.13,0,0,1-3.72,2.86,5.36,5.36,0,0,0-.71,1c1.4-.27,2.43-.52,3.46-.64a6.13,6.13,0,0,0,2.51-.84c3.29-1.94,4.23-5,4.32-8.47a1.27,1.27,0,0,0-.32-.86c-2.17-2.16-4.69-3.6-7.89-3.24a7,7,0,0,0-2.67.74A38.14,38.14,0,0,0,112.1,173.39ZM47.49,202.9a7,7,0,0,0-4.1,3.17,2.73,2.73,0,0,0,1.45,3.45,6.92,6.92,0,0,0,4.62-.37.88.88,0,0,0,.35-.78C49.08,206.55,48.29,204.76,47.49,202.9Zm2.44-27.13a5.82,5.82,0,0,0-5.6-.46,2.37,2.37,0,0,0-1.14,2.41c.2,1.72,2.58,3.74,4.35,3.86.78-1.84,1.57-3.67,2.35-5.51A1.54,1.54,0,0,0,49.93,175.77Zm65.67,6a6.39,6.39,0,0,0,4.17-3.49,2.39,2.39,0,0,0-1.27-3.06,6.45,6.45,0,0,0-5.41.48ZM71,158.2a7.1,7.1,0,0,0-3.24-4.07,2.68,2.68,0,0,0-3.44,1.45,6.86,6.86,0,0,0,.38,4.62.85.85,0,0,0,.78.34C67.28,159.82,69.07,159,71,158.2Zm-6.06,65.63a6.52,6.52,0,0,0-.52,5.32,2.38,2.38,0,0,0,3.21,1.31A6.44,6.44,0,0,0,71,226.34Zm33.24-63.09a6.37,6.37,0,0,0,.39-5.59,2.7,2.7,0,0,0-2.46-1.25,5.62,5.62,0,0,0-3.84,4.4ZM92.1,226.36a7.16,7.16,0,0,0,3.24,4.08A2.69,2.69,0,0,0,98.79,229a6.92,6.92,0,0,0-.38-4.62.87.87,0,0,0-.78-.35C95.81,224.75,94,225.54,92.1,226.36Zm21-17.43a6.7,6.7,0,0,0,5.35.49,2.39,2.39,0,0,0,1.33-3.12,6.38,6.38,0,0,0-4.16-3.46ZM81.55,148.29c-1.91,2.18-2.2,4.74-2.33,7.35,0,.16.26.47.41.47,1.39,0,2.78,0,4.3,0C83.76,153.26,83.53,150.6,81.55,148.29ZM37.67,192.16c0,.11,0,.21,0,.24,2.07,1.8,4.61,2.09,7.2,2.21.15,0,.46-.26.46-.41,0-1.39,0-2.78,0-4.27C42.55,190,39.93,190.32,37.67,192.16Zm80.09,2.33c2.35.38,6.83-.73,7.67-2.32-2.24-1.85-4.89-2.18-7.67-2.21ZM81.57,236.24c1.87-2.12,2.17-4.66,2.31-7.23a.75.75,0,0,0-.43-.55c-1.39,0-2.78,0-4.15,0A10.59,10.59,0,0,0,81.57,236.24Zm27.37-19.8-3.39,3.19c2,1.81,4.07,3.58,7,3.72A10.14,10.14,0,0,0,108.94,216.44Zm-58.47,6.81c1.9.49,6.32-2.37,6.94-3.7l-3.16-3.3C52.4,218.28,50.66,220.33,50.47,223.25Zm55.15-58.38,3.25,3.43c1.83-2,3.59-4.08,3.76-7.11C109.61,161.4,107.57,163.12,105.62,164.87Zm-55.17-3.61c.25,3,1.95,5.07,3.89,7.13.61-.63,1.11-1.18,1.64-1.68s1.13-1,1.68-1.48C55.84,162.92,52.78,161.26,50.45,161.26Zm63.85-1.79c1.32-.33,2.27-.54,3.21-.8,1.48-.42,1.54-.53,1.55-2.08a9.26,9.26,0,0,1,.07-1.05c.08-.62-.12-.91-.8-.85s-1.2,0-1.77.08c-.36.07-.87.28-1,.56C115.13,156.59,114.78,157.89,114.3,159.47Zm.34,65.66-.25.25c.39,1.29.73,2.59,1.19,3.84a1.25,1.25,0,0,0,1,.57c2.61.09,2.63.07,2.53-2.52a1.24,1.24,0,0,0-.57-1C117.23,225.86,115.93,225.51,114.64,225.13ZM48.42,159.42l.27-.25c-.36-1.23-.71-2.46-1.07-3.68a1,1,0,0,0-1.2-.75c-.76.07-1.86-.27-2.2.11s-.12,1.5-.21,2.28a1,1,0,0,0,.81,1.26Zm.29,66-.26-.24-3.67,1.06a1,1,0,0,0-.77,1.28c.08.75-.23,1.8.16,2.19s1.43.12,2.19.14c.11,0,.23.05.31,0,.29-.15.72-.27.81-.51C47.94,228,48.31,226.7,48.71,225.38Zm79.48-33.28v.37c1.17.63,2.32,1.28,3.5,1.87a1,1,0,0,0,.87,0c.73-.62,1.39-1.33,2.09-2a18.39,18.39,0,0,0-1.79-1.76,1.51,1.51,0,0,0-1.25-.28C130.43,190.8,129.32,191.48,128.19,192.1Zm-46.7,46.59c-.75,1.37-1.39,2.49-2,3.64a1.11,1.11,0,0,0,0,1c.63.74,1.35,1.39,2,2.07,2.49-2.74,2.94-1.61,1-5.1C82.24,239.81,81.94,239.39,81.49,238.69Zm.11-99.45c-.73.69-1.38,1.28-2,1.91-.15.15-.29.48-.22.63.63,1.32,1.31,2.63,2,3.93l.37-.09c.61-1.1,1.25-2.18,1.81-3.31a1.21,1.21,0,0,0,0-1.05C83,140.53,82.26,139.91,81.6,139.24Zm-53.11,53c.69.7,1.3,1.36,2,2a.85.85,0,0,0,.75.14c1.27-.62,2.51-1.29,3.75-1.94l-.05-.36c-1.13-.62-2.24-1.27-3.4-1.84a1.21,1.21,0,0,0-1,.05C29.78,190.89,29.18,191.58,28.49,192.29ZM119,224.41c-.24-1.17-.47-2.21-.67-3.26-.14-.78-.58-.94-1.28-.75s-1.38.27-2,.51c-.32.11-.83.54-.78.68.19.64-.2,1.59.8,1.85C116.32,223.76,117.57,224.05,119,224.41Zm-69.61,5.35c1-.2,2-.36,2.94-.57,1.23-.28,1.28-.38,1-1.66a13,13,0,0,0-.42-1.74c-.12-.32-.54-.83-.68-.79-.64.2-1.59-.2-1.85.8C50.07,227.05,49.78,228.3,49.43,229.76Zm0-75c.37,1.53.66,2.79,1,4a1,1,0,0,0,.6.58c1.65.51,1.7.47,2.08-1.21a13.45,13.45,0,0,0,.36-1.74c0-.27-.2-.74-.41-.8C51.92,155.29,50.76,155.06,49.41,154.75Zm64.26.07c-.7.12-1.25.19-1.79.31-3,.64-2.42.45-1.9,2.91a2.31,2.31,0,0,0,.17.71c.19.31.53.86.67.82.66-.19,1.64.2,1.9-.87ZM85.36,241.56c.73-1.17,1.4-2.18,2-3.23a.74.74,0,0,0-.16-.7c-1-.67-2-1.27-3-1.92a6.84,6.84,0,0,0-.77,1.18,1.7,1.7,0,0,0-.14,1.17C83.86,239.17,84.56,240.23,85.36,241.56ZM49.18,163.4c-.41-.86-.57-1.92-1.11-2.18a21.41,21.41,0,0,0-4-1.07c.31,1.34.55,2.52.87,3.69a.86.86,0,0,0,.73.36C46.71,164,47.79,163.72,49.18,163.4Zm-.33,57.68c-1.08-.24-2.2-.51-3.32-.73-.18,0-.55.13-.59.27-.33,1.21-.6,2.44-.93,3.82l3-.75C48.78,223.24,48.78,223.24,48.85,221.08Zm-16.57-25c1.14.72,2.12,1.37,3.14,2a.82.82,0,0,0,.79-.13c.67-1,1.27-2,1.91-3a6.66,6.66,0,0,0-1.19-.77,1.63,1.63,0,0,0-1.17-.12C34.65,194.6,33.59,195.3,32.28,196.1ZM78.9,148.86a9.26,9.26,0,0,0,.83-1.25,1.34,1.34,0,0,0,.15-1c-.62-1.16-1.34-2.27-2.14-3.6-.72,1.14-1.39,2.15-2,3.2A.8.8,0,0,0,76,147C76.9,147.64,77.88,148.22,78.9,148.86Zm5.31,0c1-.65,2-1.24,3-1.89a.76.76,0,0,0,.21-.69c-.62-1.07-1.3-2.11-2-3.27-.8,1.32-1.49,2.42-2.12,3.54a1,1,0,0,0,0,.83A12.3,12.3,0,0,0,84.21,148.86ZM125,195c.58.93,1.13,1.86,1.73,2.76.13.19.53.43.65.37,1.12-.63,2.2-1.33,3.42-2.08-1-.6-1.78-1-2.52-1.49-1.57-1-1.57-1-3,.14C125.21,194.77,125.18,194.84,125,195Zm-.06-5.39a10.31,10.31,0,0,0,1.26.83,1.35,1.35,0,0,0,1,.14c1.16-.62,2.26-1.34,3.59-2.14-1.16-.73-2.17-1.4-3.23-2-.17-.1-.68.1-.82.3C126.15,187.68,125.6,188.61,125,189.64Zm-14.59,35.24c-.27,1.17-.55,2.28-.76,3.4a.8.8,0,0,0,.34.65c1.19.32,2.4.57,3.72.87-.36-1.49-.63-2.72-1-3.93a1.18,1.18,0,0,0-.64-.66A11.62,11.62,0,0,0,110.38,224.88Zm3.76-61.43c1.18.27,2.29.55,3.41.76a.75.75,0,0,0,.65-.34c.31-1.19.57-2.4.87-3.72-1.5.36-2.73.63-3.93,1a1.14,1.14,0,0,0-.66.65A10.19,10.19,0,0,0,114.14,163.45ZM77.75,241.58c.58-1,1-1.75,1.46-2.5,1-1.6,1-1.6-.15-3.12a2.33,2.33,0,0,0-.28-.18c-.9.56-1.86,1.12-2.77,1.76a.91.91,0,0,0-.23.85C76.35,239.42,77,240.4,77.75,241.58ZM38.13,189.64c-.65-1-1.25-2-1.89-3a.77.77,0,0,0-.69-.22c-1.08.62-2.12,1.3-3.27,2,1.31.8,2.41,1.49,3.53,2.12a1,1,0,0,0,.83,0A15.08,15.08,0,0,0,38.13,189.64Zm-1.5-42.33a6.62,6.62,0,0,0,5.14,5.17A7,7,0,0,0,36.63,147.31Zm84.71,84.77c.56,2.6,2.9,4.94,5.11,5.09C126.25,234.94,123.87,232.58,121.34,232.08Zm0-79.6c3-1,5.33-3.18,5-5.15A6.93,6.93,0,0,0,121.33,152.48ZM42,231.91c-3.37,1.35-5.48,3.19-5.33,5.35C39.67,236.79,40.68,234.39,42,231.91ZM81.52,128.72a6.85,6.85,0,0,0,0,7.27A6.7,6.7,0,0,0,81.52,128.72Zm63.59,63.53a6.87,6.87,0,0,0-7.27.06A6.68,6.68,0,0,0,145.11,192.25ZM81.52,255.86c1.46-1.93,1.39-5.82-.13-7.35C80.7,251,79.67,253.38,81.52,255.86ZM18,192.31a6.84,6.84,0,0,0,7.26-.05A6.69,6.69,0,0,0,18,192.31ZM115,215.61l-2.9,1.71,1.37,2.12,3.68-.95ZM58.22,225.78l-1.7-2.91-2.14,1.37,1,3.68Zm-1.7-64.1c.51-.85,1-1.61,1.42-2.4a.7.7,0,0,0-.07-.69c-.78-.65-1.61-1.25-2.54-2l-.94,3.7Zm57,3.44-1.31,2.16,2.89,1.68,2.11-2.9ZM45.9,218.48l3.7,1L51,217.31l-2.9-1.69ZM48.05,169,51,167.25l-1.38-2.13-3.67,1Zm58.52-7.26,2.14-1.37-.95-3.69-2.88,2.16Zm1.2,66.23.93-3.72-2.14-1.32-1.68,2.9Zm14-42.83-.87,3.24,2.47.55,2-3.28ZM77.61,153l.55-2.48-3.29-1.94-.5,3.56Zm7.87,0c1-.24,1.82-.42,2.65-.69a.84.84,0,0,0,.5-.61c-.08-1-.26-2-.42-3.11l-3.27,2ZM37.8,199c1.16.16,2.15.32,3.15.41a.76.76,0,0,0,.56-.43c.27-.86.46-1.75.7-2.72l-2.45-.55Zm83.07-2.74.86,3.24,3.57-.52-2-3.27ZM74.87,236l3.29-1.95-.55-2.46c-1,.24-1.85.43-2.71.7a.72.72,0,0,0-.43.56C74.55,233.87,74.71,234.86,74.87,236ZM42.21,188.35c-.24-1-.43-1.86-.7-2.72a.72.72,0,0,0-.56-.43c-1,.09-2,.25-3.15.41l2,3.28Zm46,47.68c.16-1.17.33-2.1.39-3a.92.92,0,0,0-.51-.7c-.83-.27-1.68-.45-2.62-.68l-.56,2.46Zm15.48-75.6c-1.86,1.75-1.78,2.48.32,3.48l1.17-1.15Zm-54,54L52,215.91l1.19-1.11C52.16,212.67,51.54,212.6,49.66,214.44Zm0-44.31c1.81,1.85,2.41,1.79,3.49-.3L52,168.66ZM58,162.55l1.08,1.37c2-1.12,2.08-2.08.23-3.43Zm-.14,59.26c.27.42.52.79.77,1.16s.49.77.76,1.19c1.81-1.91,1.73-2.52-.37-3.51Zm45.84,2.37c.28-.48.5-.88.74-1.26s.49-.74.6-.9l-1.1-1.37C101.92,221.79,101.87,222.33,103.73,224.18Zm6.22-9.55,1.16,1.29,2.31-1.51C111.53,212.61,111.08,212.66,110,214.63Zm0-44.88c1,2.16,1.95,2.25,3.47.33l-2.19-1.37ZM77.54,229.84c-.16-.62-.15-1.37-.51-1.69s-1.47-.45-1.62-.23a11.86,11.86,0,0,0-1,2.63Zm10.76.63.31-.2a8.56,8.56,0,0,0-.9-2.33c-.19-.24-1.32-.09-1.71.25s-.28,1.09-.39,1.66Zm-2.75-75.74c.17.63.16,1.37.53,1.69s1.47.44,1.61.23a11.68,11.68,0,0,0,1-2.64ZM74.38,154a11,11,0,0,0,1.05,2.63c.17.23,1.32,0,1.71-.29s.23-1.11.31-1.67Zm44.75,34.2.68-3.1a10.3,10.3,0,0,0-2.61,1c-.24.18-.08,1.32.25,1.71S118.55,188.11,119.13,188.22ZM43.29,199.44a10.82,10.82,0,0,0,2.63-1c.23-.16,0-1.32-.3-1.7s-1.1-.23-1.66-.32Zm76.23-.09.21-.31-.61-2.69c-.57.11-1.36,0-1.66.38s-.5,1.52-.26,1.7A8.21,8.21,0,0,0,119.52,199.35Zm-76-14.13-.19.33.61,2.69c.58-.13,1.38-.07,1.67-.42s.48-1.52.23-1.71A8.81,8.81,0,0,0,43.56,185.22Z" transform="translate(3.5 -108.1)"/><path class="cls-4" d="M102.8,145.34a4.1,4.1,0,0,1-4.21-3.73c0-1.89,2.13-3.76,4.28-3.74,1.78,0,3.36,1.93,3.36,4A3.17,3.17,0,0,1,102.8,145.34Zm1.07-3.66c-.08-.7.06-1.6-1-1.71-.77-.07-1.85,1.09-1.83,1.85a1.43,1.43,0,0,0,1.29,1.51A1.59,1.59,0,0,0,103.87,141.68Z" transform="translate(3.5 -108.1)"/><path class="cls-4" d="M34.61,213.52A3.2,3.2,0,0,1,31.09,217c-2.12,0-4-1.69-3.95-3.46.06-2.17,1.87-4.19,3.72-4.18A4.09,4.09,0,0,1,34.61,213.52Zm-3.8,1.07a1.56,1.56,0,0,0,1.78-1.48,1.43,1.43,0,0,0-1.54-1.36,2.25,2.25,0,0,0-1.81,1.77C29.26,214.57,30.08,214.53,30.81,214.59Z" transform="translate(3.5 -108.1)"/><path class="cls-4" d="M106.23,242.61c0,2.16-1.62,4.11-3.43,4.08-2.14,0-4.2-1.85-4.21-3.69a4.09,4.09,0,0,1,4.17-3.78A3.18,3.18,0,0,1,106.23,242.61Zm-2.37.51a1.61,1.61,0,0,0-1.57-1.88,1.44,1.44,0,0,0-1.27,1.52,2.24,2.24,0,0,0,1.74,1.83C103.83,244.6,103.78,243.77,103.86,243.12Z" transform="translate(3.5 -108.1)"/><path class="cls-4" d="M60.38,145.34a3.2,3.2,0,0,1-3.52-3.44c0-2.13,1.61-4,3.39-4,2.11,0,4.22,1.8,4.26,3.64A4.09,4.09,0,0,1,60.38,145.34Zm-1.15-3.71a1.59,1.59,0,0,0,1.58,1.7,1.44,1.44,0,0,0,1.26-1.53c0-.76-1.08-1.91-1.84-1.83C59.21,140.07,59.3,140.92,59.23,141.63Z" transform="translate(3.5 -108.1)"/><path class="cls-4" d="M128.49,213.47a4.09,4.09,0,0,1,3.79-4.15c1.85,0,3.66,2.11,3.68,4.24,0,1.81-1.94,3.43-4.11,3.41A3.19,3.19,0,0,1,128.49,213.47Zm3.75,1.13c1.12,0,1.64-.36,1.63-1a2.24,2.24,0,0,0-1.88-1.8,1.42,1.42,0,0,0-1.49,1.3A1.59,1.59,0,0,0,132.24,214.6Z" transform="translate(3.5 -108.1)"/><path class="cls-4" d="M56.86,242.62a3.19,3.19,0,0,1,3.46-3.4A4.11,4.11,0,0,1,64.51,243c0,1.88-2.17,3.76-4.3,3.71C58.42,246.65,56.86,244.75,56.86,242.62Zm2.37.27c.07.69-.06,1.59,1,1.7.76.08,1.85-1.07,1.83-1.84a1.42,1.42,0,0,0-1.27-1.51A1.59,1.59,0,0,0,59.23,242.89Z" transform="translate(3.5 -108.1)"/><path class="cls-4" d="M34.61,171.09a4.09,4.09,0,0,1-3.79,4.15c-1.85,0-3.65-2.09-3.68-4.23,0-1.81,1.92-3.43,4.1-3.41A3.18,3.18,0,0,1,34.61,171.09ZM30.94,170c-.7.08-1.6-.05-1.7,1-.07.71,1,1.79,1.75,1.82a1.45,1.45,0,0,0,1.6-1.29A1.58,1.58,0,0,0,30.94,170Z" transform="translate(3.5 -108.1)"/><path class="cls-4" d="M128.49,171.05a3.18,3.18,0,0,1,3.4-3.45c2.17,0,4.12,1.65,4.07,3.45-.06,2.16-1.87,4.2-3.72,4.19A4.1,4.1,0,0,1,128.49,171.05Zm3.78-1.08a1.56,1.56,0,0,0-1.76,1.5,1.39,1.39,0,0,0,1.45,1.34,2.17,2.17,0,0,0,1.9-1.78C133.83,170,133,170,132.27,170Z" transform="translate(3.5 -108.1)"/><path class="cls-4" d="M81.61,161.58c17.57.46,30.07,13.37,30.55,29.55.56,18.76-13.55,31.35-29.52,31.78C64,223.4,51.49,209.5,50.92,193.54,50.26,175.15,64.41,161.82,81.61,161.58Zm-4.45,41.29,3.54-3.06a1.15,1.15,0,0,1,1.7,0c.56.48,1.13,1,1.68,1.44s1.13,1,1.86,1.64c.11-1.63.23-3,.28-4.34A1.47,1.47,0,0,1,87.86,197c1.35,0,2.7-.17,4.3-.28-.71-.8-1.25-1.43-1.82-2-2.12-2.22-2.12-2.49,0-4.69.59-.62,1.15-1.26,1.87-2.06-1.63-.1-3-.23-4.28-.27A1.51,1.51,0,0,1,86.21,186c0-1.35-.17-2.7-.28-4.27-.75.66-1.34,1.15-1.89,1.68-2.41,2.31-2.57,2.31-5,0-.56-.53-1.16-1-1.93-1.72-.06,1.38-.08,2.44-.15,3.49-.17,2.33-.27,2.43-2.62,2.59l-3.41.17c1.08,1.24,2,2.28,2.87,3.28a1.41,1.41,0,0,1,0,2.21c-.94,1-1.83,2.09-2.88,3.3,1.62.11,3,.23,4.39.29a1.4,1.4,0,0,1,1.52,1.5C76.93,199.85,77.05,201.24,77.16,202.87ZM87,179.12a37.57,37.57,0,0,0,3.58-1.43c3.06-1.63,6.16-3.23,9.08-5.08,1.88-1.19,1.72-1.7-.28-2.81a24.52,24.52,0,0,1-8,4.58,3.43,3.43,0,0,1-4.15-1.72A22.43,22.43,0,0,1,85,164.71c-.09-.85-.33-1.21-1.17-1.17-.37,0-.75,0-1.32,0C82.79,169.15,84.79,174.09,87,179.12Zm-18.61,7.72A36.71,36.71,0,0,0,67,183.25c-1.63-3.06-3.22-6.16-5.08-9.08-1.19-1.88-1.69-1.72-2.81.28a24.34,24.34,0,0,1,4.58,8,3.44,3.44,0,0,1-1.71,4.16,22.33,22.33,0,0,1-8,2.28c-.85.09-1.22.33-1.17,1.17,0,.37,0,.75,0,1.31C58.41,191,63.35,189,68.39,186.84ZM52.83,193.2v1.59c0,.58.24.82.88.88a23.75,23.75,0,0,1,7.51,2c2.45,1.1,3.12,2.75,2.17,5.25a26.29,26.29,0,0,1-4.4,7.33L60.52,212c3.79-4.25,5.91-9.16,7.86-14.28C63.34,195.52,58.41,193.54,52.83,193.2ZM80.63,221c-.34-5.62-2.32-10.59-4.55-15.59-5.14,2-10.06,4.1-14.24,7.89l1.79,1.52a24.54,24.54,0,0,1,8.16-4.68,3.44,3.44,0,0,1,4,1.65,22.3,22.3,0,0,1,2.34,8c.09.83.31,1.23,1.16,1.17C79.65,221,80,221,80.63,221Zm14.08-23.29a35.72,35.72,0,0,0,1.44,3.59c1.63,3.07,3.22,6.16,5.08,9.09,1.18,1.85,1.73,1.69,2.8-.3a24.39,24.39,0,0,1-4.58-8,3.42,3.42,0,0,1,1.64-4.09,21.57,21.57,0,0,1,7.94-2.32c1-.1,1.32-.39,1.27-1.3,0-.34,0-.68,0-1.2C104.68,193.53,99.73,195.52,94.71,197.73Zm15.55-6.36v-1.68c0-.57-.3-.73-.86-.79a24.13,24.13,0,0,1-7.7-2,3.57,3.57,0,0,1-2.07-5,26.09,26.09,0,0,1,4.48-7.54l-1.54-1.79c-3.77,4.24-5.9,9.15-7.85,14.27C99.74,189,104.67,191,110.26,191.37Zm-8.85,22.06c-4.39-3.91-9.31-6-14.43-8-2.19,5.06-4.22,10-4.49,15.51.45,0,.69.06.93.06,1.41,0,1.34,0,1.54-1.44a20.5,20.5,0,0,1,2.4-7.8,5.49,5.49,0,0,1,1.46-1.42c1-.7,2-.34,3,0a23.61,23.61,0,0,1,7.61,4.46c.34-.26.67-.53,1-.77S100.93,213.74,101.41,213.43ZM61.83,171.26C66.06,175,71,177.15,76,179.07c2.39-4,4.93-12.92,4.4-15.49l-.9,0c-1-.08-1.28.28-1.38,1.3a22.57,22.57,0,0,1-2,7.37,3.54,3.54,0,0,1-4.9,2,25.79,25.79,0,0,1-7.55-4.48Zm36-2.5a25.47,25.47,0,0,0-11.14-4.61,18.48,18.48,0,0,0,2.66,8.37.86.86,0,0,0,.72.26C93,172.2,95.41,170.61,97.83,168.76ZM58,176a25.23,25.23,0,0,0-4.61,11.18c3-.43,5.82-1,8.27-2.62a1.06,1.06,0,0,0,.34-.88C61.44,180.78,59.85,178.41,58,176Zm39.73,39.76a21.52,21.52,0,0,0-7.07-3.87,1.33,1.33,0,0,0-1.78.77,21.6,21.6,0,0,0-2.14,6.91,3.46,3.46,0,0,0,.06.78A23.24,23.24,0,0,0,97.76,215.75Zm7.29-7.18a24.8,24.8,0,0,0,4.6-10.95c-.2-.07-.3-.14-.39-.13a17.72,17.72,0,0,0-7.75,2.47,1.46,1.46,0,0,0-.37,1.23A19.76,19.76,0,0,0,105.05,208.57ZM76.42,164.15a25.2,25.2,0,0,0-11.2,4.65,30.07,30.07,0,0,0,2.92,1.94,48.36,48.36,0,0,0,4.63,2,1.16,1.16,0,0,0,1.06-.32A18.93,18.93,0,0,0,76.42,164.15ZM58,208.57a22.16,22.16,0,0,0,3.91-7.08c.27-.9.09-1.53-.81-1.85-1.81-.64-3.63-1.27-5.46-1.85a18,18,0,0,0-2.25-.39A25.18,25.18,0,0,0,58,208.57Zm18.38,11.84a18.49,18.49,0,0,0-2.63-8.3,1,1,0,0,0-.89-.29,11.48,11.48,0,0,0-2.6.85c-1.7.91-3.34,2-5.18,3A25.56,25.56,0,0,0,76.41,220.41ZM105.06,176c-1.79,2.38-3.36,4.7-3.94,7.52a1.37,1.37,0,0,0,.51,1.17,18.12,18.12,0,0,0,7.57,2.39,1.56,1.56,0,0,0,.46-.13A25.19,25.19,0,0,0,105.06,176ZM59.23,192.28l8,3c1.93.72,1.94.73,3.32-.88.59-.68,1.6-1.39,1.59-2.09s-1-1.4-1.6-2.08c-1.38-1.6-1.38-1.59-3.33-.86Zm44.72.09c-3.11-1.2-6.18-2.4-9.26-3.54a1.27,1.27,0,0,0-1.08.23c-.86.83-1.63,1.75-2.44,2.62a.74.74,0,0,0,0,1.18c.82.87,1.58,1.79,2.44,2.61a1.35,1.35,0,0,0,1.17.23c2.11-.75,4.19-1.6,6.29-2.38C102,193,103,192.68,104,192.37Zm-22.31-22.5c-1.21,3.13-2.4,6.19-3.54,9.27a1.27,1.27,0,0,0,.23,1.08c.83.86,1.74,1.63,2.61,2.45a.76.76,0,0,0,1.19,0c.86-.82,1.79-1.58,2.61-2.45a1.39,1.39,0,0,0,.23-1.16c-.76-2.11-1.61-4.19-2.39-6.29C82.22,171.82,81.94,170.82,81.64,169.87Zm-.09,44.58c1.13-2.91,2.35-6,3.52-9.17a1.07,1.07,0,0,0-.26-.91c-.87-.86-1.77-1.71-2.72-2.48a1.11,1.11,0,0,0-1.06,0,35.42,35.42,0,0,0-2.79,2.55,1.07,1.07,0,0,0-.19.92C79.22,208.46,80.43,211.55,81.55,214.45ZM65.76,176.5c1.16,2.51,2.37,5.15,3.58,7.78.84,1.83.84,1.84,2.9,1.7.9-.06,2.15.16,2.61-.33s.33-1.77.39-2.69c.15-2,.14-2-1.71-2.89Zm31.52,0c-2.23,1-4.62,2.16-7,3.23s-2.46,1.06-2.35,3.83A5.42,5.42,0,0,0,88,185c.11.34.49.79.79.83a32.26,32.26,0,0,0,3.68.15,1.22,1.22,0,0,0,.85-.56C94.66,182.44,96,179.4,97.28,176.52Zm0,31.46c-1.26-2.85-2.63-5.95-4-9a1.08,1.08,0,0,0-.84-.42,32.68,32.68,0,0,0-3.57.15,1.19,1.19,0,0,0-.83.78,30.12,30.12,0,0,0-.16,3.68,1.16,1.16,0,0,0,.55.85C91.38,205.39,94.42,206.72,97.24,208Zm-31.59.09c3-1.34,6.07-2.68,9.08-4.07a1.26,1.26,0,0,0,.55-.95c0-1.16-.08-2.32-.1-3.47,0-.68-.34-.92-1-.93-1.08,0-2.17-.06-3.26-.13a1.06,1.06,0,0,0-1.24.81c-.7,1.75-1.48,3.48-2.27,5.2C66.86,205.75,66.22,207,65.65,208.07Z" transform="translate(3.5 -108.1)"/><path class="cls-4" d="M9.93,166.05a1.46,1.46,0,0,0,0,2.92A1.46,1.46,0,0,0,9.93,166.05Z" transform="translate(3.5 -108.1)"/><path class="cls-4" d="M7.77,178.12a1.46,1.46,0,0,0,0,2.91A1.46,1.46,0,0,0,7.77,178.12Z" transform="translate(3.5 -108.1)"/><path class="cls-4" d="M17.14,176.86a1.46,1.46,0,0,0,0,2.91A1.46,1.46,0,0,0,17.14,176.86Z" transform="translate(3.5 -108.1)"/><path class="cls-4" d="M20.2,224.4a1.46,1.46,0,0,0,0,2.92A1.46,1.46,0,0,0,20.2,224.4Z" transform="translate(3.5 -108.1)"/><path class="cls-4" d="M21.46,237.37a1.46,1.46,0,0,0,0,2.92A1.46,1.46,0,0,0,21.46,237.37Z" transform="translate(3.5 -108.1)"/><path class="cls-4" d="M27.22,227.47a1.46,1.46,0,0,0,0,2.91A1.46,1.46,0,0,0,27.22,227.47Z" transform="translate(3.5 -108.1)"/><path class="cls-4" d="M108.36,119.5a1.46,1.46,0,0,0,0,2.91A1.46,1.46,0,0,0,108.36,119.5Z" transform="translate(3.5 -108.1)"/><path class="cls-4" d="M122.13,126.52a1.46,1.46,0,0,0,0,2.91A1.46,1.46,0,0,0,122.13,126.52Z" transform="translate(3.5 -108.1)"/><path class="cls-4" d="M124.3,119.23a1.46,1.46,0,0,0,0,2.91A1.46,1.46,0,0,0,124.3,119.23Z" transform="translate(3.5 -108.1)"/><path class="cls-4" d="M65.4,123.55a1.46,1.46,0,0,0,0,2.91A1.46,1.46,0,0,0,65.4,123.55Z" transform="translate(3.5 -108.1)"/><path class="cls-4" d="M54.06,116.25a1.46,1.46,0,0,0,0,2.92A1.46,1.46,0,0,0,54.06,116.25Z" transform="translate(3.5 -108.1)"/><path class="cls-4" d="M48.92,128.14a1.46,1.46,0,0,0,0,2.92A1.46,1.46,0,0,0,48.92,128.14Z" transform="translate(3.5 -108.1)"/><path class="cls-4" d="M144.83,204.32a1.46,1.46,0,0,0,0,2.92A1.46,1.46,0,0,0,144.83,204.32Z" transform="translate(3.5 -108.1)"/><path class="cls-4" d="M155.36,198.65a1.46,1.46,0,0,0,0,2.91A1.46,1.46,0,0,0,155.36,198.65Z" transform="translate(3.5 -108.1)"/><path class="cls-4" d="M147.8,197.3a1.46,1.46,0,0,0,0,2.91A1.46,1.46,0,0,0,147.8,197.3Z" transform="translate(3.5 -108.1)"/><path class="cls-5" d="M109.38,266.23,63.79,288.42a43.34,43.34,0,0,0-21.48-7.55,2.22,2.22,0,0,0-2,.53c-.67.84.12,2,.87,2.8l.82.85a6.67,6.67,0,0,0-3-1.34c-1.54-.21-3.34.7-3.52,2.24a2.63,2.63,0,0,0,.05.8A263.24,263.24,0,0,1-3.5,266.24V220h0a238,238,0,0,0,32.19,34.59A9.53,9.53,0,0,1,33,251.29a27.3,27.3,0,0,1,6-1.49l32.73-5.57,8-1.37a4.2,4.2,0,0,1,2.81.17,3.13,3.13,0,0,0-.6,2.47,7.36,7.36,0,0,0,1.73,3.24l-.69.52A113.93,113.93,0,0,1,61.18,263a13.17,13.17,0,0,0,6.67,5,30.23,30.23,0,0,0,8.76,1.52,93.53,93.53,0,0,0,31.87-3.67Z" transform="translate(3.5 -108.1)"/><path class="cls-5" d="M172.27,225v51.27c-9.64,7.49-23.56,15.06-34.69,18.76-10.17,3.39-20.81,5.15-31.41,6.9l-34.83,5.74c-4.53.75-9.31,1.49-13.64-.05-4-1.39-7.05-4.52-10-7.55L37.23,289.26a6,6,0,0,1-1.67-2.51,2.63,2.63,0,0,1-.05-.8c.18-1.54,2-2.45,3.52-2.24a6.67,6.67,0,0,1,3,1.34l-.82-.85c-.75-.76-1.54-2-.87-2.8a2.22,2.22,0,0,1,2-.53,43.34,43.34,0,0,1,21.48,7.55l45.59-22.19-.9-.29a51.77,51.77,0,0,1-24.89-17.2,7.36,7.36,0,0,1-1.73-3.24,3.13,3.13,0,0,1,.6-2.47,2.14,2.14,0,0,1,.86-.65,4.15,4.15,0,0,1,2.62.13l30.86,8.21c4.33,1.14,8.69,2.32,12.6,4.51a19.7,19.7,0,0,1,7.16,6.55A105.75,105.75,0,0,0,172.27,225Z" transform="translate(3.5 -108.1)"/><path class="cls-3" d="M108.4,265.26,66.46,287.67a57.24,57.24,0,0,0-17-7.78c-2.56-.69-6.16-2-8.65-.47a3.29,3.29,0,0,0-1.64,3.72,3.92,3.92,0,0,0-1.63.13A4.24,4.24,0,0,0,34.77,286a1,1,0,0,0,.68,1.19,1,1,0,0,0,1.2-.68,1,1,0,0,1,.05-.16l.15-.29L37,286l.06-.07c.06-.07.11-.14.17-.2l.22-.19.05,0,.12-.08.3-.16h0l.18-.06.33-.08h.7l.38.11.09,0,.08,0,.3.17.13.09c-.18-.12,0,0,0,.05a1.12,1.12,0,0,0,.8.26C43.2,288,45.84,290,48.25,292c2.77,2.34,5.51,4.73,8.31,7,2.28,1.87,4.68,3.43,7.68,3.73,3.35.33,6.86-.54,10.16-1l24.1-3.56c1.24-.18.71-2-.51-1.87L79.32,299.1l-9.22,1.36c-3,.44-6.14.91-9-.56-2.56-1.33-4.71-3.49-6.91-5.34l-7.16-6.07-3.68-3.11c-.82-.7-2.59-1.82-2.45-3.09.34-3,6-1.07,7.6-.64a55.66,55.66,0,0,1,17.36,8,.82.82,0,0,0,.93,0s.07,0,.1,0l42.46-22.69C110.48,266.35,109.5,264.67,108.4,265.26Z" transform="translate(3.5 -108.1)"/><path class="cls-6" d="M82.85,241.89a3,3,0,0,0-2-.32,15,15,0,0,0-2.11.38,14.38,14.38,0,0,0-2,.65,12.28,12.28,0,0,0-1.39.62h0a3.66,3.66,0,0,0-1.85,1.13,1.69,1.69,0,0,0-.07,1.91,2.19,2.19,0,0,0,1.67.86,11.73,11.73,0,0,0,3.91-.35,13.44,13.44,0,0,0,1.93-.6,7.94,7.94,0,0,0,1.78-.87,2.19,2.19,0,0,0,1-1.71A2,2,0,0,0,82.85,241.89Z" transform="translate(3.5 -108.1)"/><path class="cls-6" d="M47.46,283.94a8,8,0,0,0-2.26-2.83,7.18,7.18,0,0,0-3.53-1.61,2.16,2.16,0,0,0-1.88.67,2.23,2.23,0,0,0-.24,2.4s0,.07.05.11a.83.83,0,0,0,.13.43,20.17,20.17,0,0,0,2.82,3.09c1,.9,2.47,2.27,4,1.8a2.13,2.13,0,0,0,1.42-1.68A4.12,4.12,0,0,0,47.46,283.94Z" transform="translate(3.5 -108.1)"/><path class="cls-6" d="M42.37,290a4.79,4.79,0,0,0-.91-1.87,11.11,11.11,0,0,0-3-2.93,3.75,3.75,0,0,0-2.2-.82,1.84,1.84,0,0,0-1.78,1.72,2.45,2.45,0,0,0,.19,1.07,1.18,1.18,0,0,0,.11.35,9.14,9.14,0,0,0,2.47,3.09c.13.11.27.2.41.3l.5.41a3.43,3.43,0,0,0,1.7.75,2.43,2.43,0,0,0,1.2.06A1.78,1.78,0,0,0,42.37,290Z" transform="translate(3.5 -108.1)"/><path class="cls-6" d="M92.14,245.52a5.64,5.64,0,0,0-2.74-2.58,12.84,12.84,0,0,0-3.49-1.38,2.6,2.6,0,0,0-1.9.15,1.85,1.85,0,0,0-.79,2,1.62,1.62,0,0,0,.13.41,1,1,0,0,0,.23.92,12.32,12.32,0,0,0,2.84,2.19,13.63,13.63,0,0,0,1.7.77,5.19,5.19,0,0,0,1.9.42,2.37,2.37,0,0,0,1.78-.81A2.12,2.12,0,0,0,92.14,245.52Z" transform="translate(3.5 -108.1)"/><path class="cls-3" d="M21.32,253.62l-8.15-9.15a1,1,0,0,0-1.37,0,1,1,0,0,0,0,1.38L19.94,255a1,1,0,1,0,1.38-1.38Z" transform="translate(3.5 -108.1)"/><path class="cls-3" d="M17.87,254.93l-3.25-2.34a1,1,0,0,0-.75-.09,1,1,0,0,0-.58.44,1,1,0,0,0,.35,1.33l3.25,2.33a1,1,0,0,0,1.33-.34A1,1,0,0,0,17.87,254.93Z" transform="translate(3.5 -108.1)"/><path class="cls-3" d="M153.82,254.32a1,1,0,0,0-1.33-.35l-9.71,7.22a1,1,0,0,0-.35,1.33,1,1,0,0,0,1.33.35l9.71-7.22A1,1,0,0,0,153.82,254.32Z" transform="translate(3.5 -108.1)"/><path class="cls-3" d="M152,260.93a1,1,0,0,0-1.2-.68l-5,2a1,1,0,0,0-.68,1.19,1,1,0,0,0,1.2.68l5-2A1,1,0,0,0,152,260.93Z" transform="translate(3.5 -108.1)"/></g></svg>