<svg id="OBJECTS" xmlns="http://www.w3.org/2000/svg" viewBox="0 0 209.96 348.24"><defs><style>.cls-1{fill:#5a847c;}.cls-2{fill:#80b7ac;}.cls-3{fill:#dda292;}.cls-4{fill:#34343f;}.cls-5{fill:#a6c6c1;}.cls-6{fill:#fff;}.cls-7{fill:#292935;}.cls-8{fill:#debfb5;}</style></defs><path class="cls-1" d="M75.89,320.83c-3.71-55.49-58.28-59.14-58.28-59.14S20.46,316.31,75.89,320.83Z"/><path class="cls-2" d="M36.91,295.63a.46.46,0,0,1,.24-.89l15.56,3.84L38.52,284l-12.35-2.16c-.59-.1-.34-1,.24-.88l11,1.92-4.23-4.35L22,267c-.41-.43.24-1.07.65-.65l15.85,16.29-3.4-12.69a.46.46,0,0,1,.89-.23l3.68,13.73a.39.39,0,0,1,0,.34l2.9,3,11,11.27q-1.61-8.69-3.2-17.36c-.1-.58.79-.81.9-.22q1.69,9.27,3.41,18.54a.54.54,0,0,1,0,.18L62.22,307l5.22,5.36q-1.25-7.62-2.48-15.25c-.1-.58.8-.82.89-.23l2.58,15.85a.45.45,0,0,1-.05.29.55.55,0,0,1,0,.31l5.06,5.2c.42.43-.24,1.08-.65.65l-5.55-5.71-15.48-4.16a.46.46,0,0,1,.24-.89l14,3.76q-6-6.19-12.07-12.4h0Z"/><path class="cls-2" d="M55.92,302.49c1.7,3.19,4.84,4.91,7.88,6.62s10.42,6.07,11.21,9.75c.18.85,1,.75.95-.11a4.48,4.48,0,0,1,.36-1.83,9.3,9.3,0,0,1,.85-1.7.43.43,0,0,1,0-.07c2-3.31,6-7,7.79-8.7,2.52-2.4,5.14-4.84,6-8.35a7.24,7.24,0,0,0-.32-4.75A9,9,0,0,0,87.53,290c-1.36-1-2.76-2-3.16-3.79a9.51,9.51,0,0,1,.86-5.52c1.25-3.17,3.36-7,1.35-10.34-1.5-2.47-4.59-2.95-7.06-4a6.3,6.3,0,0,1-3.42-2.81,9,9,0,0,1-.67-5.18c.24-1.93.81-3.8,1.07-5.74a12.52,12.52,0,0,0-.34-5.2,11.82,11.82,0,0,0-6.25-7.35,9.87,9.87,0,0,0-1.84-.67h0a5.6,5.6,0,0,0-4.33.54h0a10.38,10.38,0,0,0-1.6,1.11,11.81,11.81,0,0,0-4.25,8.66,12.38,12.38,0,0,0,1,5.13c.72,1.81,1.73,3.48,2.44,5.3a8.92,8.92,0,0,1,.63,5.17,6.26,6.26,0,0,1-2.63,3.57c-2.14,1.6-5,2.83-5.86,5.59-1.13,3.72,1.87,6.93,3.86,9.69a9.6,9.6,0,0,1,2.19,5.14c0,1.78-1.06,3.15-2.14,4.45a9.15,9.15,0,0,0-2.24,4A7.32,7.32,0,0,0,55.92,302.49Z"/><path class="cls-1" d="M63.31,295.23c-.41-.43.32-1,.73-.56L74,304.79q-1.06-8.88-2.12-17.75l-.45-3.81-9.16-10.56c-.39-.45.34-1,.73-.56l8.24,9.5Q70,271.31,68.78,261L67,246.42a.46.46,0,0,1,.92-.12l3.09,26,1.16,9.77,4.65-11.93c.22-.55,1.06-.19.85.36l-5.22,13.4a.18.18,0,0,1,0,.07l1.71,14.34c.25,2.17.51,4.33.77,6.5l5.86-12.93c.25-.54,1.1-.18.85.36l-6.27,13.82a.41.41,0,0,1-.26.24l.78,6.62a.46.46,0,0,1-.91.11l-.81-6.78,0,0Q68.73,300.73,63.31,295.23Z"/><path class="cls-3" d="M1.35,296.49a31.45,31.45,0,0,0,3.73,3.08,45.46,45.46,0,0,0,4.11,2.77,52.49,52.49,0,0,0,8.56,4.17q1.86,1.51,3.81,2.89a17,17,0,0,0-9.81,3.17,7.26,7.26,0,0,0-2.48,2.57,2.78,2.78,0,0,0,.3,3,2.7,2.7,0,0,0,2.58.68,11.72,11.72,0,0,0,3.19-1.33,32,32,0,0,0,3.26-2,32.1,32.1,0,0,0,5.16-4.58A67.86,67.86,0,0,0,33.18,316a18.85,18.85,0,0,0-5.69,2.14,17.76,17.76,0,0,0-3,2.2,6.05,6.05,0,0,0-2,2.73,2.37,2.37,0,0,0,.92,2.68,3.56,3.56,0,0,0,3.12.2A17.17,17.17,0,0,0,32.46,322a20.91,20.91,0,0,0,3.74-4.79,67.39,67.39,0,0,0,11,3.25h.09a18,18,0,0,0-5.19,2.77,19.17,19.17,0,0,0-2.51,2.34,8.81,8.81,0,0,0-1.91,2.91,2.81,2.81,0,0,0,.46,2.79,2.4,2.4,0,0,0,2.59.49,8.55,8.55,0,0,0,2.84-2,30.35,30.35,0,0,0,2.47-2.6A29,29,0,0,0,50,321a.16.16,0,0,1,0-.07,70,70,0,0,0,12.19.82,15.91,15.91,0,0,0-4.58,3.62,15.33,15.33,0,0,0-3.36,6.31c-.32,1.19-.41,2.64.7,3.46s2.4-.07,3.29-.85a21.16,21.16,0,0,0,6.77-12.65A66.89,66.89,0,0,0,75,320.34c.57-.13.46-1-.12-.91a66.92,66.92,0,0,1-9.45,1.31,24.72,24.72,0,0,0-3.89-8.62,23.67,23.67,0,0,0-6.06-6c-1-.65-2.41-1.33-3.54-.64a2.24,2.24,0,0,0-.59,3A16.6,16.6,0,0,0,53.9,312c1,1.21,2.06,2.37,3.16,3.49a58.4,58.4,0,0,0,6.11,5.34c-1.25,0-2.53.05-3.79,0A68.43,68.43,0,0,1,50,320a27.39,27.39,0,0,0-2.78-8.35A27.88,27.88,0,0,0,45,308.12a10,10,0,0,0-2.78-2.83,2.7,2.7,0,0,0-3.05,0,3,3,0,0,0-1,2.92,9.05,9.05,0,0,0,2,3.59c.84,1.12,1.74,2.21,2.68,3.24a45.62,45.62,0,0,0,4.84,4.59,66.83,66.83,0,0,1-11-3.18.39.39,0,0,0-.26-.51A33.58,33.58,0,0,0,34.6,307a34.24,34.24,0,0,0-1.67-3.89A8.68,8.68,0,0,0,30.8,300a2.56,2.56,0,0,0-3-.23,2.57,2.57,0,0,0-.81,2.58,13.11,13.11,0,0,0,1.33,3.31c.6,1.22,1.24,2.43,1.93,3.62a56.18,56.18,0,0,0,4.15,6.23l-.8-.32a69.51,69.51,0,0,1-9.26-5,.44.44,0,0,0-.31-.61,30,30,0,0,0-.21-7.75,31.25,31.25,0,0,0-.81-3.6,12.85,12.85,0,0,0-1.28-3.28,2.63,2.63,0,0,0-2.36-1.33,2.06,2.06,0,0,0-1.72,1.75,6.53,6.53,0,0,0,.81,3.43c.48,1.24,1,2.49,1.45,3.74.83,2.12,1.66,4.23,2.48,6.35-1.29-.89-2.54-1.85-3.77-2.83a.42.42,0,0,0-.26-.28l-.2-.08c-.56-.46-1.12-.93-1.68-1.42A31.92,31.92,0,0,0,11,296.64a32.07,32.07,0,0,0-3.51-3.09,10.5,10.5,0,0,0-4.06-2.28,2.87,2.87,0,0,0-3.19,1.37C-.41,294,.37,295.5,1.35,296.49Z"/><path class="cls-1" d="M125.19,313.86c9.45-54.81,64.1-52.78,64.1-52.78S180.8,315.1,125.19,313.86Z"/><path class="cls-2" d="M166.58,292.83a.46.46,0,0,0-.15-.91l-15.87,2.2q7.81-6.51,15.62-13l12.51-.86c.59-.05.44-1-.15-.91l-11.15.77,4.66-3.89,12.36-10.3c.45-.38-.13-1.1-.59-.71l-17.45,14.55,4.7-12.27a.46.46,0,0,0-.86-.32l-5.09,13.28a.4.4,0,0,0,0,.34l-3.2,2.67-12.07,10.07,5-16.93c.16-.57-.7-.89-.87-.32l-5.32,18.1a.52.52,0,0,0,0,.17l-8.41,7-5.75,4.79,4.05-14.92c.16-.56-.71-.89-.86-.32q-2.1,7.75-4.21,15.51a.47.47,0,0,0,0,.29.51.51,0,0,0,0,.3l-5.58,4.65c-.45.38.13,1.1.59.72l6.11-5.1,15.82-2.54a.46.46,0,0,0-.15-.91L136,306.31l13.29-11.08h0Z"/><path class="cls-2" d="M147,297.68c-2,3-5.32,4.38-8.53,5.77s-11,5-12.16,8.54c-.27.83-1,.65-.93-.21a4.53,4.53,0,0,0-.17-1.86,8.83,8.83,0,0,0-.67-1.77.2.2,0,0,0,0-.08c-1.66-3.51-5.21-7.55-6.84-9.46-2.26-2.65-4.61-5.34-5.1-8.93a7.26,7.26,0,0,1,.8-4.69,9.11,9.11,0,0,1,3.49-3c1.46-.85,3-1.75,3.54-3.44a9.58,9.58,0,0,0-.28-5.58c-.92-3.28-2.63-7.32-.28-10.42,1.75-2.3,4.88-2.46,7.44-3.22a6.29,6.29,0,0,0,3.69-2.44,9,9,0,0,0,1.2-5.08c0-1.94-.4-3.87-.47-5.82a12.56,12.56,0,0,1,.88-5.14,11.82,11.82,0,0,1,7-6.66,10.37,10.37,0,0,1,1.9-.48h0a5.64,5.64,0,0,1,4.25,1l0,0h0a11.08,11.08,0,0,1,1.48,1.26,11.84,11.84,0,0,1,3.33,9.06,12.39,12.39,0,0,1-1.49,5c-.91,1.73-2.09,3.29-3,5a9,9,0,0,0-1.16,5.08,6.23,6.23,0,0,0,2.24,3.82c2,1.81,4.7,3.34,5.25,6.17.75,3.82-2.57,6.7-4.84,9.23a9.64,9.64,0,0,0-2.71,4.89c-.22,1.77.72,3.24,1.66,4.65a9.06,9.06,0,0,1,1.81,4.21A7.27,7.27,0,0,1,147,297.68Z"/><path class="cls-1" d="M140.36,289.69c.45-.37-.22-1-.67-.63l-10.94,9q2-8.72,3.94-17.44l.84-3.74,10.21-9.55c.44-.41-.24-1-.67-.63q-4.59,4.29-9.17,8.59,2.28-10.11,4.57-20.23l3.24-14.34a.46.46,0,0,0-.9-.21q-2.88,12.78-5.77,25.55l-2.17,9.6-3.39-12.34c-.16-.58-1-.3-.88.27q1.91,6.93,3.8,13.87l0,.08-3.18,14.08L127.82,298q-2.25-6.74-4.49-13.47c-.19-.56-1.07-.29-.88.27l4.8,14.4a.41.41,0,0,0,.24.27L126,306a.46.46,0,0,0,.9.21l1.5-6.66,0,0Z"/><path class="cls-3" d="M201.85,297.38a31.26,31.26,0,0,1-4,2.67,46.91,46.91,0,0,1-4.37,2.34,53.46,53.46,0,0,1-8.95,3.25c-1.33.87-2.7,1.7-4.09,2.48a17.32,17.32,0,0,1,6.36,2,18.21,18.21,0,0,1,3.08,2.17A7.33,7.33,0,0,1,192,315.1a2.75,2.75,0,0,1-.61,2.93,2.65,2.65,0,0,1-2.63.41,11.66,11.66,0,0,1-3-1.65,32.5,32.5,0,0,1-3-2.33,31.1,31.1,0,0,1-4.65-5.08,68.33,68.33,0,0,1-9.91,4.07,18.85,18.85,0,0,1,5.44,2.71,18.14,18.14,0,0,1,2.81,2.51,6.17,6.17,0,0,1,1.66,2.92,2.38,2.38,0,0,1-1.2,2.57,3.56,3.56,0,0,1-3.12-.12,17.46,17.46,0,0,1-5.5-4.5,21.38,21.38,0,0,1-3.22-5.16,66.7,66.7,0,0,1-11.3,2.08h-.1a17.91,17.91,0,0,1,4.88,3.29,19.17,19.17,0,0,1,2.25,2.59,8.77,8.77,0,0,1,1.6,3.09,2.8,2.8,0,0,1-.75,2.73,2.36,2.36,0,0,1-2.62.21,8.31,8.31,0,0,1-2.62-2.29,31.42,31.42,0,0,1-2.19-2.83,29.2,29.2,0,0,1-3.29-6.53s0-.05,0-.07a69.23,69.23,0,0,1-12.21-.45,16.05,16.05,0,0,1,4.18,4.08,15.35,15.35,0,0,1,2.69,6.63c.19,1.21.13,2.67-1.06,3.36s-2.38-.31-3.18-1.19a21.16,21.16,0,0,1-5.43-13.28,69.51,69.51,0,0,1-9.67-2.34c-.56-.19-.35-1.09.21-.9a67.1,67.1,0,0,0,9.27,2.29,24.71,24.71,0,0,1,4.76-8.18,23.82,23.82,0,0,1,6.64-5.34c1-.54,2.54-1.06,3.59-.26a2.23,2.23,0,0,1,.28,3,16.23,16.23,0,0,1-3,3.3c-1.13,1.1-2.3,2.14-3.51,3.15a58.63,58.63,0,0,1-6.63,4.67c1.24.18,2.51.32,3.77.42a67.2,67.2,0,0,0,9.41.11,28,28,0,0,1,3.63-8,27.62,27.62,0,0,1,2.61-3.3,9.9,9.9,0,0,1,3.05-2.53,2.72,2.72,0,0,1,3,.27,3.06,3.06,0,0,1,.68,3,8.9,8.9,0,0,1-2.33,3.36c-.95,1-2,2-3,2.95a46.37,46.37,0,0,1-5.29,4.06,67.41,67.41,0,0,0,11.27-2A.4.4,0,0,1,165,313a32.79,32.79,0,0,1,4.77-12.37,8.5,8.5,0,0,1,2.44-2.85,2.28,2.28,0,0,1,3.51,2.72,12.9,12.9,0,0,1-1.66,3.16c-.72,1.15-1.49,2.29-2.29,3.4a59.84,59.84,0,0,1-4.78,5.76l.82-.23a68.91,68.91,0,0,0,9.73-4,.44.44,0,0,1,.38-.57,29.93,29.93,0,0,1,1-7.7,29.38,29.38,0,0,1,1.18-3.5,12.61,12.61,0,0,1,1.6-3.12,2.6,2.6,0,0,1,2.49-1.08,2.05,2.05,0,0,1,1.53,1.92,6.46,6.46,0,0,1-1.16,3.32c-.61,1.19-1.23,2.38-1.84,3.58-1,2-2.08,4-3.12,6.05,1.38-.75,2.73-1.57,4-2.42a.4.4,0,0,1,.28-.25l.21-.06c.61-.39,1.22-.81,1.82-1.24a32,32,0,0,1,6.27-7,33.74,33.74,0,0,1,3.81-2.71,10.6,10.6,0,0,1,4.28-1.84,2.88,2.88,0,0,1,3,1.69C203.87,295.1,202.93,296.49,201.85,297.38Z"/><path class="cls-4" d="M202.87,2.09v152A21.16,21.16,0,0,0,188,163.53c-3.29,5.37-4,11.86-5.44,18s-4.29,12.54-10,15.29c-7.43,3.61-16.6-.53-24.45,2-5.61,1.84-9.61,6.83-12.48,12s-5,10.81-8.55,15.51a29.89,29.89,0,0,1-49.91-3.64c-2.39-4.3-3.68-9.11-5.77-13.57s-5.27-8.75-9.89-10.42c-6.9-2.5-15.57,1.28-21.44-3.12s-4.5-13.44-6.63-20.48c-2.61-8.61-12-14.41-20.8-13.58V2.09Z"/><path class="cls-3" d="M103,251.3c8-.3,8-17,8-17l3.43-.37c3.85,22.19,13.53,26.23,13.53,26.23l-5.19,26.68s12.69,15.66,13.34,21.5c0,0-12.36,5.19-32.93,5.19s-33.36-5.19-33.36-5.19c.65-5.84,13.34-21.5,13.34-21.5L78,260.21s9.68-4,13.53-26.23l3.43.37S95,251,103,251.3Z"/><path class="cls-5" d="M100.34,336.55V325.07l-2.69.56s-15.2-10.1-21.5-10.57c-4.26-.31-8.09,6-9.05,10-.46,1.94-.25,3.34.89,3.25C70.34,328.11,83.29,332.77,100.34,336.55Zm51.43,1.79A60.53,60.53,0,0,1,128,340.82c-4.59-.35-9.13-.9-13.53-1.59v6.66c-49.92,7.11-82.1-2.57-75.75-20.26,7.18-20,31.14-17.24,31.14-17.24s12.78,5.19,33.36,5.19,32.93-5.19,32.93-5.19,31.56-1.57,34,9.08C171.74,324.7,165.24,333.88,151.77,338.34Z"/><path class="cls-6" d="M151.77,338.34c0,1.67.06,4.93,0,6.75-.09,2.5-33.17.18-33.17.18-1.39.22-2.77.43-4.13.62v-6.66c4.4.69,8.94,1.24,13.53,1.59A60.53,60.53,0,0,0,151.77,338.34Z"/><path class="cls-6" d="M67.1,325.05c1-4,4.79-10.3,9.05-10,6.3.47,21.5,10.57,21.5,10.57l2.69-.56v11.48c-17-3.78-30-8.44-32.35-8.25C66.85,328.39,66.64,327,67.1,325.05Z"/><path class="cls-6" d="M147.82,195.85c1.39,7.71-15.85,53.79-15.85,53.79l-4,10.57s-9.68-4-13.53-26.23l19.27-35.63-29-31.55c-1.14-.83-1.52-2.53-1.52-4.43a31.81,31.81,0,0,1,1.52-8.36V136.5C109.87,136.78,111,161,111,161S146.43,188.14,147.82,195.85Z"/><path class="cls-6" d="M116.67,205.56a3.63,3.63,0,0,1,3,3.58,4.52,4.52,0,0,1-2.41,4.49,17,17,0,0,1-7,12.66l.76,8.06s0,16.65-8,17c-8-.28-8-17-8-17l.76-8.06a17,17,0,0,1-7-12.66,4.52,4.52,0,0,1-2.41-4.49,3.56,3.56,0,0,1,2.12-3.28h0a23.88,23.88,0,0,0,19.68-13A34.4,34.4,0,0,1,116.67,205.56Z"/><path class="cls-6" d="M101.26,154a31.81,31.81,0,0,1,1.52,8.36c0,1.9-.38,3.6-1.52,4.43l-29,31.55L91.53,234C87.68,256.17,78,260.21,78,260.21l-4-10.57s-17.24-46.08-15.85-53.79S95,161,95,161s1.11-24.18,6.25-24.46Z"/><path class="cls-7" d="M210,0V133.8a19.83,19.83,0,0,0-4.54-.73,21.53,21.53,0,0,0-7.79,1.24c-5.45,1.88-10.23,5.39-14.82,8.78-4.75,3.51-9.43,7.2-14.7,9.9a29.46,29.46,0,0,1-13.35,3.51,22.63,22.63,0,0,1-3.74-.3c-7.31-1.2-13.69-5.95-18.38-11.49-10.44-12.34-13.49-29.62-25.74-40.6a26.9,26.9,0,0,0-19.76-6.87c-7.25.32-14.27,2.48-21.35,3.89-6.79,1.34-14,2.14-20.69-.19s-11.58-7.22-15-13.14c-7.9-13.53-7-29.65-12.2-44.06a24.34,24.34,0,0,0-3-3.44c-3.74-3.54-8.5-5-13.42-5.94V0Z"/><path class="cls-7" d="M133.5,313.35,108.57,322l-7.06,2.44c-.6.21-.34,1.17.27,1l24.93-8.62,7.06-2.44C134.37,314.1,134.11,313.14,133.5,313.35Z"/><path class="cls-7" d="M167.49,324.06a.5.5,0,0,0-.71,0,18.41,18.41,0,0,1-5.58,4.81c-.56.31-.06,1.18.51.86a19.26,19.26,0,0,0,5.78-5A.53.53,0,0,0,167.49,324.06Z"/><path class="cls-7" d="M163.94,325a.51.51,0,0,0-.69-.18l-3.61,2.51a.5.5,0,1,0,.51.86l3.61-2.51A.51.51,0,0,0,163.94,325Z"/><path class="cls-7" d="M112.91,339.45l-10.26-2.87a.5.5,0,0,0-.27,1l10.26,2.87A.5.5,0,0,0,112.91,339.45Z"/><path class="cls-7" d="M98.41,266.71a10.65,10.65,0,0,1-13.62.34c-.5-.39-1.21.31-.71.71a11.67,11.67,0,0,0,15-.34C99.6,267,98.89,266.29,98.41,266.71Z"/><path class="cls-7" d="M121.17,266.18a10.65,10.65,0,0,1-13.62.35c-.5-.4-1.21.3-.71.7a11.69,11.69,0,0,0,15-.34C122.36,266.46,121.65,265.76,121.17,266.18Z"/><path class="cls-7" d="M64.94,325.7,58,323.13c-.61-.23-.87.74-.27,1l6.93,2.58C65.28,326.89,65.54,325.92,64.94,325.7Z"/><path class="cls-7" d="M104.69,217l-2.54,0,.1-9.56a.5.5,0,0,0-1,0c0,3.33-.07,6.67-.1,10a.47.47,0,0,0,.15.37.48.48,0,0,0,.38.18l3,.05a.5.5,0,0,0,.5-.5A.51.51,0,0,0,104.69,217Z"/><path class="cls-7" d="M107.28,220.21a6.55,6.55,0,0,1-8.94.29c-.48-.43-1.19.28-.71.7a7.56,7.56,0,0,0,10.35-.28A.5.5,0,0,0,107.28,220.21Z"/><path class="cls-7" d="M98.17,207.54a5.33,5.33,0,0,1-5.87-.06c-.54-.37-1,.5-.51.86a6.31,6.31,0,0,0,6.88.06C99.21,208.05,98.71,207.18,98.17,207.54Z"/><path class="cls-7" d="M113.57,207.05a5.31,5.31,0,0,1-5.87-.06c-.53-.36-1,.5-.5.86a6.27,6.27,0,0,0,6.88.06C114.61,207.56,114.11,206.69,113.57,207.05Z"/><circle class="cls-8" cx="93.85" cy="217.67" r="3.43"/><circle class="cls-8" cx="111.66" cy="216.64" r="3.43"/></svg>