<svg id="OBJECTS" xmlns="http://www.w3.org/2000/svg" viewBox="0 0 219.72 185.03"><defs><style>.cls-1{fill:#34343f;}.cls-2{fill:#ead4c3;}.cls-3{fill:#fff;}.cls-4{fill:#292935;}.cls-5{fill:#dda292;}</style></defs><path class="cls-1" d="M70.05,40.79c4.77-3.15,7.28-7.89,8.92-13.24,3-9.61,4-21.82,14.72-26.07S116.45,2.67,125,9.94c10.83,9.21,18.72,22.2,31.68,28.82,6.26,3.2,13.09,3.64,19.69,5.6,5.46,1.61,11.19,4.81,13.58,10.2,3.77,8.56-2.21,16.89-3.73,24.88a17.05,17.05,0,0,0-.07,6.68A23.64,23.64,0,0,0,189,93c2.38,4.19,5.36,8.39,5.61,13.2.31,6-4,10.47-8.51,13.63-5.11,3.58-11.79,6.2-14.6,12.09-4,8.46,1.43,18.81-2.12,27.43-4.24,10.25-17.46,9.4-27.18,7.71-5.36-.93-10.94-2-16.26-1.14-5,.82-8.49,3.79-11.63,7.29a42,42,0,0,1-4.19,4.79,18,18,0,0,1-7.92,5.48c-5,1.48-10.19-.36-14.49-3.47-.5-.35-1-.72-1.45-1.1-.67-.48-1.31-1-1.93-1.51-5.24-4.44-9.1-10.25-14.56-14.45-10.26-7.9-23.87-9.21-33.92-17.49-3.9-3.21-7.26-7.29-8.6-12.08a16.39,16.39,0,0,1,2.14-13.09c2.56-4.14,6.34-7.39,9.84-10.74s7-6.77,8.61-11.29c3.18-8.72-3.08-17.53-6-25.86-1.45-4.14-2.24-8.51-.95-12.6,1.78-5.65,7-9.24,12.22-11.65C58.69,45.56,64.93,44.18,70.05,40.79Z"/><path class="cls-1" d="M37.24,46.62a1.05,1.05,0,0,0,0,2.1A1.05,1.05,0,0,0,37.24,46.62Z"/><path class="cls-1" d="M50.08,43.41a1.05,1.05,0,0,0,0,2.1A1.05,1.05,0,0,0,50.08,43.41Z"/><path class="cls-1" d="M40.16,36.4a1.05,1.05,0,0,0,0,2.1A1.05,1.05,0,0,0,40.16,36.4Z"/><path class="cls-1" d="M39.28,90.69a1.05,1.05,0,0,0,0,2.1A1.05,1.05,0,0,0,39.28,90.69Z"/><path class="cls-1" d="M37.82,101.79a1.05,1.05,0,0,0,0,2.1A1.05,1.05,0,0,0,37.82,101.79Z"/><path class="cls-1" d="M30.82,52.78a1.05,1.05,0,0,0,0,2.1A1.05,1.05,0,0,0,30.82,52.78Z"/><path class="cls-1" d="M172.39,33.78a1.05,1.05,0,0,0,0,2.1A1.05,1.05,0,0,0,172.39,33.78Z"/><path class="cls-1" d="M185.81,39.32a1.05,1.05,0,0,0,0,2.1A1.05,1.05,0,0,0,185.81,39.32Z"/><path class="cls-1" d="M183.48,30a1.05,1.05,0,0,0,0,2.1A1.05,1.05,0,0,0,183.48,30Z"/><path class="cls-1" d="M183.19,126.89a1.05,1.05,0,0,0,0,2.1A1.05,1.05,0,0,0,183.19,126.89Z"/><path class="cls-1" d="M34,80.3c-2.7,0-2.71,4.2,0,4.2S36.74,80.3,34,80.3Z"/><path class="cls-1" d="M52.71,35.64c-2.7,0-2.71,4.2,0,4.2S55.42,35.64,52.71,35.64Z"/><path class="cls-1" d="M163.34,25.43c-2.7,0-2.71,4.2,0,4.2S166,25.43,163.34,25.43Z"/><path class="cls-1" d="M190.78,80c-2.71,0-2.71,4.2,0,4.2S193.48,80,190.78,80Z"/><path class="cls-1" d="M153.71,173.42c-2.71,0-2.71,4.2,0,4.2S156.41,173.42,153.71,173.42Z"/><path class="cls-1" d="M137.65,172.54c-2.7,0-2.71,4.2,0,4.2S140.36,172.54,137.65,172.54Z"/><path class="cls-1" d="M63.22,171.37c-2.7,0-2.71,4.2,0,4.2S65.93,171.37,63.22,171.37Z"/><path class="cls-1" d="M66.72,31.56c-2.7,0-2.71,4.2,0,4.2S69.43,31.56,66.72,31.56Z"/><path class="cls-1" d="M69.35,166.29a1.05,1.05,0,0,0,0,2.1A1.05,1.05,0,0,0,69.35,166.29Z"/><path class="cls-1" d="M72.56,174.76a1.05,1.05,0,0,0,0,2.1A1.05,1.05,0,0,0,72.56,174.76Z"/><path class="cls-1" d="M126.85,177.39a1.05,1.05,0,0,0,0,2.1A1.05,1.05,0,0,0,126.85,177.39Z"/><path class="cls-1" d="M142.91,182.93a1.05,1.05,0,0,0,0,2.1A1.05,1.05,0,0,0,142.91,182.93Z"/><path class="cls-1" d="M145.24,171.84a1.05,1.05,0,0,0,0,2.1A1.05,1.05,0,0,0,145.24,171.84Z"/><path class="cls-2" d="M47.46,61.7a1.05,1.05,0,0,0,0,2.1A1.05,1.05,0,0,0,47.46,61.7Z"/><path class="cls-2" d="M50.57,53.33a1.05,1.05,0,0,0,0,2.1A1.05,1.05,0,0,0,50.57,53.33Z"/><path class="cls-2" d="M52.71,61.5a1.05,1.05,0,0,0,0,2.1A1.05,1.05,0,0,0,52.71,61.5Z"/><path class="cls-2" d="M180.17,56.64a1.05,1.05,0,0,0,0,2.1A1.05,1.05,0,0,0,180.17,56.64Z"/><path class="cls-2" d="M181,66.56a1.05,1.05,0,0,0,0,2.1A1.05,1.05,0,0,0,181,66.56Z"/><path class="cls-2" d="M177.06,60.92a1.05,1.05,0,0,0,0,2.1A1.05,1.05,0,0,0,177.06,60.92Z"/><path class="cls-2" d="M115.13,15.11a1.05,1.05,0,0,0,0,2.1A1.05,1.05,0,0,0,115.13,15.11Z"/><path class="cls-2" d="M105,4.21a1.05,1.05,0,0,0,0,2.1A1.05,1.05,0,0,0,105,4.21Z"/><path class="cls-2" d="M100.34,8.49a1.05,1.05,0,0,0,0,2.1A1.05,1.05,0,0,0,100.34,8.49Z"/><path class="cls-2" d="M108.32,14.33a1.05,1.05,0,0,0,0,2.1A1.05,1.05,0,0,0,108.32,14.33Z"/><path class="cls-2" d="M95.62,175.49a1.05,1.05,0,0,0,0,2.1A1.05,1.05,0,0,0,95.62,175.49Z"/><path class="cls-2" d="M103.94,171.69a1.05,1.05,0,0,0,0,2.1A1.05,1.05,0,0,0,103.94,171.69Z"/><path class="cls-2" d="M97.22,166a1.05,1.05,0,0,0,0,2.1A1.05,1.05,0,0,0,97.22,166Z"/><path class="cls-2" d="M61.81,62.79c-.25-1.48-.59-2.93-.7-4.41-.23-2.78-.22-5.58-.5-8.36-.17-1.64-.72-3.23-1-4.85a1.42,1.42,0,0,1,.14-1.07,1.14,1.14,0,0,1,1-.1,15.29,15.29,0,0,0,5.83,1.06,17.73,17.73,0,0,1,3.09.14c2.73.28,5.5.22,8.17,1,.17,0,.34.07.56.12a1.34,1.34,0,0,0,.07-.36c-.26-2.77.73-5.19,2-7.55.89-1.63,1.83-3.24,2.59-4.94a25.65,25.65,0,0,0,.86-3.18,1.64,1.64,0,0,1,.63-.91,1,1,0,0,1,.94.16,12.36,12.36,0,0,0,5.16,2.37,47.19,47.19,0,0,1,6.46,2.29,24.47,24.47,0,0,1,3.8,2.69,12.06,12.06,0,0,1,.69-1c1.69-2.09,3.35-4.21,5.1-6.26s4-4.06,5-6.82a.82.82,0,0,1,1.48,0,20.22,20.22,0,0,0,3.77,5.42c2.52,2.76,5.2,5.43,7,8.75a.44.44,0,0,0,.11.09,25.54,25.54,0,0,1,2.32-2,12.67,12.67,0,0,1,2.67-1.36c2.11-.75,4.24-1.43,6.39-2.07a10.45,10.45,0,0,0,3.87-2,1.25,1.25,0,0,1,1.07-.21,1.18,1.18,0,0,1,.57.85,12.78,12.78,0,0,0,2,5.26c1.36,2.57,3,5.05,3.42,8,.13.89.12,1.8.17,2.79.41-.08.84-.21,1.27-.26,2.7-.29,5.4-.61,8.1-.85s5.2,0,7.68-1c.52-.2,1.07-.73,1.66-.12s0,1.09-.13,1.6a22,22,0,0,0-.89,5.94c-.2,3.71-.17,7.47-1.26,11.14a1.9,1.9,0,0,0,.39.07,13,13,0,0,1,7.55,2c1.64.9,3.25,1.83,4.94,2.59a25.83,25.83,0,0,0,3.19.87,1.65,1.65,0,0,1,.91.62,1.06,1.06,0,0,1-.16,1,12.13,12.13,0,0,0-2.37,5.16,48.77,48.77,0,0,1-2.33,6.53,24.13,24.13,0,0,1-2.66,3.72,11.46,11.46,0,0,1,1,.65c2.11,1.71,4.26,3.38,6.32,5.14s4.06,4,6.83,5a.83.83,0,0,1,0,1.49,20.23,20.23,0,0,0-5.43,3.76c-2.75,2.53-5.43,5.2-8.75,7.05,0,0-.06.07-.09.1a25.31,25.31,0,0,1,2,2.32,11.86,11.86,0,0,1,1.36,2.68c.76,2.11,1.44,4.24,2.07,6.39a10.55,10.55,0,0,0,2,3.87,1.26,1.26,0,0,1,.2,1.06,1.09,1.09,0,0,1-.85.57c-2,.11-3.57,1.08-5.25,2-2.59,1.37-5.1,3-8.09,3.42-.86.13-1.75.11-2.72.16.06.32.12.65.2,1a47.3,47.3,0,0,1,.93,8.55c.18,2.53,0,5.1,1,7.53.2.51.73,1.07.11,1.66s-1.09,0-1.6-.14a22.29,22.29,0,0,0-5.86-.89c-3.74-.19-7.52-.17-11.21-1.25a1.41,1.41,0,0,0-.08.39,12.9,12.9,0,0,1-2,7.48c-.9,1.66-1.86,3.29-2.63,5a27.53,27.53,0,0,0-.86,3.18,1.53,1.53,0,0,1-.63.91,1.12,1.12,0,0,1-1-.21,12.27,12.27,0,0,0-5-2.29,50.73,50.73,0,0,1-6.61-2.32,23.81,23.81,0,0,1-3.8-2.69,9.83,9.83,0,0,1-.56.85c-1.63,2.06-3.19,4.16-4.91,6.13-2,2.28-4.27,4.29-5.37,7.22a.94.94,0,0,1-.78.41,1.12,1.12,0,0,1-.72-.52c-.55-.92-1-2-1.59-2.82-1-1.28-2-2.47-3.13-3.66a44.43,44.43,0,0,1-6-7.49,1.81,1.81,0,0,0-.27-.31c-1.85,2.38-4.44,3.42-7.19,4.24-2.16.64-4.3,1.4-6.41,2.19a6.91,6.91,0,0,0-1.61,1.11c-.71.54-1.56.24-1.6-.64-.1-2.08-1.16-3.74-2.08-5.52-1.31-2.53-2.93-5-3.31-7.89-.11-.87-.11-1.75-.16-2.72-.29.05-.6.1-.9.18a47.18,47.18,0,0,1-8.62.94c-2.51.18-5,0-7.46,1-.53.2-1.11.78-1.73.14s0-1.15.15-1.67a22.24,22.24,0,0,0,.87-5.8c.2-3.73.17-7.51,1.26-11.21a1.8,1.8,0,0,0-.39-.07,13.05,13.05,0,0,1-7.55-2c-1.63-.9-3.25-1.83-4.94-2.59a25.36,25.36,0,0,0-3.19-.87,1.52,1.52,0,0,1-.9-.62,1.12,1.12,0,0,1,.2-1,12.18,12.18,0,0,0,2.29-5,50.78,50.78,0,0,1,2.33-6.61,24.87,24.87,0,0,1,2.68-3.8,9.21,9.21,0,0,1-1-.64c-2.12-1.7-4.27-3.38-6.33-5.14s-4.06-4-6.83-5a.83.83,0,0,1,0-1.49,20.14,20.14,0,0,0,5.37-3.71c2.74-2.51,5.39-5.17,8.68-7a2.84,2.84,0,0,0,.31-.26c-2.38-1.86-3.46-4.43-4.23-7.2-.47-1.67-.93-3.35-1.56-5a28.7,28.7,0,0,0-1.69-3,1.5,1.5,0,0,1-.24-1,1.13,1.13,0,0,1,.81-.63c2.08-.11,3.75-1.17,5.52-2.09,2.54-1.31,5-2.93,7.9-3.32C60,62.83,60.9,62.84,61.81,62.79Zm52.4,82.62v0a6.26,6.26,0,0,0,.75,0c1.54-.25,3.09-.46,4.61-.77s3-.68,4.5-1a39.85,39.85,0,0,0,3.88-.94c1.45-.49,2.83-1.17,4.25-1.76a16.06,16.06,0,0,0,2.29-1c2.58-1.57,5.15-3.18,7.67-4.84a31,31,0,0,0,3.2-2.51,24.39,24.39,0,0,0,2.29-2.37,45.87,45.87,0,0,0,3.15-3.84c1.25-1.8,2.33-3.71,3.5-5.57a18.5,18.5,0,0,0,1.4-2.23c1-2.14,1.82-4.32,2.71-6.48a3,3,0,0,0,.17-.58c.4-1.82.79-3.64,1.2-5.46.27-1.23.6-2.45.81-3.69A25.89,25.89,0,0,0,161,95.6c-.18-1.8-.29-3.61-.6-5.38-.33-1.94-.83-3.84-1.32-5.74A33.77,33.77,0,0,0,157.68,80c-1.08-2.62-1.93-5.36-3.72-7.65a16.27,16.27,0,0,1-1.15-1.77A37,37,0,0,0,146,61.81a35.4,35.4,0,0,0-5.38-4.1c-1.23-.75-2.43-1.54-3.65-2.3a31.36,31.36,0,0,0-3-1.87c-1.5-.71-3.07-1.27-4.61-1.9a14.89,14.89,0,0,0-2.17-.87c-2.76-.66-5.53-1.33-8.33-1.85a43.47,43.47,0,0,0-5.24-.54,25.49,25.49,0,0,0-4.19,0c-1.57.16-3.12.52-4.68.83-1.4.29-2.8.63-4.2.94a31.62,31.62,0,0,0-3.52.83c-1.82.66-3.58,1.48-5.37,2.24a11.14,11.14,0,0,0-1.57.72c-1.5.92-3,1.89-4.46,2.84-1.17.75-2.39,1.42-3.49,2.25S79.81,61,78.68,62a26.42,26.42,0,0,0-2.77,2.83c-1,1.19-1.78,2.5-2.62,3.78S71.75,71.06,71,72.27a29.39,29.39,0,0,0-1.86,3c-.75,1.57-1.34,3.21-2,4.82a13,13,0,0,0-.81,2c-.66,2.74-1.32,5.49-1.84,8.26a43.53,43.53,0,0,0-.55,5.23,27.66,27.66,0,0,0,0,4.27,47.35,47.35,0,0,0,.84,4.68c.28,1.4.62,2.8.94,4.2a30.84,30.84,0,0,0,.8,3.45c.59,1.66,1.34,3.26,2,4.88a15.26,15.26,0,0,0,.93,2.06c1.35,2.21,2.73,4.41,4.17,6.57a50.87,50.87,0,0,0,3.07,4.1,20.52,20.52,0,0,0,2.36,2.3,46.13,46.13,0,0,0,3.85,3.13c1.78,1.23,3.65,2.34,5.51,3.45a22.79,22.79,0,0,0,3.7,2c2.33.86,4.48,2.17,7,2.59,4.15.69,8.15,2.3,12.46,2.13C112.46,145.38,113.33,145.41,114.21,145.41ZM137.68,36.15c-1.11.37-2.14.76-3.21,1s-2.21.48-3.32.7a11.49,11.49,0,0,0-4.52,2c-.4.29-.91.8-.89,1.19a34.39,34.39,0,0,0,.54,3.76,4.65,4.65,0,0,1,4.15-.79c1.58.49,2.14,1.84,2.51,3.35,1.32-.83,2.66-1.35,4.1-.61a4.74,4.74,0,0,1,2.43,3.51c.88-.66,1.67-1.33,2.54-1.86a1.33,1.33,0,0,0,.73-1.63,22.9,22.9,0,0,0-1.41-4.11C140.17,40.47,138.38,38.6,137.68,36.15ZM162,76.4c1.51.35,2.82.94,3.31,2.49a4.82,4.82,0,0,1-.78,4.17,26.11,26.11,0,0,1,3,.45,1.48,1.48,0,0,0,1.91-.76,25.46,25.46,0,0,0,1.86-4.09c.7-2.27.78-4.72,2-6.86,0,0,0-.09-.05-.18-2.16-.55-3.85-2-5.69-3.15a12.54,12.54,0,0,0-4.88-1.9,1.49,1.49,0,0,0-1.76.8,19.83,19.83,0,0,1-1.48,2c-.11.14-.19.31-.3.48C162.63,70.71,163.59,72.89,162,76.4Zm-24.34,81.35c.76-2.61,2.58-4.53,3.78-6.81a20.45,20.45,0,0,0,1.33-4,1.33,1.33,0,0,0-.73-1.63,23.22,23.22,0,0,1-2.12-1.57c-.13-.09-.28-.15-.44-.24A4.63,4.63,0,0,1,137,147c-1.46.76-2.81.18-4.12-.6-.35,1.55-.94,2.85-2.5,3.34a4.79,4.79,0,0,1-4.17-.77,21.33,21.33,0,0,1-.43,2.92,1.68,1.68,0,0,0,.86,2.08,12.87,12.87,0,0,0,4.4,1.9C133.28,156.34,135.57,156.53,137.63,157.75ZM87.22,36c-.61,2.33-2.09,4.08-3.3,6a11.6,11.6,0,0,0-1.79,4.84A1.59,1.59,0,0,0,82.36,48c1,.8,2,1.49,3,2.23,1.08-3.67,2.82-4.44,6.55-2.93.61-3,2.91-4.61,6.69-2.56a26.24,26.24,0,0,1,.46-3,1.45,1.45,0,0,0-.74-1.85,25.17,25.17,0,0,0-4.09-1.88C92,37.35,89.48,37.29,87.22,36ZM159.05,124a25.46,25.46,0,0,1,1.78,2.43,1.56,1.56,0,0,0,1.82.81,12.27,12.27,0,0,0,4.56-1.72c1.95-1.23,3.74-2.74,5.92-3.33-.36-1.2-.74-2.34-1-3.5s-.41-2.4-.82-3.52a29.61,29.61,0,0,0-1.88-4.09,1.66,1.66,0,0,0-1.2-.84,30.71,30.71,0,0,0-3.64.53c1.82,3.22.89,5.9-2.55,6.68C163.57,121,162.82,122.73,159.05,124ZM60.31,110.7c-1-.15-2.05-.24-3-.48a1.35,1.35,0,0,0-1.68.64,21.25,21.25,0,0,0-1.87,3.76c-.77,2.45-.83,5.11-2.07,7.35,1.06.54,2.08,1,3.05,1.58s1.9,1.23,2.85,1.84a11.16,11.16,0,0,0,4.91,1.8,1.51,1.51,0,0,0,1.12-.24c.79-1,1.49-2,2.23-3-3.66-1.05-4.44-2.82-2.94-6.54C59.88,116.76,58.28,114.44,60.31,110.7Zm31.6,35.74c-3.41,2.1-5.76.12-6.55-2.94-.84.62-1.62,1.3-2.49,1.82a1.34,1.34,0,0,0-.74,1.63,22.9,22.9,0,0,0,1.41,4.11c1.17,2.24,3,4.13,3.7,6.68,2.08-1.19,4.38-1.41,6.61-1.9a11.63,11.63,0,0,0,4.38-2c.4-.29.92-.8.9-1.19A32.17,32.17,0,0,0,98.6,149C95.69,150.68,92.79,150.16,91.91,146.44ZM51.55,71.68c1.23,2,1.42,4.31,1.89,6.48a12.05,12.05,0,0,0,2,4.53c.29.39.81.9,1.2.88A35,35,0,0,0,60.39,83a4.6,4.6,0,0,1-.79-4.15c.48-1.58,1.84-2.14,3.35-2.52-.85-1.31-1.35-2.66-.61-4.1a4.66,4.66,0,0,1,3.5-2.42C65.19,69,64.51,68.18,64,67.3a1.33,1.33,0,0,0-1.64-.72A23.63,23.63,0,0,0,58.18,68C56,69.17,54.13,71,51.55,71.68Zm60.92-40.39c-3.28,3.26-7,6.09-9,10.58a6,6,0,0,1,4.61,2.87c1.06-2.07,2.16-4,4.8-3.67,2.14.23,2.91,2,3.82,3.61,1.82-2,1.7-2.1,4.57-2.91a5.89,5.89,0,0,0-.3-.67,33.65,33.65,0,0,0-2.74-4C116.42,35.09,114.39,33.21,112.47,31.29Zm55,74.46a4.46,4.46,0,0,0,.43-.12,20.93,20.93,0,0,0,5.37-3.85c1.39-1.32,2.65-2.76,4-4.13.27-.28.59-.51.81-.7-1.64-1.72-3.17-3.46-4.85-5a18.89,18.89,0,0,0-5.73-4,6,6,0,0,1-2.89,4.59c4.77,2,5.16,6.4,0,8.68A5.88,5.88,0,0,1,167.46,105.75Zm-8.71,37.64a23,23,0,0,1,0-2.77,29.71,29.71,0,0,0-.36-8.73,19.26,19.26,0,0,0-.74-2.47,5.92,5.92,0,0,1-5.26,1.29c.44,2,1.25,3.87-.55,5.65s-3.65.89-5.62.5a5.88,5.88,0,0,1-1.17,5.19,4.78,4.78,0,0,0,.42.23,20.14,20.14,0,0,0,6.23,1.08C154.08,143.47,156.44,143.39,158.75,143.39ZM57.41,88a3.53,3.53,0,0,0-.49.16A20.64,20.64,0,0,0,51.61,92c-1.38,1.31-2.64,2.75-4,4.12-.27.28-.59.51-.83.72,3.29,3.28,6.1,7.05,10.6,9a6,6,0,0,1,2.89-4.57c-4.92-2.14-5-6.48,0-8.68A5.89,5.89,0,0,1,57.41,88Zm15-25c-.43-2-1.25-3.82.57-5.6s3.65-.88,5.6-.49a5.9,5.9,0,0,1,1.18-5.19,2.49,2.49,0,0,0-.36-.21,20.76,20.76,0,0,0-6.53-1.1c-1.91,0-3.82.08-5.73.12-.39,0-.78-.06-1.11-.08,0,4.67-.68,9.32,1.14,13.78C69.19,63,69.19,63,72.45,63Zm85.22,1.25a19.73,19.73,0,0,0,1.24-6.86c.07-1.91-.08-3.82-.11-5.73a8.69,8.69,0,0,1,.08-1.09,23.14,23.14,0,0,1-2.77,0,29.66,29.66,0,0,0-8.72.37,18.71,18.71,0,0,0-2.39.72,6,6,0,0,1,1.26,5.28c2-.44,3.85-1.26,5.64.53s.91,3.65.53,5.55C155.75,63,155.75,63,157.67,64.24Zm-91.73,79a24,24,0,0,1,2.82,0,30.05,30.05,0,0,0,8.73-.37,19.85,19.85,0,0,0,2.4-.72,6,6,0,0,1-1.28-5.28c-2,.44-3.86,1.26-5.65-.54s-.9-3.65-.51-5.61a6,6,0,0,1-5.24-1.22A20,20,0,0,0,66,136.39C65.87,138.67,65.94,141,65.94,143.21Zm37.62,8.68a3.39,3.39,0,0,0,.13.45,20.93,20.93,0,0,0,3.85,5.37c1.32,1.39,2.76,2.65,4.13,4a9.09,9.09,0,0,1,.7.82c3.3-3.29,7-6.11,9-10.6a6,6,0,0,1-4.6-2.87c-2.07,4.75-6.38,5.13-8.67,0A5.91,5.91,0,0,1,103.56,151.89Zm61.73-67.4c.53.62,1,1.2,1.52,1.74a2.27,2.27,0,0,0,.62.37,23.85,23.85,0,0,1,3,1.5,30.58,30.58,0,0,1,6.65,6.1,5.42,5.42,0,0,0,2.78,2,.92.92,0,0,1,.52.7c0,.23-.33.51-.58.67a11.14,11.14,0,0,0-1.77,1.08c-1.34,1.3-2.52,2.76-3.88,4-2,1.87-4.14,3.7-6.89,4.52a.91.91,0,0,0-.39.2c-.54.61-1.07,1.23-1.62,1.88a15.28,15.28,0,0,0,6.35-1.88,45.64,45.64,0,0,0,7.35-5.78c1.56-1.38,3.19-2.68,4.8-4a10.31,10.31,0,0,1,1.33-.8c-2.58-1-4.23-3-6.12-4.65a45.07,45.07,0,0,0-7.34-5.79A15.57,15.57,0,0,0,165.29,84.49ZM124.82,44A15.12,15.12,0,0,0,123,37.68a44.66,44.66,0,0,0-5.78-7.35c-1.37-1.56-2.68-3.19-4-4.8a11,11,0,0,1-.75-1.24,14,14,0,0,1-.89,1.46c-1,1.21-2,2.4-3,3.58-1.21,1.41-2.45,2.81-3.67,4.21-2.55,2.92-4.45,6.15-4.8,10.12,0,.13,0,.26,0,.34.58-.5,1.16-1,1.7-1.49a1.93,1.93,0,0,0,.37-.62,21.54,21.54,0,0,1,1.46-3,30.17,30.17,0,0,1,6.14-6.72,5.42,5.42,0,0,0,2-2.78.92.92,0,0,1,.69-.52c.24,0,.52.32.68.57a14.27,14.27,0,0,0,1.08,1.78c1.24,1.28,2.63,2.42,3.85,3.72,2,2.09,3.86,4.26,4.7,7.11a.82.82,0,0,0,.24.37C123.59,43,124.19,43.49,124.82,44ZM100,149.73a15.31,15.31,0,0,0,2.22,6.9,61,61,0,0,0,7.42,8.93,13.82,13.82,0,0,1,1.24,1.51c.53.75,1,1.54,1.53,2.38a.88.88,0,0,0,.16-.24c1-2.29,2.9-3.91,4.51-5.73,2.41-2.74,5-5.36,6.5-8.75a14.88,14.88,0,0,0,1.2-5c-.63.54-1.24,1.05-1.82,1.59a1.81,1.81,0,0,0-.29.59,20.39,20.39,0,0,1-1.47,3,30.86,30.86,0,0,1-6.09,6.67,5.46,5.46,0,0,0-2.05,2.83.84.84,0,0,1-.64.49,1.15,1.15,0,0,1-.71-.53,14.24,14.24,0,0,0-1.22-2c-1.25-1.31-2.69-2.44-3.91-3.77-1.86-2-3.69-4.14-4.5-6.89a1,1,0,0,0-.28-.43C101.27,150.78,100.68,150.28,100,149.73ZM59.59,84.49a15.17,15.17,0,0,0-6.36,1.88,44.47,44.47,0,0,0-7.34,5.78c-1.57,1.37-3.19,2.67-4.81,4a12.28,12.28,0,0,1-1.24.75,12,12,0,0,1,1.4.84q1.82,1.47,3.58,3c1.45,1.24,2.88,2.52,4.33,3.77,2.91,2.52,6.12,4.4,10.06,4.74h.35c-.51-.58-1-1.16-1.49-1.7a2.18,2.18,0,0,0-.63-.37,22.47,22.47,0,0,1-3-1.5,30.16,30.16,0,0,1-6.66-6.1,5.39,5.39,0,0,0-2.77-2,.88.88,0,0,1-.52-.69c0-.24.32-.51.56-.68A15,15,0,0,0,46.8,95.1c.75-.67,1.32-1.53,2.06-2.2,1.67-1.53,3.33-3.07,5.12-4.44a23.51,23.51,0,0,1,3.51-1.87,1.67,1.67,0,0,0,.51-.28C58.54,85.73,59,85.12,59.59,84.49ZM66.3,68.3c.06-.86.13-1.56.14-2.26a2.36,2.36,0,0,0-.16-.78,20.54,20.54,0,0,1-1.06-3.06,30.31,30.31,0,0,1-.43-9,5.76,5.76,0,0,0-.53-3.54.81.81,0,0,1,.09-.8,1.15,1.15,0,0,1,.87-.14,22.38,22.38,0,0,0,2.4.53c.92.07,1.86-.16,2.78-.12,2.24.11,4.48.19,6.69.48a23.36,23.36,0,0,1,3.67,1.1,2.08,2.08,0,0,0,.7.21c.76,0,1.51-.09,2.36-.15a15.38,15.38,0,0,0-5.72-3.14c-2.91-.87-5.92-.89-8.9-1.13-.93-.07-1.86-.08-2.79-.15s-2.1-.15-3.15-.28c-.7-.1-1.39-.31-2.15-.48a16.83,16.83,0,0,1,.43,1.78c.16,1.49.27,3,.38,4.49.14,1.84.25,3.67.38,5.5A18.46,18.46,0,0,0,65,66.57C65.41,67.15,65.85,67.69,66.3,68.3Zm92.26-.09a2.83,2.83,0,0,0,.25-.24,14.79,14.79,0,0,0,3-5.71c1-3.94,1-8,1.18-12a13.14,13.14,0,0,1,.17-1.88c.17-.92.4-1.84.59-2.73a41.26,41.26,0,0,1-4.12.7c-3.08.24-6.19.27-9.27.56a16,16,0,0,0-8.68,3.35c-.19.15-.37.33-.56.5.77,0,1.44.11,2.11.11a2.69,2.69,0,0,0,.92-.18,24.62,24.62,0,0,1,3.14-1,30.18,30.18,0,0,1,8.95-.4,5.71,5.71,0,0,0,3.46-.53,1,1,0,0,1,.86.13c.16.13.15.55.1.81a16.93,16.93,0,0,0-.54,2.48c0,1.7.18,3.42.11,5.12-.1,2.8-.32,5.59-1.67,8.14a1.31,1.31,0,0,0-.1.65C158.45,66.74,158.51,67.44,158.56,68.21ZM141.15,143a.15.15,0,0,0,0,.11,2.26,2.26,0,0,0,.28.25,13.06,13.06,0,0,0,5.6,2.83c2.24.43,4.52.7,6.79.94,1.58.18,3.17.19,4.75.29.92.06,1.85.11,2.77.24s1.54.34,2.45.55c-1.09-2.88-.82-5.78-1-8.63-.14-2-.31-4.07-.61-6.08a15.32,15.32,0,0,0-3.15-7.42c-.16-.19-.34-.37-.5-.54-.05.78-.12,1.47-.13,2.17a2.13,2.13,0,0,0,.16.78,23.6,23.6,0,0,1,1.06,3.06,30.31,30.31,0,0,1,.43,9,5.75,5.75,0,0,0,.53,3.54,1,1,0,0,1-.14.86c-.13.16-.55.14-.81.09a15,15,0,0,0-2.4-.53c-1.73,0-3.47.18-5.2.11-2.8-.11-5.59-.32-8.14-1.68a1.27,1.27,0,0,0-.65-.09C142.57,142.9,141.88,143,141.15,143Zm-57.34,0c-.85-.07-1.61-.14-2.37-.17a1.83,1.83,0,0,0-.63.19,22.8,22.8,0,0,1-3.14,1.07,30.3,30.3,0,0,1-9,.41,5.71,5.71,0,0,0-3.39.5.94.94,0,0,1-.87-.06,1.37,1.37,0,0,1-.09-.93,14.28,14.28,0,0,0,.47-2c0-1-.15-2.12-.1-3.17.1-2.23.19-4.47.48-6.69a22.24,22.24,0,0,1,1.1-3.66,2.26,2.26,0,0,0,.22-.63c0-.78-.1-1.56-.17-2.42a15.55,15.55,0,0,0-3.2,5.94,33.21,33.21,0,0,0-.93,6.88c-.1,1.55-.17,3.11-.28,4.67-.06,1-.12,1.95-.26,2.92-.1.75-.32,1.49-.48,2.2,1.42-.25,2.77-.6,4.14-.7,3.09-.24,6.19-.27,9.27-.56a16.11,16.11,0,0,0,8.08-2.9C83,143.66,83.41,143.34,83.81,143ZM62.62,128.53c-3.16-.19-5.66-2-8.17-3.61a9.8,9.8,0,0,0-4.06-1.71c-.66-.09-.78-.63-.34-1.23a8.64,8.64,0,0,0,1.47-3.44,52.73,52.73,0,0,1,1.5-5.68,23.29,23.29,0,0,1,1.72-3.27.9.9,0,0,0-1.27,0,8.1,8.1,0,0,0-2.84,3.74c-.83,2.32-1.52,4.69-2.3,7-.29.88-.67,1.73-1,2.58a9,9,0,0,1-.58,1c1.46.65,2.89,1.24,4.28,1.91,2,1,4,2.09,6.07,3a8.14,8.14,0,0,0,4.73.63C62.36,129.47,62.62,129.18,62.62,128.53Zm99.61,0c0,.7.33.95.89,1a9.72,9.72,0,0,0,4.88-.7c3.5-1.36,6.48-3.87,10.06-4.69-.56-1.45-1.16-2.88-1.67-4.34-.74-2.13-1.36-4.31-2.13-6.44a8.16,8.16,0,0,0-2.83-3.74.94.94,0,0,0-1.42.06c2.26,2.54,2.62,5.76,3.39,8.86a14.62,14.62,0,0,0,1.42,3.37c.4.76.29,1.08-.53,1.33a14.37,14.37,0,0,0-3.33,1.32C168.22,126.27,165.65,128.29,162.23,128.53Zm-37-89.21c2.54-2.27,5.77-2.63,8.86-3.41a15,15,0,0,0,3.37-1.41c.76-.41,1.17-.33,1.31.53a9.07,9.07,0,0,0,1.44,3.53,49,49,0,0,1,2.9,5,23.17,23.17,0,0,1,1.11,3.51c.53,0,.78-.32.86-.89a8.05,8.05,0,0,0-.59-4.58c-.93-2-2-4-3-6-.71-1.45-1.34-3-1.94-4.29-1.32.51-2.74,1.11-4.2,1.61-2.14.74-4.32,1.37-6.44,2.14a8.19,8.19,0,0,0-3.75,2.83A1,1,0,0,0,125.26,39.32ZM54.82,84.09c-.27-.39-.52-.74-.75-1.09a16.07,16.07,0,0,1-2.14-5.84c-.41-2-.63-4-2-5.61-.34-.39,0-.89.49-1s.79-.14,1.18-.24c1.83-.46,3.25-1.7,4.78-2.68a15.57,15.57,0,0,1,4.5-2.07c.6-.15,1.2-.26,1.8-.39a.9.9,0,0,0-.91-1,8,8,0,0,0-4.58.6c-2.23,1-4.39,2.25-6.6,3.33-1,.49-2.09.86-3.14,1.27a3.07,3.07,0,0,1-.61.16c.57,1.47,1.16,2.87,1.66,4.31.75,2.16,1.38,4.36,2.16,6.51a8.11,8.11,0,0,0,2.84,3.74A.92.92,0,0,0,54.82,84.09Zm30.54-53c-.66,1.47-1.24,2.9-1.92,4.29-1,2-2.08,4-3,6.07a8.13,8.13,0,0,0-.62,4.8c.09.59.41.78,1,.77.2-3.34,2.12-5.9,3.84-8.52a9.6,9.6,0,0,0,1.44-3.45c.06-.29.22-.69.44-.78s.57.12.86.23a23.59,23.59,0,0,0,3.31,1.37c3.13.76,6.38,1.14,8.92,3.4.5-.77.55-.81.07-1.36a13,13,0,0,0-2-1.92c-2.11-1.52-4.65-2-7.06-2.79A17.79,17.79,0,0,1,85.36,31.13Zm54.15,131.49c.68-1.51,1.27-2.94,2-4.33,1-2,2.08-4,3-6.07a8.15,8.15,0,0,0,.62-4.66.87.87,0,0,0-1-.86c-.18,3.3-2.08,5.84-3.78,8.45a9,9,0,0,0-1.49,3.58c-.14.86-.55.94-1.31.53a19.55,19.55,0,0,0-3.37-1.42c-1.87-.57-3.81-.91-5.66-1.53a23.19,23.19,0,0,1-3.31-1.73c-.36.41-.3.81,0,1.29,1.47,2,3.66,2.82,5.86,3.66C133.91,160.61,137.08,160.83,139.51,162.62Zm-54.4-.1c1.48-.58,2.91-1.18,4.37-1.68,2.13-.74,4.31-1.37,6.43-2.14a8.19,8.19,0,0,0,3.76-2.82.94.94,0,0,0-.07-1.42c-2.52,2.25-5.75,2.62-8.85,3.39a14.59,14.59,0,0,0-3.37,1.41c-.76.4-1.17.33-1.31-.52a8.86,8.86,0,0,0-1.44-3.53,49.14,49.14,0,0,1-2.9-5,24.36,24.36,0,0,1-1.11-3.51c-.52,0-.77.31-.86.88-.39,2.4.51,4.49,1.46,6.6C82.49,157,84.6,159.47,85.11,162.52ZM178.18,69.8c-1.48-.66-2.91-1.25-4.31-1.92-2-1-4-2.09-6.06-3a8.15,8.15,0,0,0-4.73-.63.84.84,0,0,0-.84.94c5.28,1.16,4.53,1.52,8.18,3.69a10.64,10.64,0,0,0,4.06,1.71c.67.09.79.63.34,1.24a8.68,8.68,0,0,0-1.47,3.43,52.73,52.73,0,0,1-1.5,5.68,23.29,23.29,0,0,1-1.72,3.27.83.83,0,0,0,1.26,0,19,19,0,0,0,1.91-2c1.49-2.07,2-4.56,2.74-6.92C176.65,73.3,177,71.35,178.18,69.8ZM94.31,50.64c.78-.33,1.5-.7,2.26-1s1.55-.41,2.33-.61c.39-.1.5-.32.42-.72a4.4,4.4,0,0,0-1.91-2.72,2.54,2.54,0,0,0-4.13,1.76C93.05,48.65,93.67,49.57,94.31,50.64Zm36.31-.13a4,4,0,0,0,.92-3.35,2.37,2.37,0,0,0-2.88-2,4.41,4.41,0,0,0-3.09,3c-.14.57.06.81.59,1C127.62,49.57,129.07,50,130.62,50.51Zm28.1,64.5a4.15,4.15,0,0,0,3.49,1,2.36,2.36,0,0,0,1.91-2.87c-.27-1.65-1.48-2.44-2.85-3-.6-.26-.94,0-1.14.63-.41,1.37-.9,2.71-1.36,4.06C158.75,114.82,158.75,114.9,158.72,115ZM94.3,143.17a4.16,4.16,0,0,0-1,3.41,2.38,2.38,0,0,0,3,2c1.62-.3,2.38-1.49,3-2.84.27-.61,0-.94-.63-1.14-1.37-.41-2.71-.9-4.06-1.35A1.33,1.33,0,0,0,94.3,143.17ZM66.19,78.78c-1.6-1.07-2.3-1.27-3.51-1a2.34,2.34,0,0,0-1.94,2.85c.26,1.66,1.48,2.44,2.85,3,.58.26,1,.07,1.14-.61.3-1.11.68-2.2,1-3.3C65.88,79.45,66,79.14,66.19,78.78Zm-.12,36.3c-.48-1.57-1-3-1.37-4.5-.17-.57-.47-.72-1-.55a4.45,4.45,0,0,0-2.66,2.11c-1,1.94,0,3.62,2.1,3.92A4.46,4.46,0,0,0,66.07,115.08Zm92.73-36.4c.48,1.56.95,3,1.35,4.43.18.64.51.81,1.09.6a4.31,4.31,0,0,0,2.54-2c.91-1.89.35-3.61-2.07-4A4.44,4.44,0,0,0,158.8,78.68Zm-28.17,64.57L126,144.68a.53.53,0,0,0-.42.73,4.4,4.4,0,0,0,1.91,2.72,2.55,2.55,0,0,0,4.13-1.76A4.3,4.3,0,0,0,130.63,143.25Zm-38.11-.71c-1.46-.77-2.84-1.49-4.2-2.24-.5-.28-.79-.13-1,.32a4.26,4.26,0,0,0-.43,3.22c.55,1.88,2.13,2.92,4.15,1.56A4.27,4.27,0,0,0,92.52,142.54Zm39.83-91.31c1.49.78,2.93,1.53,4.36,2.3.4.21.62,0,.8-.29a4.3,4.3,0,0,0,.44-3.57c-.71-2.06-2.67-2.5-4.35-1.11A4.75,4.75,0,0,0,132.35,51.23ZM158,77c1.21-.27,2.36-.52,3.08-1.68a2.41,2.41,0,0,0-.8-3.63,4.21,4.21,0,0,0-3.92,0c-.64.24-.76.64-.4,1.29.68,1.23,1.26,2.51,1.88,3.76Zm-25.63,65.47a4.07,4.07,0,0,0,1.8,3.15,2.37,2.37,0,0,0,3.38-.72c.95-1.36.66-2.77.1-4.17-.24-.58-.61-.67-1.2-.35-1.28.68-2.6,1.3-3.9,1.94A1.09,1.09,0,0,0,132.35,142.45ZM66.87,116.8a4,4,0,0,0-3.15,1.8,2.36,2.36,0,0,0,.71,3.37c1.37,1,2.78.67,4.18.1.58-.23.66-.61.35-1.2-.69-1.27-1.3-2.59-1.95-3.9A1,1,0,0,0,66.87,116.8Zm91.21,0c-.78,1.49-1.53,2.93-2.29,4.36-.22.4,0,.61.29.79a4.31,4.31,0,0,0,3.49.47c2-.62,2.56-2.51,1.32-4.2A4.39,4.39,0,0,0,158.08,116.8ZM66.78,77c.78-1.47,1.52-2.89,2.28-4.3a.56.56,0,0,0-.27-.86,4.29,4.29,0,0,0-3.57-.43c-2.06.72-2.49,2.68-1.1,4.35A4.77,4.77,0,0,0,66.78,77ZM92.52,51.31a4,4,0,0,0-1.8-3.14,2.37,2.37,0,0,0-3.38.71c-1,1.36-.66,2.77-.1,4.17.23.58.61.67,1.2.36,1.28-.69,2.6-1.31,3.9-1.95A1.09,1.09,0,0,0,92.52,51.31Zm16.65-4.55h6.5a4.89,4.89,0,0,0-1.75-3.91,2,2,0,0,0-2.52-.28A4.88,4.88,0,0,0,109.17,46.76Zm53.38,53.36a5.06,5.06,0,0,0,3.88-1.7,2.27,2.27,0,0,0-.06-3.16,5.23,5.23,0,0,0-3-1.58,6.94,6.94,0,0,0-.79,0ZM62.32,93.69A4.56,4.56,0,0,0,58.84,95a2.26,2.26,0,0,0-.53,3.27,4.77,4.77,0,0,0,4,1.9Zm87.83-29.94a5.08,5.08,0,0,0,1.55-3.49,2.25,2.25,0,0,0-2-2.6,4.89,4.89,0,0,0-4.2,1.51l4.18,4.19C149.84,63.48,150,63.59,150.15,63.75ZM109.21,147a4.92,4.92,0,0,0,1.3,3.47,2.26,2.26,0,0,0,3.27.54,4.78,4.78,0,0,0,1.89-4Zm-30-12.29-4.58-4.62a4.83,4.83,0,0,0-1.39,4.18,2.13,2.13,0,0,0,2.14,1.88A5,5,0,0,0,79.2,134.71Zm0-75.64a5,5,0,0,0-3.41-1.45,2.21,2.21,0,0,0-2.55,1.81,4.75,4.75,0,0,0,1.36,4.23Zm66.46,75.61a4.76,4.76,0,0,0,3.38,1.46,2.25,2.25,0,0,0,2.6-1.94,4.8,4.8,0,0,0-1.37-4.08Zm16.94-32.76-1.42,6.51a5.09,5.09,0,0,0,3.7-.67,2.75,2.75,0,0,0,1-3A4.28,4.28,0,0,0,162.61,101.92Zm-45.1-55.2L124,48.13a5.68,5.68,0,0,0-.49-3.42,2.93,2.93,0,0,0-2.9-1.43C119.22,43.59,117.45,45.31,117.51,46.72Zm-10.11,0a7.64,7.64,0,0,0-.22-.81,4.59,4.59,0,0,0-2.29-2.4,2.39,2.39,0,0,0-2.26.11A3.86,3.86,0,0,0,101,48.1ZM62.27,101.93a4.22,4.22,0,0,0-3,2.18,2.54,2.54,0,0,0,0,2.66,3.94,3.94,0,0,0,4.47,1.57Zm1.41-16.6a5.33,5.33,0,0,0-3.6.59,2.79,2.79,0,0,0-1.28,2.25c-.1,1.7,1.87,3.57,3.48,3.6Zm53.81,61.72a4.16,4.16,0,0,0,2.15,3c1.43.91,2.44.45,3.49-.55s1-2.53.86-3.88Zm-10.14,0-6.43-1.4a5.67,5.67,0,0,0,.37,3.3,3.31,3.31,0,0,0,2.62,1.6C105.48,150.4,107.47,148.45,107.35,147ZM162.6,91.83a4,4,0,0,0,2.9-2,2.32,2.32,0,0,0,.25-2.64,3.9,3.9,0,0,0-4.54-1.81C161.67,87.53,162.13,89.64,162.6,91.83ZM86.19,54.28A5.48,5.48,0,0,0,83.1,52.1a2.76,2.76,0,0,0-2.48.75,4,4,0,0,0,0,5c.89-.62,1.75-1.26,2.66-1.84S85.17,54.88,86.19,54.28Zm-5.65,81.65a4.28,4.28,0,0,0-.62,3.7,2.65,2.65,0,0,0,3,2,4.77,4.77,0,0,0,3.17-2.12Zm63.8,0-5.61,3.62a5.36,5.36,0,0,0,3,2.12,2.78,2.78,0,0,0,3-1.55A4.27,4.27,0,0,0,144.34,135.92Zm10.73-65.37a5.55,5.55,0,0,0,2.1-2.75,3,3,0,0,0-1-3c-1.18-.77-3.67-.85-4.67.21ZM73.38,128.76l-3.6-5.59a5.79,5.79,0,0,0-2,2.73,3.06,3.06,0,0,0,.86,3C69.76,129.75,72.39,129.85,73.38,128.76Zm78.1,0a3.71,3.71,0,0,0,2.87.75c2.36-.21,2.94-1.43,2.84-3.25-.07-1.36-1.11-2.3-2.1-3.11Zm-81.7-58.2L73.39,65a4.45,4.45,0,0,0-3.58-.65c-1.8.23-2.56,2.53-2,3.77A6.19,6.19,0,0,0,69.78,70.58Zm74.55-12.75a3.68,3.68,0,0,0,.76-2.86c-.22-2.36-1.43-2.94-3.26-2.85-1.36.07-2.29,1.11-3.1,2.1Z"/><path class="cls-2" d="M114,142.79a3.81,3.81,0,0,1-.88.4,4.57,4.57,0,0,1-1.28,0,8.88,8.88,0,0,1-.93-.28c-.35-.07-.71,0-1.05-.11-2.78-.6-5.59-1.08-8.32-1.87a69.54,69.54,0,0,1-7.35-2.69,58.91,58.91,0,0,1-5.76-2.81c-1.58-.87-3.07-1.91-4.57-2.92-1.08-.74-2.1-1.56-3.15-2.32-.13-.09-.37,0-.49-.11a5.87,5.87,0,0,1-.94-.85c-.23-.29-.34-.67-.54-1s-.46-.54-.65-.84c-1.58-2.45-3.26-4.84-4.68-7.39a53.87,53.87,0,0,1-3.1-6.78,78.8,78.8,0,0,1-2.49-7.52c-.58-2.12-.9-4.33-1.32-6.5-.13-.66.12-1.39-.47-2-.13-.12-.11-.51,0-.72.67-1.63.67-3.4,1.08-5.08Q68,87.7,69,84a31.31,31.31,0,0,1,1.2-3.41c.55-1.35,1.15-2.68,1.77-4S73.19,74,73.9,72.78c.89-1.54,1.89-3,2.89-4.5.73-1.08,1.55-2.1,2.31-3.16a1.21,1.21,0,0,0,.12-.48,1.1,1.1,0,0,1,1-1,1.91,1.91,0,0,0,.69-.33c.36-.26.67-.61,1-.85,2.41-1.56,4.8-3.14,7.26-4.62a33.23,33.23,0,0,1,4.2-2c2.2-.92,4.42-1.8,6.67-2.59A45,45,0,0,1,104.52,52c1.71-.39,3.44-.69,5.17-1,.37-.07.76-.07,1.12-.14s.67-.25,1-.3a5,5,0,0,1,1.22,0c.34,0,.66.23,1,.31s.71,0,1,.12c2.78.6,5.59,1.09,8.31,1.87a68.36,68.36,0,0,1,7.29,2.66,64.12,64.12,0,0,1,5.89,2.88c1.54.85,3,1.86,4.44,2.85,1.1.75,2.13,1.59,3.21,2.37.12.08.37,0,.49.08a4.37,4.37,0,0,1,.9.81,9.69,9.69,0,0,1,.58,1c.12.21.33.38.47.59,1.65,2.58,3.48,5.07,4.91,7.77A44.91,44.91,0,0,1,155.49,83c.67,2.4,1.52,4.75,2.11,7.16.43,1.77.58,3.62.87,5.43,0,.23.22.43.24.66a7.4,7.4,0,0,1,0,1.33c0,.29-.22.57-.27.86s0,.76-.12,1.13c-.62,2.85-1.12,5.73-1.92,8.53a60.62,60.62,0,0,1-2.61,7.07,62.56,62.56,0,0,1-2.84,5.82c-.88,1.58-1.92,3.07-2.93,4.57-.73,1.08-1.56,2.1-2.32,3.15-.09.13,0,.36-.1.49-.21.32-.46.85-.71.86-.63,0-.9.46-1.3.76-1.3.95-2.6,1.92-3.94,2.79a35.22,35.22,0,0,1-3.66,2.13c-2.44,1.19-4.87,2.39-7.39,3.4a72.31,72.31,0,0,1-7.37,2.45c-2.1.58-4.28.89-6.42,1.31-.27.05-.56.05-.83.08Zm12-45.9c-.15-.51-.32-1-.41-1.47a20.31,20.31,0,0,0-2.88-6.93,5.31,5.31,0,0,0-1.8-1.82,22.77,22.77,0,0,0-7-2.93,6.1,6.1,0,0,0-2.85,0,23,23,0,0,0-7,2.93,5.23,5.23,0,0,0-1.81,1.81,22.71,22.71,0,0,0-3,7.06,5.65,5.65,0,0,0,0,2.71,20.73,20.73,0,0,0,3,7.05c.29.43.49,1,.89,1.27a27.65,27.65,0,0,0,4,2.2,46.34,46.34,0,0,0,4.81,1.52,2.08,2.08,0,0,0,1,0c.52-.11,1-.33,1.53-.42,2.67-.48,4.9-1.92,7.19-3.21a1.72,1.72,0,0,0,.58-.59,23.19,23.19,0,0,0,3.37-8A9.3,9.3,0,0,1,126,96.89ZM82.19,127.12a1,1,0,0,0,.28-.09,47.17,47.17,0,0,1,11.32-4.32,32.94,32.94,0,0,0,8.23-3.53.76.76,0,0,0,.36-.57c0-.69-.19-1.38-.3-2.12a22.24,22.24,0,0,1-2.42,1.17q-5.22,1.75-10.47,3.41c-.7.23-1.14-.24-1-1,.09-.34.19-.68.3-1,.88-2.78,1.73-5.57,2.67-8.34.41-1.19,1-2.32,1.56-3.54-.65-.09-1.27-.22-1.89-.25a1,1,0,0,0-.76.36,29.47,29.47,0,0,0-3.38,7.72A55.81,55.81,0,0,1,82.19,127.12Zm60.53-60.54c-.69.38-1.23.73-1.81,1A63.86,63.86,0,0,1,131,71.08a31,31,0,0,0-8.17,3.49.83.83,0,0,0-.36.57c.05.69.19,1.37.3,2.13.26-.12.43-.21.61-.28,2.12-.86,4.22-1.78,6.37-2.54,1.88-.67,3.81-1.16,5.73-1.69a1.15,1.15,0,0,1,.94.11,1.17,1.17,0,0,1,.12.95c-.44,1.55-1,3.07-1.39,4.63a31.64,31.64,0,0,1-2.95,7.66,3,3,0,0,0-.12.44c.66.09,1.26.13,1.85.26a.69.69,0,0,0,.85-.4,30.3,30.3,0,0,0,3.3-7.6A69.45,69.45,0,0,1,141.5,69C141.83,68.19,142.26,67.46,142.72,66.58ZM132,107.23c.12.25.21.4.27.56.86,2.12,1.79,4.21,2.56,6.36.67,1.9,1.17,3.85,1.71,5.79A.77.77,0,0,1,135.5,121c-1.58-.44-3.12-1-4.7-1.4a31.72,31.72,0,0,1-7.53-2.9,3.46,3.46,0,0,0-.49-.17c-.11.71-.23,1.35-.28,2a.8.8,0,0,0,.28.61c.91.53,1.85,1,2.79,1.51,2.8,1.42,5.88,2,8.84,3a36.26,36.26,0,0,1,8.05,3.39s.13,0,.18,0A56.39,56.39,0,0,1,138.12,115a30.14,30.14,0,0,0-3.36-7.65.88.88,0,0,0-.62-.39C133.46,107,132.79,107.12,132,107.23Zm-39.2-20.7a21,21,0,0,1-1.14-2.35c-1.18-3.51-2.31-7-3.44-10.54-.22-.7.25-1.14,1-1q.51.13,1,.3c2.8.9,5.61,1.76,8.4,2.71,1.17.4,2.28,1,3.48,1.53.09-.62.13-1.22.26-1.8a.74.74,0,0,0-.42-.92,30.48,30.48,0,0,0-7.6-3.29,69.63,69.63,0,0,1-9.83-3.4c-.77-.33-1.5-.76-2.34-1.19a1.84,1.84,0,0,0,.14.34,45.48,45.48,0,0,1,4.23,11,34.58,34.58,0,0,0,3.58,8.45.75.75,0,0,0,.56.37C91.37,86.77,92.06,86.64,92.82,86.53Zm40.78,3.83c.73.22,1.41.4,2.06.64,3.67,1.32,6.92,3.49,10.38,5.24a.7.7,0,0,1,0,1.31c-.33.19-.67.37-1,.54-2.43,1.28-4.84,2.6-7.3,3.8-1.28.63-2.66,1-4.06,1.58.42.56.83,1.16,1.3,1.71a.75.75,0,0,0,.6.12,32,32,0,0,0,8.12-3.22A48.74,48.74,0,0,1,155,97c.05,0,.07-.1.1-.15a51.4,51.4,0,0,1-11.22-5,32.88,32.88,0,0,0-8.31-3.34.79.79,0,0,0-.66.15C134.46,89.15,134.07,89.73,133.6,90.36ZM119,118.07a22.63,22.63,0,0,1-.94,2.67c-1.61,3.24-3.27,6.47-4.93,9.69a.72.72,0,0,1-1.35,0c-.19-.32-.37-.66-.54-1-1.35-2.62-2.73-5.22-4-7.87-.53-1.09-.88-2.28-1.34-3.49-.57.43-1.17.84-1.72,1.31a.77.77,0,0,0-.09.67,55.17,55.17,0,0,0,2.71,7.11c2.14,4,4.38,7.94,5.62,12.34,0,0,.08,0,.11,0a51.68,51.68,0,0,1,5-11.2,33.25,33.25,0,0,0,3.34-8.31.79.79,0,0,0-.16-.66C120.16,118.9,119.58,118.51,119,118.07Zm0-42.41c.49-.37,1-.76,1.5-1.11a.67.67,0,0,0,.31-.89,62.58,62.58,0,0,0-2.78-7.17,93.39,93.39,0,0,1-4.82-9.91c-.3-.78-.52-1.59-.79-2.46-.09.14-.14.19-.15.26A43.38,43.38,0,0,1,107.61,65,36.14,36.14,0,0,0,104,73.7a.77.77,0,0,0,.1.66c.54.48,1.14.88,1.76,1.34a18.53,18.53,0,0,1,.82-2.42c1.65-3.34,3.35-6.66,5-10,.32-.64,1-.6,1.35,0,.18.3.34.62.5.93,1.29,2.45,2.62,4.88,3.84,7.37C118.08,72.92,118.5,74.3,119,75.66ZM69.7,96.86c.1.08.13.13.17.14a45.68,45.68,0,0,1,10.95,4.86,34.37,34.37,0,0,0,8.44,3.42.83.83,0,0,0,.67-.11c.47-.55.87-1.14,1.33-1.76-.85-.28-1.62-.5-2.38-.78-3.54-1.3-6.67-3.42-10-5.09a.71.71,0,0,1,0-1.32c.3-.18.62-.33.93-.49,2.66-1.38,5.31-2.78,8-4.1a36.48,36.48,0,0,1,3.46-1.33c-.37-.5-.76-1-1.09-1.47a.7.7,0,0,0-.94-.35A62.94,62.94,0,0,0,82,91.29C78,93.41,74.1,95.57,69.7,96.86Zm42.68,15.42c-1.11,1.06-2.22,2.24-3.45,3.27-1.91,1.59-2.05,1.91-1.11,4.26,0,.11.09.23.14.34l4.13,8.23a3.87,3.87,0,0,0,.39.51l.56-1c.5-1,1-1.91,1.5-2.88.89-1.83,1.78-3.66,2.61-5.52a9.19,9.19,0,0,0,.48-2,.71.71,0,0,0-.17-.58C115.78,115.32,114.07,113.8,112.38,112.28ZM80.49,97c2.22,1.19,4.38,2.44,6.63,3.5a42.81,42.81,0,0,0,4.45,1.6c.5.18.8-.06,1.15-.44,1.34-1.49,2.75-2.93,4.13-4.39l.24-.28C95.68,95.42,94.24,94,93,92.44a1.74,1.74,0,0,0-2.13-.61c-3.71,1-6.86,3.22-10.25,4.91C80.57,96.76,80.56,96.82,80.49,97Zm31.94-15.53c1.63-1.46,3.34-3,5-4.52a.75.75,0,0,0,.19-.58,13.45,13.45,0,0,0-.74-2.68c-1.32-2.79-2.74-5.54-4.13-8.3a3.54,3.54,0,0,0-.34-.45,3.18,3.18,0,0,0-.33.47c-1.38,2.74-2.79,5.46-4.11,8.23a12.55,12.55,0,0,0-.74,2.67.83.83,0,0,0,.25.69C109.14,78.48,110.81,80,112.43,81.43Zm32,15.46a5,5,0,0,0-.48-.35c-1.75-1-3.45-2-5.26-2.82s-3.66-1.36-5.5-2c-.46-.17-.71.08-1,.41-1.22,1.37-2.48,2.7-3.74,4-.23.25-.5.47-.7.65,1.43,1.54,2.88,3,4.15,4.55a1.67,1.67,0,0,0,2.06.6C137.71,100.89,140.93,98.73,144.43,96.89ZM89.78,74.28c.12.43.21.79.32,1.14.32,1.06.62,2.12,1,3.17.69,2,1.38,3.93,2.14,5.88a6.07,6.07,0,0,0,1,1.51,1,1,0,0,0,.68.31c2.19,0,4.38-.11,6.56-.18.07,0,.13,0,.06,0,.13-2.34.25-4.59.35-6.85a.8.8,0,0,0-.32-.6,12.11,12.11,0,0,0-2.28-1.31c-2.93-1-5.9-2-8.86-3A3.68,3.68,0,0,0,89.78,74.28Zm45.21,0c-.19,0-.34,0-.49.07-1.95.58-3.93,1.09-5.85,1.78-1.62.58-3.19,1.35-4.76,2.09a1.4,1.4,0,0,0-.86,1.61c.19,1.7.17,3.42.22,5.13,0,.37,0,.73,0,1,2.07.08,4.08.06,6.07.28a1.73,1.73,0,0,0,2-1c1.92-3.35,2.59-7.13,3.79-10.72A1.17,1.17,0,0,0,135,74.27Zm-33.33,33.54c-2.35-.12-4.58-.25-6.81-.34a.81.81,0,0,0-.62.28,12.47,12.47,0,0,0-1.41,2.48c-1,2.88-2,5.81-2.92,8.72a2.76,2.76,0,0,0-.05.54,4.29,4.29,0,0,0,.5-.07c2-.59,4-1.1,5.92-1.8a50.12,50.12,0,0,0,4.69-2.06,1.39,1.39,0,0,0,.88-1.61c-.19-1.67-.17-3.37-.22-5C101.61,108.51,101.65,108.11,101.66,107.81ZM135,119.45a3.81,3.81,0,0,0-.08-.55c-1-2.89-1.88-5.79-2.9-8.65a10.79,10.79,0,0,0-1.31-2.37,1.24,1.24,0,0,0-.93-.38c-2.06,0-4.12.09-6.18.15a2.16,2.16,0,0,0-.31,0c-.08,2,0,4-.28,6a1.77,1.77,0,0,0,1.09,2c3.35,1.9,7.12,2.6,10.73,3.76C134.89,119.48,134.92,119.47,135,119.45ZM73.92,80.79c1.59,2,3.11,4,4.77,5.86a26.62,26.62,0,0,0,3.08,2.72.91.91,0,0,0,.77.11c2.12-.78,4.23-1.6,6.28-2.38C87.93,85.1,87,83,86.07,81a1,1,0,0,0-.62-.48,16.62,16.62,0,0,0-3.13-.32c-2.8.14-5.57.88-8.41.61C73.88,80.8,73.83,80.85,73.92,80.79Zm48.29-7.52c2-.9,4.07-1.81,6.13-2.75a.91.91,0,0,0,.44-.56,15.15,15.15,0,0,0,.36-3c-.12-2.89-.9-5.72-.63-8.64,0,0,0-.07-.12-.16-.11.1-.23.18-.32.28-1.48,1.82-3.47,3-5.23,4.53a27.93,27.93,0,0,0-2.9,3.23.79.79,0,0,0-.12.7C120.6,69.07,121.43,71.21,122.21,73.27ZM73.79,113a2.54,2.54,0,0,0,.47,0c2.31-.23,4.55.31,6.83.51a23.39,23.39,0,0,0,4.26-.2c.31,0,.67-.44.83-.76.93-1.89,1.81-3.81,2.71-5.73,0-.05,0-.13,0-.1-2.12-.81-4.18-1.61-6.25-2.37a1,1,0,0,0-.85.06,13.92,13.92,0,0,0-2.39,1.91c-1.92,2.13-3.39,4.64-5.62,6.5C73.78,112.8,73.79,112.83,73.79,113Zm22.68,22.62a1.28,1.28,0,0,0,.22-.17,33.06,33.06,0,0,1,5.41-4.68,18.92,18.92,0,0,0,2.43-2.47,1.88,1.88,0,0,0,.5-1.41c-.73-2.16-1.58-4.28-2.37-6.35-2,.9-4.07,1.81-6.13,2.76a1,1,0,0,0-.47.62,15.09,15.09,0,0,0-.32,3c.12,2.86.89,5.67.62,8.56C96.35,135.44,96.41,135.48,96.47,135.57ZM151.25,113c-.22-.24-.28-.34-.37-.42-1.83-1.48-3.07-3.45-4.53-5.23a23.21,23.21,0,0,0-2.75-2.68,1.55,1.55,0,0,0-1.75-.22c-1.87.75-3.78,1.38-5.67,2.07a.51.51,0,0,0-.17.1c.92,2,1.81,4.08,2.75,6.08a1.07,1.07,0,0,0,.7.59,28.32,28.32,0,0,0,4.41.2c2.2-.16,4.37-.71,6.6-.49C150.66,113,150.86,113,151.25,113Zm0-31.93-.14-.22a3,3,0,0,0-.51,0c-2.29.23-4.51-.31-6.76-.5a24.31,24.31,0,0,0-4.26.18c-.31,0-.68.43-.84.75-.94,1.92-1.83,3.86-2.74,5.8,0,0,0,.09,0,0,2.12.81,4.21,1.62,6.31,2.39a1.23,1.23,0,0,0,.84-.09,9.74,9.74,0,0,0,3.32-3,29.22,29.22,0,0,1,4.26-5A5.65,5.65,0,0,1,151.21,81ZM96.38,58.1c0,.32,0,.5,0,.67.23,2.28-.31,4.5-.5,6.75A23.53,23.53,0,0,0,96,69.79c0,.3.43.67.75.82,1.92,1,3.86,1.84,5.8,2.74,0,0,.09,0,.13,0,.35-1,.68-2.11,1.06-3.14s.86-2.1,1.24-3.17a1,1,0,0,0-.1-.83,27.89,27.89,0,0,0-3-3.26c-1.69-1.46-3.64-2.62-5.07-4.38A3.29,3.29,0,0,0,96.38,58.1Zm25.83,62.39c-.78,2.06-1.6,4.19-2.39,6.33a.89.89,0,0,0,.11.71,18.91,18.91,0,0,0,2,2.49c2.07,1.87,4.53,3.28,6.32,5.47,0,0,.09,0,.19,0a2.81,2.81,0,0,0,.05-.49c-.23-2.31.31-4.55.5-6.83a25.2,25.2,0,0,0-.23-4.33,1,1,0,0,0-.53-.66C126.24,122.28,124.2,121.38,122.21,120.49Zm25.2-51.07c-1.09-1-1.38-2.49-2.65-3.37-2.89,3.93-4.07,8.43-5.38,12.88,1.55,0,2.91-.07,4.27,0s2.69.35,4,.52a15.83,15.83,0,0,0,4.93-.25,9.57,9.57,0,0,0-.34-1c-.22-.46-.48-.89-.7-1.34s-.4-.37-.78-.35a5,5,0,0,1-2.19-.23C146.31,75.19,144.55,71.91,147.41,69.42ZM85,131.79a3.89,3.89,0,0,1,2.54-1.44c2.42-.17,5.37,2.58,4.52,5a.61.61,0,0,0,.16.56c.78.43,1.58.81,2.5,1.27a16.21,16.21,0,0,0,.26-5.06c-.18-1.5-.42-3-.53-4.49-.09-1.22,0-2.44,0-3.81-4.46,1.39-9,2.48-12.86,5.42a3.88,3.88,0,0,0,.4.5Zm-7.53-7.52L80,127.86c3-4.06,4.16-8.58,5.55-13.23-2.69.63-5.09-.07-7.52-.18-1.43-.06-2.86-.13-4.29-.14a9.39,9.39,0,0,0-1.6.26c.45.9.81,1.68,1.24,2.41.09.15.43.21.66.22a6.53,6.53,0,0,1,1.78.06C78.39,118.19,80.45,121.82,77.51,124.27ZM130.39,70c4.47-1.42,9-2.49,13-5.55L140,62.1a10.33,10.33,0,0,1-2.55,1.25c-2.46.43-5.51-2.39-4.72-4.88.06-.18,0-.52-.11-.58-.79-.45-1.62-.84-2.45-1.25a15.06,15.06,0,0,0-.36,5c.22,1.44.43,2.88.54,4.34C130.46,67.26,130.39,68.52,130.39,70ZM85.56,79.09C84.11,74.46,83,69.9,80,65.91l-2.45,3.58A3.81,3.81,0,0,1,79,72c.17,2.43-2.58,5.37-5,4.51a.62.62,0,0,0-.56.17c-.43.77-.81,1.58-1.26,2.49a15.76,15.76,0,0,0,4.83.3C79.75,79.21,82.5,78.56,85.56,79.09Zm57.85,50.24c-4-3-8.57-4.18-13.18-5.55.53,3-.09,5.66-.39,8.36a16.41,16.41,0,0,0,.28,5c.93-.47,1.73-.86,2.52-1.29a.58.58,0,0,0,.15-.5,3.6,3.6,0,0,1,1.13-3.64,3.77,3.77,0,0,1,5.72-.12,2.39,2.39,0,0,0,.22.16ZM94.75,56.58c-.9.45-1.65.8-2.37,1.21a.91.91,0,0,0-.28.64,6.67,6.67,0,0,1,0,1.79c-1,2.74-4.73,4.6-7,1.82,0,0-.09,0-.15,0l-3.53,2.46c4.08,3,8.58,4.17,13.19,5.53-.53-3,.12-5.74.41-8.49A16.27,16.27,0,0,0,94.75,56.58Zm52.45,67.94a10.93,10.93,0,0,1-1.24-2.69c-.37-2.43,2.45-5.43,4.91-4.62a.7.7,0,0,0,.61-.2c.43-.75.79-1.54,1.25-2.45a16,16,0,0,0-5-.27c-1.53.18-3,.43-4.57.54-1.2.09-2.4,0-3.76,0,1.37,4.44,2.48,9,5.51,13Zm-18.76,13.35a17.09,17.09,0,0,0-3.32-3.71c-1.21-.95-2.47-1.83-3.62-2.84-.93-.8-1.74-1.73-2.6-2.6-1.92,2-5.37,10.34-5.26,13l4.08-.75c.14-1.83.32-2.33,1-3,1.6-1.64,5.5-1.75,6.56.52a.59.59,0,0,0,.51.27C126.63,138.5,127.47,138.19,128.44,137.87Zm-32-.28.14.33c.78.26,1.56.56,2.35.76a.92.92,0,0,0,.71-.26c.43-.37.74-.95,1.22-1.2,2.52-1.27,6.6,0,6.25,3.48a.84.84,0,0,0,.06.26l4.1.73c-.09-2.86-3.79-11.66-5.41-13-1.62,2.35-4.07,3.78-6.19,5.58A46.36,46.36,0,0,0,96.44,137.59Zm60.84-39.66c-5,.71-9,3.11-13.22,5.37a20.84,20.84,0,0,1,3.93,4.06,21.17,21.17,0,0,0,4.13,4.58l1.32.93c.31-1,.61-1.76.83-2.58a.65.65,0,0,0-.24-.58,3.63,3.63,0,0,1-1.75-3.31,3.8,3.8,0,0,1,3.84-4.19,2.84,2.84,0,0,0,.38,0ZM128.43,56.12l-.12-.28c-.85-.28-1.69-.58-2.55-.83a.54.54,0,0,0-.47.23A3.6,3.6,0,0,1,122.08,57a3.84,3.84,0,0,1-4.32-3.78,3.29,3.29,0,0,0-.05-.44l-4.09-.75c0,2.72,3.5,11.23,5.12,12.81,1.07-1,2.11-1.94,3.22-2.85s2.34-1.66,3.4-2.62S127.41,57.22,128.43,56.12Zm25,24.75a18.05,18.05,0,0,0-3.8,3.44c-1.36,1.7-2.79,3.36-4.22,5a12.79,12.79,0,0,1-1.33,1.18c4.23,2.2,8.22,4.64,13.2,5.33-.28-1.53-.53-2.89-.78-4.23-1.83-.16-2.25-.31-2.88-.87-1.75-1.57-1.91-5.58.4-6.66a.64.64,0,0,0,.28-.51C154.05,82.7,153.75,81.85,153.43,80.87ZM80.84,90.46C78.29,88.63,76.78,86.19,75,84a14.17,14.17,0,0,0-3.56-3.09c-.31.94-.61,1.77-.84,2.61,0,.15.14.42.29.58.39.41,1,.72,1.21,1.21,1.28,2.51,0,6.59-3.46,6.25a.89.89,0,0,0-.27.06l-.76,4.23C72.58,95.12,76.58,92.71,80.84,90.46Zm-12.5,11.48a11.28,11.28,0,0,1,2.69,1c2,1.42,2.19,5.65-.15,6.79a.63.63,0,0,0-.32.49c.25.88.56,1.74.86,2.62a16.09,16.09,0,0,0,3.76-3.25c1.11-1.46,2.24-2.91,3.43-4.3a25.8,25.8,0,0,1,2.17-2c-4.22-2.16-8.2-4.64-13-5.28a3.54,3.54,0,0,0-.06.72C67.92,99.84,68.15,101,68.34,101.94ZM106,65.33c2.22-4.32,4.69-8.3,5.36-13.3l-4,.74a11.23,11.23,0,0,1-.93,2.69c-1.41,2-5.62,2.21-6.79-.11a.69.69,0,0,0-.56-.33c-.85.24-1.69.55-2.69.88a20,20,0,0,0,3.41,3.75C101.94,61.34,104.28,62.79,106,65.33Zm-2.4,52.83c2.69-2.11,5.36-4,7.57-6.66a23.82,23.82,0,0,1-8.2-3.4C102.64,111.57,103.22,114.78,103.62,118.16Zm7.58-35.89c-2.23-2.69-4.89-4.56-7.58-6.68-.4,3.4-1,6.6-.63,10.09A22.87,22.87,0,0,1,111.2,82.27Zm12.43,5.16a23.41,23.41,0,0,1,3.43,8.21c2.67-2.22,4.54-4.88,6.66-7.57C130.34,87.67,127.13,87.08,123.63,87.43Zm-9.94,24.08c2.2,2.67,4.87,4.54,7.57,6.66.38-3.4,1-6.62.61-10.09A23.34,23.34,0,0,1,113.69,111.51Zm10.13-5.25c1.26.55,8.25-.23,9.72-.64-.87-1.79-5.34-6.85-6.44-7.29-.46,1.35-.84,2.72-1.39,4S124.45,105,123.82,106.26Zm-10.15-24a23.75,23.75,0,0,1,8.22,3.38c.33-3.48-.23-6.68-.64-10.05C118.56,77.71,115.9,79.58,113.67,82.27ZM97.84,95.58a23.69,23.69,0,0,1,3.37-8.16c-3.48-.33-6.68.24-10,.64C92.44,89.88,96.05,94.43,97.84,95.58Zm0,2.53a47,47,0,0,0-6.66,7.6c3.42.37,6.62,1,10.08.6A23.25,23.25,0,0,1,97.81,98.11ZM86.14,132.64l4.53,2.66c.49-1.29,0-2.41-1.37-3.2A2.15,2.15,0,0,0,86.14,132.64Zm64.74-14a2.78,2.78,0,0,0-3.39,1.73,1.92,1.92,0,0,0,.74,2.77ZM138.73,61.13l-4.53-2.67a2.52,2.52,0,0,0,1.4,3.22A2.16,2.16,0,0,0,138.73,61.13Zm-48-2.69-4.52,2.67a2,2,0,0,0,2.92.67A2.72,2.72,0,0,0,90.69,58.44Zm60.2,16.71-2.71-4.56a2.13,2.13,0,0,0-.6,3A2.72,2.72,0,0,0,150.89,75.15Zm-12.17,57.49a2.12,2.12,0,0,0-3.08-.58,2.54,2.54,0,0,0-1.44,3.24ZM74,75.11a2.65,2.65,0,0,0,3.35-1.62,1.94,1.94,0,0,0-.72-2.83Zm2.68,48.07a2.2,2.2,0,0,0,.5-3.21c-.79-1.32-1.91-1.82-3.17-1.31C74.9,120.16,75.78,121.64,76.69,123.18ZM119.16,53c-.23,1.45.44,2.31,2,2.64,1.16.24,2.83-.08,3-1.36ZM155,85.12c-1.44.28-1.64,2.44-1.19,3.58a1.91,1.91,0,0,0,2.48,1.4Zm1.3,18.49c-1.42-.25-2.26.4-2.63,1.94-.27,1.15.06,2.92,1.34,3ZM68.56,90.16a2.08,2.08,0,0,0,2.59-1.75c.44-1.53,0-2.73-1.27-3.31Zm37.16,50.59a2.08,2.08,0,0,0-1.75-2.58c-1.53-.44-2.74,0-3.32,1.27Zm-5-86.44c.26,1.42,2.34,1.64,3.49,1.23a2,2,0,0,0,1.5-2.52ZM68.57,103.62l1.31,5.06a2.68,2.68,0,0,0,1.22-3.51A2,2,0,0,0,68.57,103.62Zm50.57,37.13,5.07-1.31c-.54-1.26-1.7-1.7-3.22-1.29A2.12,2.12,0,0,0,119.14,140.75Z"/><path class="cls-2" d="M123,96.9c-.45,1.41-.84,2.85-1.39,4.22a11.66,11.66,0,0,1-1.58,2.82,7.47,7.47,0,0,1-1.94,1.38,16.73,16.73,0,0,1-5.29,1.92,4,4,0,0,1-1.46-.22,15.48,15.48,0,0,1-6-2.62,5.44,5.44,0,0,1-1.25-1.75,17.28,17.28,0,0,1-2-5.5,3.86,3.86,0,0,1,.23-1.39,15.46,15.46,0,0,1,2.61-6,5.88,5.88,0,0,1,1.82-1.3,15.69,15.69,0,0,1,5.43-2,6,6,0,0,1,2.27.4,15.58,15.58,0,0,1,5.09,2.41A5.5,5.5,0,0,1,120.74,91a18.75,18.75,0,0,1,2.1,5.63.82.82,0,0,1,0,.22Zm-1.41.21c0-.27,0-.32,0-.37A23.46,23.46,0,0,0,119,90.55a.61.61,0,0,0-.22-.2,23.27,23.27,0,0,0-6.12-2.53,1,1,0,0,0-.51.05,22.46,22.46,0,0,0-5.84,2.42,1.27,1.27,0,0,0-.42.41,22.81,22.81,0,0,0-2.42,5.84,1.17,1.17,0,0,0,0,.52,23.69,23.69,0,0,0,2.53,6.11.83.83,0,0,0,.27.26,23.36,23.36,0,0,0,6,2.5.86.86,0,0,0,.45,0c1.1-.35,2.22-.65,3.3-1.08,1.85-.75,3.48-1.74,4.15-3.82C120.56,99.64,121.11,98.29,121.55,97.11Z"/><path class="cls-3" d="M219.72,134.41v42.82l-48.42-9c-13.89-2.57-27.81-5.16-41.47-8.79-6.07-1.62-12.38-3.62-16.71-8.16a17.8,17.8,0,0,1-2.12-2.66,19.12,19.12,0,0,1-2.08,2.6c-4.35,4.55-10.66,6.54-16.73,8.16-13.66,3.64-27.56,6.21-41.46,8.8l-5.06,1C31.27,172,14.07,175.88,0,178.57v-44.1q43.77-2.46,87.52-4.91A135.72,135.72,0,0,1,101,70.31s1.58-16.05,3.17-23.9a31.2,31.2,0,0,1,3.22-9.8A2.92,2.92,0,0,1,109.22,35,1.88,1.88,0,0,1,111,36a1.82,1.82,0,0,1,1.76-.88,2.86,2.86,0,0,1,1.84,1.59,31.31,31.31,0,0,1,3.23,9.8c1.59,7.85,3.16,23.9,3.16,23.9a135.62,135.62,0,0,1,13.47,59.25Z"/><path class="cls-4" d="M98.88,151.08,86.79,154.9c-1.29.41-.74,2.44.56,2l12.08-3.82C100.72,152.7,100.17,150.67,98.88,151.08Z"/><path class="cls-4" d="M94.22,150.7a1.06,1.06,0,0,0-1.29-.73l-4.86,1.37a1,1,0,1,0,.55,2L93.49,152A1.05,1.05,0,0,0,94.22,150.7Z"/><path class="cls-4" d="M60.91,134a1.05,1.05,0,0,0,0,2.1A1.05,1.05,0,0,0,60.91,134Z"/><path class="cls-4" d="M66.36,132.15a1.05,1.05,0,0,0,0,2.1A1.05,1.05,0,0,0,66.36,132.15Z"/><path class="cls-4" d="M65.19,136a1.05,1.05,0,0,0,0,2.1A1.05,1.05,0,0,0,65.19,136Z"/><path class="cls-4" d="M133.3,131.28a1.05,1.05,0,0,0,0,2.1A1.05,1.05,0,0,0,133.3,131.28Z"/><path class="cls-4" d="M131.94,135.85a1.05,1.05,0,0,0,0,2.1A1.05,1.05,0,0,0,131.94,135.85Z"/><path class="cls-4" d="M138.56,133.61a1.05,1.05,0,0,0,0,2.1A1.05,1.05,0,0,0,138.56,133.61Z"/><path class="cls-4" d="M177.23,134.17l-13.42-.68c-1.36-.07-1.35,2,0,2.1l13.42.68C178.59,136.34,178.58,134.24,177.23,134.17Z"/><path class="cls-4" d="M174.6,137l-7.3-.51a1.05,1.05,0,1,0,0,2.1l7.3.51a1.06,1.06,0,0,0,1.05-1A1.07,1.07,0,0,0,174.6,137Z"/><path class="cls-5" d="M109.14,60.79a2.29,2.29,0,0,0-.72-1.68,1.21,1.21,0,0,0-1.54.12,3.68,3.68,0,0,0-.81,1.31,23.27,23.27,0,0,0-1.2,4.13c-.1.68-.18,1.37-.23,2.06a3.28,3.28,0,0,0,.4,2,1.14,1.14,0,0,0,1.41.53,2.41,2.41,0,0,0,1-1.3,21.38,21.38,0,0,0,1.16-3.55c.14-.61.26-1.23.35-1.86A7.61,7.61,0,0,0,109.14,60.79Z"/><path class="cls-5" d="M110.48,44.28a2.22,2.22,0,0,0-.44-1.77,1.19,1.19,0,0,0-1.54-.13,3.45,3.45,0,0,0-1,1.16,22.76,22.76,0,0,0-1.85,3.88c-.21.65-.4,1.32-.56,2a3.24,3.24,0,0,0,.08,2,1.13,1.13,0,0,0,1.31.76A2.42,2.42,0,0,0,107.7,51a22.12,22.12,0,0,0,1.72-3.32c.24-.58.45-1.17.65-1.78A7.9,7.9,0,0,0,110.48,44.28Z"/><path class="cls-5" d="M110.14,36.4a1.82,1.82,0,0,0-.26-1.47,1,1,0,0,0-1.24-.19,2.8,2.8,0,0,0-.89.89A18.37,18.37,0,0,0,106,38.69c-.21.52-.41,1.06-.57,1.6a2.58,2.58,0,0,0,0,1.62.92.92,0,0,0,1,.69,2,2,0,0,0,1.06-.84,18,18,0,0,0,1.59-2.61c.23-.46.45-.93.64-1.41A6.34,6.34,0,0,0,110.14,36.4Z"/><path class="cls-5" d="M113.46,61.6a2.26,2.26,0,0,1,.72-1.67,1.19,1.19,0,0,1,1.54.12,3.28,3.28,0,0,1,.81,1.31,23.09,23.09,0,0,1,1.2,4.12c.11.68.18,1.37.23,2.07a3.24,3.24,0,0,1-.39,1.94,1.13,1.13,0,0,1-1.42.53,2.29,2.29,0,0,1-1-1.29A20.9,20.9,0,0,1,114,65.17c-.14-.61-.26-1.23-.35-1.86A8.84,8.84,0,0,1,113.46,61.6Z"/><path class="cls-5" d="M112.12,45.09a2.23,2.23,0,0,1,.44-1.77,1.19,1.19,0,0,1,1.54-.13,3.4,3.4,0,0,1,1,1.17A21.82,21.82,0,0,1,117,48.23a20.52,20.52,0,0,1,.56,2,3.28,3.28,0,0,1-.07,2,1.14,1.14,0,0,1-1.31.75,2.36,2.36,0,0,1-1.22-1.11,20.93,20.93,0,0,1-1.72-3.33,18.76,18.76,0,0,1-.65-1.77A8,8,0,0,1,112.12,45.09Z"/><path class="cls-5" d="M112.46,37.22a1.81,1.81,0,0,1,.26-1.47,1,1,0,0,1,1.24-.2,2.74,2.74,0,0,1,.89.9,17.75,17.75,0,0,1,1.73,3,15.22,15.22,0,0,1,.57,1.6,2.65,2.65,0,0,1,.06,1.62.92.92,0,0,1-1,.69,1.94,1.94,0,0,1-1.06-.83A17.56,17.56,0,0,1,113.53,40q-.34-.69-.63-1.41A7.15,7.15,0,0,1,112.46,37.22Z"/><path class="cls-4" d="M119,68.62c-.36-2.15-.71-4.31-1.07-6.47-.26-1.52-.62-3.27-2.29-3.82-1.4-.47-2.51.29-3.36,1.48q-.22-8.31-.43-16.61a9.25,9.25,0,0,1,5.59,6.94,1.06,1.06,0,0,0,1.29.73,1.08,1.08,0,0,0,.74-1.29,11.36,11.36,0,0,0-7.68-8.65c0-1.31-.07-2.62-.1-3.93s-2.14-1.35-2.1,0l.1,3.83a15.75,15.75,0,0,0-6.81,9.47,1,1,0,0,0,2,.55,13.73,13.73,0,0,1,4.85-7.51l.41,15.75a2.73,2.73,0,0,0-1.41-.78c-1.72-.35-3,1-3.63,2.46-1.92,4.19-2.24,9-2.86,13.55q-1.2,8.78-2.41,17.56c-.18,1.32,1.84,1.89,2,.56l1.81-13.17c.58-4.2,1-8.45,1.84-12.6a17.4,17.4,0,0,1,1.74-5.47c1.54-2.51,2.41,1.77,2.61,2.87.76,4.2.46,8.59.45,12.83,0,5,.19,15.68.48,15.83a91.34,91.34,0,0,1-.41,54.11c-.41,1.29,1.62,1.84,2,.56A93.35,93.35,0,0,0,112.79,92c-.08-.24-.36-10.57-.35-15.59a98.73,98.73,0,0,0-.19-10.6s0,0,0-.05a11.19,11.19,0,0,1,1.62-4.41c.15-.22.56-.93.86-1,.48-.09.81.61.91.95a20.41,20.41,0,0,1,.43,2.46q.89,5.3,1.76,10.61l3.48,21c.22,1.33,2.24.77,2-.56Q121.19,81.71,119,68.62Z"/></svg>