<svg id="OBJECTS" xmlns="http://www.w3.org/2000/svg" viewBox="0 0 183.22 424.79"><defs><style>.cls-1{fill:#34343f;}.cls-2{fill:#292935;}.cls-3{fill:#fff;}.cls-4{fill:#dda292;}.cls-5{fill:#debfb5;}.cls-6{fill:#5a847c;}.cls-7{fill:#80b7ac;}</style></defs><path class="cls-1" d="M180.49,0V237.4c-.36,3.36-.39,6.78-.75,10.14-.62,5.62-2.58,11.66-7.41,14.62-6.28,3.84-14.82,1-21.45,4.24-11.39,5.47-10.42,24.45-21.85,29.84a14.77,14.77,0,0,1-6.38,1.33,31,31,0,0,1-10.52-2.22c-5.43-2-10.81-4.71-16.61-4.83-6.54-.13-12.63,3-18.76,5.3a32.55,32.55,0,0,1-11.09,2.33,15.07,15.07,0,0,1-7.87-2C49.25,291,48.66,277.57,40,272.72,31.53,268,19.56,273.8,12,267.83,5.59,262.75,6.79,252.89,4.43,245A21.92,21.92,0,0,0,2.73,241V0Z"/><path class="cls-2" d="M180.49,0V89.67a31.12,31.12,0,0,1-4.82,5.18c-8.16,7-19.89,10.2-25.14,19.55-5,8.88-2.23,19.88,0,29.82s3.26,21.75-3.91,29c-6.7,6.76-17.65,6.5-26.09,10.88-7.67,4-12.74,11.46-18.78,17.63s-14.66,11.42-22.94,9c-11.66-3.46-14.86-19.37-25.51-25.26-7.2-4-16.66-2.67-23.36-7.44-4.83-3.44-7.2-9.36-8.51-15.14s-1.83-11.78-4.09-17.25a29.26,29.26,0,0,0-14.59-15V0Z"/><path class="cls-3" d="M173.29,407.26H9.93c.22-5.86.84-31.74,2.75-37.28,2.09-6,5.88-11.68,11.38-15,6.48-3.86,14.42-4,22-4.37s15.59-1.21,21.38-6.06c5-4.17,7.43-10.66,8.49-17.06,1-6.1.94-12.31,1.69-18.44-10.13-6.19-13-18.9-13.82-26.84a14.55,14.55,0,0,1-8.18-13.83,7.72,7.72,0,0,1,1.8-4.79A5.26,5.26,0,0,1,61.59,262,5.19,5.19,0,0,1,65,263.71c1.44-3.73,5-6.44,8.58-8.26,4.25-2.13,8.89-3.41,13.13-5.56a25.07,25.07,0,0,0,4.9-3.21,24.7,24.7,0,0,0,4.91,3.21c4.25,2.16,8.88,3.44,13.13,5.57,3.64,1.82,7.15,4.53,8.57,8.27a5.19,5.19,0,0,1,7.64-.08,7.71,7.71,0,0,1,1.79,4.79,14.58,14.58,0,0,1-8.17,13.83c-.8,7.94-3.7,20.63-13.82,26.84.74,6.12.67,12.34,1.68,18.44,1.06,6.4,3.51,12.89,8.49,17.06,5.79,4.84,13.84,5.71,21.38,6.06s15.48.51,22,4.37c5.49,3.27,9.28,8.91,11.37,14.95C172.46,375.52,173.08,401.4,173.29,407.26Z"/><path class="cls-3" d="M30,261.31a1.5,1.5,0,0,0,0,3A1.5,1.5,0,0,0,30,261.31Z"/><path class="cls-3" d="M45.18,266.31a1.5,1.5,0,0,0,0,3A1.5,1.5,0,0,0,45.18,266.31Z"/><path class="cls-3" d="M43.37,254.77a1.5,1.5,0,0,0,0,3A1.5,1.5,0,0,0,43.37,254.77Z"/><path class="cls-3" d="M149.07,293.12a1.5,1.5,0,0,0,0,3A1.5,1.5,0,0,0,149.07,293.12Z"/><path class="cls-3" d="M157.68,288.11a1.5,1.5,0,0,0,0,3A1.5,1.5,0,0,0,157.68,288.11Z"/><path class="cls-3" d="M149.76,276.58a1.5,1.5,0,0,0,0,3A1.5,1.5,0,0,0,149.76,276.58Z"/><path class="cls-3" d="M159.41,194a1.5,1.5,0,0,0,0,3A1.5,1.5,0,0,0,159.41,194Z"/><path class="cls-3" d="M152.18,188.61a1.5,1.5,0,0,0,0,3A1.5,1.5,0,0,0,152.18,188.61Z"/><path class="cls-3" d="M166.63,177.49a1.5,1.5,0,0,0,0,3A1.5,1.5,0,0,0,166.63,177.49Z"/><path class="cls-3" d="M20.77,192.43a1.5,1.5,0,0,0,0,3A1.5,1.5,0,0,0,20.77,192.43Z"/><path class="cls-3" d="M21.7,173a1.5,1.5,0,0,0,0,3A1.5,1.5,0,0,0,21.7,173Z"/><path class="cls-3" d="M28.37,187.24a1.5,1.5,0,0,0,0,3A1.5,1.5,0,0,0,28.37,187.24Z"/><path class="cls-3" d="M167.75,194.49a1,1,0,0,0,0,2A1,1,0,0,0,167.75,194.49Z"/><path class="cls-3" d="M157.92,179.48a1,1,0,0,0,0,2A1,1,0,0,0,157.92,179.48Z"/><path class="cls-3" d="M28.37,199.05a1,1,0,0,0,0,2A1,1,0,0,0,28.37,199.05Z"/><path class="cls-3" d="M32.08,207.76a1,1,0,0,0,0,2A1,1,0,0,0,32.08,207.76Z"/><path class="cls-3" d="M20.4,216.47a1,1,0,0,0,0,2A1,1,0,0,0,20.4,216.47Z"/><path class="cls-3" d="M33.74,254.76a1,1,0,0,0,0,2A1,1,0,0,0,33.74,254.76Z"/><path class="cls-3" d="M37.81,262.55a1,1,0,0,0,0,2A1,1,0,0,0,37.81,262.55Z"/><path class="cls-3" d="M52.27,254.58a1,1,0,0,0,0,2A1,1,0,0,0,52.27,254.58Z"/><path class="cls-3" d="M159.72,280.41a1,1,0,0,0,0,2A1,1,0,0,0,159.72,280.41Z"/><path class="cls-3" d="M162.5,269.66a1,1,0,0,0,0,2A1,1,0,0,0,162.5,269.66Z"/><path class="cls-3" d="M154.16,267.81a1,1,0,0,0,0,2A1,1,0,0,0,154.16,267.81Z"/><path class="cls-3" d="M144,286.71a1,1,0,0,0,0,2A1,1,0,0,0,144,286.71Z"/><path class="cls-4" d="M91.61,272a23.49,23.49,0,1,1,23.49-23.48A23.51,23.51,0,0,1,91.61,272Zm0-46.07a22.59,22.59,0,1,0,22.58,22.59A22.61,22.61,0,0,0,91.61,226Z"/><path class="cls-4" d="M91.61,272.48a23.95,23.95,0,1,1,23.94-23.94A24,24,0,0,1,91.61,272.48Zm-23-23.94a23,23,0,0,0,46.07,0,23,23,0,0,1-46.07,0Zm23-22.13a22.13,22.13,0,1,0,22.13,22.13A22.15,22.15,0,0,0,91.61,226.41Z"/><path class="cls-4" d="M91.61,266.35a17.82,17.82,0,1,1,17.81-17.81A17.83,17.83,0,0,1,91.61,266.35Zm0-34.72a16.91,16.91,0,1,0,16.91,16.91A16.92,16.92,0,0,0,91.61,231.63Z"/><path class="cls-4" d="M91.61,266.8a18.27,18.27,0,1,1,18.27-18.26A18.29,18.29,0,0,1,91.61,266.8ZM74.25,248.54a17.36,17.36,0,0,0,34.72,0,17.36,17.36,0,0,1-34.72,0Zm17.36-16.46a16.46,16.46,0,1,0,16.45,16.46A16.47,16.47,0,0,0,91.61,232.08Z"/><path class="cls-4" d="M91.61,260.05a11.51,11.51,0,1,1,11.51-11.51A11.53,11.53,0,0,1,91.61,260.05Zm0-22.12a10.61,10.61,0,1,0,10.6,10.61A10.62,10.62,0,0,0,91.61,237.93Z"/><path class="cls-4" d="M91.61,260.5a12,12,0,1,1,12-12A12,12,0,0,1,91.61,260.5Zm-11.06-12a11.06,11.06,0,0,0,22.11,0,11.06,11.06,0,0,1-22.11,0Zm11.06-10.16a10.16,10.16,0,1,0,10.15,10.16A10.17,10.17,0,0,0,91.61,238.38Z"/><path class="cls-4" d="M91.61,253.21a4.67,4.67,0,1,1,4.67-4.67A4.68,4.68,0,0,1,91.61,253.21Zm0-8.44a3.77,3.77,0,1,0,3.76,3.77A3.77,3.77,0,0,0,91.61,244.77Z"/><path class="cls-4" d="M91.61,253.66a5.13,5.13,0,1,1,5.12-5.12A5.13,5.13,0,0,1,91.61,253.66Zm-4.22-5.12a4.22,4.22,0,0,0,8.43,0,4.22,4.22,0,0,1-8.43,0Zm4.22-3.32a3.32,3.32,0,1,0,3.31,3.32A3.32,3.32,0,0,0,91.61,245.22Z"/><path class="cls-2" d="M84.43,272.35a1,1,0,0,0-1.34-.45,15.72,15.72,0,0,1-12.64-1c-1.12-.61-2.25,1-1.12,1.66A18,18,0,0,0,84,273.69,1,1,0,0,0,84.43,272.35Z"/><path class="cls-2" d="M96.05,290.48l-6.14.11,1-19.94c.06-1.28-1.94-1.28-2,0l-1.1,20.86a.84.84,0,0,0,.37.78,1,1,0,0,0,.72.31l7.1-.12a1,1,0,0,0,1-1A1,1,0,0,0,96.05,290.48Z"/><path class="cls-2" d="M99.46,297.71a12.11,12.11,0,0,1-14.07.16c-1.06-.74-2.07,1-1,1.72a14,14,0,0,0,16.09-.16C101.5,298.69,100.5,297,99.46,297.71Z"/><path class="cls-2" d="M81.51,264.21A18,18,0,0,0,71,265.4a1,1,0,0,0-.36,1.36,1,1,0,0,0,1.37.36,15.58,15.58,0,0,1,9-1,1,1,0,0,0,1.23-.7A1,1,0,0,0,81.51,264.21Z"/><path class="cls-2" d="M96.46,272.34a1,1,0,0,1,1.34-.45,15.72,15.72,0,0,0,12.64-1c1.12-.62,2.25,1,1.12,1.66a17.92,17.92,0,0,1-14.65,1.16A1,1,0,0,1,96.46,272.34Z"/><path class="cls-2" d="M99.38,264.21a17.88,17.88,0,0,1,10.51,1.18,1,1,0,0,1,.36,1.37,1,1,0,0,1-1.37.36,15.58,15.58,0,0,0-9-1,1,1,0,1,1-.53-1.92Z"/><circle class="cls-5" cx="74.47" cy="291.07" r="7.78"/><circle class="cls-5" cx="108.75" cy="291.07" r="7.78"/><path class="cls-6" d="M93.55,422.32c-35.21-40.13-.72-79.69-.72-79.69S128,381.57,93.55,422.32Z"/><path class="cls-7" d="M102.83,378.74c.3-.49-.47-.93-.77-.44l-7.93,13.18L93.83,372l6.9-9.86c.33-.46-.44-.9-.77-.44l-6.15,8.8-.09-5.83-.24-15.44a.44.44,0,0,0-.88,0l.33,21.8-6.32-10.91a.44.44,0,0,0-.76.46l6.84,11.8a.38.38,0,0,0,.27.2l.06,4q.11,7.54.23,15.09L83.61,377.7c-.32-.47-1.08,0-.76.45L93.15,393l.12.12c0,3.51.11,7,.16,10.52l.11,7.17q-4.35-6-8.69-12c-.33-.45-1.09,0-.76.46l9,12.49a.42.42,0,0,0,.23.16.47.47,0,0,0,.21.21c0,2.33.07,4.65.11,7a.44.44,0,0,0,.88,0l-.12-7.64q3.84-6.66,7.66-13.34a.44.44,0,0,0-.77-.44l-6.91,12.05q-.14-8.31-.26-16.61l0,0Z"/><path class="cls-6" d="M107,418.89c28.59-45.09,76.27-23.13,76.27-23.13S155.76,440.51,107,418.89Z"/><path class="cls-7" d="M151.38,415.53a.44.44,0,0,0,.2-.86l-14.87-3.91L155.36,405l11.4,3.84c.54.18.74-.68.21-.86l-10.18-3.43,5.57-1.73,14.75-4.57a.44.44,0,0,0-.25-.85L156,403.84l8.69-9.14c.4-.41-.25-1-.64-.6L154.66,404a.45.45,0,0,0-.12.31l-3.82,1.19L136.31,410,147,396.79c.35-.44-.29-1-.65-.6l-11.39,14.07a.55.55,0,0,0-.08.15l-10,3.12L118,415.65,127,403.93c.34-.45-.3-1.05-.65-.6l-9.45,12.18a.42.42,0,0,0-.09.27.51.51,0,0,0-.14.26l-6.66,2.06a.44.44,0,0,0,.26.85l7.3-2.27,15,3.59a.44.44,0,0,0,.21-.86l-13.51-3.24,15.87-4.92,0,0Z"/><path class="cls-4" d="M175.51,367a30.49,30.49,0,0,1-2.56,3.87,46.58,46.58,0,0,1-3,3.7,51.16,51.16,0,0,1-6.7,6.21q-1.29,1.9-2.7,3.73a16.32,16.32,0,0,1,6.37-.61,16.51,16.51,0,0,1,3.53.78,7,7,0,0,1,3,1.66,2.66,2.66,0,0,1,.56,2.82,2.59,2.59,0,0,1-2.18,1.35,11.5,11.5,0,0,1-3.3-.33,29.68,29.68,0,0,1-9.57-3.69,64.73,64.73,0,0,1-7.24,7.29,18.14,18.14,0,0,1,5.83.37,17.6,17.6,0,0,1,3.41,1.17,5.81,5.81,0,0,1,2.56,2,2.28,2.28,0,0,1-.1,2.72,3.4,3.4,0,0,1-2.8,1.05,16.6,16.6,0,0,1-6.55-1.93,20.36,20.36,0,0,1-4.77-3.36,63.72,63.72,0,0,1-9.22,6.06l-.08,0a17.11,17.11,0,0,1,8.5,2.55,8.24,8.24,0,0,1,2.56,2.13,2.68,2.68,0,0,1,.36,2.69,2.27,2.27,0,0,1-2.24,1.17A7.87,7.87,0,0,1,146,409.4a28.33,28.33,0,0,1-3-1.69,28.71,28.71,0,0,1-5.35-4.54l-.06-.06a65.47,65.47,0,0,1-11,4.16,15.47,15.47,0,0,1,5.22,2.05,14.82,14.82,0,0,1,4.85,4.86c.62,1,1.11,2.31.32,3.37s-2.23.61-3.26.14A20.3,20.3,0,0,1,124,408a65.72,65.72,0,0,1-9.43,1.54c-.57,0-.72-.83-.15-.88a64.54,64.54,0,0,0,9-1.43,23.5,23.5,0,0,1,1.17-9,22.48,22.48,0,0,1,3.88-7.21c.71-.86,1.84-1.89,3.08-1.57A2.16,2.16,0,0,1,133,392a16,16,0,0,1-1.38,4c-.59,1.4-1.23,2.76-1.93,4.1a54.77,54.77,0,0,1-4.12,6.6c1.16-.31,2.33-.65,3.49-1a64.72,64.72,0,0,0,8.37-3.42,26.21,26.21,0,0,1,.22-8.43,26.49,26.49,0,0,1,1.07-3.9,9.54,9.54,0,0,1,1.76-3.37,2.59,2.59,0,0,1,2.79-.89,2.92,2.92,0,0,1,1.73,2.41,8.88,8.88,0,0,1-.81,3.85c-.46,1.26-1,2.51-1.56,3.72a43.5,43.5,0,0,1-3.16,5.56,64.67,64.67,0,0,0,9.22-6,.37.37,0,0,1,.09-.54,32.07,32.07,0,0,1-.84-8.68,32.4,32.4,0,0,1,.44-4,8.29,8.29,0,0,1,1.1-3.44,2.19,2.19,0,0,1,4.12,1.1,12.66,12.66,0,0,1-.29,3.41c-.21,1.29-.47,2.58-.76,3.87a56.07,56.07,0,0,1-2.08,6.88l.64-.52a66,66,0,0,0,7.11-7.18.42.42,0,0,1,.12-.65,28.33,28.33,0,0,1-2-7.18,28,28,0,0,1-.26-3.54,12.21,12.21,0,0,1,.25-3.36,2.51,2.51,0,0,1,1.8-1.88,2,2,0,0,1,2.07,1.12,6.25,6.25,0,0,1,.21,3.38c-.09,1.28-.2,2.56-.29,3.84-.16,2.18-.34,4.35-.5,6.52.94-1.17,1.82-2.4,2.67-3.64a.42.42,0,0,1,.16-.34,1,1,0,0,0,.16-.12c.39-.58.78-1.18,1.15-1.78a30.21,30.21,0,0,1,5.29-12.36,10.26,10.26,0,0,1,3.09-3.23,2.79,2.79,0,0,1,3.32.36C176.44,364.28,176.13,365.86,175.51,367Z"/><path class="cls-7" d="M125.75,413c-2.63,2.27-6,2.71-9.35,3.19S105,418.05,103,421.07c-.45.7-1.13.33-.8-.43a4.41,4.41,0,0,0,.31-1.77,9,9,0,0,0-.17-1.8.45.45,0,0,0,0-.08c-.66-3.67-2.93-8.31-4-10.49-1.42-3-2.92-6.11-2.48-9.56a7,7,0,0,1,1.93-4.14,8.7,8.7,0,0,1,4-1.89c1.57-.42,3.18-.88,4.15-2.3a9.21,9.21,0,0,0,1.14-5.24c0-3.26-.58-7.44,2.37-9.72,2.19-1.69,5.14-1,7.7-1.11a6,6,0,0,0,4-1.33,8.54,8.54,0,0,0,2.38-4.4c.46-1.81.6-3.68,1-5.51a12.18,12.18,0,0,1,2.11-4.54,11.42,11.42,0,0,1,8.14-4.42,10.72,10.72,0,0,1,1.88,0h0a5.37,5.37,0,0,1,3.68,2h0a9.57,9.57,0,0,1,1.06,1.54,11.37,11.37,0,0,1,.8,9.23,12,12,0,0,1-2.63,4.26c-1.28,1.37-2.76,2.52-4,3.9a8.7,8.7,0,0,0-2.36,4.41,6.06,6.06,0,0,0,1.12,4.11c1.36,2.17,3.52,4.27,3.31,7-.27,3.72-4.07,5.55-6.8,7.34a9.08,9.08,0,0,0-3.75,3.84c-.65,1.58-.14,3.18.37,4.72a8.72,8.72,0,0,1,.62,4.36A7,7,0,0,1,125.75,413Z"/><path class="cls-6" d="M121.65,404c.52-.23,0-1-.46-.75l-12.41,5.62,8-15.17c.58-1.08,1.15-2.16,1.72-3.24l11.86-6.28c.51-.27,0-1-.46-.76L119.28,389q4.66-8.79,9.32-17.58,3.32-6.24,6.62-12.47a.44.44,0,0,0-.78-.42l-11.78,22.21-4.43,8.35,0-12.29c0-.57-.88-.54-.88,0l0,13.8a.24.24,0,0,0,0,.09L110.87,403l-2.94,5.55q-.37-6.81-.77-13.61a.44.44,0,0,0-.88,0q.41,7.28.82,14.55a.44.44,0,0,0,.15.31q-1.48,2.82-3,5.64a.44.44,0,0,0,.78.42l3.07-5.79h0Z"/><path class="cls-6" d="M76.27,417.22C47.68,372.13,0,394.09,0,394.09S27.45,438.83,76.27,417.22Z"/><path class="cls-7" d="M31.84,413.85a.44.44,0,0,1-.21-.86l14.88-3.9L27.86,403.3l-11.41,3.85c-.54.18-.74-.68-.2-.86l10.17-3.43-5.57-1.73L6.1,396.56a.44.44,0,0,1,.26-.85l20.83,6.46L18.5,393c-.39-.41.26-1,.65-.6l9.4,9.89a.38.38,0,0,1,.12.31l3.82,1.18,14.42,4.47q-5.34-6.57-10.66-13.16c-.36-.44.29-1.05.65-.6l11.39,14.07a.55.55,0,0,1,.08.15l10,3.11L65.27,414l-9.09-11.73c-.35-.44.3-1.05.65-.6l9.44,12.19a.41.41,0,0,1,.09.26.46.46,0,0,1,.15.26l6.65,2.07a.44.44,0,0,1-.25.84L65.61,415l-15,3.59a.44.44,0,0,1-.2-.86L64,414.5l-15.87-4.92a.05.05,0,0,0,0,0Z"/><path class="cls-4" d="M7.71,365.37a29.12,29.12,0,0,0,2.56,3.87q1.41,1.92,3,3.69a49.94,49.94,0,0,0,6.7,6.22c.86,1.27,1.75,2.51,2.69,3.72a16.32,16.32,0,0,0-9.9.17,6.84,6.84,0,0,0-3,1.67,2.65,2.65,0,0,0-.56,2.82,2.55,2.55,0,0,0,2.17,1.34,11.23,11.23,0,0,0,3.31-.33,29,29,0,0,0,3.55-.93,30.26,30.26,0,0,0,6-2.76,64.82,64.82,0,0,0,7.24,7.3,18.08,18.08,0,0,0-5.82.37,17.26,17.26,0,0,0-3.42,1.17,5.82,5.82,0,0,0-2.55,2,2.28,2.28,0,0,0,.09,2.72,3.39,3.39,0,0,0,2.81,1.06,16.55,16.55,0,0,0,6.54-1.93,20.44,20.44,0,0,0,4.77-3.36,65.43,65.43,0,0,0,9.22,6.06l.09,0a17.17,17.17,0,0,0-8.5,2.54,8.31,8.31,0,0,0-2.57,2.14,2.7,2.7,0,0,0-.35,2.69,2.27,2.27,0,0,0,2.24,1.17,8.08,8.08,0,0,0,3.17-1,30.22,30.22,0,0,0,3-1.69,28.39,28.39,0,0,0,5.35-4.55l0-.05a66.35,66.35,0,0,0,11,4.16,15.66,15.66,0,0,0-5.22,2,15,15,0,0,0-4.85,4.87c-.62,1-1.1,2.31-.32,3.37s2.23.61,3.27.13a20.28,20.28,0,0,0,9.75-9.72,65.25,65.25,0,0,0,9.43,1.53c.56.05.71-.83.15-.87a64.08,64.08,0,0,1-9.05-1.43,23.74,23.74,0,0,0-1.17-9,22.83,22.83,0,0,0-3.88-7.2c-.72-.87-1.85-1.89-3.08-1.57a2.14,2.14,0,0,0-1.36,2.55,15.31,15.31,0,0,0,1.38,4c.58,1.39,1.23,2.75,1.93,4.09A54.89,54.89,0,0,0,57.68,405c-1.17-.31-2.34-.66-3.49-1a65.57,65.57,0,0,1-8.37-3.42,26.56,26.56,0,0,0-.22-8.44,27.29,27.29,0,0,0-1.07-3.89,9.64,9.64,0,0,0-1.77-3.37A2.59,2.59,0,0,0,40,384a2.93,2.93,0,0,0-1.73,2.42,8.53,8.53,0,0,0,.81,3.84A39.09,39.09,0,0,0,40.61,394a44.27,44.27,0,0,0,3.17,5.56,65,65,0,0,1-9.22-6,.38.38,0,0,0-.1-.55,32,32,0,0,0,.85-8.67,32.21,32.21,0,0,0-.45-4,8.23,8.23,0,0,0-1.09-3.44,2.46,2.46,0,0,0-2.66-1,2.43,2.43,0,0,0-1.46,2.14,12.66,12.66,0,0,0,.29,3.41c.21,1.29.46,2.58.76,3.86a56.73,56.73,0,0,0,2.07,6.88c-.21-.18-.42-.34-.64-.51a66,66,0,0,1-7.1-7.19.42.42,0,0,0-.13-.64,28.46,28.46,0,0,0,2-7.18,30.1,30.1,0,0,0,.26-3.54,12.22,12.22,0,0,0-.26-3.36,2.47,2.47,0,0,0-1.79-1.88A2,2,0,0,0,23,368.89a6.21,6.21,0,0,0-.21,3.37c.09,1.28.19,2.57.28,3.85.17,2.17.34,4.35.5,6.52-.93-1.18-1.82-2.41-2.67-3.65a.4.4,0,0,0-.16-.33l-.15-.13c-.4-.58-.78-1.17-1.15-1.77a30.72,30.72,0,0,0-2.94-8.55,31.05,31.05,0,0,0-2.35-3.82,10,10,0,0,0-3.1-3.22,2.76,2.76,0,0,0-3.31.36C6.77,362.61,7.09,364.19,7.71,365.37Z"/><path class="cls-7" d="M57.46,411.35c2.63,2.27,6,2.72,9.35,3.19s11.44,1.84,13.42,4.86c.46.69,1.13.33.8-.44a4.33,4.33,0,0,1-.3-1.76,9,9,0,0,1,.17-1.81.24.24,0,0,1,0-.08c.65-3.67,2.93-8.3,4-10.48,1.43-3,2.93-6.12,2.48-9.56a7,7,0,0,0-1.93-4.15,8.6,8.6,0,0,0-4-1.88c-1.58-.42-3.19-.88-4.15-2.3a9.08,9.08,0,0,1-1.14-5.24c0-3.27.58-7.44-2.37-9.72-2.2-1.69-5.14-1.05-7.7-1.11a6,6,0,0,1-4-1.33,8.67,8.67,0,0,1-2.39-4.4c-.45-1.82-.6-3.69-1-5.51a12,12,0,0,0-2.11-4.54,11.35,11.35,0,0,0-8.14-4.42,9.85,9.85,0,0,0-1.88,0h0a5.42,5.42,0,0,0-3.69,2v0h0a10.35,10.35,0,0,0-1.06,1.55,11.41,11.41,0,0,0-.79,9.23,11.81,11.81,0,0,0,2.63,4.25c1.28,1.37,2.76,2.52,4,3.9a8.54,8.54,0,0,1,2.36,4.42,6.08,6.08,0,0,1-1.11,4.1c-1.37,2.17-3.52,4.27-3.32,7,.28,3.72,4.07,5.55,6.81,7.33a9.22,9.22,0,0,1,3.74,3.84c.66,1.59.15,3.19-.37,4.73a8.7,8.7,0,0,0-.61,4.36A7,7,0,0,0,57.46,411.35Z"/><path class="cls-6" d="M61.57,402.29c-.52-.23,0-1,.46-.76l12.41,5.63-8-15.17-1.72-3.25-11.86-6.27c-.5-.27,0-1,.46-.76l10.66,5.64q-4.65-8.79-9.32-17.58L48,357.3a.44.44,0,0,1,.77-.42L60.56,379.1,65,387.44l0-12.29c0-.56.89-.53.88,0l0,13.8s0,.05,0,.08l6.49,12.25,2.94,5.54q.39-6.8.77-13.6a.45.45,0,0,1,.89,0q-.42,7.26-.83,14.54a.37.37,0,0,1-.15.31l3,5.65a.44.44,0,0,1-.78.42l-3.08-5.8h0Z"/></svg>