<svg id="OBJECTS" xmlns="http://www.w3.org/2000/svg" viewBox="0 0 45.14 44.97"><defs><style>.cls-1{fill:#bfd1db;}.cls-2{fill:#325d5c;}.cls-3{fill:#a7b8b3;}.cls-4{fill:#eebfac;}.cls-5{fill:#bc634e;}</style></defs><path class="cls-1" d="M31.23,38.9C17.06,31.74,10,21.61,6.47,14.37A42.35,42.35,0,0,1,2.28.2l.5,0c0,.25,1.82,24.72,28.68,38.29Z"/><path class="cls-2" d="M30.21,38.37l7.92,4.4S37.25,36.61,30.21,38.37Z"/><path class="cls-1" d="M25.76,41.44C23,39,19.12,31.14,19,30.81l-.2-.4.45,0a27,27,0,0,0,10.17-.58l.14.48a27.06,27.06,0,0,1-9.91.64c.84,1.66,4.12,8,6.49,10.08Z"/><polygon class="cls-1" points="13.28 32.03 12.78 32 13.23 24.42 22.87 25.17 22.83 25.67 13.7 24.96 13.28 32.03"/><polygon class="cls-1" points="6.67 23.29 6.19 23.15 8.03 17.06 18.19 18.14 18.13 18.63 8.39 17.6 6.67 23.29"/><rect class="cls-1" x="-1.12" y="10.36" width="7.28" height="0.5" transform="translate(-8.26 8.95) rotate(-67.84)"/><path class="cls-2" d="M25.39,40.56s.09,3.75,3.37,4.41C28.76,45,29.28,42.06,25.39,40.56Z"/><path class="cls-2" d="M28.34,30.33a6,6,0,0,1,5.35-.94S32.94,31.64,28.34,30.33Z"/><path class="cls-2" d="M21.7,25.64s2.72-2.88,5.17.26Z"/><path class="cls-2" d="M17.74,18l3.94.47a3.17,3.17,0,0,1-2.54.94C17.64,19.25,17.74,18,17.74,18Z"/><path class="cls-2" d="M6.47,22.58a4.36,4.36,0,0,0-.75,5.35S8,25.3,6.47,22.58Z"/><path class="cls-2" d="M13,31.22s-1.5,3,.56,4.5C13.56,35.72,14.87,33.85,13,31.22Z"/><path class="cls-2" d="M1.31,13.43A3.87,3.87,0,0,0,.37,18S2.91,16,1.31,13.43Z"/><path class="cls-3" d="M30.88,15.92C22.74,12.73,16.25,7,13.1.21L13.55,0C16.65,6.68,23,12.31,31.06,15.45Z"/><circle class="cls-4" cx="37.54" cy="19.25" r="7.6"/><path class="cls-5" d="M37.54,25.23c-3,0-4.41-2.07-4.41-6.31A5.53,5.53,0,0,1,39,13.18c3.4,0,5.6,2.26,5.6,5.74S40.78,25.23,37.54,25.23ZM39,13.68a5,5,0,0,0-5.32,5.24c0,4,1.24,5.81,3.91,5.81,3,0,6.51-2.54,6.51-5.81S42,13.68,39,13.68Z"/></svg>