<?xml version="1.0" encoding="utf-8"?>
<!-- Generator: Adobe Illustrator 25.2.1, SVG Export Plug-In . SVG Version: 6.00 Build 0)  -->
<svg version="1.1" id="OBJECTS" xmlns="http://www.w3.org/2000/svg" xmlns:xlink="http://www.w3.org/1999/xlink" x="0px" y="0px"
	 viewBox="0 0 111.9 33.8" style="enable-background:new 0 0 111.9 33.8;" xml:space="preserve">
<style type="text/css">
	.st0{fill:#1FC7C6;}
</style>
<path class="st0" d="M111.9,9c-5.8,0-8.7-2.1-11.5-4.1S94.9,1,89.5,1s-8.1,1.9-10.9,3.9S72.9,9,67.1,9s-8.7-2.1-11.5-4.1
	S50.2,1,44.8,1s-8.1,1.9-10.9,3.9S28.1,9,22.4,9s-8.7-2.1-11.5-4.1S5.4,1,0,1V0c5.8,0,8.7,2.1,11.5,4.1S16.9,8,22.4,8
	s8.1-1.9,10.9-3.9S39,0,44.8,0s8.7,2.1,11.5,4.1S61.7,8,67.1,8S75.2,6.1,78,4.1S83.7,0,89.5,0s8.7,2.1,11.5,4.1S106.4,8,111.9,8V9z"
	/>
<path class="st0" d="M111.9,21.4c-5.8,0-8.7-2.1-11.5-4.1s-5.5-3.9-10.9-3.9s-8.1,1.9-10.9,3.9s-5.7,4.1-11.5,4.1s-8.7-2.1-11.5-4.1
	s-5.5-3.9-10.9-3.9s-8.1,1.9-10.9,3.9s-5.7,4.1-11.5,4.1s-8.7-2.1-11.5-4.1S5.4,13.4,0,13.4v-1c5.8,0,8.7,2.1,11.5,4.1
	s5.5,3.9,10.9,3.9s8.1-1.9,10.9-3.9s5.7-4.1,11.5-4.1s8.7,2.1,11.5,4.1s5.5,3.9,10.9,3.9s8.1-1.9,10.9-3.9s5.7-4.1,11.5-4.1
	s8.7,2.1,11.5,4.1s5.5,3.9,10.9,3.9L111.9,21.4z"/>
<path class="st0" d="M111.9,33.8c-5.8,0-8.7-2.1-11.5-4.1s-5.5-3.9-10.9-3.9s-8.1,1.9-10.9,3.9s-5.7,4.1-11.5,4.1s-8.7-2.1-11.5-4.1
	s-5.5-3.9-10.9-3.9s-8.1,1.9-10.9,3.9s-5.7,4.1-11.5,4.1s-8.7-2.1-11.5-4.1S5.4,25.8,0,25.8v-1c5.8,0,8.7,2.1,11.5,4.1
	s5.5,3.9,10.9,3.9s8.1-1.9,10.9-3.9s5.7-4.1,11.5-4.1s8.7,2.1,11.5,4.1s5.5,3.9,10.9,3.9s8.1-1.9,10.9-3.9s5.7-4.1,11.5-4.1
	s8.7,2.1,11.5,4.1s5.5,3.9,10.9,3.9L111.9,33.8z"/>
</svg>
